<svg width="100" height="100" viewBox="0 0 100 100" fill="none" xmlns="http://www.w3.org/2000/svg">
<path d="M31.054 22.6129C31.6733 22.301 32.2364 21.8518 32.7965 21.4447L48.0335 10.0308C48.5838 9.62039 49.1292 9.19105 49.7202 8.83994C50.7378 8.75709 53.4092 11.2103 54.3303 11.9056L94.4948 41.8436C94.854 42.7961 94.0999 43.4088 93.5606 44.0998L91.7208 46.4332C90.936 47.4328 90.1126 49.0725 88.9047 49.3949C87.9407 49.1248 85.0411 46.5518 83.7889 45.8031L83.7891 85.2822C83.7887 86.8988 83.7227 88.5369 83.7889 90.1506C83.5694 90.4697 83.3292 90.6822 83.0135 90.8977C81.7032 90.8174 80.345 90.8961 79.0282 90.8969L46.0081 90.8977L20.693 90.8992C16.9872 90.9018 16.3134 91.8381 16.3117 88.118L16.312 45.6367C15.0626 46.2381 11.8098 49.3436 10.8504 49.2984C10.1685 49.2662 9.05805 47.4191 8.6434 46.908L6.66639 44.4236C5.18306 42.5795 4.53387 42.557 6.64896 40.9394C7.57797 40.2289 8.51996 39.535 9.46389 38.8445L21.3083 30.0945C21.8493 29.7002 22.4145 29.3326 22.9004 28.8689L22.9046 21.8488C22.9102 20.415 22.2831 18.4035 24.1036 18.3302C25.2819 18.2828 26.4799 18.335 27.6602 18.3359C31.9087 18.3392 31.0504 18.4967 31.054 22.6129ZM49.9331 11.119C47.1915 13.0554 44.5602 15.1486 41.868 17.1524L10.2894 40.7031C9.42336 41.3426 8.55543 41.9607 7.73728 42.6623C8.40203 43.3287 10.6977 46.2404 11.1526 46.9953C11.781 46.4609 12.4647 45.9887 13.1286 45.4996L44.0899 22.3123C44.8602 21.7416 49.4225 18.0477 50.0764 18.1227C52.4061 19.2505 57.193 23.3262 59.4251 24.9867L84.9327 44.0754C86.2042 45.0459 87.4413 46.0855 88.7569 46.9953C89.6559 45.7365 91.1442 43.8361 92.2047 42.6623C91.494 42.065 90.7221 41.5469 89.9778 40.993L52.8102 13.2112C52.3036 12.8323 50.4385 11.1809 49.9331 11.119ZM24.8503 20.2666V27.2623C25.76 26.7963 26.5743 26.0355 27.3973 25.4312C27.9669 24.9982 28.5426 24.4988 29.1524 24.1281V20.2666H24.8503ZM49.9331 20.2666C49.2645 21.1373 47.7389 22.0951 46.8174 22.7768L22.4862 40.9676C17.248 44.909 18.255 42.5412 18.2582 48.9264L18.2585 76.6008C18.259 77.6977 18.3201 78.8125 18.2581 79.9066L23.5637 79.9035C24.6553 79.9035 25.9143 79.5988 26.7825 80.4008C26.8169 81.0857 26.7878 81.7771 26.7844 82.4631L26.7799 86.6504C26.7794 87.4098 26.7481 88.1818 26.7825 88.9397H50.0764H73.0965C73.1284 86.691 72.819 82.6912 73.1208 80.6209C73.3233 79.2316 75.7026 79.6826 76.6827 79.683L81.8366 79.6859L81.8372 48.242C81.8374 46.9119 81.8807 45.5701 81.8366 44.2414C80.9727 43.5707 80.0768 42.941 79.2004 42.2865L52.6557 22.3455C51.7799 21.6889 50.6766 21.0365 49.9331 20.2666ZM79.4883 81.6332H75.0725V88.9397C75.8255 88.9482 76.5784 88.943 77.3313 88.9397H81.8366V81.6332C81.068 81.5926 80.2569 81.5865 79.4883 81.6332ZM21.3102 81.8105C20.2932 81.8102 19.275 81.7998 18.2581 81.8105V88.9397C19.4265 88.9633 20.5963 88.9371 21.7651 88.9397C22.7801 88.9426 23.8403 89.01 24.8503 88.9397C24.8258 86.7697 24.7008 83.9455 24.8503 81.8105C23.671 81.7859 22.4899 81.8131 21.3102 81.8105Z" fill="white"/>
<path d="M44.1911 36.0454C44.1886 34.5298 43.5386 30.9591 45.203 30.5177C47.0964 30.4434 53.0628 30.2753 54.7995 30.5702C56.0911 30.7895 55.8179 32.3765 55.8128 33.3401L55.8075 36.0454C56.37 36.2335 56.9565 36.3698 57.5249 36.5429C65.9153 39.0972 72.413 46.0173 74.9491 54.3249C75.1614 55.0206 75.4583 55.821 75.3341 56.5505C75.3241 56.5642 75.3146 56.578 75.3044 56.5917L75.2532 56.6591C75.0216 56.9677 74.7931 57.0815 74.4444 57.2188C74.1847 57.1587 73.9433 57.0968 73.6966 56.9931C73.1659 55.8522 72.9696 54.4862 72.547 53.2895C69.9892 46.0448 63.7372 40.4073 56.4038 38.2731C53.0581 37.2995 53.7917 37.7458 53.8102 33.7489V32.4702H46.1485C46.1435 33.2782 46.2778 36.9798 46.0108 37.4401C45.779 37.8401 44.112 38.1267 43.5921 38.28C36.1108 40.4845 29.3765 46.569 27.094 54.1306C26.7657 55.2185 26.9358 56.6536 25.6136 56.9931C24.272 56.5675 24.7649 55.344 25.0661 54.3079C27.3751 46.3645 33.312 39.9571 41.0663 37.0106C42.0669 36.6306 43.1304 36.2097 44.1911 36.0454Z" fill="white"/>
<path d="M35.4033 48.3947C34.6102 49.1193 33.0162 51.9051 32.3891 52.0195C31.9365 52.1021 31.2662 51.7896 31.2014 51.2914C31.093 50.458 32.7498 48.4392 33.309 47.7496C37.1332 43.0324 42.5957 40.509 48.5238 39.8918C61.9562 39.1031 72.9137 50.4633 71.3432 64.0283C71.2189 65.1004 71.2979 66.2332 70.1205 66.6511C68.4771 66.3535 69.3613 63.8248 69.4727 62.4025C69.0807 62.3717 63.5106 62.4392 65.3027 60.5875C65.9025 59.9678 68.5857 60.2482 69.4727 60.2133C69.1805 56.4635 67.9799 52.7697 65.6996 49.7498C65.3805 49.3269 65.0244 48.9213 64.7596 48.4611L64.7221 48.3947C63.7059 49.1115 62.7553 50.625 61.6996 51.0611C59.3539 50.451 61.4818 48.7226 62.3701 47.8269L63.2166 46.9953C58.8445 43.9763 57.1131 42.3183 51.1213 41.8435C51.1289 43.315 51.6436 45.2408 50.0764 45.6367C48.4738 45.2541 49.1223 43.3045 49.124 41.8435C44.234 42.0916 40.4596 43.9836 36.7785 46.9953C37.7939 47.8603 40.8902 50.2019 38.3535 51.0611C37.4299 50.6683 36.1988 49.134 35.4033 48.3947Z" fill="white"/>
<path d="M49.1237 57.6586C49.1241 56.601 49.0261 49.7785 49.2173 49.3916C49.3655 49.0916 49.6357 48.9854 49.9327 48.876C50.2919 48.8797 50.5198 48.99 50.8214 49.1672C51.3939 50.0744 51.1247 51.5541 51.1245 52.5754L51.121 57.6586C52.5917 58.4219 52.6712 58.6258 53.5189 60.0096C55.4019 59.9402 59.6038 59.8117 61.4056 60.0551C62.1685 60.158 62.7142 60.9912 62.0782 61.6355C61.5345 62.1867 57.2759 61.9068 56.2739 61.9342C55.3634 61.94 54.4257 61.8699 53.5189 61.9342C52.2497 65.5207 47.5155 65.432 46.6091 61.9996C46.1095 60.108 47.186 58.1162 49.1237 57.6586ZM49.787 59.4848C48.9261 59.6113 48.3284 60.4082 48.448 61.2701C48.5677 62.1318 49.3599 62.7359 50.2226 62.623C51.095 62.509 51.7073 61.7059 51.5864 60.8344C51.4653 59.9631 50.6575 59.357 49.787 59.4848Z" fill="white"/>
<path d="M30.5407 63.818C30.836 64.7693 31.4887 66.4348 30.1438 66.8461C27.744 67.5801 28.7541 58.2031 28.9854 56.9561C29.1414 56.1137 29.1528 55.0453 30.1608 54.8975C31.9713 55.0254 30.9243 57.0195 30.7469 58.0885C30.6346 58.7658 30.5819 59.4418 30.5407 60.126C31.6205 60.1197 32.8073 60.0338 33.8745 60.1773C34.9967 60.3285 34.7858 61.649 34.0155 62.1113C32.8582 62.1699 31.6993 62.1105 30.5407 62.1113C30.5319 62.6945 30.6204 63.2326 30.5407 63.818Z" fill="white"/>
<path d="M45.548 86.8384C44.5178 86.8267 42.5025 86.1589 41.5043 85.8208C33.6846 83.1728 27.3932 76.371 25.1889 68.4331C24.9307 67.5032 24.5898 66.7618 25.6131 66.2604C27.1834 66.1956 26.9828 68.0454 27.3893 69.1376C30.1207 76.4782 36.0041 82.5013 43.7402 84.4386C44.8877 84.7259 47.6572 85.2142 45.548 86.8384Z" fill="white"/>
<path d="M55.019 86.8387C53.8021 86.9739 53.356 85.4049 54.2974 84.9463C54.9019 84.652 55.7175 84.5826 56.3731 84.3928C64.0358 82.1739 70.1229 76.5246 72.6265 68.8625C72.903 68.0162 72.9378 66.6194 73.8894 66.2608C75.4144 66.2532 75.0454 67.6102 74.7276 68.66C71.6964 78.6731 64.7548 84.3373 55.019 86.8387Z" fill="white"/>
<path d="M64.7222 74.1618C65.4177 73.0844 66.1341 72.3315 66.832 71.1116C67.1531 70.5504 67.3408 70.009 67.922 69.6838C68.14 69.6676 68.3519 69.6752 68.5697 69.6838C70.2297 70.6987 67.8795 73.3108 67.0156 74.3918C59.8744 83.3297 46.5125 85.5588 37.1718 78.4909C35.3426 77.1067 30.8183 72.5161 30.8765 70.5373C30.892 70.0162 31.3281 69.6795 31.8369 69.7112C32.6467 69.7612 33.0275 71.0131 33.3785 71.5817C33.9525 72.5121 34.6556 73.3676 35.4035 74.1618C35.8363 73.6627 36.255 73.2289 36.7787 72.8225C37.2381 72.1879 37.7793 71.6108 38.5406 71.3625C41.4474 72.0344 37.4787 74.6655 36.8259 75.5309L36.7787 75.5942C40.7115 78.8147 43.8664 80.3041 49.1242 80.7178C49.0408 79.7149 49.0424 78.3657 49.1242 77.3616C49.7674 76.627 50.8621 76.5188 51.0943 77.693C51.2244 78.3508 51.1058 79.9567 51.1215 80.7178C54.6259 80.6903 61.0177 78.3495 63.2168 75.353C62.1492 74.4528 60.2357 73.2588 60.6685 71.7873C61.7338 70.8094 62.4285 71.8815 63.2158 72.6502C63.7263 73.1487 64.266 73.611 64.7222 74.1618Z" fill="white"/>
</svg>
