<svg width="100" height="100" viewBox="0 0 100 100" fill="none" xmlns="http://www.w3.org/2000/svg">
<path d="M60.0118 26.2001C60.4091 25.0946 60.9929 23.9989 61.4843 22.9292L66.273 12.5353C66.7558 11.4738 67.0429 10.0094 68.2972 9.67269C69.5607 9.60349 78.3132 13.9408 79.8013 14.625L88.948 18.8541C89.6323 19.1766 90.8222 19.5386 91.1511 20.2845C91.8169 21.794 90.0068 24.6595 89.3458 26.0993L85.6991 34.0268C85.0019 35.5415 84.2308 37.0565 83.6417 38.6161C89.1534 39.0214 89.0115 42.2143 89.0138 46.8032L89.0126 53.0761C91.9009 53.0577 94.4519 53.5159 94.5068 57.0616C94.5454 59.5612 94.4859 62.0743 94.4859 64.5757V67.0169C94.4865 71.0876 92.5302 71.5304 89.0126 71.5819L89.0118 81.4973C89.012 82.9204 89.1573 85.6261 88.8655 86.9182C88.1036 90.2938 85.3472 90.4372 82.6458 90.4366L23.3152 90.436L17.4581 90.4374C15.5222 90.4374 13.2035 90.6268 11.352 90.0891C8.47987 89.255 6.16235 86.6268 5.70055 83.6794C5.45795 82.1309 5.61317 80.2358 5.61547 78.6483L5.60766 34.3071C5.59877 28.2491 9.18883 26.1985 14.8014 26.1977L18.7021 26.2001C18.3878 25.1891 16.6599 21.9087 17.1559 21.0333C17.5213 20.3884 18.5053 20.1823 19.1456 19.9393L36.8134 13.0805C37.8839 12.6694 38.9728 12.1381 40.0745 11.8284C41.6958 11.3725 41.8655 12.9253 42.3261 14.0776L46.5587 24.677C46.7529 25.1735 46.9833 25.6802 47.1038 26.2001C51.4046 26.1464 55.7103 26.2184 60.0118 26.2001ZM68.8927 12.1725C67.8564 14.9931 66.3585 17.6676 65.1031 20.397L56.8023 38.6161C57.6175 38.6186 58.4267 38.5589 59.2417 38.6161C59.7732 36.7145 61.457 33.379 62.2964 31.52L66.5484 22.2399C66.7857 21.7333 67.8927 18.9315 68.3249 18.7033C68.9325 18.3823 70.165 19.4693 71.4925 19.018C72.8657 18.5512 72.3339 17.0563 73.8048 16.6822C75.2159 17.0626 78.5689 18.8678 80.1738 19.5331C81.1888 20.0575 82.6175 20.312 82.9513 21.5589C82.6409 22.5059 81.7683 23.1397 82.303 24.2202C82.8073 25.2393 84.2177 25.1057 84.5609 26.2001C84.2099 27.4999 83.1171 29.5671 82.5142 30.8296C81.2954 33.3811 80.0064 36.0417 78.8421 38.6161C79.6398 38.6374 80.4396 38.6216 81.2376 38.6161C81.3277 37.8622 82.4021 35.886 82.7757 35.0731L87.0812 25.6507C87.7251 24.2364 88.5286 22.8202 89.0126 21.3436C84.4769 19.1736 79.7589 17.0119 75.1698 14.9612C73.0841 14.0292 71.0349 12.9723 68.8927 12.1725ZM39.9853 14.2026C38.4433 15.0335 36.4421 15.6498 34.7892 16.2899L21.0726 21.6434C20.5542 21.8432 20.0142 22.0098 19.5122 22.2475C20.9056 25.9678 22.3958 29.6487 23.8628 33.3401L25.2784 36.9591C25.4884 37.502 25.7573 38.0596 25.9171 38.6161C26.6681 38.5889 27.4234 38.5868 28.1745 38.6161C27.3279 36.3888 26.4419 34.1567 25.5396 31.9507C25.2339 31.204 23.6898 28.2489 23.9927 27.5251C24.3572 26.6544 27.1093 26.5559 26.1232 23.8081C25.5298 22.1548 25.6407 21.9639 27.5724 21.5589C28.6841 20.8589 30.0654 20.4891 31.2851 20.0052C32.331 19.5901 34.7038 18.2286 35.6771 18.8027C36.248 19.7184 36.3157 20.7862 37.5737 21.0821C39.7439 21.5927 39.797 19.442 41.0652 22.6552L46.1349 35.3136C46.5743 36.41 47.1173 37.502 47.4997 38.6161H49.5978C48.8032 36.287 47.8009 34.0333 46.9032 31.7434L41.4175 17.7809C41.2558 17.3711 40.0968 14.2997 39.9853 14.2026ZM74.6552 19.5331L74.5804 19.588C72.8648 20.8579 72.329 22.0067 69.5972 21.3382L69.5909 21.3436C68.8876 22.3452 68.4288 23.5833 67.9234 24.6944L65.3222 30.4747C68.9214 29.0257 72.4536 28.9257 75.3972 31.6698C76.6398 32.854 77.2991 33.8196 77.8757 35.444C78.757 32.8874 80.6937 29.611 81.8296 26.9901C80.1089 25.9542 79.4958 24.0987 80.1738 22.2475C78.8116 21.2682 76.2232 20.3253 74.6552 19.5331ZM34.2827 21.1522C32.4089 22.0087 30.3968 22.628 28.564 23.5565L28.5614 23.6003C28.4618 25.4536 28.5575 27.4044 26.4765 28.4751L29.3452 35.5595C29.7837 36.6409 30.1536 37.8055 30.6831 38.8436C31.2232 37.3198 31.1609 36.1112 32.3857 34.7866C34.4007 32.4352 39.3118 30.3093 41.5363 33.3315C41.645 33.2804 41.7515 33.2292 41.856 33.1692H42.7075C41.8591 30.2223 40.1183 26.2261 38.9364 23.3165C37.3552 23.3815 36.1208 23.145 34.9286 22.0387C34.6607 21.7899 34.5355 21.3567 34.2827 21.1522ZM12.9244 28.4751C8.32467 28.587 6.04133 34.1946 9.33922 37.2479C10.9747 38.7622 12.9084 38.6204 14.9814 38.6194L18.4812 38.6161H23.4943C23.2943 37.9137 23.0109 37.2325 22.7491 36.5511L20.3306 30.412C20.0691 29.7596 19.8306 29.1028 19.5122 28.4751C18.9849 28.4356 18.4435 28.4686 17.914 28.472L15.3296 28.4737C14.7137 28.4729 13.4554 28.3794 12.9244 28.4751ZM54.5831 28.4751H48.056C49.213 31.8843 50.7861 35.1491 51.9489 38.5655C52.0484 38.6005 52.1286 38.611 52.2337 38.6161C52.9126 38.6087 53.5919 38.6249 54.2704 38.6161L56.205 34.3268C57.1042 32.3753 58.0327 30.4413 58.9007 28.4751H54.5831ZM69.356 31.6698C65.7679 31.8786 62.5704 34.8399 63.2497 38.6161C65.3193 38.5729 67.7958 38.7778 69.7993 38.6063C70.9019 36.6845 65.7126 37.6257 67.9904 33.6903C68.4585 33.7083 68.9029 33.7712 69.356 33.8905C67.5521 37.2913 71.6452 34.9091 71.4185 38.6161H76.0249C76.0884 34.7507 73.379 31.3512 69.356 31.6698ZM37.732 34.1997C35.3011 34.4721 33.5196 36.2661 33.0644 38.6161H40.698H45.1974C44.1204 36.0423 43.2534 35.3216 40.698 35.444C39.9396 34.5487 38.9566 33.8887 37.732 34.1997ZM7.81209 38.8436C7.81787 39.2102 7.77424 39.572 7.77877 39.9389L7.82576 78.9061C7.82489 80.3305 7.6894 81.8589 7.90145 83.2667C8.61059 87.9749 12.432 88.2354 16.0897 88.2346L79.2003 88.2331C80.9388 88.2331 82.6909 88.2786 84.428 88.2255C86.8952 88.1497 86.7558 85.7411 86.74 83.9671L86.7323 81.4975C86.7159 78.196 86.681 74.8827 86.732 71.5819H73.364L61.3632 71.5843C60.6989 71.5845 60.004 71.6278 59.3507 71.4917C56.0417 70.8028 56.6491 66.6522 56.6554 64.2266C56.6613 61.9968 56.623 59.7639 56.6542 57.5345C56.7152 53.2001 59.2771 53.0688 62.8556 53.0735L86.732 53.0761L86.7347 46.3163C86.7359 41.7753 86.9788 40.8552 82.3948 40.8602L17.369 40.8645C14.0031 40.8671 10.4563 41.3759 7.81209 38.8436ZM87.0788 55.3266C85.2288 55.2888 83.3726 55.3268 81.5216 55.327L64.1605 55.3251C61.7913 55.3241 58.8622 54.5054 58.8905 57.5186L58.9009 64.8137C58.8999 65.8583 58.4296 68.7975 59.7642 69.2364C60.562 69.4985 63.2411 69.3702 64.1843 69.3682L87.6823 69.37C92.6503 69.3718 92.3052 69.685 92.2868 64.2784C92.2794 62.1208 92.3152 59.9606 92.2835 57.8034C92.2331 54.3581 89.9005 55.3319 87.0788 55.3266Z" fill="white"/>
<path d="M72.1033 35.1097C71.1941 35.0808 71.0037 34.0054 71.8484 33.6904C72.784 33.5605 73.0545 34.7737 72.1033 35.1097Z" fill="white"/>
<path d="M37.623 37.238C37.2965 37.2814 36.9971 37.0505 36.9559 36.7236C36.9148 36.3968 37.1475 36.099 37.4746 36.0599C37.7988 36.0212 38.0934 36.2513 38.1342 36.5753C38.175 36.8992 37.9467 37.1953 37.623 37.238Z" fill="white"/>
<path d="M14.149 46.3296C14.3746 46.0058 14.6383 45.7593 15.0048 45.6079C15.4905 45.586 15.9192 45.6786 16.1681 46.1503C16.4833 46.7478 16.3841 53.7194 16.2365 54.1634C16.1097 54.5446 15.8082 54.7153 15.4639 54.8724C13.6465 55.1173 14.1442 52.3372 14.1448 51.2399L14.149 46.3296Z" fill="white"/>
<path d="M66.036 66.3091C63.8485 66.4815 61.938 64.8423 61.7757 62.654C61.6135 60.4659 63.2616 58.563 65.4505 58.411C67.6251 58.2601 69.5128 59.8948 69.6739 62.0687C69.835 64.2425 68.209 66.1378 66.036 66.3091ZM65.5024 60.6714C64.569 60.786 63.9073 61.6386 64.0282 62.5714C64.1491 63.504 65.0061 64.1599 65.938 64.0327C66.861 63.9067 67.5092 63.0595 67.3895 62.1356C67.2698 61.212 66.427 60.5579 65.5024 60.6714Z" fill="white"/>
<path d="M15.4642 68.3053C14.5578 68.4236 14.2121 67.8189 14.1593 67.0439C14.0558 65.5256 13.4936 60.4664 15.005 59.8148C15.5406 59.7961 15.9299 59.9707 16.3085 60.3555C16.4935 61.8601 16.3728 65.5951 16.3012 67.1392C16.2704 67.8049 16.159 68.1076 15.4642 68.3053Z" fill="white"/>
<path d="M14.1492 73.8371C14.4138 73.6291 14.6636 73.415 15.0049 73.3552C15.3796 73.3351 16.0623 73.449 16.2176 73.8544C16.3569 74.2183 16.357 80.3193 16.3234 81.1201C16.2967 81.7539 16.0945 82.0443 15.464 82.2505C13.823 82.364 14.1427 80.5955 14.1463 79.5025L14.1493 76.5421C14.1488 75.7408 14.0334 74.5824 14.1492 73.8371Z" fill="white"/>
<path d="M60.529 82.373L60.4458 82.2913C59.6374 81.5108 59.7032 80.3489 60.8993 80.1573C62.8827 80.0374 66.1612 80.0481 68.1243 80.179C68.9261 80.2325 69.2982 80.5298 69.5911 81.3044C69.3609 81.8306 69.0532 82.2427 68.4519 82.373C68.1167 82.4103 67.747 82.3778 67.4087 82.3772L65.2558 82.3745C63.7376 82.3731 62.0249 82.4548 60.529 82.373Z" fill="white"/>
<path d="M73.1523 81.3998C73.2705 80.417 73.6881 80.1773 74.6551 80.1572C75.951 80.1558 81.3861 80.0219 82.1994 80.2941C83.0207 80.5691 82.91 81.3578 82.6834 82.0314C82.242 82.3515 81.7598 82.3463 81.2375 82.3728L76.6781 82.3611C75.7217 82.366 74.7604 82.4133 73.8047 82.3728C73.4658 82.0904 73.3059 81.8068 73.1523 81.3998Z" fill="white"/>
<path d="M28.8945 82.3732C28.1138 82.48 27.2613 82.374 26.4687 82.3773L23.1587 82.3683C22.4898 82.3697 21.5613 82.54 20.941 82.222C20.0394 81.7595 20.2886 80.4275 21.2062 80.1576L26.2007 80.1599C26.9914 80.1609 27.8087 80.1162 28.5958 80.1648C29.9996 80.2513 30.0816 81.9658 28.8945 82.3732Z" fill="white"/>
<path d="M42.2044 82.3731C41.1069 82.5208 34.6434 82.4052 34.2713 82.2514C33.2633 81.8348 33.6167 80.5044 34.477 80.1575L39.2516 80.1557C40.3016 80.1559 43.4723 79.6721 42.9104 81.6186C42.7946 82.0194 42.5534 82.1858 42.2044 82.3731Z" fill="white"/>
<path d="M47.1041 82.0319C46.5192 81.3133 46.5182 80.441 47.5 80.1576L52.4383 80.1565C53.8692 80.1565 55.834 79.6686 56.2125 81.3047C56.0906 81.8074 55.8264 82.1424 55.3547 82.3733C54.5701 82.3098 53.766 82.3694 52.9781 82.3721L48.3836 82.3795C47.9068 82.3795 47.4592 82.3889 47.1041 82.0319Z" fill="white"/>
</svg>
