<svg width="100" height="100" viewBox="0 0 100 100" fill="none" xmlns="http://www.w3.org/2000/svg">
<path d="M65.7312 29.5058C67.1326 28.1354 69.573 26.3841 71.1457 25.1503L74.7568 22.3198C75.6719 21.5964 76.7728 20.4768 77.8709 20.0718C78.7998 19.9657 79.6588 20.9669 80.3318 21.4872L87.5066 27.1952C88.4619 27.9509 89.8125 28.7142 90.4787 29.7597V51.0397C90.2418 51.3153 90.0519 51.4839 89.6721 51.5052C88.6021 51.5651 88.9344 48.9977 88.9336 48.3573L88.9381 30.32C87.9301 29.6561 87.0154 28.7946 86.0711 28.0423L80.231 23.4003C79.5525 22.8261 78.8434 22.2343 78.0629 21.805C76.9121 22.4604 75.883 23.4032 74.8564 24.2382L68.7418 29.121C68.2537 29.5142 67.7201 29.8767 67.2777 30.32L67.2773 41.4518C67.2769 43.5526 67.2457 45.6573 67.2777 47.7577C66.7084 48.255 66.301 48.2821 65.7312 47.7577C65.7996 46.2563 65.7318 44.7231 65.7316 43.2179L65.7281 31.1901C65.7234 30.6309 65.6812 30.063 65.7312 29.5058Z" fill="white"/>
<path d="M9.4695 29.7594C9.82575 29.2991 10.3724 28.9746 10.8268 28.6157L13.6466 26.4053C15.2299 25.1612 20.4773 20.5975 21.9281 20.0715C22.7154 20.0317 29.0672 25.3131 30.1007 26.1227L32.725 28.1623C34.9293 29.8838 34.4718 29.4063 34.473 32.1651L34.4732 43.9088C34.4734 44.5655 34.6804 47.4514 34.3457 47.8641C33.8488 48.4766 32.98 48.1453 32.8992 47.4123C32.8328 46.8112 32.8797 46.1617 32.8793 45.5541L32.8789 30.3198C31.8597 29.559 30.8812 28.7403 29.8773 27.959L25.0556 24.2483C24.0152 23.4395 23.0115 22.5533 21.9281 21.8047C21.2437 22.6069 19.1913 24.0119 18.2481 24.7498L11.0587 30.4846C11.1686 33.8836 11.0389 37.2971 11.0538 40.6981L11.0575 45.192C11.058 45.8946 11.1182 46.6424 11.0587 47.3395C10.9998 48.0305 10.2502 48.4787 9.71231 47.8875C9.22489 47.3516 9.4677 44.8483 9.46776 44.1229L9.4726 32.6666C9.47223 31.7 9.42366 30.7241 9.4695 29.7594Z" fill="white"/>
<path d="M37.751 29.5058C38.6186 28.5989 39.7801 27.8767 40.7695 27.0991L47.4711 21.8741C48.1182 21.3778 49.2297 20.353 49.9371 20.0718C50.7791 20.1708 51.5584 21.0771 52.1959 21.5745L59.0881 27.0304C60.1031 27.8337 61.5654 28.6798 62.2906 29.7597C62.3695 30.3776 62.2914 31.0063 62.291 31.6267L62.2896 43.6485C62.2896 44.3499 62.5193 47.3407 62.1301 47.7966C61.5449 48.4815 60.8334 47.9259 60.7561 47.2097C60.6885 46.5821 60.7365 45.906 60.7393 45.2731L60.7424 30.32C59.7963 29.6515 58.8939 28.9077 57.9852 28.1903L52.6969 23.9653C52.141 23.5212 50.5707 22.1587 50.0527 21.9015L49.9371 21.9522C49.21 22.4364 48.5334 23.0194 47.8475 23.5599L44.3496 26.3255C42.6746 27.6581 40.901 28.8915 39.307 30.32C39.3529 30.9728 39.3084 31.6528 39.3082 32.3093L39.3072 36.5126C39.3066 40.3382 39.3535 44.1692 39.307 47.9938C38.825 48.6978 38.2402 48.6196 37.751 47.9938V29.5058Z" fill="white"/>
<path d="M43.7324 33.7254C44.6 32.9291 45.5643 32.2004 46.4633 31.4348L48.4367 29.773C48.9168 29.3699 49.3307 28.907 49.9369 28.7057C50.7783 28.5182 56.258 33.6973 56.3029 33.8127C56.4348 34.1525 56.451 44.483 56.3416 44.8139C56.2348 45.1371 56.0309 45.2355 55.7346 45.3726C55.2053 45.4664 50.8111 45.4433 50.1707 45.3726C49.6899 45.3724 44.019 45.417 43.9858 45.4039C43.2424 45.1135 43.6012 40.0906 43.6014 39.1598C43.6018 37.9482 43.3623 34.7107 43.7324 33.7254ZM50.1707 30.4848C48.6992 31.3891 46.6184 33.4016 45.2143 34.5484V37.8223C46.7072 37.9084 48.4233 37.8215 49.9369 37.8223H54.7869V34.5484C53.5651 33.3178 51.0725 31.6687 50.1707 30.4848ZM46.2395 39.4037C45.8983 39.4068 45.5553 39.417 45.2143 39.4037V43.8023H48.2664H49.2666V39.4037H46.2395ZM50.7813 39.4037C50.8861 40.1748 50.8568 42.9308 50.7813 43.8023C52.1147 43.8019 53.4547 43.766 54.7869 43.8023C54.8512 43.2707 54.7992 42.6869 54.7938 42.1494L54.7869 39.4037C53.4561 39.4558 52.1143 39.3932 50.7813 39.4037Z" fill="white"/>
<path d="M78.2834 45.3726C77.1398 45.3392 72.9795 45.5313 72.1828 45.2493C71.0324 44.8421 71.6289 33.9235 71.7004 33.7761C71.9187 33.3255 77.0248 28.9983 77.8703 28.7056C78.7881 28.7548 80.0492 30.1688 80.7285 30.73L83.041 32.6638C84.6644 34.0489 84.3031 33.7769 84.3019 35.9798L84.3 42.945C84.3012 43.5915 84.3457 44.2431 84.2996 44.888C84.1254 45.0784 83.9367 45.2218 83.7295 45.3726H78.2834ZM78.0623 30.4847C77.0082 31.1288 73.9225 33.7202 73.2416 34.5483C73.2096 35.6394 73.2465 36.7308 73.2416 37.8222C74.8387 37.8936 76.4621 37.82 78.0623 37.8222C79.6203 37.82 81.2078 37.7536 82.7623 37.8222V34.5483C81.2711 33.1118 79.5312 31.9407 78.0623 30.4847ZM73.2416 39.4036C73.2596 40.8692 73.243 42.3366 73.2416 43.8022C74.5742 43.7616 75.9137 43.8065 77.2475 43.8022V39.4036H73.2416ZM78.8322 39.4036C78.7762 40.8647 78.8367 42.3392 78.8322 43.8022H82.7623V39.4036C81.4535 39.4028 80.1404 39.3786 78.8322 39.4036Z" fill="white"/>
<path d="M15.7391 33.9649C16.1257 33.4522 21.0222 29.2143 21.6453 28.8665C22.3929 28.7368 22.8275 29.322 23.3581 29.7614C24.7232 30.8919 26.6644 32.3724 27.8671 33.5716C28.2361 33.9393 28.2242 34.1171 28.2259 34.6128L28.2236 41.4755C28.2242 42.1036 28.4806 44.8388 28.0204 45.2007C27.6206 45.5151 23.1999 45.3737 22.404 45.3727L18.2725 45.3751C17.5372 45.3753 15.9235 45.7556 15.777 44.7182C15.6425 43.7659 15.7379 42.1626 15.738 41.127L15.7391 33.9649ZM21.9288 30.6522C20.4783 31.7624 18.6599 33.3772 17.3094 34.6407V37.8223C18.9358 37.8516 20.5658 37.821 22.1927 37.8223C23.6812 37.8216 25.174 37.7958 26.6619 37.8223C26.7107 36.7475 26.704 35.6243 26.6619 34.5485C25.9929 34.0972 22.1454 30.6845 21.9288 30.6522ZM22.7085 39.4038V43.8024H26.6619V39.4038C25.3501 39.3528 24.0224 39.4056 22.7085 39.4038ZM17.3094 39.4038V43.8024H21.1242C21.1747 43.7149 21.124 39.9114 21.1242 39.4038C19.8591 39.3632 18.5753 39.3911 17.3094 39.4038Z" fill="white"/>
<path d="M6.74777 50.7608C7.32758 49.9234 10.1758 50.2717 11.2047 50.2721L37.8788 50.2734L63.4419 50.2733C64.4364 50.2731 67.1784 49.7938 67.2595 50.8965C67.5685 55.1043 67.1786 59.9871 67.2772 64.3039C69.1431 64.3055 71.0222 64.2465 72.8858 64.3039L72.8849 57.3262C72.8833 55.0947 72.3515 51.9924 75.5185 51.8018C76.1622 51.7629 76.8276 51.8526 77.4749 51.8559L82.4087 51.8547C82.8868 51.8539 85.07 51.766 85.3362 51.8424C86.0507 52.0475 93.2927 58.7879 94.5558 59.9133C94.5868 60.5791 94.5454 61.2666 94.5509 61.9356L94.5628 71.7164C94.6028 74.9787 95.0747 75.0223 91.8772 75.0272L88.5487 75.0231C87.9366 75.0197 87.3167 74.9805 86.7061 75.0195L86.6378 75.0242C86.3517 81.2322 77.1708 81.9432 76.2173 75.0242C75.1796 74.9852 74.1269 75.0227 73.0874 75.0231L66.7845 75.0242H34.472C34.269 81.0875 25.4837 81.9102 24.3851 75.2758H23.7843C22.7655 81.9736 13.6805 81.1404 13.5129 75.0242C12.0155 74.882 6.45281 75.3232 5.55265 74.7649C5.18006 74.2108 5.26279 70.8949 5.56658 70.5535C5.97826 70.0906 9.0523 70.2613 9.74445 70.2637C9.75543 69.6697 9.74969 69.0758 9.74445 68.4818C9.15265 68.4707 7.3223 68.6289 6.92392 68.2637C6.56724 67.9365 6.74683 62.3721 6.7467 61.6076L6.74777 50.7608ZM53.0321 51.8533H52.3429V58.1791H57.6413H58.295V51.8533C56.5413 51.833 54.7862 51.8547 53.0321 51.8533ZM10.4777 51.8533H8.34931V66.9096C9.33937 66.9522 10.3419 66.9102 11.3337 66.9098L35.6942 66.9096V61.1817V51.8533C32.479 51.8897 28.8741 51.9854 25.6739 51.8533L25.6768 56.5824C25.6768 57.282 26.0452 59.5412 25.0343 59.6875C23.5071 59.9082 19.37 59.8213 17.75 59.7326C16.2087 59.6481 16.7025 57.8135 16.7028 56.5422L16.7029 51.8533L12.6158 51.8559C11.906 51.8565 11.1861 51.8854 10.4777 51.8533ZM18.2645 51.8533V58.1791C20.1942 58.1547 22.1438 58.1346 24.0731 58.1791V51.8533C22.1435 51.9266 20.1972 51.8277 18.2645 51.8533ZM37.2872 51.8533V66.9096H65.7308C65.6761 64.2914 65.731 61.6613 65.7308 59.0422L65.7284 54.0992C65.7265 53.3744 65.6382 52.6059 65.7267 51.8891L65.7308 51.8533H59.8618L59.8657 56.5754C59.8673 59.6066 60.4573 59.7533 57.2833 59.7467L47.7405 59.7424C47.1304 59.7424 44.0811 59.9395 43.6876 59.5397C43.2333 59.0781 43.6024 58.0774 43.606 57.5084L43.5993 53.6897C43.5942 53.069 43.4936 52.4725 43.604 51.8533H37.2872ZM45.02 51.8533V58.1791C46.9392 58.1791 48.8622 58.1561 50.7811 58.1791V51.8533H45.02ZM75.57 53.3209C73.9571 53.6211 74.4567 55.3211 74.4606 56.5426L74.4624 61.1817H91.9675H93.0132V60.5848C90.3261 58.3817 87.4415 55.6992 84.8706 53.3209C81.7739 53.3193 78.6651 53.2568 75.57 53.3209ZM74.4624 62.744C74.3919 62.9074 74.3768 69.1615 74.4624 70.2637L77.5128 70.2688C79.3229 70.2801 80.3044 69.6568 81.4776 69.6635C82.571 69.6695 83.3177 70.2664 84.2007 70.3111C84.7261 70.3379 85.2638 70.2537 85.7923 70.257L92.1895 70.2637C92.4628 70.2652 92.7405 70.2764 93.0132 70.2637C93.0218 67.7576 92.9876 65.2498 93.0132 62.744L80.5802 62.7432C78.5489 62.743 76.4892 62.6649 74.4624 62.744ZM67.2772 65.8686C67.228 66.5854 67.2843 67.3018 67.2772 68.0191C67.1308 68.2025 66.9755 68.3475 66.7845 68.4818H64.111V70.2637H69.7019H72.8858V65.8686H67.2772ZM11.3094 68.4818C11.2736 69.0736 11.2998 69.6711 11.3094 70.2637C12.7728 70.2631 14.7587 70.4131 16.1751 70.2748C17.0722 70.1871 17.7452 69.7678 18.7777 69.7674C19.5481 69.7672 20.1895 70.1469 20.9278 70.2276C22.5479 70.4047 25.1903 70.292 26.8544 70.2531C27.7778 70.2317 28.5995 69.758 29.5497 69.7529C30.3716 69.7484 31.0544 70.1727 31.8479 70.244C32.4493 70.2981 33.0729 70.2672 33.6769 70.267L36.9749 70.2637C37.2761 70.2604 37.5776 70.2541 37.8788 70.2637C37.8782 69.6701 37.894 69.0752 37.8788 68.4818L14.3217 68.4811C13.3201 68.4799 12.3097 68.4485 11.3094 68.4818ZM39.7311 68.4818C39.1782 68.5541 39.4587 69.65 39.4513 70.2637H62.4962C62.5706 70.1719 62.4921 68.7451 62.4962 68.4818H39.7311ZM81.052 71.3143C79.0937 71.527 77.6825 73.2924 77.9067 75.2494C78.131 77.2065 79.9048 78.607 81.8604 78.3715C83.7997 78.1377 85.1862 76.3817 84.964 74.441C84.7417 72.5004 82.9938 71.1033 81.052 71.3143ZM18.2879 71.3783C16.3441 71.567 14.9212 73.2955 15.1097 75.2393C15.2983 77.183 17.0268 78.6061 18.9706 78.4174C20.9144 78.2289 22.3374 76.5004 22.1487 74.5567C21.9602 72.6127 20.2317 71.1899 18.2879 71.3783ZM28.9169 71.4111C26.9964 71.7027 25.6794 73.5006 25.9804 75.4197C26.2811 77.3387 28.0852 78.6471 30.0028 78.3371C31.9075 78.0291 33.2052 76.2399 32.9063 74.3338C32.6075 72.4275 30.8245 71.1213 28.9169 71.4111ZM22.7079 71.8272C22.9952 72.3838 23.2694 72.8465 23.4229 73.4629C23.822 73.4266 24.2001 73.3731 24.5954 73.4629L24.821 72.9625C24.9632 72.5598 25.1083 72.184 25.3472 71.8272C24.4737 71.8352 23.5792 71.8752 22.7079 71.8272ZM33.6106 71.8272C33.7028 72.399 34.1616 72.8961 34.3296 73.4629C39.0106 73.3916 43.704 73.4627 48.3866 73.4627L76.5323 73.4629L76.7032 72.9625C76.8624 72.5707 77.0706 72.2096 77.2476 71.8272C76.131 71.8947 75.0126 71.8293 73.8948 71.8277L37.3165 71.8262C36.088 71.8252 34.8354 71.7701 33.6106 71.8272ZM90.4782 71.8272C88.9267 71.8272 87.1993 71.9186 85.6679 71.8272C85.9561 72.3604 86.2427 72.8983 86.4657 73.4629H88.2565C89.8395 73.4623 91.4311 73.4254 93.0132 73.4629C93.0118 72.9178 93.0052 72.3721 93.0132 71.8272H90.4782ZM7.42332 71.8272C6.65377 71.9518 6.92668 72.6047 6.95859 73.4629C7.62156 73.4627 13.3781 73.541 13.6254 73.4438C13.6931 73.3332 13.7509 73.2297 13.8023 73.1102C13.9942 72.6699 14.2216 72.2299 14.4843 71.8272L9.58902 71.8299C8.89174 71.8311 8.10783 71.9197 7.42332 71.8272Z" fill="white"/>
<path d="M29.4244 75.6582C28.1637 75.5734 28.1758 74.1469 29.4244 73.9697C30.6229 74.0057 30.5342 75.5338 29.4244 75.6582Z" fill="white"/>
<path d="M18.9646 75.6584C17.698 75.8172 17.2873 74.6682 18.265 73.97C19.4686 73.9119 20.0485 75.025 18.9646 75.6584Z" fill="white"/>
<path d="M80.7146 74.8537C80.6974 74.4478 80.9783 74.0896 81.3765 74.0091C81.822 73.9193 82.2566 74.206 82.349 74.6511C82.4414 75.0961 82.1568 75.5322 81.7123 75.6269C81.4744 75.6777 81.2263 75.6211 81.034 75.472C80.8416 75.323 80.7248 75.0968 80.7146 74.8537Z" fill="white"/>
</svg>
