<svg width="150" height="150" viewBox="0 0 150 150" fill="none" xmlns="http://www.w3.org/2000/svg">
<circle cx="75" cy="75" r="75" fill="#666666"/>
<circle cx="75" cy="75" r="72.5" stroke="white" stroke-opacity="0.5" stroke-width="5"/>
<path d="M40.7726 73.584L35.6016 73.5865C34.6786 73.5896 33.6397 73.6863 32.7288 73.5379C30.9982 73.2562 29.8878 71.007 30.9855 69.5412C31.544 68.7955 33.4925 67.2797 34.2886 66.5455C38.587 62.5822 42.9705 58.7148 47.3362 54.8262L69.571 34.7425C70.7249 33.6979 73.2857 30.9827 74.7937 30.7774C76.2538 30.6306 77.3093 32.0118 78.29 32.8885L93.754 46.776C93.7933 46.1754 93.7597 45.573 93.7566 44.9717L93.7501 40.4706C93.7491 38.2354 93.1993 37.0218 95.9509 37.0941C98.8025 37.1689 101.661 37.0763 104.514 37.1087C106.625 37.1326 106.036 39.6796 106.016 41.2543C105.944 46.7633 106.088 52.2736 106.007 57.783C108.4 60.2455 111.838 63.1236 114.445 65.4107C115.899 66.6865 117.447 67.9117 118.834 69.2592C120.386 70.7682 119.574 73.0762 117.675 73.4973C116.738 73.7053 115.602 73.5875 114.638 73.5875L109.277 73.584L109.279 112.909C109.279 114.541 109.363 116.225 109.262 117.852C109.15 119.67 107.1 119.144 105.687 119.143L85.437 119.141L43.5879 119.139C40.9088 119.119 40.769 119.096 40.7705 116.132L40.7726 73.584ZM75.0624 33.2993C74.2423 33.8893 73.496 34.5984 72.7396 35.2678L35.78 68.5853C34.8774 69.3818 33.9209 70.1502 33.1131 71.0451C33.8337 71.1631 34.6493 71.0492 35.3839 71.0473L40.5631 71.0451C41.5223 70.4998 42.9567 69.0074 43.8283 68.2096L71.5187 43.3927C72.4124 42.6011 73.8769 40.8536 75.0624 40.6857C75.9972 40.9166 82.353 46.9762 83.3618 47.8744L103.689 66.2525C104.28 66.7861 108.56 70.8139 108.949 70.9668C109.225 71.0756 115.926 71.1701 117.009 71.0451C116.131 70.1928 115.158 69.4174 114.245 68.6004L78.6851 36.5507C78.3435 36.2454 75.0919 33.3118 75.0624 33.2993ZM96.6075 39.5998L96.4146 39.64C96.2515 39.9195 96.3448 48.0045 96.338 49.0519C98.5415 51.3391 101.128 53.2326 103.368 55.4855L103.446 55.5363C103.568 55.2314 103.494 41.213 103.494 39.5998H96.6075ZM74.9191 43.7538C73.8038 44.8191 72.6095 45.8121 71.4513 46.8305L45.1833 70.4053C44.6601 70.884 43.5927 71.7228 43.2554 72.3127L43.2605 72.3094C43.2161 73.9607 43.2607 75.6232 43.2608 77.276L43.2605 116.651H75.0624H106.787V72.5434C105.749 71.4672 104.532 70.5211 103.435 69.4965C99.9978 66.2869 96.5068 63.1394 93.021 59.9832L84.14 52.0039C81.1023 49.2305 78.0931 46.3689 74.9191 43.7538Z" fill="white"/>
<path d="M70.5106 68.9714C70.5346 67.9759 70.2868 64.0583 70.9352 63.3622C71.3584 62.9079 73.5057 63.0609 74.1704 63.062C75.0799 63.0614 78.4069 62.9136 78.9834 63.282C79.9424 63.8946 79.287 67.6905 79.5387 68.9165C79.7223 69.0456 81.5395 69.5415 81.9813 69.7029C83.176 70.1394 84.369 70.6995 85.4368 71.3911C86.0801 70.6888 88.52 67.9923 89.2749 67.7657C90.5059 67.3962 92.433 70.0278 93.2586 70.8466C95.1223 72.6944 96.678 73.0581 94.5028 75.1976C93.6502 76.0359 92.6098 76.8876 91.9723 77.9048C93.2817 79.6585 94.1772 82.1437 94.625 84.2821C96.0151 84.3675 100.465 83.6735 100.631 85.2739C100.727 86.2042 100.723 91.6318 100.575 92.1958C100.479 92.5583 100.203 92.7427 99.9 92.9212H94.625C93.8219 94.2685 93.1151 96.5788 92.1631 98.3212C92.7885 98.8167 95.854 101.909 95.9967 102.492C95.6594 103.585 93.5133 105.257 92.6702 106.073C91.6163 107.094 90.5278 108.816 88.8624 107.802C88.0762 107.324 86.4565 105.672 85.8872 104.927C83.5311 106.044 82.3204 106.838 79.6911 107.623L79.6973 109.463C79.7028 112.908 79.7188 113.43 76.2084 113.403L73.3844 113.408C70.8563 113.429 70.5038 113.632 70.5075 110.724L70.5106 107.623C68.0629 106.622 66.7157 106.46 64.1909 104.927C63.2817 105.728 62.4741 106.653 61.553 107.437C59.8379 108.896 58.9077 107.532 57.7088 106.375C56.7129 105.414 54.3086 103.726 54.4946 102.304C54.5823 101.634 57.4452 98.8032 58.0666 98.3212C57.0375 96.7105 56.1536 94.7966 55.7629 92.9212C54.667 93.09 52.4942 92.9003 51.2325 92.9624C49.8006 93.0331 49.4262 92.3929 49.395 91.0257C49.3666 89.7868 49.3934 88.5437 49.3877 87.3042C49.3729 84.115 49.0227 83.9343 52.7082 83.9337L55.5936 83.9359C56.269 81.5517 56.8643 80.0812 58.0666 77.9048C57.1495 76.9335 53.8469 74.4923 54.5879 73.2054C55.0338 72.431 59.2893 68.0278 60.5026 67.7027C61.4506 67.9542 63.8565 70.6265 64.6272 71.3911C66.6897 70.2585 68.2186 69.5501 70.5106 68.9714ZM72.9495 65.5737C72.9493 66.9114 73.109 69.2837 72.9495 70.5202C72.4022 71.4054 71.1961 71.3737 70.2764 71.6275C68.994 71.9814 67.7622 72.5212 66.5782 73.1218C65.8866 73.4728 64.7922 74.6155 63.968 74.079C63.211 73.5864 61.1985 71.4941 60.5026 70.7722C59.5694 71.8575 58.3008 72.7066 57.4463 73.837C58.0915 74.3626 60.9077 77.0429 60.9899 77.6327C61.0891 78.3437 60.2022 79.1611 59.8469 79.7466C58.8291 81.4255 57.9311 85.5331 57.4825 86.0769C56.967 86.7017 52.837 86.3525 51.9282 86.3767V90.4833C53.386 90.6939 56.526 90.1706 57.636 90.7605C58.4075 91.9386 58.6149 94.581 59.9135 96.6335C60.2436 97.1552 60.9719 98.0224 60.8473 98.6675C60.6952 99.4556 58.1655 101.427 57.4463 102.571C58.2618 103.66 59.3989 104.449 60.2497 105.493C60.7354 104.819 63.201 102.162 63.9303 102.013C64.604 101.875 65.3659 102.668 65.8766 103.005C67.0614 103.787 68.3934 104.396 69.7598 104.778C70.4747 104.978 72.1493 105.156 72.6661 105.575C73.2329 106.035 72.975 110.231 72.9495 110.987C74.1372 111.007 75.3256 110.985 76.5135 110.987H77.2489L77.2444 107.947C77.2434 105.555 76.9383 105.725 79.3036 105.115C80.8243 104.722 82.3536 104.117 83.7198 103.343C84.445 102.933 85.0727 102.405 85.8872 102.173C86.9707 102.453 89.1665 104.684 89.7848 105.493C90.8053 104.563 91.6948 103.469 92.7303 102.571C91.8725 101.453 89.9913 99.9029 89.4579 99.0439C88.9483 98.2236 89.894 97.3359 90.2807 96.6923C90.9987 95.4976 91.5315 94.1392 91.9221 92.8077C92.1225 92.1247 92.1959 91.3907 92.5409 90.7605C93.2766 90.3296 94.0881 90.4745 94.9125 90.4771L98.1471 90.4833C98.1495 89.2187 98.203 87.9329 98.1471 86.6704H93.0602C92.1938 85.9134 92.3077 85.1446 92.0491 84.0818C91.6623 82.4923 91.0125 80.787 90.0979 79.4112C89.4795 78.481 88.6362 77.8023 89.5739 76.7515C90.5301 75.6798 91.6879 74.7415 92.5409 73.5839C91.5877 72.6831 90.5885 71.565 89.5676 70.7722L89.5 70.8296C88.6625 71.5464 86.8141 73.7445 86.1229 74.1179C85.3305 74.5458 84.3399 73.5874 83.7038 73.2378C82.3987 72.5204 80.9604 71.8845 79.5116 71.5476C78.835 71.3903 77.7237 71.3601 77.2803 70.77C76.9172 70.2872 77.0262 66.4144 77.0506 65.5737C75.685 65.5736 74.3147 65.5482 72.9495 65.5737Z" fill="white"/>
<path d="M76.2008 102.35C68.4373 102.993 61.6211 97.2239 60.9735 89.4608C60.3258 81.6977 66.092 74.8785 73.8547 74.227C81.6231 73.575 88.4481 79.3459 89.0961 87.1147C89.7442 94.8832 83.9697 101.705 76.2008 102.35ZM73.993 76.7231C67.5879 77.3008 62.8656 82.9643 63.4487 89.3688C64.0317 95.7735 69.699 100.491 76.1031 99.9026C82.4996 99.3149 87.2104 93.6557 86.6281 87.2586C86.0457 80.8616 80.3904 76.1461 73.993 76.7231Z" fill="white"/>
<path d="M72.9498 90.483C71.8981 90.4789 68.3391 90.6459 67.6221 90.3693C65.8785 89.6972 68.8098 86.6506 69.2653 86.0609L72.3557 81.9797C73.0526 81.0582 73.9598 79.2785 75.0625 78.857C75.6287 78.8396 75.9893 78.9668 76.3848 79.4041C76.6315 80.4879 76.5891 83.4074 76.5139 84.6185C77.4698 84.6781 81.975 84.4447 82.4723 84.79C83.8186 85.725 81.3172 88.23 80.7664 88.982C78.8239 91.6343 76.6399 94.3369 74.7938 97.0138C74.2854 97.2816 73.8405 97.2582 73.3121 97.0138C72.7864 96.1291 72.9434 95.1412 72.9446 94.1525L72.9498 90.483ZM74.1707 83.6769C73.0725 85.1123 72.0067 86.5693 70.8916 87.9924C71.8614 87.9863 74.4287 87.6377 75.1405 88.3836C75.8449 89.1218 75.1041 92.6701 75.7221 91.6972C76.9041 90.1578 78.0012 88.5763 79.1467 87.0123C78.3793 87.0937 76.1028 87.0834 75.3336 87.0176C73.5891 86.8679 74.326 84.8463 74.1707 83.6769Z" fill="white"/>
</svg>
