<svg width="150" height="150" viewBox="0 0 150 150" fill="none" xmlns="http://www.w3.org/2000/svg">
<circle cx="75" cy="75" r="75" fill="#666666"/>
<circle cx="75" cy="75" r="72.5" stroke="white" stroke-opacity="0.5" stroke-width="5"/>
<path d="M92.1896 53.2844L92.1864 50.9885C92.1829 48.4794 92.3726 46.6163 95.3157 46.3745L95.3706 46.3731C97.0673 46.3481 98.7671 46.376 100.464 46.3735C102.707 46.3702 105.849 45.8309 106.634 48.6698C106.897 49.6192 106.764 52.212 106.762 53.2844L111.796 53.2813C113.184 53.2811 114.878 53.1374 116.208 53.4948C118.269 54.0493 119.54 56.0739 119.581 58.1387C119.638 60.9526 119.579 63.7801 119.579 66.5952L119.582 91.7852C119.583 94.3977 119.982 96.9288 117.993 98.9774C116.09 100.937 112.865 100.434 110.352 100.458C110.354 101.07 110.486 103.803 110.199 104.206C109.908 104.613 108.57 104.414 108.136 104.409L100.682 104.408C96.4483 104.412 96.9814 105.073 97.022 100.458H52.905C52.8892 101.552 52.9202 102.647 52.905 103.74C52.7286 103.974 52.5517 104.138 52.3091 104.305C51.388 104.249 50.4526 104.302 49.5292 104.303L43.921 104.305C42.7129 104.306 40.5605 104.6 39.5034 104.058C39.4509 103.621 39.4928 103.154 39.4971 102.713L39.5034 100.458L36.7822 100.457C31.0711 100.4 30.3349 97.6719 30.3474 92.5538L30.3522 62.4188C30.3478 59.1046 29.5402 54.4899 33.8289 53.451C35.9026 52.9487 40.9349 53.3796 43.3115 53.2844C43.3176 49.6798 42.3959 46.3995 47.3132 46.3758L51.9042 46.3735C56.145 46.3715 57.9249 46.0005 57.9146 50.8897L57.9103 53.2844L70.5964 53.2842C72.7142 53.2842 74.8362 53.3182 76.9532 53.2844C76.1648 52.3255 74.3706 50.7266 73.8851 49.7473C74.2704 49.2717 74.7735 48.8583 75.2274 48.4469C75.7112 48.7856 76.1022 49.3253 76.4983 49.7641L78.6911 52.1717C79.0206 52.5393 79.3136 52.936 79.6644 53.2844H92.1896ZM46.0905 48.4469C45.7245 48.5655 45.5901 48.8028 45.4105 49.1266C45.4122 50.5001 45.4948 51.9163 45.4105 53.2844H55.3464H55.9069C55.9192 47.8747 56.681 48.4421 51.9132 48.444L46.0905 48.4469ZM94.9157 48.4469C94.579 48.5799 94.4513 48.8348 94.2642 49.1266V53.2844C95.3544 53.3163 96.4499 53.2848 97.5409 53.2844H104.077H104.737L104.742 50.9024C104.746 48.5044 104.624 48.4411 102.454 48.4423L96.6886 48.4436C96.1302 48.4421 95.5567 48.4094 95.0001 48.4417L94.9157 48.4469ZM37.0149 55.4044C31.3811 55.4204 32.4211 57.137 32.4205 61.8167L32.4217 86.3262C32.4217 89.1167 32.3937 91.9102 32.4231 94.7003C32.464 98.5923 35.4653 98.4012 38.3518 98.3999L113.168 98.3987C116.365 98.2952 117.533 97.5087 117.534 94.2094L117.53 67.4788C117.53 64.3448 117.592 61.1964 117.487 58.0643C117.382 54.9149 114.482 55.3987 112.263 55.4049L37.0149 55.4044ZM41.8048 100.458L41.6603 100.49C41.5092 100.801 41.6451 101.762 41.6256 102.162H50.8306L50.894 102.132C50.8601 101.571 50.8319 101.021 50.8306 100.458C47.8259 100.457 44.8079 100.394 41.8048 100.458ZM105.297 100.458C103.284 100.46 101.12 100.541 99.1249 100.458C99.1271 101.074 99.138 101.691 99.1249 102.307H102.161H108.303C108.304 101.692 108.319 101.073 108.303 100.458H105.297Z" fill="white"/>
<path d="M37.0148 59.9768C37.2715 59.6238 37.5252 59.5022 37.9591 59.4488C40.0946 59.4063 42.2397 59.4479 44.3763 59.4485L106.863 59.4487C108.897 59.4488 110.952 59.5131 112.985 59.4488L112.984 89.4992C112.984 90.6424 113.563 94.2608 112.122 94.334C110.115 94.2533 108.09 94.3338 106.081 94.3348L40.3071 94.3334C36.2806 94.3188 37.0153 94.3492 37.0143 90.4588L37.0162 67.5053C37.014 64.9979 37.0605 62.483 37.0148 59.9768ZM39.102 61.5346L39.1011 89.2135C39.101 90.2129 39.0689 91.2199 39.102 92.2182H110.73L110.84 92.2178C111.044 91.8445 110.894 91.1238 110.896 90.6977L110.897 61.5346H39.102Z" fill="white"/>
<path d="M105.995 90.3187L46.2733 90.3185C40.921 90.3486 40.9586 89.3174 40.9681 84.1898L40.9653 70.0945C40.9652 67.4406 40.2424 64.0691 43.921 63.6836L104.288 63.6795C104.997 63.6754 105.748 63.6215 106.451 63.7004C109.752 64.0717 109.034 68.3287 109.032 70.6268L109.035 84.5018C109.034 86.9566 109.45 90.1361 105.995 90.3187ZM105.134 65.7908L46.0034 65.792C44.7442 65.7885 43.0938 65.3088 43.0237 66.8879C42.9728 68.0359 43.0166 69.2055 43.0169 70.3555L43.0168 83.6545C43.0156 84.7318 42.9689 85.8271 43.0106 86.9023C43.0597 88.1705 43.6734 88.233 44.8122 88.2205L103.91 88.2232C104.673 88.2242 106.107 88.4455 106.752 87.9916C107.299 87.0953 107.025 83.6809 107.025 82.5816L107.024 69.4603C107.024 67.4443 107.683 65.5656 105.134 65.7908Z" fill="white"/>
<path d="M53.4265 85.7495C51.7371 85.5876 48.2388 86.1344 46.8683 85.3259C45.5154 84.5274 45.816 82.8778 45.8152 81.5509L45.8121 72.7971C45.8095 71.0344 45.3787 68.4866 47.6931 68.0296C48.9293 68.0163 50.1662 68.0278 51.4025 68.027C52.8506 68.0262 54.6814 67.7727 55.2469 69.5534C55.4605 70.2261 55.3472 75.1233 55.3472 76.1298L55.3467 80.5745C55.3461 82.5643 55.8539 85.0667 53.4265 85.7495ZM47.9002 70.1288V83.694L51.4467 83.6911C52.0508 83.6907 52.6703 83.6509 53.2719 83.694L53.2642 71.5798C53.2599 71.1034 53.2185 70.602 53.2719 70.1288H47.9002Z" fill="white"/>
<path d="M67.4009 85.7494L64.5038 85.7563C60.9034 85.7598 60.5673 85.4094 60.5638 81.8293L60.5636 72.7608C60.5603 70.791 60.0474 68.4684 62.6294 68.0295C63.5823 67.9866 64.5552 68.0239 65.5103 68.0229C69.7786 68.0184 69.6706 68.4895 69.6745 72.2188L69.6757 81.1836C69.6747 83.1719 70.1132 85.4862 67.4009 85.7494ZM62.6294 70.1287C62.5603 71.5948 62.63 73.0936 62.6302 74.5629L62.6294 83.694H67.6282V70.1287H62.6294Z" fill="white"/>
<path d="M82.3731 74.6388C81.9012 75.4853 80.6777 75.5955 80.3973 74.7017C80.2432 74.2103 80.2844 70.5681 80.3498 69.9455C80.4674 68.8283 81.0604 68.28 82.169 68.0298C83.1053 67.9433 84.1082 68.0236 85.0512 68.0248C90.343 68.0316 89.6031 69.0031 89.6033 73.4511L89.576 79.8386C89.5568 81.8361 90.3438 85.6339 87.3184 85.7472C86.376 85.7826 82.8348 85.8429 82.0449 85.65C79.9322 85.1337 80.3272 82.6933 80.3307 81.067C80.3326 80.188 80.0408 78.4445 80.7104 77.7812L80.7551 77.7377C81.2133 77.5691 81.4881 77.5847 81.9418 77.7377C82.1734 77.9664 82.2734 78.1541 82.3731 78.4652C82.2914 79.3802 82.2834 82.9248 82.4508 83.6148C82.8037 83.7919 86.7955 83.6947 87.5188 83.6943V70.1291C85.8192 70.0576 84.0762 70.1177 82.3731 70.1291C82.4449 71.6203 82.375 73.1447 82.3731 74.6388Z" fill="white"/>
<path d="M101.864 85.7497L98.5808 85.7548C95.1769 85.7562 94.7535 85.5511 94.7525 82.0509L94.7533 73.0944C94.7545 71.1755 94.207 68.4321 96.7728 68.0298L100.19 68.0259C103.955 68.0261 104.1 68.4491 104.082 72.1317L104.078 81.1196C104.084 83.046 104.527 85.519 101.864 85.7497ZM97.0216 70.129L96.7951 70.1671C96.7054 70.3105 96.758 82.5208 96.7728 83.6942H101.864L101.998 83.6679C102.131 83.114 102.04 80.6013 102.039 79.8563L102.037 70.129C101.457 70.1829 100.853 70.1345 100.269 70.1321L97.0216 70.129Z" fill="white"/>
<path d="M74.0504 74.0253C73.0032 73.2745 73.352 72.0962 74.5874 72.0411C75.0512 71.9782 75.5073 72.0099 75.9723 72.0411C76.8657 72.6296 76.6901 73.3946 75.9723 74.0253H75.4602C74.9831 74.0695 74.528 74.0628 74.0504 74.0253Z" fill="white"/>
<path d="M75.0184 81.4576C72.4991 81.4979 72.7124 79.3891 75.0184 79.3818C76.085 79.4133 76.6477 79.6789 76.4969 80.825C76.077 81.3758 75.7161 81.4609 75.0184 81.4576Z" fill="white"/>
</svg>
