<svg width="150" height="150" viewBox="0 0 150 150" fill="none" xmlns="http://www.w3.org/2000/svg">
<circle cx="75" cy="75" r="75" fill="#666666"/>
<circle cx="75" cy="75" r="72.5" stroke="white" stroke-opacity="0.5" stroke-width="5"/>
<path d="M54.7381 74.0718L48.4608 74.0724C47.7313 74.0739 46.7094 74.1974 46.0258 74.0591C45.2348 73.8991 44.986 72.969 45.4303 72.3462C45.8403 71.7714 47.6701 70.3206 48.3285 69.7288L79.4836 41.774C80.2727 41.0674 81.0731 40.1874 82.0147 39.6999C82.2309 39.6952 82.4481 39.6996 82.6645 39.6999C83.2875 40.0199 83.8664 40.6831 84.384 41.1555L97.3914 52.7321C97.4133 51.1394 97.3906 49.5435 97.3899 47.9503C97.3891 46.7192 97.0215 45.5212 98.1403 44.7345C99.2082 44.7765 100.292 44.7382 101.362 44.736L108.089 44.7261C108.891 44.7292 109.198 44.7345 109.786 45.3245C109.853 45.9175 109.792 46.5575 109.79 47.1565L109.786 63.9645C110.593 64.7936 111.502 65.5394 112.367 66.3067L116.923 70.3298C117.774 71.081 119.363 72.0696 119.709 73.1829C119.201 74.5032 117.265 74.0731 116.144 74.0735C114.247 74.0739 112.346 74.0436 110.449 74.0718L110.451 105.509C110.458 110.295 111.442 110.248 106.948 110.249L90.8936 110.249L59.7045 110.25C58.5332 110.25 55.9674 110.489 55.0403 109.941C54.4631 108.896 54.7364 106.049 54.7369 104.812L54.7381 74.0718ZM82.319 42.1748C81.2145 42.9934 80.22 44.0154 79.1946 44.9343L53.5422 67.9097C52.0399 69.2446 50.4408 70.546 49.0258 71.971C50.8823 71.9923 52.7401 71.9698 54.5969 71.971C60.8059 66.7497 67.0455 60.9448 73.068 55.4294L80.5235 48.7306C81.0916 48.2171 81.5385 47.6036 82.319 47.4347C83.4809 47.6749 84.8733 49.3933 85.7522 50.1931L107.714 70.0091C108.433 70.6608 109.099 71.4192 109.9 71.971H115.525L91.8446 50.6778C89.1877 48.2722 86.5137 45.8827 83.801 43.5401C83.3594 43.1588 82.7959 42.4425 82.319 42.1748ZM99.5604 46.8567C99.4819 49.4675 99.5608 52.1034 99.5604 54.7165C100.938 56.0038 107.362 61.8532 107.664 61.8612L107.666 51.5542C107.666 49.996 107.725 48.4128 107.664 46.8567L102.286 46.8552C101.381 46.8548 100.464 46.8194 99.5604 46.8567ZM82.319 49.896C80.3184 51.7853 78.2373 53.5981 76.1965 55.4444L58.7645 71.2421C58.1383 71.8159 57.3942 72.3374 56.8492 72.988C56.8061 76.8856 56.8491 80.7886 56.8494 84.6866L56.8492 108.105H91.7485V102.012L91.7453 96.656C91.7449 95.786 91.2934 93.3552 92.5539 93.1843C94.7139 92.8913 99.8532 93.1075 102.113 93.1671C103.806 93.2116 103.391 94.3319 103.393 95.6501V108.105C104.007 108.152 104.63 108.112 105.245 108.108L108.33 108.105L108.329 77.1522C108.329 75.9515 108.256 74.7095 108.33 73.5147C106.05 71.537 103.786 69.2735 101.524 67.2229L82.319 49.896ZM99.5604 95.3054H93.8963V108.105H95.8076H101.222C101.293 106.71 101.222 105.283 101.222 103.883L101.222 95.3054C100.67 95.2663 100.113 95.2786 99.5604 95.3054Z" fill="white"/>
<path d="M32.5928 43.5063C31.5206 43.5102 29.5004 42.9768 30.8122 41.7002C31.4241 41.1048 35.2974 41.3927 36.242 41.3937L71.5037 41.3953C73.3957 41.3242 74.364 42.4127 72.7779 43.5063C71.8566 43.6383 70.0283 43.5057 69.0277 43.5053L32.5928 43.5063Z" fill="white"/>
<path d="M30.5233 52.0656C30.8027 51.8514 31.097 51.7317 31.4238 51.6121C32.6257 51.5377 33.8803 51.6108 35.0867 51.6117L54.087 51.6119C55.1333 51.6119 59.2903 51.4067 60.0177 51.6899C60.9749 52.0625 60.8448 53.4151 59.9234 53.7152C57.2142 54.0586 52.2622 53.7151 49.3905 53.7147L33.7225 53.7156C32.2177 53.719 30.2992 54.259 30.5233 52.0656Z" fill="white"/>
<path d="M87.9777 70.0648C87.5732 70.1256 87.1229 70.0734 86.7131 70.0685C83.5891 70.0324 80.4639 70.1441 77.3402 70.0625C76.3119 70.0355 75.842 69.6873 75.7867 68.5666C75.6555 65.9066 75.6264 61.7299 75.7877 59.0759C75.8311 58.3636 76.1061 58.0006 76.7998 57.7613C78.1986 57.7203 87.3768 57.6429 88.0129 57.8615C89.4385 58.3515 88.9068 62.1373 88.9106 63.4232C88.9154 65.0998 89.5971 69.3664 87.9777 70.0648ZM77.9201 59.8625C77.9233 60.8545 77.941 61.8488 77.9201 62.8406C78.9969 62.8713 80.0775 62.8373 81.1549 62.8406V59.8625C80.1707 59.8607 78.844 59.7572 77.9201 59.8625ZM83.2975 59.8625V62.8406C84.4469 62.8482 85.6215 62.8951 86.768 62.8406C86.7518 61.8472 86.742 60.8558 86.768 59.8625H83.2975ZM83.2975 64.9408C83.2736 65.9263 83.2514 66.9351 83.2975 67.9197C84.4524 67.9258 85.6137 67.949 86.768 67.9197V64.9408C86.0602 64.8679 84.026 64.8771 83.2975 64.9408ZM77.9201 64.9408V67.9197H81.1549V64.9408H77.9201Z" fill="white"/>
<path d="M32.8856 63.9647C29.1469 64.0096 30.5919 61.9793 31.3448 61.892C31.9849 61.8178 32.6595 61.86 33.3043 61.8598L48.0864 61.8613C49.0043 61.8131 50.4248 61.6191 50.5026 62.9074C50.584 64.2563 48.6846 63.9682 47.8582 63.9678L32.8856 63.9647Z" fill="white"/>
<path d="M39.6997 74.072C39.2543 74.1564 37.7052 74.0746 37.1461 74.0736L33.6794 74.074C32.8372 74.0738 31.8337 74.1964 31.0224 73.9164C30.1875 73.6281 30.2626 72.4336 31.424 71.9713C33.0622 71.9005 34.734 71.9711 36.3756 71.9707C37.256 71.9705 40.8956 71.4117 40.4502 73.2056C40.3495 73.6111 40.034 73.8595 39.6997 74.072Z" fill="white"/>
<path d="M83.9195 99.1048C82.733 100.633 79.1102 101.911 77.1936 102.187C69.3525 103.32 61.4977 97.913 60.4061 89.9211C59.1971 81.0709 65.5353 74.9007 73.8654 73.7789C77.267 73.4224 80.8906 74.6031 83.5676 76.6714C84.217 77.173 85.5705 78.1912 84.4922 79.0429C83.5752 79.7671 82.5869 78.5504 81.8976 78.0605C80.2191 76.8675 78.1623 76.0869 76.1228 75.8644V78.6658L76.0873 78.7162C75.6652 79.3045 74.9963 79.5125 74.385 79.0484C73.7103 78.5365 73.9879 76.8531 73.8654 76.0216C71.6002 76.0019 68.5021 77.44 66.8207 78.905C67.6012 79.5796 69.881 81.7002 67.4557 81.973C67.4371 81.9703 67.4185 81.9677 67.4002 81.9648L67.3139 81.9503C66.6162 81.8404 65.817 80.8045 65.3143 80.3043C63.59 82.1597 62.8012 84.2593 62.4707 86.7435C63.5857 86.7541 64.9996 86.2838 65.568 87.5291C65.4189 89.2605 63.784 88.7765 62.4707 88.7695C62.5893 90.9597 63.5408 93.7615 65.1547 95.3056C65.7385 94.988 68.0268 92.5002 68.515 94.5962C68.7344 95.5375 67.298 96.242 66.8578 96.9634L66.8207 97.025C67.1701 97.6035 67.7937 97.9337 68.3502 98.2861C70.0473 99.3677 71.8914 99.8916 73.8654 100.155C73.8777 99.3679 73.857 98.5791 73.8654 97.7914C74.1592 97.3097 74.3816 97.183 74.9062 97.025C75.4557 97.1668 75.656 97.2445 75.9281 97.7914V100.155C79.8559 100.013 80.3346 98.4302 82.849 97.5945C83.7014 97.8386 84.0559 98.1982 83.9195 99.1048Z" fill="white"/>
<path d="M104.272 89.111L96.6711 89.1077C95.4143 89.1083 94.1276 89.179 92.8756 89.1073C91.2709 89.0153 91.7369 87.7665 91.7465 86.6466L91.7494 79.7684C91.7512 78.7223 91.2457 77.218 92.4434 76.7051C94.6258 76.6358 96.8348 76.7044 99.0202 76.704L102.116 76.7042C102.745 76.7044 104.315 76.5325 104.84 76.9411C105.265 77.2719 105.073 80.7389 105.072 81.3132L105.07 88.512C104.836 88.8417 104.668 88.9971 104.272 89.111ZM93.8963 78.9048C93.8506 79.9065 93.8321 80.9721 93.8963 81.9727C95.0092 81.9729 96.1774 82.051 97.2828 81.9727C97.2838 80.9542 97.2352 79.9214 97.2828 78.9048H93.8963ZM99.3924 78.9048V81.9727C100.567 81.9108 101.761 81.9776 102.939 81.9727C103.009 81.8852 102.938 79.1944 102.939 78.9048C101.761 78.9034 100.568 78.8608 99.3924 78.9048ZM93.8963 84.0841C93.8336 84.58 93.8254 86.4669 93.8963 86.963H97.2828V84.0841H93.8963ZM99.7411 84.0841C99.0623 84.17 99.3903 86.2552 99.3924 86.963H102.698L102.882 86.9518C103.044 86.6917 102.921 84.5428 102.939 84.0841C101.876 84.1327 100.806 84.0776 99.7411 84.0841Z" fill="white"/>
<path d="M75.785 85.9403C76.4776 85.1753 80.3666 80.9864 81.1553 80.7624C81.7463 80.7475 81.9928 80.9852 82.3191 81.4692C82.2816 83.1585 78.5055 85.9727 77.3031 87.529C77.3309 89.3495 76.0549 90.68 74.2387 90.051C72.0125 88.8907 72.9813 85.461 75.785 85.9403Z" fill="white"/>
<path d="M30.5236 83.2091C30.8435 82.7419 31.2472 82.646 31.7777 82.5679L45.725 82.5649C46.3879 82.5647 47.6645 82.369 48.194 82.8727C49.0094 83.6487 48.3229 84.6483 47.1071 84.6747C47.0463 84.6763 46.9856 84.678 46.9248 84.6784L33.2832 84.6757C31.7884 84.6753 30.4774 85.1247 30.5236 83.2091Z" fill="white"/>
<path d="M30.5236 94.3361C30.414 92.2593 32.8648 92.8984 34.3906 92.8986L40.5522 92.897L46.9734 92.8945C47.8648 92.8943 49.1406 92.8029 49.9884 92.9236C50.9488 93.0601 51.125 94.2075 50.4832 94.8099C49.9972 95.2659 47.5248 95.0181 46.8367 95.0179L40.7961 95.0148L34.2395 95.0191C32.9739 95.0193 31.2023 95.4761 30.5236 94.3361Z" fill="white"/>
</svg>
