<svg width="150" height="150" viewBox="0 0 150 150" fill="none" xmlns="http://www.w3.org/2000/svg">
<circle cx="75" cy="75" r="75" fill="#666666"/>
<circle cx="75" cy="75" r="72.5" stroke="white" stroke-opacity="0.5" stroke-width="5"/>
<path d="M30.5186 43.2926C30.7718 43.1367 31.0176 43.0259 31.2947 42.9198L108.05 42.9179C112.169 42.899 111.767 42.4595 111.788 46.5489L111.795 67.679L116.339 67.6751C117.942 67.6745 119.534 67.1462 119.577 69.1452C119.642 72.1563 119.581 75.1831 119.581 78.1958L119.579 102.897C119.579 104.312 120.065 106.218 118.7 106.982L81.0854 106.981C79.893 106.981 78.4641 107.117 77.2971 106.982C76.5047 106.313 76.8034 105.181 76.8055 104.16L76.8079 100.761L33.4613 100.767C32.0975 100.769 30.5626 101.069 30.5143 99.1907C30.4809 97.8893 30.5192 96.5766 30.5192 95.2741L30.5161 45.2636C30.5118 44.6175 30.4465 43.9323 30.5186 43.2926ZM32.6173 45.0436V98.6583L71.9465 98.6579C73.5618 98.6577 75.195 98.6016 76.8079 98.6583L76.8067 71.6067C76.8053 70.3708 76.3799 68.5923 77.393 67.679C77.8549 67.6225 78.3207 67.6817 78.7844 67.679H109.718V45.0436L34.8901 45.0407C34.1532 45.0399 33.345 44.9663 32.6173 45.0436ZM98.353 69.805H78.9553V104.834H98.0981L115.218 104.83C115.954 104.828 116.702 104.782 117.436 104.834C117.493 99.9417 117.435 95.0425 117.435 90.1491L117.436 69.805H98.353Z" fill="white"/>
<path d="M98.098 49.7008C98.0122 48.9491 97.9614 48.1997 98.098 47.4518C98.7743 47.4206 99.4435 47.4255 100.12 47.4518V49.7008C103.215 49.62 105.046 50.76 104.972 54.0434C104.324 54.0608 103.674 54.0481 103.026 54.0434C102.885 52.9239 102.621 51.9551 101.348 51.8296C100.396 51.7356 97.1499 51.7442 96.3243 51.8924C95.0224 52.1262 94.8284 53.7598 95.6708 54.5981C96.3003 55.2245 97.3401 55.0639 98.1441 55.0596L100.782 55.0456C104.777 55.0387 106.351 59.0981 103.834 61.5354C102.763 62.5721 101.613 62.5292 100.22 62.5049C100.224 63.1893 100.322 64.2542 100.206 64.8928L100.12 64.9405C99.4439 64.9452 98.7745 64.9178 98.098 64.9405V62.5049C95.0025 62.8288 92.9952 61.3917 93.1659 58.1546C93.8956 58.1469 94.6351 58.2235 95.3593 58.3108C95.1458 59.81 95.7778 60.3421 97.2064 60.3708C98.937 60.4057 102.907 61.1725 102.842 58.6397C102.781 56.2598 97.8491 57.493 96.0255 57.0969C93.0191 56.4438 92.089 52.7639 94.1972 50.662C95.2982 49.5641 96.6646 49.7001 98.098 49.7008Z" fill="white"/>
<path d="M82.3823 49.7007V47.4517H84.5698V49.7007C87.6468 49.6214 89.4163 50.8036 89.2265 54.0433H87.2882C87.0536 51.22 85.8296 51.8165 83.294 51.8185C82.4288 51.819 81.4294 51.7228 80.581 51.8903C79.0202 52.1985 79.0378 54.6499 80.5921 54.9917C82.9425 55.5085 86.2896 54.1384 88.1964 56.136C89.6345 57.6423 89.52 60.264 87.9964 61.6599C87.056 62.5214 85.7724 62.5593 84.5698 62.5048V64.9403H83.9968C83.4587 64.9458 82.9202 64.9569 82.3823 64.9403C82.4497 64.1483 82.3862 63.3026 82.3823 62.5048C81.6294 62.4759 80.8603 62.5806 80.122 62.3851C78.4739 61.9485 76.9282 59.898 77.3927 58.1544C78.0345 58.2329 78.686 58.2472 79.3304 58.3106C79.4054 59.5575 79.9802 60.3556 81.2905 60.3835C83.1448 60.4231 87.2132 61.2011 87.1335 58.5819C87.064 56.294 81.9288 57.5044 80.1302 57.0577C77.4149 56.3833 76.2892 52.7579 78.2997 50.7665C79.4821 49.5954 80.8376 49.6946 82.3823 49.7007Z" fill="white"/>
<path d="M40.0388 70.9405C39.1212 71.5268 37.4514 73.8325 36.5731 73.7602C35.9961 73.7127 35.4872 73.0868 35.611 72.5077C35.7567 71.826 38.7849 69.1461 39.3847 68.5469L51.9022 56.0602C52.7479 55.2126 54.1655 53.5399 55.1522 52.9797C56.5063 52.9254 58.8205 55.8879 59.8709 56.9184L74.217 70.9213C74.8241 71.5131 75.2489 71.7922 75.5678 72.601C74.934 74.7778 73.8061 73.5186 72.6799 72.3758C72.1301 71.818 71.5756 71.2504 70.9844 70.7368L70.9871 91.4276C70.9979 94.2526 71.6668 94.935 68.5116 94.9334L56.2745 94.9315L43.0318 94.9331C39.4675 94.9331 40.0347 94.7256 40.0367 91.4938L40.0388 70.9405ZM55.4551 55.4979C54.5725 56.2475 53.7952 57.1124 52.9799 57.9329L49.1311 61.7977C46.817 64.1559 44.4088 66.427 42.1387 68.8278L42.1398 89.9151C42.142 90.8727 42.1749 91.8405 42.1387 92.7969C43.8582 92.851 45.5944 92.7963 47.3155 92.7969L47.3116 79.7801C47.3047 76.7342 48.1327 77.3903 50.9004 77.3907L55.835 77.3924L60.5692 77.3887C63.4553 77.3872 63.8293 76.9012 63.8178 80.2741L63.8135 92.7969C65.4942 92.795 67.1819 92.7602 68.8618 92.7969V68.8278C65.2487 64.8489 60.6161 60.5319 56.7227 56.8114C56.4567 56.5571 55.6789 55.627 55.4551 55.4979ZM49.4153 79.5329C49.417 81.3737 49.4409 83.2174 49.4153 85.0581H54.5424C54.6223 83.2274 54.5364 81.3672 54.5424 79.5329H49.4153ZM56.6895 79.5329V85.0581C58.3625 85.0604 60.0379 85.0825 61.7106 85.0581C61.7411 83.2178 61.7102 81.3735 61.7106 79.5329H56.6895ZM49.5979 87.1782L49.4817 87.2126C49.3264 88.1211 49.3522 91.8448 49.4153 92.7969H54.5424L54.6143 92.7723C54.7284 91.2626 54.5297 88.8155 54.5424 87.1782C53.3098 87.126 50.7926 87.0532 49.5979 87.1782ZM57.0893 87.1782C56.9541 87.1917 56.8471 87.1768 56.7385 87.2629C56.5614 88.6444 56.6461 91.3786 56.6895 92.7969H61.3891C61.5168 92.7969 61.5682 92.827 61.6629 92.7321C61.893 91.1659 61.6356 88.8581 61.7106 87.1782H57.0893Z" fill="white"/>
<path d="M56.1808 70.5361C53.8166 70.8691 51.6291 69.2256 51.2908 66.8621C50.9525 64.4986 52.5914 62.3074 54.9541 61.9641C57.3242 61.6195 59.5238 63.2645 59.8631 65.6354C60.2023 68.0062 58.5523 70.2021 56.1808 70.5361ZM55.39 64.076C54.1785 64.1742 53.275 65.2346 53.3705 66.4463C53.4658 67.658 54.524 68.5639 55.7361 68.4715C56.9521 68.3785 57.8617 67.316 57.766 66.1002C57.6703 64.8844 56.6055 63.9773 55.39 64.076Z" fill="white"/>
<path d="M82.1377 77.8804V75.7419C83.7783 75.9536 86.6478 75.7061 88.4277 75.7419V77.8804C86.3424 77.9698 84.2268 77.854 82.1377 77.8804Z" fill="white"/>
<path d="M90.7725 77.8802V75.7417L106.362 75.7419C109.019 75.7419 111.683 75.787 114.339 75.7417V77.8802H90.7725Z" fill="white"/>
<path d="M82.1377 85.6898C82.1557 84.9672 82.1564 84.2555 82.1377 83.5322C83.2252 83.6104 84.377 83.5348 85.4697 83.5338L114.338 83.5322C114.338 84.25 114.382 84.9732 114.338 85.6898C113.444 85.7516 112.507 85.6928 111.608 85.6912L84.9271 85.6889C83.9992 85.6873 83.0646 85.657 82.1377 85.6898Z" fill="white"/>
<path d="M109.338 97.5541C108.641 98.2537 105.717 101.388 105.177 101.587C103.538 102.19 103.826 99.3875 103.826 98.6287L103.826 95.2912C103.825 94.1617 103.303 91.3168 104.711 91.0248C106.819 90.9449 111.344 90.8059 113.381 91.0561C114.089 91.143 114.668 91.9563 114.231 92.6154C113.479 93.7531 110.484 96.4049 109.338 97.5541ZM105.96 93.0678C105.965 94.6951 105.881 96.3561 105.96 97.9789C106.827 97.199 107.616 96.3262 108.457 95.5168C109.27 94.6902 110.07 93.8586 110.919 93.0678C109.266 93.068 107.611 93.091 105.96 93.0678Z" fill="white"/>
<path d="M82.1376 93.4572C82.1159 92.7557 82.1335 92.0496 82.1376 91.3476C87.101 91.3799 92.0674 91.2918 97.0303 91.3476V93.4572H82.1376Z" fill="white"/>
<path d="M82.1377 99.2676H82.642H100.635V101.413H100.119H82.1377C82.1226 100.699 82.1166 99.9812 82.1377 99.2676Z" fill="white"/>
</svg>
