<svg width="150" height="150" viewBox="0 0 150 150" fill="none" xmlns="http://www.w3.org/2000/svg">
<circle cx="75" cy="75" r="75" fill="#666666"/>
<circle cx="75" cy="75" r="72.5" stroke="white" stroke-opacity="0.5" stroke-width="5"/>
<path d="M40.0911 63.7935C37.7723 63.8917 34.5229 63.9144 32.2039 63.7956C30.5775 63.7122 30.3506 62.2949 31.6327 61.4111C33.7796 59.931 35.9813 58.5218 38.1427 57.0622L70.5936 35.3597C71.6236 34.668 73.7875 32.9838 74.7912 32.6677C75.6027 32.6262 76.2684 33.3622 76.8963 33.7714L91.3447 43.3949C92.4988 44.1638 93.677 44.8933 94.825 45.672C94.8949 44.5282 94.8234 43.3434 94.8187 42.1941C94.8072 39.288 95.4846 39.7161 97.8289 39.7417L105.494 39.7441C106.438 39.7449 107.422 39.7085 108.362 39.8027C109.699 39.9367 109.506 41.0378 109.5 42.0935L109.494 51.6435C109.491 52.8865 109.418 54.1689 109.492 55.4062L109.496 55.4689C110.646 55.9996 112.299 57.2322 113.393 57.9595L116.696 60.1841C117.962 61.022 120.863 62.1468 118.789 63.7935C116.726 63.6453 111.896 63.6091 109.82 63.7935C109.779 64.3996 109.815 65.0269 109.816 65.6357L109.825 69.5617C109.834 70.5013 109.879 71.4503 109.82 72.3888C110.733 72.3894 114.513 72.1658 115.07 72.6019C115.942 73.2851 115.281 74.3888 114.398 74.5994C113.477 74.8187 110.858 74.7078 109.82 74.7068V83.6177C110.657 83.6167 114.476 83.5 114.955 83.781C115.341 84.0072 115.452 84.5031 115.546 84.9064C115.155 86.2253 113.884 85.9611 112.791 85.9615L109.82 85.9601C109.758 87.4705 109.82 89.0103 109.82 90.5247V99.8589L112.612 99.8564C113.613 99.8562 115.344 99.6027 115.427 101.045C115.508 102.458 113.813 102.202 112.919 102.203L109.82 102.198L109.819 111.894C109.82 112.708 109.812 113.523 109.826 114.337C109.889 117.906 109.229 117.189 106.092 117.187L82.7391 117.185L42.3234 117.188C41.6764 117.187 40.8581 117.298 40.3746 116.781C39.8482 116.217 40.0894 111.856 40.0893 110.971L40.0911 102.198C38.8958 102.228 36.0867 102.519 35.1162 101.902C34.8572 101.485 34.807 101.194 34.8152 100.715C35.5358 99.2861 38.6253 99.8544 40.0911 99.8589C40.0839 95.2275 40.1425 90.5908 40.0911 85.9601C39.1598 86.0078 36.5106 86.071 35.6663 85.889C34.8335 85.7095 34.4935 84.6103 35.1247 84.0035C35.7095 83.4414 36.7421 83.6052 37.4753 83.6095L40.0911 83.6177V74.7902C39.0895 74.7634 35.7414 75.0476 35.1223 74.4308C34.5098 73.8204 34.8535 72.5931 35.7144 72.4398C36.2465 72.3451 36.8381 72.3878 37.3774 72.3872L40.0911 72.3888V63.7935ZM74.9514 35.2382C73.3639 36.4287 71.69 37.4909 70.0387 38.5884L38.1672 59.9374C37.4123 60.4349 36.6737 60.9433 35.8803 61.3773C40.3198 61.3746 39.8472 62.2591 43.1558 59.9699L46.7725 57.4904L71.2488 41.1974C72.2877 40.503 73.8225 39.1024 75.0549 38.8744C75.9502 39.2355 76.7564 39.8658 77.5555 40.4011L105.848 59.2288C106.93 59.9466 107.997 60.6837 109.095 61.3773H114.167L82.6266 40.423C80.0465 38.7242 77.4625 37.0392 74.9514 35.2382ZM74.9514 41.538L49.7918 58.3372C48.0645 59.4872 46.3879 60.7128 44.6502 61.8474C41.997 63.5798 42.4673 62.8361 42.4695 65.9105C42.471 68.0658 42.5278 70.2355 42.4726 72.3888C47.1775 72.4443 51.8869 72.3671 56.5924 72.3888C56.5512 71.6636 56.3008 70.1703 56.8289 69.5787C57.2982 69.0527 58.1709 69.2003 58.6266 69.6603C59.2439 70.2837 59.0262 71.5667 58.984 72.3888H74.7912H91.1387C91.1252 71.7162 90.9199 70.5113 91.3982 69.9923C91.86 69.4919 92.7881 69.5103 93.2516 69.9978C93.7494 70.5214 93.5266 71.6953 93.4611 72.3888L105.805 72.3841C106.356 72.3814 106.922 72.3533 107.472 72.3888V63.2035C106.279 62.3187 105.006 61.5484 103.765 60.7351L76.8623 42.819C76.2291 42.3936 75.6121 41.9185 74.9514 41.538ZM97.2154 42.0892V47.3042C99.7586 48.7288 102.699 50.999 105.239 52.6275C105.843 53.015 106.5 53.5835 107.161 53.8515C107.192 52.5386 107.162 51.2201 107.161 49.9064L107.161 42.0892H97.2154ZM98.5652 74.7068H93.4611L93.4625 80.6745C93.4641 81.656 93.5422 82.6388 93.4611 83.6177H102.514H107.472C107.505 80.6515 107.504 77.6728 107.472 74.7068C106.826 74.6685 106.176 74.7011 105.53 74.7046L102.276 74.708C101.068 74.7074 99.7623 74.5822 98.5652 74.7068ZM58.984 74.7068V83.6177C59.9957 83.571 60.7961 83.389 61.3756 84.3501C61.4051 86.1685 60.3961 85.8955 58.984 85.9601C58.9166 90.589 58.9842 95.2289 58.984 99.8589C60.6186 99.8576 63.023 99.1841 63.4018 101.174C62.8109 102.852 60.6273 102.197 58.984 102.198C58.9889 102.962 59.1854 104.741 58.6584 105.3C58.2414 105.742 57.3951 105.707 56.9734 105.291C56.3863 104.712 56.5898 103.007 56.5924 102.198H42.4726C42.3821 103.167 42.4731 104.162 42.4737 105.135L42.4732 111.586C42.4745 112.668 42.5385 113.764 42.4726 114.844H67.0371L67.0312 99.8638C67.0285 99.2101 66.8143 98.1898 67.2172 97.6345L67.2744 97.5546C68.3199 96.1164 71.4518 93.2371 72.8271 91.8949C75.1729 89.6056 75.1113 89.8013 77.2354 91.9466L81.523 96.2257C82.1223 96.815 82.9799 97.429 83.0074 98.3525V114.844H107.472V102.198L98.0881 102.197C96.5533 102.196 94.9918 102.129 93.4611 102.198C93.4631 102.941 93.6666 104.705 93.148 105.243C92.6842 105.724 91.9184 105.656 91.4742 105.186C90.8607 104.537 91.1512 103.04 91.1387 102.198L88.9646 102.207C88.3273 102.21 87.5625 102.329 87.0602 101.839C86.6441 101.432 86.5854 100.67 87.0229 100.258C87.7025 99.6175 90.1916 99.8923 91.1387 99.8589V85.9601C90.4184 85.9812 89.3557 86.1373 88.7967 85.5841C88.3508 85.1431 88.5232 84.2964 88.9525 83.9083C89.3855 83.5167 90.5764 83.6257 91.1387 83.6177C91.1662 80.6767 91.0787 77.73 91.1387 74.7902C89.2686 74.6412 87.3729 74.7058 85.4975 74.7056L64.8252 74.7068C62.8854 74.7068 60.9199 74.6308 58.984 74.7068ZM42.4726 74.7902L42.4749 80.7597C42.4754 81.6996 42.5405 82.6841 42.4726 83.6177H56.5924L56.5904 77.6757C56.59 76.7238 56.5277 75.7371 56.5924 74.7902L47.1387 74.7894C45.5883 74.7892 44.0204 74.7339 42.4726 74.7902ZM46.1771 85.9601C45.5361 85.9703 44.8953 85.9859 44.2543 85.9601C45.9629 87.7747 47.9385 89.3865 49.551 91.2853L51.4328 89.4554L54.9691 85.9601C54.0279 86.0158 53.0613 85.9607 52.1164 85.9603L46.1771 85.9601ZM96.3348 85.9601C95.9119 85.9636 95.4865 85.9767 95.0639 85.9601C96.5891 87.6816 98.76 89.7101 100.441 91.2853C101.081 90.5492 101.74 89.822 102.514 89.2249C103.456 88.0488 104.688 87.105 105.676 85.9601C104.617 85.9876 103.554 85.9605 102.495 85.9599L96.3348 85.9601ZM107.472 87.6105C105.89 89.0048 103.519 91.2394 102.143 92.8675C102.66 93.6466 104.181 95.0234 104.9 95.7417C105.767 96.5974 106.659 97.4441 107.472 98.3525C107.51 97.5167 107.474 96.6814 107.472 95.8453L107.48 88.7931C107.482 88.4242 107.528 87.9726 107.472 87.6105ZM42.4726 87.6105C42.3747 89.5419 42.4739 91.5021 42.4735 93.4376L42.4695 96.4789C42.4654 97.1033 42.43 97.729 42.4726 98.3525C43.3584 97.3923 44.3074 96.4826 45.2322 95.5597C45.8963 94.9314 47.5025 93.5679 47.9389 92.8675C47.2025 92.1847 42.9981 87.8697 42.4726 87.6105ZM56.5924 87.7353C55.0969 88.9796 52.5693 91.3652 51.2246 92.8675C52.0574 93.8074 52.9971 94.674 53.8891 95.5597C54.7758 96.4527 55.6557 97.3652 56.5924 98.2052C56.5922 97.2287 56.6379 87.8103 56.5924 87.7353ZM93.4611 87.7353C93.4383 91.2216 93.5455 94.7212 93.4611 98.2052C94.0357 97.4216 95.2932 96.213 96.048 95.5597C96.9188 94.6421 97.8576 93.7876 98.7231 92.8675C97.1961 91.3988 95.083 88.8822 93.4611 87.7353ZM75.0549 93.0667C73.6527 94.1107 70.5352 97.3886 69.3875 98.7148L69.3883 109.444C69.3885 111.241 69.4383 113.05 69.3875 114.844H75.0549H80.6859V98.7148C79.5197 97.3955 78.192 96.1953 76.9478 94.948L75.6131 93.616C75.4393 93.4429 75.251 93.2054 75.0549 93.0667ZM100.441 94.6669C99.8029 94.9716 99.352 95.5415 98.8576 96.0322L96.6984 98.2019C96.1574 98.7474 95.527 99.2474 95.0639 99.8589C96.8295 99.9873 98.6666 99.8562 100.441 99.8589L103.889 99.8626C104.542 99.8658 105.199 99.9128 105.85 99.8589C105.084 99.1371 100.715 94.7664 100.441 94.6669ZM49.551 94.6669C47.7957 96.389 45.91 98.0406 44.2543 99.8589H49.7742L53.125 99.8636C53.7371 99.8679 54.3596 99.9199 54.9691 99.8589C53.1156 98.264 51.4479 96.3283 49.551 94.6669Z" fill="white"/>
<path d="M79.8172 66.9187L73.0797 66.9191C72.0547 66.9195 70.9625 67.0109 69.9475 66.9191C68.1578 66.7572 68.6543 64.5806 68.6533 63.173L68.6551 55.8062C68.6625 54.1087 68.3357 53.0964 70.5051 53.1011L76.9305 53.1003C78.3094 53.0994 81.508 52.4906 81.5434 54.3603C81.594 57.0454 81.5432 59.7408 81.543 62.4269L81.5522 64.5093C81.5643 65.3804 81.7481 66.0908 81.1008 66.7578C80.6793 66.9234 80.2631 66.9097 79.8172 66.9187ZM71.0447 55.4691V64.5687H79.1522C79.1836 63.5404 79.1531 62.5089 79.1523 61.4802L79.1522 55.4691H71.0447Z" fill="white"/>
<path d="M76.8686 85.6699C76.3309 84.7058 76.5623 81.6068 76.5627 80.4668C76.5635 78.8261 76.0324 77.0709 78.0959 77.0994C80.2422 76.9765 84.058 76.9506 86.1823 77.1049C87.4696 77.1986 87.2135 78.6156 87.2115 79.5265L87.2006 82.1865C87.1994 83.6343 87.6451 84.9105 86.409 85.9601C86.141 85.9806 85.869 85.965 85.6004 85.9601L80.3799 85.9633C79.3028 85.9636 77.8444 86.2254 76.8686 85.6699ZM82.0311 79.4425C80.9897 79.4058 79.9473 79.448 78.9057 79.4425C78.9912 80.8299 78.8389 82.2291 78.9057 83.6177H81.7629H84.8569L84.8541 80.9051C84.853 80.4228 84.8242 79.923 84.8569 79.4425C83.9155 79.4179 82.9727 79.4455 82.0311 79.4425Z" fill="white"/>
<path d="M66.345 85.96C64.8175 85.8842 62.8911 86.5505 62.8233 84.4128C62.7784 83.0024 62.6335 79.4286 62.8466 78.1163C63.0638 76.7786 65.4028 77.0966 66.3405 77.0964L69.7624 77.0993C73.7509 77.0887 73.4366 77.1089 73.4366 80.7889L73.4337 85.1757C72.6313 86.2508 71.7081 85.9659 70.5061 85.9635L66.345 85.96ZM65.61 79.4424C65.4934 79.4571 65.344 79.4462 65.2575 79.5262C65.1751 80.877 65.2501 82.262 65.2485 83.6176H70.5048C71.5081 83.6342 71.0468 80.395 71.0444 79.4424H65.61Z" fill="white"/>
</svg>
