<svg width="150" height="150" viewBox="0 0 150 150" fill="none" xmlns="http://www.w3.org/2000/svg">
<circle cx="75" cy="75" r="75" fill="#666666"/>
<circle cx="75" cy="75" r="72.5" stroke="white" stroke-opacity="0.5" stroke-width="5"/>
<path d="M77.5165 119.536C52.9132 120.922 31.8446 102.101 30.4586 77.4976C29.0726 52.8943 47.894 31.8259 72.4973 30.44C97.1005 29.0542 118.169 47.8755 119.555 72.4787C120.941 97.0818 102.12 118.15 77.5165 119.536ZM72.885 32.6195C71.2106 32.7426 69.5241 32.8435 67.8678 33.1278C60.1233 34.4567 52.5473 38.1015 46.679 43.3387C38.2598 50.8525 32.809 62.4435 32.7081 73.7789C33.0609 73.7888 33.4118 73.7863 33.7647 73.7789L70.1528 73.7796C71.394 73.7791 72.676 73.6869 73.9114 73.774L73.9755 73.7789C74.0159 70.6543 73.9751 67.5238 73.9749 64.3986L73.9739 36.07C73.9733 34.9255 73.9298 33.7624 73.9755 32.6195C73.6137 32.6149 73.246 32.5968 72.885 32.6195ZM76.1497 32.6195C76.0938 36.1082 76.1497 39.6076 76.1497 43.0974V73.7789C77.8526 73.5377 79.6368 73.6464 81.3559 73.6478L117.382 73.6486C117.473 73.4535 117.294 71.6787 117.266 71.3357C115.643 51.1505 99.3464 34.5759 79.0524 32.7624C78.0893 32.6764 77.1173 32.5968 76.1497 32.6195ZM82.2841 75.855C80.2489 75.8531 78.1817 75.9023 76.1497 75.855C76.0735 80.4652 76.1499 85.0908 76.1499 89.7023L76.1497 117.334C84.8008 117.349 93.4091 114.114 100.328 108.991C100.816 108.629 101.332 108.125 101.85 107.825C103.546 106.369 105.175 104.899 106.668 103.229C112.964 96.1845 117.602 85.4263 117.382 75.855C116.36 75.8076 115.326 75.8572 114.302 75.8556L82.2841 75.855ZM32.7081 75.855C32.6524 95.3193 47.2829 112.488 66.2231 116.483C68.171 116.894 72.0313 117.571 73.9755 117.334C74.0178 115.741 73.9764 114.142 73.9759 112.549L73.9755 75.855H32.7081Z" fill="white"/>
<path d="M79.9092 43.2026C80.1137 42.3888 83.984 38.4284 84.8391 38.0373C85.3178 38.0175 85.7371 38.1275 85.999 38.5801C86.5934 39.6071 84.6643 41.0416 84.0508 41.6616C83.3811 42.3382 81.9523 43.9743 81.1803 44.3854C80.3738 44.3503 80.0615 43.972 79.9092 43.2026Z" fill="white"/>
<path d="M56.7409 44.9325C56.8057 43.9116 56.3723 42.5559 57.6081 42.1387C59.1522 42.1396 58.8475 43.8756 58.8377 44.9325C59.4065 44.4195 60.476 42.9884 61.1743 42.8999C62.0899 42.7838 62.7133 43.7138 62.2209 44.4791C61.8264 45.0921 61.2012 45.6208 60.6829 46.1323L58.8377 47.9817C58.9166 48.9466 58.9383 51.6075 58.8377 52.5073C59.5477 52.645 60.1278 52.8497 60.7555 53.2073C61.2391 52.496 63.1848 50.6046 63.9166 50.0442C64.0059 48.9644 63.9116 47.5567 63.9118 46.4478C63.9122 45.2163 63.7274 44.3642 65.3129 44.3854C65.6358 44.5665 65.7971 44.7292 65.9915 45.0454C65.9772 45.9224 66.0186 46.8001 65.9915 47.6774C66.6836 47.1306 66.8082 46.6136 67.7948 46.514C68.1875 46.5458 68.3809 46.5915 68.6971 46.8403C69.2643 48.2245 67.6739 48.8011 67.0153 49.7562C67.8161 49.739 69.4383 49.647 70.1493 49.7894C70.8819 49.936 71.4319 50.8196 70.8297 51.4487C70.27 52.0337 68.9901 51.813 68.2737 51.8071L65.3129 51.8042C64.6411 52.295 62.7166 54.0706 62.3268 54.7538C62.7354 55.4194 62.9887 56.0739 63.1477 56.836C64.469 56.8376 65.8372 56.7476 67.1522 56.836C68.0717 55.9542 70.6518 52.6093 71.6663 53.5937C72.7588 54.654 70.7256 56.1733 70.0592 56.836C71.0063 56.822 72.0614 56.7112 72.6059 57.6382V58.3396C72.026 59.253 70.9985 59.047 70.0592 58.9378L70.1887 59.1071C70.8383 59.9667 72.3235 60.7228 71.8467 61.9833C71.3827 62.4364 71.1405 62.4849 70.5151 62.2413C69.7155 61.9284 67.6436 59.6628 67.0153 58.9378C65.7268 58.9536 64.4364 58.9378 63.1477 58.9378C62.969 59.5765 62.6709 60.1759 62.3268 60.7401C63.2512 61.3858 64.7049 63.0134 65.5291 63.8823C67.1241 63.8813 68.7198 63.9001 70.3145 63.8823C70.5307 64.0929 70.6815 64.3257 70.8422 64.579C70.8665 64.847 70.8563 65.104 70.8422 65.3722C70.6815 65.586 70.5038 65.7681 70.3145 65.9562C69.3295 65.9685 68.3372 65.9632 67.3512 65.9562C68.01 66.6542 69.0663 67.145 68.8756 68.2544C68.0385 69.5751 66.9289 68.4589 66.2594 67.6099C66.1811 68.7132 66.717 70.1212 65.5291 70.7522C62.9592 70.8071 64.8786 66.7009 63.7649 65.128C63.4108 64.6278 61.3907 62.6073 60.8786 62.2413C60.2649 62.6927 59.5707 62.944 58.8377 63.1274V67.2913C59.4807 67.8528 60.0518 68.4989 60.6657 69.0925C61.2934 69.6995 62.8391 70.6593 62.0405 71.6888C61.0989 72.9026 59.5922 70.7454 58.9051 70.2472L58.8377 70.1989C58.8491 71.0782 59.0323 72.5429 57.6241 72.2909C57.2768 72.2288 57.1114 72.044 56.9143 71.7665C56.7209 71.2948 56.7309 70.7028 56.7409 70.1989C55.9815 71.0132 55.1577 72.1747 54.019 72.4274C51.644 71.8048 53.9633 69.889 54.7071 69.1452C55.1547 68.6978 56.1297 67.3905 56.7409 67.2913V63.1274C56.0342 63.0019 55.2944 62.6583 54.7137 62.2413C53.8077 62.8772 52.2358 64.5335 51.4157 65.3722C51.4213 67.2237 52.2018 70.5337 50.359 71.0823C48.6231 70.6399 49.3159 68.705 49.2653 67.2913C48.5497 68.086 48.043 68.8999 46.8598 68.5759C45.7752 67.5317 46.8147 66.703 47.6497 65.9562C46.3748 65.9397 44.968 66.3134 44.6448 64.7323C45.1834 63.0446 48.3903 63.8599 50.0116 63.7776C50.4438 63.0562 52.5481 60.8112 53.2288 60.7401C52.9159 60.1774 52.6059 59.5698 52.4651 58.9378C51.0364 58.9308 49.5868 59.0302 48.1625 58.9378C47.2559 59.9983 44.4787 63.7392 43.1193 61.9833C43.1136 61.7071 43.119 61.4296 43.1193 61.1532C43.5975 60.2749 44.4952 59.7419 45.0729 58.9378L44.9055 58.9478C44.0079 59.0013 43.1619 59.1708 42.4357 58.5259C41.6769 56.6228 43.8622 56.786 45.0729 56.836C44.4806 56.2624 43.0337 55.2478 42.9784 54.4255C42.9221 53.5892 43.8076 53.0269 44.5457 53.4472C45.4094 53.9388 47.2245 56.0091 48.1625 56.836H52.4651C52.5356 56.0583 52.7872 55.395 53.2288 54.7538C52.3293 53.7565 51.3303 52.8313 50.359 51.9044C49.2077 51.9034 46.137 52.0841 45.1684 51.9134C44.4166 51.7808 44.0681 50.6667 44.626 50.1384C45.2036 49.5915 47.3362 49.7593 48.1625 49.7562C47.4666 48.9806 44.8928 47.2946 47.4278 46.514C48.3184 46.7286 48.8707 47.544 49.4637 48.1872C49.4778 46.7351 48.9127 45.0577 50.359 44.3854C50.7795 44.373 51.0426 44.45 51.4157 44.6376C51.7049 45.4589 51.5622 48.9604 51.561 50.0442C52.6457 51.0489 53.6629 52.164 54.7137 53.2073C55.3748 52.8976 56.0262 52.6595 56.7409 52.5073C56.7442 51.0081 56.6342 49.4741 56.7409 47.9817C55.861 47.1608 53.5377 44.9245 53.2288 44.0798C53.8795 41.524 55.851 43.9787 56.7409 44.9325ZM57.4786 54.5214C55.6665 54.6942 54.3403 56.3069 54.5202 58.1183C54.7002 59.9296 56.318 61.2495 58.1286 61.0624C59.9291 60.8765 61.2405 59.2694 61.0614 57.4681C60.8823 55.6669 59.2805 54.3493 57.4786 54.5214Z" fill="white"/>
<path d="M83.301 65.3723C81.0944 61.7627 79.9754 55.87 83.0539 52.426C86.4086 48.6729 94.5235 47.1387 99.6233 46.8405C103.694 46.6879 103.766 46.5137 103.568 50.2563C103.283 55.6512 101.418 66.6856 95.0787 68.3733C91.47 69.334 87.9727 68.3752 84.8389 66.5678C84.2582 67.5711 83.1155 68.5266 82.284 69.3534C81.7791 69.8676 81.3149 70.3807 80.691 70.7524C80.0881 70.4998 79.4143 70.0879 79.5543 69.3237C79.6551 68.7733 82.7649 65.7651 83.301 65.3723ZM99.2469 48.9725C94.8272 49.3936 87.1914 50.8002 84.4502 54.1313C82.2547 56.7991 83.5614 60.9961 84.8389 63.7778L92.3703 56.242C93.4582 55.1543 94.7135 53.6557 95.9127 52.7502C96.8553 52.0383 97.6727 52.8785 97.6022 53.8619L97.4293 54.1762C96.9442 54.727 96.4022 55.2352 95.884 55.7551L93.2239 58.4278C91.0135 60.6526 88.8414 62.925 86.5785 65.0969C88.6672 66.3926 91.8951 66.8969 94.268 66.3475C98.9268 65.269 100.748 56.8532 101.206 52.9418C101.36 51.6196 101.389 50.2916 101.529 48.9725C100.772 48.9518 100.003 48.9348 99.2469 48.9725Z" fill="white"/>
<path d="M105.936 67.7702C105.079 67.9952 104.225 67.0438 104.638 66.2352C104.892 65.7381 108.532 61.9321 109.441 61.6241C110.127 61.5883 110.931 62.1876 110.698 62.9376C110.521 63.5098 106.651 67.4081 105.936 67.7702Z" fill="white"/>
<path d="M38.0562 71.0825C37.2446 71.0784 36.4394 70.4329 36.8775 69.5483C37.1961 68.9051 40.5741 65.4186 41.4773 65.0969C42.5748 65.0303 42.7938 65.5581 42.7173 66.5678C42.1782 67.2971 38.7118 70.8487 38.0562 71.0825Z" fill="white"/>
<path d="M39.1082 84.4231C38.2497 84.5161 37.4455 83.8571 37.8339 82.9278C37.9872 82.561 41.5249 78.8098 42.4357 78.4301C43.2318 78.3569 44.0248 79.1268 43.6114 79.9389C43.2976 80.5555 39.8458 84.2036 39.1082 84.4231Z" fill="white"/>
<path d="M64.8863 83.1537C66.0516 82.2184 68.0354 79.6823 69.1926 79.2483C69.5932 79.2424 69.9475 79.3487 70.2287 79.6471C71.0299 80.4965 69.6057 81.5004 69.0658 82.041C68.2031 82.9051 67.3405 83.7664 66.4533 84.6055C66.4188 86.4231 66.7014 88.6782 66.8621 90.5032C66.9338 91.3176 67.485 93.5969 66.2362 93.8063C64.5633 94.0866 64.7953 92.0155 64.7039 90.9578C64.5858 89.5924 64.4754 88.2137 64.3141 86.8528C62.5735 88.2535 62.7672 88.2387 62.9787 90.2846C63.125 91.6977 63.5584 94.9012 63.4463 96.2453C63.3596 97.2844 61.7002 97.5442 61.3916 96.5334C61.2151 95.9551 61.2112 95.2758 61.1498 94.6756L60.7559 90.4285C60.0194 90.9957 59.3137 91.7258 58.6668 92.3942C58.8449 93.5297 58.8819 94.7248 58.9981 95.8719L59.3196 98.9409C59.4309 99.9705 59.6848 101.21 59.5018 102.228C59.0278 102.908 58.4168 102.989 57.7289 102.534C57.1826 101.726 56.7955 95.6928 56.7412 94.4826C56.0449 95.1067 55.217 95.7977 54.7141 96.5844C54.5076 98.1035 55.5362 104.296 54.8904 105.049C54.549 105.447 53.7143 105.56 53.3154 105.189C52.7563 104.67 52.5916 99.6305 52.5848 98.7389C51.7246 99.4047 50.5807 100.549 49.8049 101.34C49.2076 101.95 48.6176 102.944 47.65 102.809C47.0024 102.505 46.5877 101.829 47.053 101.141C47.5543 100.398 50.3121 97.7487 51.0992 97.0619C49.2108 96.901 46.0647 96.9547 44.3447 96.5844C43.9409 96.2565 43.7961 95.9735 43.6606 95.4828C43.8762 94.9088 44.1067 94.7317 44.6451 94.4826C47.4045 94.417 50.386 94.878 53.2291 94.8731C53.7817 94.4385 54.7758 93.5446 55.0789 92.9346C53.1543 92.6153 48.0746 92.9305 46.992 92.416C46.6481 92.2528 46.5387 91.8149 46.436 91.4823C46.767 89.708 48.9514 90.4114 50.4487 90.4877C52.7401 90.6045 55.0346 90.7791 57.3297 90.7703C57.5412 90.6416 58.8344 89.2192 59.335 88.8336C57.3955 88.578 54.7987 88.7541 53.0561 88.3975C51.9612 88.1735 52.1444 86.4127 53.2166 86.2877C55.3262 86.0418 59.1014 86.7053 61.5262 86.6686C61.867 86.1649 62.3403 85.7104 62.8768 85.4235C60.6723 85.1077 58.5057 85.1319 56.374 84.7932C55.4883 84.0944 55.5047 82.761 56.7957 82.6651C58.8572 82.5121 62.6129 83.0752 64.8863 83.1537Z" fill="white"/>
<path d="M104.793 85.1645C104.591 84.8293 104.43 84.4448 104.566 84.0512C104.718 83.6125 108.614 79.6362 109.441 79.2485C110.297 79.2198 111.143 79.8627 110.687 80.8018C110.442 81.3043 106.646 85.1684 105.936 85.4237C105.487 85.5274 105.169 85.4104 104.793 85.1645Z" fill="white"/>
<path d="M92.5917 106.676C85.4308 107.194 79.2087 101.802 78.7036 94.6403C78.1985 87.4784 83.6022 81.2663 90.7651 80.7747C97.9089 80.2842 104.101 85.6707 104.605 92.8135C105.108 99.9565 99.7337 106.159 92.5917 106.676ZM90.5606 83.0082C85.864 83.2762 81.8894 86.9633 81.0575 91.5549C80.9978 91.885 80.8813 92.2627 80.9638 92.5969L81.0483 92.6268C81.9065 92.651 82.7712 92.6557 83.6292 92.6268C84.3024 89.0061 86.8862 86.1907 90.6274 85.8194C90.6288 85.1793 90.7165 83.5571 90.5981 83.0307L90.5606 83.0082ZM92.7251 83.0082C92.6337 83.9311 92.7366 84.8905 92.7251 85.8194C96.3476 86.6198 98.9522 88.9588 99.6231 92.6268C100.503 92.6303 101.463 92.7153 102.332 92.6268C102.353 92.1915 102.236 91.7231 102.128 91.304C100.987 86.8873 97.3337 83.4692 92.7251 83.0082ZM90.5606 88.0737C88.969 88.3911 87.6466 89.2147 86.7298 90.577C86.5575 90.8331 85.5054 92.5331 86.0452 92.6268H90.6274C90.6269 92.2231 90.7298 88.2358 90.6339 88.0776L90.5606 88.0737ZM92.7251 88.0737C92.7368 89.5913 92.7069 91.1096 92.7251 92.6268H97.4292C96.7692 90.3772 95.0839 88.5061 92.7251 88.0737ZM81.4782 94.7327C80.7157 94.794 80.9624 94.953 81.1288 95.7959C82.0257 100.34 85.7464 103.796 90.3194 104.448L90.5272 104.461C90.7255 104.192 90.629 102.075 90.6274 101.674C86.2874 100.558 84.8081 98.7895 83.6292 94.7327C82.911 94.7768 82.1964 94.7258 81.4782 94.7327ZM85.8843 94.7327C86.8143 97.8334 87.9462 98.4211 90.6274 99.4817C90.655 97.8998 90.6263 96.3149 90.6274 94.7327C89.0544 94.7475 87.4528 94.6563 85.8843 94.7327ZM92.7251 94.7327C92.7233 96.3145 92.6987 97.9 92.7251 99.4817C93.9483 99.1811 94.914 98.6715 95.8311 97.8004C96.4511 97.1518 97.3835 95.7997 97.4196 94.8881L97.3681 94.7747C96.9602 94.6383 93.4292 94.7266 92.7251 94.7327ZM99.6231 94.7327C98.9362 98.8694 96.5657 100.809 92.7251 101.674C92.7472 102.598 92.7325 103.523 92.7251 104.448C93.4788 104.45 94.2386 104.306 94.9601 104.091C99.031 102.667 102.048 99.0772 102.332 94.7327C101.433 94.7745 100.524 94.7375 99.6231 94.7327Z" fill="white"/>
<path d="M65.5292 111.549C64.3786 111.742 63.6876 110.645 64.3867 109.702C65.0534 108.803 67.7611 105.592 68.5283 105.225C69.7706 105.215 70.1941 106.036 69.4802 107.051C68.9413 107.816 66.1642 111.17 65.5292 111.549Z" fill="white"/>
</svg>
