<svg width="150" height="150" viewBox="0 0 150 150" fill="none" xmlns="http://www.w3.org/2000/svg">
<circle cx="75" cy="75" r="75" fill="#666666"/>
<circle cx="75" cy="75" r="72.5" stroke="white" stroke-opacity="0.5" stroke-width="5"/>
<path d="M91.8968 48.585L91.89 45.7052C91.8855 42.8318 92.0013 43.1919 94.5081 43.2043L109.365 43.209L115.626 43.2087C116.656 43.2079 118.483 42.9284 119.419 43.4152C119.954 44.2081 119.668 56.0846 119.668 57.8372L119.67 103.028C119.67 104.757 120.263 106.546 118.168 106.633C116.114 106.718 114.044 106.687 111.988 106.688L95.7058 106.687C94.6169 106.688 93.5009 106.766 92.4165 106.686C91.4818 106.093 91.7421 105.117 91.7425 104.145L91.747 101.05H58.1064L58.13 105.011C58.1421 107.022 57.2773 106.577 55.7111 106.572L41.2233 106.567L34.566 106.566C33.914 106.565 30.899 106.82 30.5262 106.237C30.1145 105.592 30.37 98.7823 30.3686 97.6081L30.3698 47.1643C30.3698 46.2698 30.2559 44.4014 30.4698 43.6259C31.1661 42.8411 34.6444 43.2103 35.7531 43.2104L53.2089 43.2085C54.6333 43.207 56.1237 43.1171 57.5419 43.2233C58.6306 43.3048 58.3396 44.9432 58.3402 45.6764L58.3386 48.585H91.8968ZM94.2282 45.1643C93.3114 45.2341 93.6972 47.7483 93.7013 48.585H112.024C112.804 48.5841 112.453 45.9606 112.451 45.1643C106.38 45.0987 100.301 45.1647 94.2282 45.1643ZM32.2749 45.1643C32.2734 46.2944 32.3368 47.4589 32.2749 48.585H35.6569V45.1643C34.5301 45.1608 33.4015 45.1434 32.2749 45.1643ZM37.5514 45.1643V48.585H56.3751V45.1643H37.5514ZM114.356 45.1643C114.245 46.2843 114.335 47.4579 114.356 48.585C115.463 48.6188 116.586 48.6096 117.693 48.585C117.748 47.4518 117.69 46.2999 117.693 45.1643H114.356ZM48.4027 50.5126H37.5514V65.7466C38.5988 65.1587 39.8333 63.8114 40.8094 62.9993C45.4851 58.8874 50.039 54.6413 54.6997 50.5126C52.6032 50.4778 50.4999 50.5138 48.4027 50.5126ZM66.1321 50.5126C65.2634 50.5151 64.3943 50.5218 63.5255 50.5126C63.4798 51.128 63.521 51.7495 63.523 52.3661L63.5269 65.8466C63.5263 67.537 63.5984 69.262 63.5255 70.9487C64.9646 70.9788 66.4071 70.9471 67.8468 70.9487C68.6814 70.953 69.5292 70.9876 70.362 70.9487V50.5126C68.9521 50.4946 67.5421 50.5036 66.1321 50.5126ZM75.1222 50.5126C74.1864 50.5118 73.2499 50.5028 72.3142 50.5126C72.3105 51.8026 72.3607 53.1063 72.3142 54.3942H75.1222C76.0169 54.3891 76.9144 54.3692 77.8087 54.3942V50.5126H75.1222ZM79.7851 50.5126C79.6257 52.3886 79.7866 54.9266 79.7857 56.8741L79.7851 70.9487C82.0318 70.9452 84.2855 70.9919 86.531 70.9487C86.628 70.4534 86.5376 69.8333 86.5339 69.3194L86.531 50.5126L82.0245 50.5106C81.2812 50.5098 80.5271 50.479 79.7851 50.5126ZM92.0691 50.5126H88.4765C88.44 51.2667 88.4745 52.0247 88.4755 52.7796L88.4765 70.9487H108.862C110.057 70.9485 111.258 70.9184 112.451 70.9487C112.443 70.1739 112.405 69.3848 112.451 68.6116C112.021 67.9401 111.212 67.368 110.613 66.8466C107.355 64.0134 92.7185 50.6407 92.154 50.5122C92.1153 50.5034 92.1027 50.5077 92.0691 50.5126ZM95.181 50.5126C96.382 51.6237 97.6239 52.6889 98.845 53.7778L109.498 63.2809C110.082 63.8075 111.735 65.5237 112.404 65.7554L112.451 65.7466C112.41 64.785 112.451 63.8153 112.451 62.8524L112.448 52.9225C112.444 52.1173 112.395 51.3171 112.451 50.5126H95.181ZM114.356 50.5126V70.9487C115.451 70.9524 116.606 71.0341 117.693 70.9487C117.663 68.6716 117.694 66.3903 117.694 64.1126L117.693 50.5126C116.594 50.4884 115.453 50.4536 114.356 50.5126ZM32.2749 50.5126V70.9487H35.6569C35.6579 64.1393 35.7332 57.3212 35.6569 50.5126C34.5361 50.5161 33.3935 50.5655 32.2749 50.5126ZM57.5249 50.5126C56.3374 51.4003 54.9931 52.8329 53.8446 53.8485L38.9757 67.1554C38.5069 67.5737 37.98 67.9839 37.5514 68.4417V70.9487H41.7237H61.5946L61.5925 52.27C61.5907 51.7036 61.5154 51.0702 61.5946 50.5126H57.5249ZM72.3142 56.3038V60.0581H77.8087V56.3038H72.3142ZM72.3142 62.0116C72.3446 63.2511 72.3357 64.5065 72.3142 65.7466H77.8087L77.8618 65.6991C77.7738 64.4827 77.7747 63.2315 77.8087 62.0116H72.3142ZM72.3142 67.7147C72.3155 68.7872 72.3581 69.8782 72.3142 70.9487H77.8087V67.7147H72.3142ZM103.876 72.893L39.9415 72.8938C39.1448 72.8952 38.3475 72.9325 37.5514 72.893V76.4065H46.3458H112.451V72.893H103.876ZM32.2749 72.893C32.2996 74.0245 32.3603 75.2856 32.2749 76.4065C33.397 76.4325 34.535 76.4309 35.6569 76.4065C35.7459 75.2528 35.6313 74.053 35.6569 72.893C34.5303 72.9261 33.402 72.8868 32.2749 72.893ZM114.356 72.893V76.4065C115.467 76.419 116.582 76.4216 117.693 76.4065C117.691 75.2358 117.676 74.0634 117.693 72.893H114.356ZM32.3874 78.3686L32.3054 78.3979C32.1915 78.8932 32.2717 79.5534 32.2726 80.0655L32.2749 99.1206H35.6569C35.5926 96.8348 35.6568 94.5315 35.6569 92.2436L35.6569 78.3686C34.905 78.3253 33.1149 78.2727 32.3874 78.3686ZM37.5514 78.3686V80.5063C40.2448 82.837 42.8441 85.2671 45.4634 87.6811L57.814 99.1206H61.5946V78.3686H37.5514ZM63.5255 78.3686C63.4663 79.1393 63.5196 79.9386 63.5234 80.7126L63.5255 99.1206C65.7987 99.1454 68.0892 99.161 70.362 99.1206C70.412 99.019 70.362 80.2497 70.362 78.3686C68.1228 78.3184 65.7628 78.287 63.5255 78.3686ZM72.3142 78.3686C72.2779 79.7661 72.3193 81.1618 72.3142 82.5597H77.8087C77.897 82.136 77.8204 81.5856 77.8167 81.1501L77.8087 78.3686H72.3142ZM79.7851 78.3686C79.6091 80.1499 79.7859 82.8403 79.7853 84.7102L79.7851 99.1206L84.42 99.1241C85.1058 99.1247 85.8511 99.1846 86.531 99.1206C86.5675 97.6409 86.5314 96.1532 86.5312 94.6727L86.5331 80.7636C86.5343 79.9766 86.6028 79.1501 86.531 78.3686H79.7851ZM88.4765 78.3686V99.1206C89.6144 99.1075 90.7589 99.0981 91.8968 99.1206C92.5804 98.5446 93.2278 97.9257 93.8923 97.3282L97.5929 94.0177C99.2956 92.4964 101.065 91.0393 102.719 89.4659L110.775 82.272C111.34 81.7618 111.94 81.2651 112.451 80.7013C112.429 79.9233 112.44 79.1468 112.451 78.3686L91.0095 78.3661C90.1782 78.3649 89.3019 78.3013 88.4765 78.3686ZM114.356 78.3686L114.359 96.3251C114.366 97.254 114.409 98.1927 114.356 99.1206C115.467 99.1171 116.583 99.0909 117.693 99.1206V78.3686H114.356ZM37.5514 83.0278V99.1206H55.0296C52.631 96.6046 49.6138 94.1571 47.047 91.7655C44.5366 89.4266 42.0523 87.0536 39.4967 84.7638C38.9197 84.2468 38.1992 83.41 37.5514 83.0278ZM112.451 83.3917C109.649 85.5497 106.655 88.5313 104.016 90.9261C101.179 93.5011 98.2101 95.9452 95.4148 98.5639C95.321 98.652 94.878 99.0856 95.181 99.1206C96.4679 99.0546 97.7808 99.121 99.0714 99.122L110.753 99.1161C111.291 99.1136 111.928 99.0255 112.451 99.1206C112.451 97.6733 112.48 83.4389 112.451 83.3917ZM74.1534 84.5257C73.5384 84.5499 72.9294 84.543 72.3142 84.5257C72.2437 85.7372 72.2935 86.9913 72.3142 88.2063C73.4636 88.2587 74.6187 88.1993 75.7691 88.2063C76.4491 88.1972 77.1288 88.1831 77.8087 88.2063V84.5257C76.5909 84.5268 75.3708 84.5438 74.1534 84.5257ZM72.3142 90.185C72.2765 91.4071 72.2753 92.6774 72.3142 93.8989H77.8087C77.8915 92.6757 77.8015 91.4141 77.8087 90.185H72.3142ZM72.3142 95.8499C72.1644 96.8472 72.3191 98.0958 72.3142 99.1206C74.1429 99.1602 75.9794 99.1198 77.8087 99.1206V95.8499H72.3142ZM33.1444 101.05C32.8552 101.046 32.5637 101.033 32.2749 101.05C32.2297 102.236 32.2281 103.469 32.2749 104.655H34.4972C34.8836 104.652 35.2705 104.645 35.6569 104.655V101.05H33.1444ZM37.5514 101.05C37.5128 102.251 37.5871 103.453 37.5514 104.655L54.2347 104.652C54.8956 104.65 55.5945 104.597 56.2499 104.655C56.2984 103.459 56.2489 102.248 56.2499 101.05L43.8109 101.05C41.7299 101.05 39.6305 100.991 37.5514 101.05ZM100.08 101.05C98.0816 101.065 95.6493 101.181 93.7013 101.05V104.655C95.0771 104.692 96.4609 104.655 97.8376 104.655L106.042 104.655H112.451C112.476 103.454 112.449 102.251 112.451 101.05H100.08ZM114.356 101.05V104.655C115.439 104.656 116.623 104.774 117.693 104.655V101.05C116.691 101.022 115.344 100.946 114.356 101.05Z" fill="white"/>
<path d="M42.7612 69.5797C42.0827 69.5822 39.4445 69.9107 40.0527 68.5035C40.3656 67.7797 42.2657 65.941 43.1292 65.6201C44.4969 65.3722 43.9343 67.0056 43.6866 67.7146C44.4696 67.7297 46.4893 68.0435 45.3545 69.2433C44.876 69.7496 43.4067 69.5793 42.7612 69.5797Z" fill="white"/>
<path d="M105.73 66.5344C105.908 66.0725 106.056 65.8463 106.514 65.6201C106.856 65.6113 111.491 68.3885 109.572 69.5797H107.495C106.758 69.5737 105.237 69.858 104.702 69.219C103.629 67.9371 105.539 67.6238 106.514 67.7147C106.151 67.3438 105.888 67.0391 105.73 66.5344Z" fill="white"/>
<path d="M43.5009 83.7767C42.3759 83.3816 41.7702 82.3097 40.8926 81.5775C40.439 81.199 38.9382 80.3494 40.592 79.642C41.296 79.6256 44.8814 79.5263 45.2518 79.8093C46.2709 80.5886 45.3252 81.3107 44.287 81.4132C44.2226 81.9216 44.2817 82.5105 44.287 83.0277C44.1691 83.4691 43.91 83.6037 43.5009 83.7767Z" fill="white"/>
<path d="M104.753 79.787C105.08 79.6926 105.392 79.6557 105.73 79.6424C106.561 79.6672 109.13 79.4836 109.76 79.8268C111.039 80.5229 107.948 82.6256 107.539 83.1588L107.495 83.2172C107.16 83.3934 106.864 83.6249 106.514 83.7772C105.685 83.544 105.541 83.2323 105.482 82.379C105.724 82.0252 106.009 81.8221 106.36 81.5922L105.786 81.5967C104.404 81.5995 103.808 80.6983 104.753 79.787Z" fill="white"/>
</svg>
