<svg width="150" height="150" viewBox="0 0 150 150" fill="none" xmlns="http://www.w3.org/2000/svg">
<circle cx="75" cy="75" r="75" fill="#666666"/>
<circle cx="75" cy="75" r="72.5" stroke="white" stroke-opacity="0.5" stroke-width="5"/>
<path d="M50.5026 62.8861L50.4991 45.3103C50.4778 40.1564 51.563 40.4041 56.6335 40.4037L64.052 40.4057L114.427 40.3998C119.031 40.3597 119.661 41.6249 119.648 45.6629L119.659 61.8685C119.653 66.2705 115.01 65.5582 112.012 65.5512V84.0332C115.06 84.0723 119.592 83.0883 119.644 87.6916C119.691 91.9256 119.647 96.1652 119.646 100.4L119.645 104.029C119.643 108.762 119.249 109.595 113.948 109.597L93.5182 109.596L35.5139 109.598C34.6851 109.598 33.8299 109.632 33.0049 109.547C29.5132 109.183 30.3461 104.552 30.3526 102.069L30.3474 89.2385C30.3463 87.1355 30.0539 84.934 32.6451 84.1902C33.8269 83.851 37.0002 84.0742 38.429 84.0332L38.425 67.5178C38.4167 62.582 39.5562 62.8846 43.9885 62.8842L50.5026 62.8861ZM53.5198 43.0176C52.9149 43.1453 53.1667 44.506 53.1671 45.1015C53.1681 46.5166 53.2202 47.9502 53.1682 49.3635L68.3737 49.3607C69.0975 49.3592 70.7118 49.1334 71.2882 49.6805C71.8186 50.1838 71.8634 51.1508 71.3145 51.6611C70.7186 52.215 69.5448 51.9949 68.8089 51.9941L53.1682 51.9984V56.6681C55.2013 56.7291 57.2542 56.6646 59.2888 56.6639C60.5163 56.6633 62.8061 56.2287 62.6378 58.19C62.503 59.7615 59.662 59.323 58.6307 59.3232L53.1682 59.3224V62.8861H58.6063H84.5641C83.8378 60.0533 83.6337 57.5375 84.6485 54.7164C84.9552 53.8639 86.4548 50.5055 86.4069 49.7252C86.3272 48.4285 85.2909 47.2785 84.8261 46.0861C84.4348 45.0822 84.2241 44.0575 83.9632 43.0176C80.8296 43.0507 77.6925 43.0173 74.5585 43.017L53.5198 43.0176ZM87.035 43.0176C86.8895 43.0373 86.7843 43.034 86.6643 43.1254C86.7602 44.6705 88.1151 46.5365 88.6714 48.0008C90.3626 52.4515 84.296 56.4107 87.536 62.8861H91.1987L91.5071 62.881C91.5673 62.7375 91.1694 61.6424 91.1054 61.4025C89.4651 55.2551 95.1198 53.2142 92.2598 46.2183C91.8218 45.1467 91.2942 44.145 91.0005 43.0176H87.035ZM93.9657 43.0176L93.8759 43.0605C93.8249 43.4127 94.521 44.5594 94.6909 44.9676C96.1364 48.4428 95.9056 52.093 94.4608 55.533C93.0556 58.8793 93.0024 59.2869 94.3634 62.8861H112.773C111.566 61.7851 110.404 60.5031 109.744 58.9879C108.374 58.9529 106.998 58.9898 105.628 58.9879L102.145 58.9908C101.317 58.9971 100.007 59.2449 99.3526 58.5834C98.8661 58.0914 98.9362 57.1058 99.4446 56.6553C100.086 56.0867 102.056 56.3654 102.857 56.3662L108.671 56.3668C107.799 52.6791 108.179 48.7605 110.182 45.4855C110.721 44.6039 111.481 43.8943 112.012 43.0176L95.7577 43.0138C95.1721 43.0125 94.5468 42.9627 93.9657 43.0176ZM116.464 43.0176C113.462 45.3078 111.443 47.1357 110.896 51.2219C110.451 54.5469 111.635 57.8181 113.895 60.2469C114.366 60.7648 116.188 62.6094 116.868 62.5004C117.182 61.893 116.994 58.5017 116.994 57.6855L116.991 50.3045C116.991 48.6053 117.501 44.1115 116.464 43.0176ZM41.0645 65.5512V70.4701L46.611 70.4672C47.5214 70.465 48.5534 70.3656 49.4509 70.5066C50.8565 70.7275 50.9005 72.9334 49.4163 73.1599C48.5468 73.2928 47.5423 73.198 46.6606 73.1973L41.0645 73.1931V84.0332H56.5675L61.3405 84.0355C62.1194 84.0359 62.9261 84.0834 63.7018 84.0332C61.5485 79.4135 62.5979 76.9012 64.4692 72.8482C65.6919 70.1998 64.6723 67.9086 63.4276 65.5512H41.0645ZM66.837 65.5512H66.3151C68.7399 70.5795 67.9243 71.1844 65.8792 75.9334C64.76 78.5326 65.3222 81.3689 66.4942 83.8402L66.5866 84.0332C67.837 84.1326 69.1198 84.0287 70.3753 84.0332C70.5354 84.0183 70.719 84.0236 70.8589 83.9435C69.8688 81.0273 68.752 78.8791 70.3026 75.701C72.1645 71.8847 73.1548 69.8228 70.5489 65.5512L68.0874 65.5461C67.6755 65.5451 67.2468 65.5185 66.837 65.5512ZM79.4731 65.5512L75.5731 65.5541C74.8807 65.5551 74.1823 65.5818 73.4909 65.5512C75.8444 69.975 74.4731 72.9633 72.6491 76.8504C71.6438 78.9931 72.6675 82.0361 73.786 84.0332H91.0005L95.5919 84.0353C96.3915 84.0357 97.203 84.0666 98.0013 84.0332C97.0485 81.3336 96.8593 78.9107 97.7341 76.1C98.5018 73.6338 98.6249 73.29 97.6198 70.9787C96.8688 69.2514 96.2866 67.4545 96.338 65.5512C90.719 65.4941 85.0929 65.5515 79.4731 65.5512ZM98.8802 65.5512C98.8565 66.7644 99.2427 68.1433 99.712 69.2492C101.336 73.0754 101.328 73.0898 100.239 77.1265C99.2864 80.6529 100.165 81.1389 100.768 84.0332C101.571 84.034 104.75 84.1369 105.291 83.967L105.331 83.916C102.325 77.3185 105.918 77.2533 105.445 72.6203C105.249 70.6969 103.465 67.8568 102.827 65.5512L100.196 65.5459C99.7645 65.5447 99.3091 65.5105 98.8802 65.5512ZM105.925 65.5512L105.586 65.5904C105.627 66.2947 106.748 68.1769 107.086 68.9621C108.046 71.1865 108.41 73.8324 107.658 76.1723C107.281 77.3435 106.644 78.4305 106.708 79.7008C106.783 81.2066 107.763 82.4676 108.032 83.916C108.333 84.2139 109.041 84.0361 109.435 84.0332C109.47 82.2389 109.435 80.4383 109.434 78.6432L109.435 65.5512C108.644 65.4969 106.714 65.4705 105.925 65.5512ZM39.9025 86.6906C39.0371 86.6902 33.4165 86.549 33.0449 86.8836C32.9352 87.4232 33.0022 88.0601 33.0028 88.6144L33.0074 91.9123L38.0091 91.9146C39.1035 91.9146 41.57 91.5043 41.5421 93.2424C41.5138 95.0092 39.3388 94.5849 38.201 94.581C36.4705 94.5754 34.7377 94.5588 33.0074 94.5799V99.8517L35.5633 99.8467C36.2303 99.839 37.4851 99.6248 38.027 100.133C38.5631 100.635 38.5859 101.685 38.029 102.178C37.3707 102.76 35.6999 102.476 34.839 102.495H33.0074C32.9574 103.876 32.9239 105.61 33.0074 106.982C37.0057 106.878 41.3541 107.225 45.2624 106.982C43.478 104.009 43.7622 98.9095 45.2931 95.7701C47.6966 90.8412 44.9413 91.0226 44.5477 86.6906H39.9025ZM54.3024 86.6906L54.3192 86.75C55.3761 90.3533 56.7759 92.7045 55.0991 96.7762C54.8239 97.4443 54.4493 98.065 54.1563 98.7244C53.039 101.239 53.4556 104.841 55.2768 106.982H81.7788C82.8296 106.981 83.9018 106.92 84.9489 106.982C84.9585 106.547 84.2757 105.414 84.0913 104.807C83.1901 101.837 83.3669 98.3881 84.7292 95.59C86.4608 92.0332 85.9098 92.568 84.4753 89.3334C84.0989 88.4846 83.8321 87.5728 83.5456 86.6906L57.569 86.6902C56.4848 86.6896 55.3848 86.648 54.3024 86.6906ZM86.3725 86.6906C86.6388 88.6394 88.4058 90.1771 88.4585 92.4201C88.5569 96.6101 84.2585 98.6357 86.879 104.741C88.1073 107.602 88.2927 106.971 91.1987 106.982C92.197 106.915 91.4276 106.249 91.0653 105.305C89.9827 102.484 90.2757 99.6394 91.3981 96.8963C93.1169 92.6957 92.4116 90.6834 90.3827 86.6906L87.7653 86.6853C87.3059 86.6834 86.8294 86.648 86.3725 86.6906ZM96.7128 86.6906H93.3352C95.0229 90.2074 95.6704 92.8609 94.3083 96.6974C93.1751 99.8885 92.1571 101.647 93.8782 105.271C94.1571 105.858 94.5606 106.39 94.8188 106.982C95.5192 107.013 96.2227 106.984 96.9239 106.983L112.773 106.982C111.56 105.933 110.006 104.14 109.744 102.495C109.311 102.555 108.902 102.554 108.469 102.495C107.801 102.597 107.174 102.504 106.505 102.498L103.012 102.495C102.224 102.495 99.9757 102.754 99.5048 102.424C98.497 101.717 98.8513 100.126 100.085 100.015C101.064 99.9271 102.098 99.9898 103.083 99.99L108.671 99.9933C107.525 94.4303 108.998 90.8646 112.337 86.6906L101.905 86.6902C100.182 86.69 98.4315 86.6197 96.7128 86.6906ZM47.2249 86.6906C47.0099 89.5873 50.8905 90.1396 47.7495 96.9197C45.9276 100.853 46.4604 103.43 48.236 106.982C49.5202 106.982 50.8141 107.018 52.097 106.982L52.077 106.909C51.7673 105.795 51.2563 104.803 51.0659 103.644C50.17 98.1922 53.4606 96.3683 53.2141 92.4791C53.0852 90.4449 52.0278 88.6361 51.5157 86.6906C50.0874 86.6887 48.6526 86.6592 47.2249 86.6906ZM116.464 86.6906C113.436 89.2234 111.378 91.4484 111.015 95.6154C110.744 98.7148 111.72 102.16 113.895 104.447C114.745 105.381 115.622 106.104 116.679 106.791C117.247 105.555 116.995 103.959 116.992 102.626L116.992 90.8797C116.992 90.1797 117.367 86.6908 116.464 86.6906Z" fill="white"/>
<path d="M103.212 50.7807C102.536 50.8537 100.438 50.8533 99.8575 50.6309C98.644 50.1654 98.8655 48.5025 100.118 48.0326C100.839 48.0201 102.767 47.9084 103.362 48.1549C104.648 48.6873 104.427 50.3566 103.212 50.7807Z" fill="white"/>
<path d="M79.9561 51.3635C79.0938 51.3648 76.9623 51.535 76.3418 51.0971C75.2959 50.359 75.7076 48.825 77.2192 48.6361C78.3037 48.6301 81.1361 48.1646 81.3652 49.7498C81.5127 50.7695 80.9024 51.2549 79.9561 51.3635Z" fill="white"/>
<path d="M74.3737 60.247L71.9138 60.2466C71.3075 60.2488 70.6257 60.371 70.0737 60.0509C68.9409 59.3941 69.321 57.8222 70.5487 57.6167C71.3099 57.5533 74.5515 57.5515 75.1345 57.8062C75.7319 58.6892 75.5364 59.2859 75.1345 60.247C74.8784 60.2761 74.63 60.2609 74.3737 60.247Z" fill="white"/>
<path d="M57.3033 71.0422C56.3137 70.1279 56.1277 68.5988 57.5781 68.357C58.7277 68.358 62.2846 67.7504 61.7771 69.9605C61.6584 70.4785 61.1863 70.7756 60.7689 71.0422C59.8724 71.1012 58.157 71.1168 57.3033 71.0422Z" fill="white"/>
<path d="M89.7529 71.8661C89.2724 71.9015 88.7799 71.8702 88.298 71.8691L82.149 71.8685C81.3349 71.8689 80.4086 71.9603 79.6177 71.7658C78.6275 71.5224 78.3562 69.8839 79.7568 69.1788L86.373 69.1833C87.2957 69.1828 88.8021 69.0536 89.642 69.2396C91.1375 69.5708 91.0769 71.1009 89.7529 71.8661Z" fill="white"/>
<path d="M56.0438 79.8828C54.8483 79.8568 48.3874 80.1128 47.6747 79.6408C46.7975 79.0597 46.8666 77.538 48.2362 77.3019L54.1344 77.3015C54.7067 77.3001 55.2903 77.2214 55.8581 77.2369C57.3221 77.2769 57.484 79.308 56.0438 79.8828Z" fill="white"/>
<path d="M91.4183 80.026H82.1777C81.197 80.025 78.1665 80.2276 77.5362 79.741C76.4761 78.9223 77.0296 77.4541 78.5161 77.3016C82.3194 77.3596 88.0638 76.9059 91.6556 77.358C93.4318 77.5817 93.1036 79.877 91.4183 80.026Z" fill="white"/>
<path d="M63.7017 93.6761C62.8037 93.6689 60.55 93.9017 59.8988 93.3789C58.9008 92.5773 59.3357 91.0937 61.0027 90.9798C61.8728 90.9834 63.515 90.8638 64.2834 91.0248C65.7367 91.3291 65.9597 93.5724 63.7017 93.6761Z" fill="white"/>
<path d="M101.587 94.58C100.926 94.5243 99.867 94.6325 99.3715 94.1315C98.8765 93.631 98.792 92.6919 99.3566 92.2054C99.9136 91.7255 101.103 91.8677 101.783 91.9124C102.438 91.8741 103.38 91.7276 103.928 92.1528C104.537 92.6253 104.552 93.5372 104.045 94.0892C103.487 94.6958 102.337 94.5274 101.587 94.58Z" fill="white"/>
<path d="M77.9426 95.5531C76.995 95.5791 73.8344 95.7336 73.1532 95.3207C72.0854 94.6737 72.4692 93.0864 73.6385 92.8729L76.3823 92.8662C76.9436 92.8662 77.5477 92.8217 78.1012 92.9098C79.5678 93.143 79.3495 95.3574 77.9426 95.5531Z" fill="white"/>
<path d="M76.9914 102.495C76.261 102.548 75.5024 102.497 74.768 102.497L64.586 102.491C63.9342 102.49 62.9381 102.612 62.3289 102.448C61.0346 102.1 61.2434 100.366 62.3315 99.8519C63.1778 99.813 64.0368 99.8503 64.8848 99.8509L74.5075 99.8524C75.1778 99.8522 75.8664 99.8083 76.5342 99.8415C78.0928 99.9188 78.4924 101.894 76.9914 102.495Z" fill="white"/>
</svg>
