<svg width="60" height="60" viewBox="0 0 60 60" fill="none" xmlns="http://www.w3.org/2000/svg">
<path d="M9.72811 9.72811C13.2062 6.25 18.8041 6.25 30 6.25C41.1959 6.25 46.7938 6.25 50.2719 9.72811C53.75 13.2062 53.75 18.8041 53.75 30C53.75 41.1959 53.75 46.7938 50.2719 50.2719C46.7938 53.75 41.1959 53.75 30 53.75C18.8041 53.75 13.2062 53.75 9.72811 50.2719C6.25 46.7938 6.25 41.1959 6.25 30C6.25 18.8041 6.25 13.2062 9.72811 9.72811Z" stroke="white" stroke-width="1.5" stroke-linecap="round" stroke-linejoin="round"/>
<path d="M30 6.25V11M30 49V53.75M22.875 30H37.125M49 30H53.75M6.25 30H11M30 22.875V37.125" stroke="white" stroke-width="1.5" stroke-linecap="round" stroke-linejoin="round"/>
</svg>
