<svg width="100" height="100" viewBox="0 0 100 100" fill="none" xmlns="http://www.w3.org/2000/svg">
<path d="M23.9564 29.2873C24.3132 27.9824 24.4388 26.6208 24.7626 25.3015C27.6124 13.6929 37.1369 6.25171 48.7982 5.46921C61.897 4.58923 73.6458 14.741 75.8279 27.5292C75.9408 28.19 75.99 28.8748 76.1556 29.5242L76.173 29.591C77.9025 30.8177 78.5591 32.3867 78.5734 34.5154L78.5851 37.6552C78.605 41.6304 77.7417 44.3503 73.191 44.3373C72.7113 45.1423 72.0675 45.7835 71.5638 46.5597C72.0367 50.6646 71.164 54.3591 74.7447 57.5041C75.1892 57.8947 75.7035 58.1849 76.173 58.5425C76.2521 58.7578 76.298 58.9847 76.3515 59.2074C75.8203 61.3765 73.1499 63.6767 71.4509 65.1845C72.3814 65.6873 73.4484 65.932 74.4523 66.2431C80.9812 68.2658 83.1492 72.9611 84.0175 79.0675L85.221 87.8681C86.0074 93.6158 84.0816 94.4851 78.84 94.4822L51.2206 94.4796L21.6564 94.4814C18.7984 94.4822 14.8983 94.8445 14.3712 90.8406C14.1821 89.404 14.9277 85.8779 15.1561 84.3099L15.9642 78.6921C16.7323 73.6542 18.2061 69.6212 23.2976 67.2396C24.179 66.8273 27.9913 65.2929 28.8292 65.1845C27.2788 63.9503 23.8138 61.1875 23.6837 59.4068C23.6201 58.5347 24.3757 58.0953 24.938 57.5662C28.4337 54.2751 28.5339 50.6687 28.0925 46.0527C27.987 44.9505 27.7388 45.1486 26.9968 44.5351C25.3384 44.5513 23.7634 43.6939 22.7706 42.3734C21.305 40.4244 21.6384 38.3232 21.6249 36.041C21.6087 33.2869 21.4298 31.1314 23.9859 29.2976L23.9564 29.2873ZM49.7982 7.78891C38.8947 8.14012 29.9087 14.6728 27.1101 25.5378C26.8882 26.3992 26.6386 27.3462 26.6566 28.2369C27.3636 27.8761 28.0595 27.5453 28.8292 27.3345C30.2201 21.3417 32.8609 16.4741 38.3146 13.0763C42.5236 10.4539 46.1396 9.69913 51.0624 9.71714C59.914 10.4238 67.4833 15.7355 70.4997 24.2667C70.857 25.2769 71.0673 26.3347 71.4509 27.3345C72.4794 27.6542 73.0349 28.1001 73.7794 28.8642L73.7537 28.7773C73.3474 27.3847 73.1972 25.9285 72.7425 24.54C69.5247 14.7138 60.2697 7.63938 49.7982 7.78891ZM48.7982 11.9632C47.6497 12.147 46.5788 12.2307 45.4359 12.5104C37.8988 14.3547 32.9494 19.9857 31.1921 27.3345C34.679 28.1035 34.3316 30.864 34.3206 33.7398C40.8751 33.8169 48.7779 30.4275 53.4511 25.8802C54.3425 25.0972 55.6048 23.3675 56.3179 22.871C57.7445 21.8777 58.604 24.7392 59.1161 25.5492C60.296 27.4154 63.757 31.9072 65.6521 32.8802C65.6456 30.1675 65.4154 27.4 68.9667 27.3345C66.8089 18.0559 58.341 11.5952 48.7982 11.9632ZM56.7148 26.0304L56.6636 26.0738C56.3046 26.3816 55.9919 26.738 55.6496 27.0638C50.9408 31.5466 44.8908 34.6451 38.4681 35.7013C37.0892 35.9281 35.7033 35.9636 34.3206 36.1306C34.2535 38.6357 34.1431 42.2593 34.8138 44.5902C38.1708 56.2556 51.9859 60.1667 60.7119 51.8953L60.7906 51.8205C61.1335 51.4675 61.4788 51.1121 61.7915 50.7318C59.4515 50.732 57.1083 50.7587 54.7687 50.7318C53.7662 53.3999 50.6453 53.2322 48.29 52.9066C44.8779 52.4349 43.6443 47.6497 47.0503 46.3117C48.3947 45.7835 51.674 45.7673 52.8378 46.2722C53.8027 46.6906 54.3552 47.5587 54.7687 48.4867C60.3021 48.4939 63.1394 49.663 66.0574 43.9726C65.4203 42.9279 65.6494 41.5244 65.6497 40.3574L65.6521 35.7165C62.871 34.3302 59.482 30.0726 57.7363 27.6367C57.3675 27.1218 57.0855 26.5296 56.7148 26.0304ZM29.3812 29.591C27.6997 29.6732 28.1228 31.2937 28.1306 32.5259L28.1238 39.7339C28.1251 42.6488 27.6796 43.3718 30.9454 43.1859C31.682 42.9763 31.9779 42.5398 32.0251 41.8044C32.105 40.5591 32.1697 30.9664 31.9661 30.3583C31.8777 30.0939 31.6953 29.9005 31.4966 29.713C30.8458 29.5015 30.0572 29.5367 29.3812 29.591ZM68.8509 29.591C68.4597 29.6392 68.1898 29.7238 67.8706 29.9572C67.8302 30.7082 67.8687 31.4646 67.8699 32.2165L67.8712 36.4273C67.8712 37.2912 67.6835 42.2052 68.1494 42.7072C68.4345 43.0144 70.5038 42.9365 71.13 42.9015C72.2976 42.5388 71.9669 40.858 71.9593 39.9109L71.9476 33.197C71.9609 29.507 72.4787 29.4802 68.8509 29.591ZM25.7865 30.9749C24.8917 31.4304 24.3507 32.0023 24.039 32.963C23.8728 33.4748 23.9117 39.0015 24.0005 39.7234C24.0757 40.3341 24.4255 40.8402 24.8162 41.2966C25.0999 41.571 25.447 41.7634 25.7865 41.9601C25.8154 39.48 25.7867 36.9951 25.7878 34.5144L25.7908 32.2091C25.7937 31.805 25.8328 31.3759 25.7865 30.9749ZM74.2675 31.3218C74.2681 34.8632 74.3421 38.4205 74.2675 41.9601C74.7992 41.833 75.1099 41.6988 75.4949 41.2966C76.6687 39.9498 76.2814 35.3392 76.1523 33.5861C76.0736 32.5177 75.356 31.5058 74.2675 31.3218ZM68.2488 45.0206C67.7058 45.68 67.2312 46.5164 66.8472 47.2806C67.0454 47.1992 67.2486 47.1232 67.4425 47.032C67.9488 46.7326 68.4456 46.4029 68.8509 45.9714C68.8359 45.6523 68.8372 45.34 68.8509 45.0206C68.6501 45.0187 68.4496 45.0177 68.2488 45.0206ZM32.4839 45.0206C31.782 45.299 31.0714 45.4443 30.3152 45.4675C31.0572 51.1925 30.506 55.4853 26.2634 59.5503C27.9408 61.8523 29.439 62.6808 31.7113 64.204C32.2763 63.746 32.9812 63.5609 33.6621 63.3376C35.2329 62.5798 38.0212 61.4308 39.7066 60.9451C40.2048 59.397 40.7343 57.7492 40.8853 56.1236C37.0068 53.5132 33.9503 49.9822 32.6757 45.4261C32.6433 45.3101 32.6322 45.0453 32.4839 45.0206ZM48.9654 48.2431C48.1925 48.2998 47.7603 48.3314 47.2345 48.9605C47.1904 49.2765 47.204 49.5589 47.2345 49.8751C48.4634 50.8609 49.1478 50.7361 50.7083 50.7318C51.6372 50.6884 52.0847 50.6796 52.5882 49.8751C52.6384 47.7193 50.4701 48.2873 48.9654 48.2431ZM69.2275 48.73C67.5913 49.7251 66.8208 50.0525 64.9499 50.3935C64.3744 50.9658 63.9882 51.6935 63.4763 52.3181C62.222 53.8478 60.7163 55.0591 59.0599 56.1236C59.2915 57.9009 59.7716 59.4665 60.4537 61.1179C61.9826 61.5687 63.4552 62.2394 64.9499 62.79L67.2204 63.696C67.6531 63.8642 68.1111 64.0037 68.5292 64.204C71.0146 62.9533 71.9173 61.4556 73.5921 59.5503C68.615 55.1099 69.6269 49.1314 69.2796 48.7402L69.2275 48.73ZM42.9921 57.105C42.7031 58.8083 42.2685 60.4843 41.6037 62.083C43.8579 67.4048 52.0826 67.5761 56.3165 64.5042C57.1857 63.7871 57.7816 62.9923 58.4283 62.083C57.8083 60.4857 57.1511 58.9755 56.9365 57.2583C52.4095 58.8851 47.4679 59.116 42.9921 57.105ZM39.7066 63.3376C35.4646 64.9247 36.3829 64.191 34.6175 68.506C35.5779 68.4581 36.5376 68.5097 37.4986 68.5037C38.4917 68.4974 40.9253 68.0265 40.9835 69.5353C41.0261 70.6355 38.2777 72.6609 37.4478 73.373L42.3861 77.2091L45.2632 79.3984C45.8738 79.864 46.5415 80.4589 47.2345 80.7882C46.979 79.4703 45.6904 76.9339 45.1037 75.5529C44.5306 74.2033 40.4208 63.9138 39.7066 63.3376ZM60.2738 63.3376C60.0074 63.7478 59.5898 64.1417 59.3706 64.5648C58.5382 66.1724 57.7359 68.7851 57.0152 70.5431L54.149 77.3456C53.6757 78.4853 53.1076 79.5787 52.8277 80.7882C54.1304 80.0341 56.5417 78.139 57.7361 77.0544C59.2804 75.7804 60.9462 74.6406 62.4945 73.373L62.4296 73.3037C61.6234 72.4486 57.7906 70.1599 59.2923 68.8296C59.8829 68.3064 61.3162 68.5013 62.0349 68.5025L65.2339 68.506C64.9064 67.5296 64.3265 65.6919 63.8646 64.8322C63.0115 64.4845 60.9179 63.8126 60.2738 63.3376ZM33.164 65.8615C32.2142 66.3007 31.1992 66.6406 30.2191 67.0064L26.4671 68.4498C23.0999 69.7572 20.3958 71.4064 19.0592 75.0753C18.5744 76.4064 18.4284 77.8183 18.2113 79.2095L17.4088 84.4824C17.2163 85.7615 17.0117 87.0371 16.835 88.3187C16.6455 89.6935 16.1758 91.4968 17.9303 92.0915C18.5567 92.304 25.0593 92.1892 26.2634 92.1884L26.2613 86.1941C26.2603 85.1574 26.2259 84.1085 26.2634 83.0732C26.5083 82.7255 26.7978 82.3892 27.2441 82.3234C28.9876 82.0669 28.5691 84.8247 28.5662 85.8154L28.5648 90.2103V92.1884H48.9654L48.9636 87.5306C48.9607 84.2285 49.2394 85.4607 46.7439 83.4341C43.722 80.9804 40.5447 78.7081 37.4851 76.2974C36.2111 75.2935 33.4679 74.071 35.2138 72.3525C35.7134 71.8609 36.4857 71.1357 37.0349 70.7074C35.423 70.7359 32.2374 71.465 31.7113 69.633C32.0224 68.4015 33.0538 66.9456 33.2316 65.8996L33.164 65.8615ZM66.8472 66.0212C67.1128 67.1767 67.7105 68.5722 68.2488 69.633C67.3267 71.4578 64.9372 70.6894 62.9494 70.7074C63.2228 70.9732 63.496 71.2402 63.7886 71.4851C66.2751 73.5675 65.9162 73.6796 63.6884 75.3683L54.1203 82.7761C53.3687 83.3658 51.7747 84.4919 51.2206 85.1464C51.14 87.4835 51.2224 89.8478 51.2206 92.1884H71.4509C71.4521 91.4152 71.4593 90.6415 71.4509 89.8685L71.4478 85.1896C71.447 83.9343 71.0152 82.546 72.5894 82.1779C74.3376 82.6134 73.7816 84.7347 73.7814 86.313L73.7794 92.1884L78.7468 92.1894C80.3285 92.1896 83.1119 92.6052 83.1072 90.2052C83.104 88.6355 82.6954 86.7425 82.4851 85.163L81.7087 79.5511C80.9574 74.2845 79.6435 70.2308 73.7759 68.4378C73.1681 68.2521 72.5349 68.1333 71.9382 67.9138L68.5806 66.655C68.0193 66.4427 67.4349 66.141 66.8472 66.0212ZM55.7115 67.6216C52.4986 69.2984 47.5662 68.8871 44.2802 67.7734C44.4669 68.4152 44.781 69.0419 45.0423 69.6568L46.5492 73.1507C46.9638 74.1068 47.4152 75.449 47.9072 76.3416C48.5728 77.8511 49.2484 79.6193 50.0035 81.0601C50.6355 79.8562 55.7275 67.854 55.7115 67.6216Z" fill="white"/>
<path d="M56.936 39.0151C54.8234 41.9424 52.6196 37.0787 56.936 36.8654C60.055 36.1361 61.4394 40.3442 58.4278 39.8504C58.0868 39.5942 57.8985 39.1651 57.495 39.0151C57.3103 39.0277 57.1214 39.0172 56.936 39.0151Z" fill="white"/>
<path d="M42.3861 39.1848C40.3049 41.5565 38.4494 37.9774 42.2082 36.8655C47.3205 36.7442 45.7387 41.7428 43.2004 39.1848C42.9658 39.0254 42.6363 39.1207 42.3861 39.1848Z" fill="white"/>
<path d="M58.1682 86.669C57.0225 86.2151 56.9237 84.8971 58.1682 84.4243C59.4938 84.4235 67.2389 84.2948 67.8776 84.5461C68.869 84.9366 68.5985 86.2745 67.6446 86.669C66.8079 86.7524 65.5508 86.6719 64.6614 86.6715L58.1682 86.669Z" fill="white"/>
</svg>
