<svg width="54" height="52" viewBox="0 0 54 52" fill="none" xmlns="http://www.w3.org/2000/svg">
<path d="M39.9167 11C45.9761 11 47.7142 11 49.8013 12.5499C50.3386 12.9489 50.8196 13.4143 51.2319 13.9343C52.8334 15.9541 52.8334 18.8861 52.8334 24.75V36C52.8334 43.0711 52.8334 46.6066 50.5635 48.8033C48.2936 51 44.6402 51 37.3334 51H16.6667C9.35998 51 5.70659 51 3.43667 48.8033C1.16675 46.6066 1.16675 43.0711 1.16675 36V24.75C1.16675 18.8861 1.16675 15.9541 2.76826 13.9343C3.18056 13.4143 3.66152 12.9489 4.19885 12.5499C6.28598 11 8.02401 11 14.0834 11" stroke="#666666" stroke-width="1.5" stroke-linecap="round"/>
<path d="M39.9168 13.5L37.6284 7.96358C36.6411 5.57491 35.7819 2.86525 33.2432 1.64888C31.8889 1 30.2593 1 27.0002 1C23.741 1 22.1115 1 20.7572 1.64888C18.2184 2.86526 17.3592 5.57491 16.3719 7.96358L14.0835 13.5" stroke="#666666" stroke-width="1.5" stroke-linecap="round" stroke-linejoin="round"/>
<path d="M36.0418 31C36.0418 35.8325 31.9937 39.75 27.0002 39.75C22.0066 39.75 17.9585 35.8325 17.9585 31C17.9585 26.1675 22.0066 22.25 27.0002 22.25C31.9937 22.25 36.0418 26.1675 36.0418 31Z" stroke="#666666" stroke-width="1.5"/>
<path d="M26.9995 11H27.0227" stroke="#666666" stroke-width="2" stroke-linecap="round" stroke-linejoin="round"/>
</svg>
