<svg width="100" height="100" viewBox="0 0 100 100" fill="none" xmlns="http://www.w3.org/2000/svg">
<path d="M15.7726 48.584L10.6016 48.5865C9.67856 48.5896 8.63968 48.6863 7.72878 48.5379C5.99817 48.2562 4.88784 46.007 5.98552 44.5412C6.54403 43.7955 8.49255 42.2797 9.2886 41.5455C13.587 37.5822 17.9705 33.7148 22.3362 29.8262L44.571 9.74249C45.7249 8.69794 48.2857 5.98273 49.7937 5.77741C51.2538 5.63064 52.3093 7.01185 53.29 7.88855L68.754 21.776C68.7933 21.1754 68.7597 20.573 68.7566 19.9717L68.7501 15.4706C68.7491 13.2354 68.1993 12.0218 70.9509 12.0941C73.8025 12.1689 76.6612 12.0763 79.5144 12.1087C81.6249 12.1326 81.0361 14.6796 81.0155 16.2543C80.9439 21.7633 81.0876 27.2736 81.0066 32.783C83.4003 35.2455 86.8378 38.1236 89.445 40.4107C90.8993 41.6865 92.4472 42.9117 93.8337 44.2592C95.3862 45.7682 94.5739 48.0762 92.6755 48.4973C91.738 48.7053 90.6023 48.5875 89.6378 48.5875L84.2773 48.584L84.279 87.9088C84.2794 89.5406 84.363 91.2254 84.2624 92.8521C84.1501 94.6697 82.0999 94.1441 80.687 94.1428L60.437 94.1406L18.5879 94.1389C15.9088 94.1193 15.769 94.0959 15.7705 91.1316L15.7726 48.584ZM50.0624 8.29933C49.2423 8.88933 48.496 9.59837 47.7396 10.2678L10.78 43.5853C9.87737 44.3818 8.92089 45.1502 8.11313 46.0451C8.8337 46.1631 9.64927 46.0492 10.3839 46.0473L15.5631 46.0451C16.5223 45.4998 17.9567 44.0074 18.8283 43.2096L46.5187 18.3927C47.4124 17.6011 48.8769 15.8536 50.0624 15.6857C50.9972 15.9166 57.353 21.9762 58.3618 22.8744L78.6892 41.2525C79.2802 41.7861 83.5601 45.8139 83.9486 45.9668C84.2251 46.0756 90.9259 46.1701 92.0095 46.0451C91.131 45.1928 90.1583 44.4174 89.2446 43.6004L53.6851 11.5507C53.3435 11.2454 50.0919 8.31185 50.0624 8.29933ZM71.6075 14.5998L71.4146 14.64C71.2515 14.9195 71.3448 23.0045 71.338 24.0519C73.5415 26.3391 76.1278 28.2326 78.3679 30.4855L78.4456 30.5363C78.5685 30.2314 78.4941 16.213 78.4944 14.5998H71.6075ZM49.9191 18.7538C48.8038 19.8191 47.6095 20.8121 46.4513 21.8305L20.1833 45.4053C19.6601 45.884 18.5927 46.7228 18.2554 47.3127L18.2605 47.3094C18.2161 48.9607 18.2607 50.6232 18.2608 52.276L18.2605 91.6506H50.0624H81.7874V47.5434C80.7489 46.4672 79.5321 45.5211 78.4351 44.4965C74.9978 41.2869 71.5068 38.1394 68.021 34.9832L59.14 27.0039C56.1023 24.2305 53.0931 21.3689 49.9191 18.7538Z" fill="white"/>
</svg>
