<svg width="39" height="39" viewBox="0 0 39 39" fill="none" xmlns="http://www.w3.org/2000/svg">
<path d="M12.9375 24.1875H26.0625M12.9375 14.8125H19.5" stroke="white" stroke-width="1.5" stroke-linecap="round" stroke-linejoin="round"/>
<path d="M23.5699 36.1697C31.413 35.6484 37.6605 29.3123 38.1746 21.3579C38.2752 19.8013 38.2752 18.1892 38.1746 16.6326C37.6605 8.6782 31.413 2.34212 23.5699 1.82076C20.8941 1.6429 18.1004 1.64326 15.4301 1.82076C7.58697 2.34212 1.33952 8.6782 0.82545 16.6326C0.72485 18.1892 0.72485 19.8013 0.82545 21.3579C1.01268 24.255 2.29394 26.9374 3.80233 29.2024C4.67814 30.7881 4.10014 32.7672 3.1879 34.4959C2.53014 35.7424 2.20127 36.3656 2.46533 36.8158C2.72939 37.266 3.31924 37.2804 4.49892 37.3091C6.83187 37.3659 8.40503 36.7045 9.65377 35.7837C10.362 35.2614 10.7161 35.0003 10.9602 34.9703C11.2043 34.9403 11.6846 35.1381 12.645 35.5337C13.5083 35.8892 14.5106 36.1086 15.4301 36.1697C18.1004 36.3472 20.8941 36.3476 23.5699 36.1697Z" stroke="white" stroke-width="1.5" stroke-linejoin="round"/>
</svg>
