<svg width="100" height="100" viewBox="0 0 100 100" fill="none" xmlns="http://www.w3.org/2000/svg">
<path d="M49.0721 22.7793C49.0551 21.1375 48.388 17.7202 49.9104 17.1367C51.4966 17.0804 51.078 19.4324 51.076 20.4178C51.0745 21.2057 51.1262 21.9922 51.0737 22.7793C51.9323 22.8129 52.8042 22.7805 53.6645 22.7803L74.6452 22.7793C74.6659 19.4471 74.238 19.7766 77.593 19.7743L84.4284 19.7739C87.5587 19.775 87.2825 19.5983 87.2557 22.7793L91.2965 22.7752C94.3092 22.7608 94.5954 22.1895 94.5495 25.3981C94.535 26.4207 94.5532 27.4459 94.554 28.4688L94.5538 73.6141C94.5544 74.6944 94.5993 75.7932 94.5495 76.8717C94.4735 78.5116 92.4141 78.0256 91.1102 78.0237L73.9216 78.0205L73.9264 80.4356C73.9276 83.4104 73.4948 82.8707 70.9805 82.8657L53.221 82.8614L29.8807 82.8635C28.905 82.8637 27.9001 82.9125 26.928 82.8489C25.5323 82.7577 26.0762 79.2008 26.0323 78.0205L8.64702 78.0231C5.34884 78.0237 5.56282 78.3514 5.56081 74.8252L5.56052 23.4664C6.12276 22.5125 7.2278 22.7784 8.181 22.7786L49.0721 22.7793ZM76.9153 21.778L76.7362 21.8141C76.6137 22.1248 76.6971 27.3694 76.6977 28.1495H85.0633L85.1624 28.1328C85.3141 27.8455 85.2303 22.5448 85.2299 21.778L79.6878 21.7766C78.7823 21.775 77.8147 21.7034 76.9153 21.778ZM7.60093 24.8387V76.0258C8.29903 75.9563 8.99764 76.0182 9.69753 76.0235L26.0323 76.0258C26.0776 74.7963 26.0286 73.5534 26.0305 72.3219C26.0344 69.9483 26.0432 69.8412 28.4161 69.8735V48.6071L28.4153 39.5116C28.4157 38.8979 28.3286 36.9069 28.4155 36.4702C28.5499 35.7955 31.535 33.5082 32.1366 32.9938C34.2458 31.1901 37.1774 28.3231 39.3721 26.8256C40.7079 25.9141 43.2862 28.6358 44.352 29.4991L49.0721 33.3036V24.8387L9.201 24.8373C8.66905 24.8377 8.13208 24.8092 7.60093 24.8387ZM52.4298 24.8387H51.0737C51.0114 27.568 51.0962 30.3055 51.0737 33.0362L51.1171 33.0075C51.771 32.5645 52.3788 32.0051 52.9954 31.509L56.9708 28.2918C58.0796 27.3977 58.9944 26.0412 60.4538 27.0975C62.2176 28.3741 71.3173 35.7141 71.4954 36.0037C71.8546 36.5873 71.6788 38.2026 71.6788 38.8723L71.6766 55.3952C72.4167 55.4411 77.785 55.0348 75.1958 57.4246C74.0585 57.5604 72.8223 57.4705 71.6766 57.4246C71.6614 58.6549 71.6174 59.9045 71.6766 61.1332H92.5299C92.529 59.9088 92.4434 58.6426 92.5299 57.4246C89.7149 57.4871 86.8833 57.4254 84.0667 57.4262L81.0864 57.426C79.8059 57.4254 78.5176 57.8145 78.4329 56.1063C79.202 54.9565 80.8083 55.3916 82.0096 55.394L87.6561 55.3952H92.5299V24.8387L89.1741 24.8354C88.5346 24.833 87.8946 24.8008 87.2557 24.8387C87.2376 25.811 87.2563 26.7844 87.2596 27.7569C87.2704 30.7143 87.0805 30.2411 84.2503 30.1782C84.2303 31.6588 84.2569 33.1403 84.2503 34.6211C84.0923 34.8045 83.9192 34.9534 83.7251 35.0965C81.4618 35.2946 82.2239 31.9086 82.2298 30.1782C81.2489 30.1641 80.2676 30.1741 79.2868 30.1782L79.2887 43.7893C79.2887 45.0266 79.4239 47.7784 77.2485 46.0651C77.2024 45.4848 77.244 44.8961 77.2471 44.3143L77.2485 30.1782C74.5548 30.2914 74.6432 30.4666 74.6426 27.6828L74.6452 24.8387H52.4298ZM40.1452 28.9053C38.1651 30.2815 35.7755 32.5207 33.9456 34.1204C33.3883 34.6073 32.8577 35.1418 32.2729 35.5944H40.6764H48.454C47.7628 34.8821 40.7376 29.0873 40.1452 28.9053ZM59.5053 28.9053C57.1298 31.1375 53.9055 33.3653 51.3465 35.5944C54.1407 35.5407 56.9458 35.595 59.7411 35.5944H67.7934C65.6798 33.903 61.2167 30.7934 59.5053 28.9053ZM30.4198 37.6444V39.7955L34.2089 39.7924C35.0167 39.7926 35.8635 39.7532 36.6653 39.861C37.8577 40.0215 37.5907 40.8934 37.5874 41.818L37.5864 44.026C37.5862 44.9213 37.6874 47.6059 37.5235 48.35C37.3094 49.3217 34.3051 48.927 33.4714 48.9297C32.4561 48.933 31.4333 48.9985 30.4198 48.9278C30.4192 49.6424 30.4292 50.3579 30.4198 51.0723L34.6651 51.068C35.2946 51.0674 36.9423 50.8373 37.4331 51.3493C37.6616 51.5875 37.6801 58.2946 37.5559 59.3454C37.5128 59.7102 37.2915 59.845 37.0048 60.0112C34.8128 60.025 32.611 60.051 30.4198 60.0112V62.1536H69.4393L69.5448 62.1125C69.7264 61.5866 69.6323 60.5836 69.6296 60.0112C68.6192 60.0481 67.6057 60.011 66.5942 60.0204C65.6475 60.0291 62.7637 60.4727 62.5932 59.2254C62.3716 57.6032 62.5124 54.2082 62.5575 52.5172C62.6167 50.3051 64.1882 51.0696 66.0221 51.0733C66.8126 51.075 68.9567 50.9459 69.6296 51.0723V49.0237L65.6725 49.0268C64.6649 49.0272 63.4264 49.22 62.5499 48.6071C62.4596 47.5528 62.5501 46.0465 62.5499 44.9469V42.2114C62.5501 41.2475 62.2659 40.3256 63.2202 39.7955C65.3557 39.7963 67.4946 39.7649 69.6296 39.7955C69.6395 39.0789 69.612 38.3602 69.6296 37.6444H30.4198ZM65.0274 41.895H64.5874C64.5303 43.5672 64.6428 45.2467 64.5874 46.9166C65.8397 47.0676 68.0956 46.9157 69.4393 46.9166C69.5294 46.9262 69.5997 46.9596 69.676 46.9061C69.5993 45.2364 69.643 43.5659 69.6296 41.895C69.0212 41.8358 68.4051 41.8854 67.7948 41.892L65.0274 41.895ZM30.4198 41.895V46.9166L33.9493 46.9116C34.4692 46.9102 35.0364 46.8498 35.5491 46.9166C35.6063 45.6676 35.6745 43.0973 35.5491 41.895C34.8909 41.9346 34.2317 41.9018 33.5727 41.8971L30.4198 41.895ZM64.5874 53.0758V57.9842C66.2612 57.9266 67.9534 57.9854 69.6296 57.9842C69.6276 56.3502 69.5936 54.7092 69.6296 53.0758L66.2436 53.0723C65.6989 53.0715 65.1286 53.0295 64.5874 53.0758ZM30.4198 53.0758V57.9842C32.1173 58.1096 33.8518 57.8584 35.5491 57.9842C35.5864 56.3737 35.6403 54.6825 35.5491 53.0758H30.4198ZM71.6766 63.159C71.5364 63.9721 71.6669 64.8166 71.6743 65.6373L71.6766 69.8735C72.2452 69.8696 72.8477 69.8237 73.4126 69.8735C74.1319 70.7344 73.9296 71.7948 73.9278 72.8461L73.9216 76.0258H92.5299V63.159L73.9551 63.1579C73.2024 63.1575 72.4262 63.109 71.6766 63.159ZM30.4198 64.1846V69.8735H36.7053C36.6938 68.4311 36.2591 67.4452 37.794 66.8547C39.1907 67.4762 38.7928 68.5655 38.7719 69.8735H45.313C45.3223 68.6309 44.8383 67.26 46.3147 66.8547C46.7198 67.009 46.9762 67.1473 47.2653 67.4762C47.3126 68.2709 47.2602 69.0772 47.2653 69.8735C49.511 69.8721 51.759 69.8498 54.0044 69.8735C53.9985 68.7903 53.619 67.2952 54.8844 66.8547C56.5344 67.1309 56.0432 68.562 56.0524 69.8735C56.9083 69.9094 57.7641 69.8795 58.6204 69.8748L62.5499 69.8735V68.8461C62.5637 68.3539 62.4747 67.5627 62.8587 67.1969C63.2235 66.8493 63.9274 66.7578 64.2921 67.1573C64.7112 67.6164 64.5909 69.2276 64.5874 69.8735H69.6296V64.1846H30.4198ZM28.076 71.9121V80.8143C28.7921 80.8487 29.5079 80.8174 30.2243 80.8155L63.594 80.8143C66.3632 80.8143 69.1534 80.8873 71.9206 80.8143V71.9121L33.512 71.9127C31.7057 71.9114 29.8798 71.8444 28.076 71.9121Z" fill="white"/>
<path d="M82.2298 38.174C82.5003 37.9265 82.7437 37.7656 83.0913 37.6435C83.5507 37.629 84.0372 37.7822 84.1776 38.2781C84.3112 38.7509 84.2903 44.5587 84.2308 45.4298C84.188 46.0544 84.0028 46.3341 83.3616 46.4855C81.7331 46.5351 82.2276 43.2378 82.2284 42.1849C82.2292 40.8513 82.1872 39.5058 82.2298 38.174Z" fill="white"/>
<path d="M11.0255 54.5421C10.0375 53.6038 10.4904 50.689 10.4898 49.2802L10.4882 42.8067C10.4882 41.5649 9.96496 38.3481 11.3373 38.0325C12.0403 37.9599 12.8099 38.0306 13.5214 38.0311L22.9279 38.029C24.3453 38.0249 25.9807 37.511 26.0312 39.33C26.0996 41.7886 26.0334 44.2671 26.0324 46.7276L26.0338 51.6733C26.0348 52.654 26.4346 54.1573 25.2375 54.5421L15.3105 54.5411C14.1163 54.5409 12.1377 54.6815 11.0255 54.5421ZM12.8755 40.054C12.2074 40.1276 12.5224 41.2544 12.5227 41.877L12.522 50.3015C12.5215 51.0274 12.4866 51.7657 12.5231 52.4897H23.6451L23.8787 52.4794C24.2344 52.0854 24.0094 41.4272 24.023 40.054H12.8755Z" fill="white"/>
<path d="M39.9916 48.6067C39.8152 46.6934 39.8849 42.6522 40.0019 40.7528C40.049 39.9875 40.2533 39.904 40.9955 39.7952C42.4346 39.7592 43.8838 39.7916 45.3236 39.7907C46.5045 39.7897 48.1123 39.3768 48.7793 40.4057L48.7812 45.3577C48.7807 46.6481 49.3098 48.792 47.7846 48.9274C45.3637 48.8819 42.9338 48.9266 40.5119 48.9274C40.3287 48.8409 40.1607 48.718 39.9916 48.6067ZM42.0002 41.8946C42.0275 43.5522 42.0744 45.2602 42.0002 46.9163H46.7537C46.741 45.2475 46.8299 43.559 46.7537 41.8946C45.1797 41.8942 43.5695 41.8217 42.0002 41.8946Z" fill="white"/>
<path d="M59.3402 48.9273C57.9951 49.1179 53.7679 48.9959 52.3954 48.9191C51.7562 48.8834 51.2761 48.8252 51.2232 48.0705C51.1687 47.2949 51.1222 40.5683 51.2636 40.2672C51.3914 39.9955 51.6886 39.8974 51.9472 39.7951L56.4312 39.7935C57.5855 39.7931 59.2745 39.4765 60.0419 40.4056C59.9874 41.5138 60.2101 48.1277 59.8972 48.5808C59.7783 48.7531 59.531 48.8629 59.3402 48.9273ZM53.8326 41.8945C53.6287 41.8933 53.4247 41.8918 53.2208 41.8945C53.1884 43.5668 53.2228 45.2433 53.2208 46.9162C54.5646 46.955 55.9165 46.9144 57.2615 46.9162H58.0091C57.9808 45.2439 58.0072 43.5674 58.0091 41.8945H53.8326Z" fill="white"/>
<path d="M40.5118 60.0103C39.5433 59.2384 39.9363 53.6628 40.0113 52.2923C40.0437 51.7023 40.0167 51.237 40.6765 51.0714C42.9384 51.0513 45.214 51.0296 47.4753 51.0851C48.4394 51.1089 48.7032 51.137 48.765 52.1263C48.8163 52.9507 48.845 59.1026 48.7364 59.4423C48.638 59.7495 48.4044 59.8761 48.1302 60.0103C46.3993 60.2177 42.3007 60.0759 40.5118 60.0103ZM42.0001 53.0749C42.0007 54.7105 42.0202 56.3482 42.0001 57.9833C43.1761 57.9991 45.7138 57.8128 46.7536 57.9833V53.0749H42.0001Z" fill="white"/>
<path d="M59.1033 60.0106C57.1937 60.1475 55.2535 59.9706 53.3361 60.0085C52.2055 60.0309 51.2916 60.3872 51.2018 58.9462C51.1478 58.0811 51.1184 51.8786 51.3369 51.47C51.4717 51.218 51.8887 51.1223 52.1396 51.0717C53.0199 50.9887 54.1826 51.0694 55.0963 51.0704C56.4668 51.0719 59.1361 50.6327 60.0422 51.6323C60.2002 53.6325 60.1424 57.2286 60.0461 59.2452C60.0197 59.7962 59.6002 59.9262 59.1033 60.0106ZM53.2211 53.0753C53.2693 54.7069 53.2189 56.3506 53.2211 57.9837H58.0094C58.0348 56.3487 58.0117 54.7106 58.0094 53.0753L54.8365 53.071C54.3047 53.069 53.749 53.0174 53.2211 53.0753Z" fill="white"/>
<path d="M35.5491 77.6594C34.8184 77.6514 32.8565 77.8145 32.2991 77.4902C31.4959 77.0231 31.7071 75.8229 32.8432 75.6352C34.4989 75.6264 36.1418 75.026 36.7053 76.675C36.5225 77.2891 36.216 77.608 35.5491 77.6594Z" fill="white"/>
<path d="M38.7725 76.6747C38.8992 76.0299 39.1406 75.7553 39.8045 75.6348C40.9531 75.6346 42.6275 75.3315 43.6621 75.8846C44.2215 76.7131 44.0238 77.4383 43.0395 77.659C41.401 77.6567 39.1762 78.3549 38.7725 76.6747Z" fill="white"/>
<path d="M67.3927 77.6592C66.788 77.7471 66.089 77.6625 65.474 77.6602L61.3777 77.6582C56.7804 77.659 52.1664 77.7426 47.5708 77.6473C45.7929 77.6104 45.9531 76.0524 47.0464 75.635C47.7462 75.5801 48.4888 75.6301 49.1927 75.6313L63.3378 75.6359C64.0769 75.6358 66.6986 75.5285 67.2914 75.6938C68.3271 75.9826 68.4427 77.2416 67.3927 77.6592Z" fill="white"/>
</svg>
