<svg width="100" height="100" viewBox="0 0 100 100" fill="none" xmlns="http://www.w3.org/2000/svg">
<path d="M45.2639 21.3082C45.2654 18.5297 44.4824 15.0274 47.8885 14.3049L50.1608 14.2992C51.5125 14.2985 52.8248 14.2255 53.8637 15.2486C55.1158 16.4819 54.6903 19.5084 54.6908 21.3082C55.2725 21.3844 55.5531 21.3994 55.9086 21.9326C55.9373 23.9299 56.0014 25.9789 55.9086 27.9738C56.2354 28.0336 56.4785 28.1256 56.7621 28.2943C57.218 29.1297 57.0176 30.2924 57.0162 31.208L57.0137 35.5959C61.1836 35.4363 66.1397 35.4838 70.3168 35.5959C70.0295 35.2078 69.6533 34.8953 69.3137 34.5545L61.561 26.9229C60.8721 26.2383 59.0697 25.0266 59.317 23.908C59.4586 23.2676 59.8731 23.0932 60.4824 23.0541C61.242 23.0055 70.8127 23.0184 70.9776 23.0754C71.6051 23.2928 79.1654 30.8869 80.009 31.7311C80.7514 32.4736 82.0342 33.5291 82.569 34.3635C82.6438 35.0029 82.5801 35.6756 82.5752 36.3201L82.569 51.4236C81.9944 52.5203 80.5553 52.4553 80.367 51.2877C80.2168 50.3567 80.3227 48.6479 80.3227 47.6272L80.3278 36.8979C80.3283 34.2408 80.1313 35.0977 78.0049 33.0283L72.5906 27.7223C71.7822 26.9426 70.991 26.1117 70.1309 25.3906H63.3492C64.1076 26.3268 65.0951 27.1207 65.9485 27.9733L72.1736 34.1643C74.8563 36.8303 74.5227 35.633 74.5205 39.4711L74.5203 48.5512C74.5236 49.2711 74.7479 51.3057 74.2279 51.8658C73.9127 52.2057 72.9238 52.3293 72.5828 51.9719C72.0688 51.433 72.2151 50.35 72.2162 49.6748L72.2219 37.9367H52.2221H27.7361C27.7082 38.9082 27.7338 39.8875 27.734 40.8598L27.7418 48.0029C27.7344 49.1121 28.292 53.7586 25.6772 51.8297C25.2463 51.0916 25.4318 50.01 25.4338 49.1912L25.4414 45.7317C25.4457 42.8508 25.3711 39.9543 25.4395 37.0756C25.4645 36.025 26.4877 35.4143 27.1838 34.7397L29.6137 32.3652C31.9928 30.0539 34.3055 27.6756 36.7117 25.3906C34.4246 25.309 32.1188 25.4395 29.8268 25.3906C26.4371 28.3904 22.8736 32.1135 19.6752 35.3387L19.677 49.5213C19.6772 50.7477 20.0135 52.2133 18.2857 52.1981C16.9241 51.5139 17.3851 49.4828 17.3909 48.0963L17.3855 38.0602C17.3812 34.8459 16.6848 34.9207 18.8015 32.8233C22.0203 29.6336 25.4483 26.0199 28.8387 23.0484C31.1686 23.2623 39.4506 22.7406 40.2475 23.3006C41.7438 24.3524 39.3043 26.1111 38.6285 26.7893L31.4047 33.9281C30.8611 34.466 30.2444 34.9459 29.8268 35.5959H42.9703C43.0043 35.0432 42.9744 34.4772 42.9729 33.9229L42.9654 30.6727C42.9643 29.6676 42.6231 27.9811 44.0926 27.9738C44.0264 27.1576 44.0983 26.3459 44.0903 25.5289L44.0692 23.2512C44.0635 22.8088 44.0227 22.3723 44.0926 21.9326C44.3442 21.4553 44.7709 21.3899 45.2639 21.3082ZM48.2639 16.6508C47.9123 16.7165 47.7994 16.8585 47.583 17.1256C47.5377 17.6731 47.574 18.2312 47.5795 18.7804L47.583 21.3082C48.9506 21.3317 50.3197 21.3053 51.6877 21.3082H52.442C52.4395 19.9152 52.4151 18.5181 52.442 17.1256C52.2985 16.9648 52.1588 16.7954 51.9986 16.6508C50.7586 16.6054 49.5057 16.6528 48.2639 16.6508ZM46.8026 23.633C45.966 23.7506 46.386 27.0486 46.3873 27.9738H53.284L53.516 27.9604C53.8135 27.5924 53.6246 24.3383 53.6627 23.633C51.5024 23.793 49.0354 23.5531 46.8026 23.633ZM45.684 30.2736L45.3147 30.3115C45.1834 30.5219 45.2631 34.9658 45.2639 35.5959H54.4559C54.943 35.5613 54.7237 31.2328 54.6908 30.2736L48.3789 30.2756C47.6022 30.2744 46.3959 30.1836 45.684 30.2736Z" fill="white"/>
<path d="M48.8974 46.5145C48.9078 44.876 48.1925 41.636 49.9531 41.1141C51.4623 41.0358 51.2421 42.6444 51.2388 43.6418L51.2359 46.5145L57.5371 46.5141C58.8554 46.5123 61.5322 45.9313 61.5716 47.6781C61.6408 50.7342 61.5716 53.808 61.574 56.866L61.5753 60.1018C61.5755 61.2383 61.8961 62.4694 60.3584 62.5789C59.3336 62.652 58.2521 62.5762 57.2203 62.5756L50.4515 62.5739L43.2986 62.575C42.5095 62.575 38.9236 62.9557 38.6451 61.9776C38.473 61.3737 38.573 60.2309 38.5732 59.5838L38.5802 50.5131C38.5796 49.492 38.3437 47.7459 38.8216 46.8194C39.6531 46.1949 41.4537 46.5158 42.4609 46.5164L48.8974 46.5145ZM40.9419 48.828V60.2541H59.2546C59.3617 59.2916 59.2486 57.9326 59.2503 56.9106L59.2546 48.828C57.0007 48.7983 54.7429 48.8278 52.4884 48.8276L40.9419 48.828Z" fill="white"/>
<path d="M5.34875 85.1467C5.41729 82.6947 5.35008 80.2221 5.34969 77.7684L5.34826 63.0324C5.34828 62.0057 5.2469 56.7541 5.44442 56.2112C5.58028 55.8377 5.90873 55.6768 6.24325 55.5172L29.5881 55.5156C34.1094 55.5153 33.74 55.0283 33.7404 59.2334L33.7389 76.8651C33.7389 79.0022 33.6623 81.1674 33.7385 83.301L40.6578 83.3002C41.8006 83.3008 42.951 83.3467 44.092 83.301L44.0898 78.2371C44.0889 73.9781 43.576 74.8389 47.531 74.8483L53.1556 74.8494C54.0654 74.8463 54.9506 74.5205 55.7129 75.1272C56.1285 76.0395 55.9129 77.2987 55.9123 78.2733L55.908 83.301H66.3564L66.3559 58.7838C66.3547 57.8926 66.2713 56.9569 66.3564 56.0733C67.167 55.1988 68.3482 55.5123 69.4367 55.5141L89.282 55.5172L91.9703 55.5088C95.4629 55.4985 94.5457 56.8766 94.5447 60.0272L94.5467 82.352C94.5476 83.351 94.9068 85.4699 93.4211 85.5699C91.9289 85.6701 90.3828 85.5967 88.8855 85.5961L7.78756 85.5977C6.83588 85.603 6.12826 85.8071 5.34875 85.1467ZM77.2943 57.8117H68.6519C68.557 58.7299 68.6504 59.7289 68.6514 60.6569L68.6512 77.8328C68.6508 79.6512 68.5947 81.4852 68.6519 83.301H74.5185C74.9189 81.4145 73.9517 76.883 74.8289 75.1272C75.7211 74.5617 77.0012 74.8451 78.0183 74.8453L83.6551 74.849C86.881 74.8129 86.4318 75.2117 86.4281 78.0238C86.4256 79.7789 86.3758 81.5471 86.4254 83.301H92.2863V57.8117C90.6271 57.759 88.9517 57.8117 87.2906 57.8119L77.2943 57.8117ZM7.71053 57.8117V83.301H13.6952L13.6917 78.3328C13.6903 75.4018 13.0771 74.9588 16.3428 74.9563L22.5637 74.9551C23.2047 74.9553 23.8588 74.927 24.4978 74.9723C25.865 75.0694 25.4553 76.3129 25.4435 77.2764C25.4301 78.4012 25.4383 79.527 25.4387 80.652C25.5168 81.5524 25.5738 82.4016 25.4387 83.301H31.4043V57.8117L10.3159 57.8106C9.45209 57.8106 8.57227 57.7735 7.71053 57.8117ZM46.3867 76.9947C46.2379 78.7463 46.343 81.503 46.3867 83.301H53.6621V76.9947H46.3867ZM76.9039 77.1455V83.301C79.3207 83.2258 81.7613 83.3024 84.1807 83.301C84.2154 81.2512 84.1801 79.1961 84.1807 77.1455L79.3601 77.1438C78.5455 77.1434 77.7172 77.1098 76.9039 77.1455ZM16.2049 77.2498L15.9689 77.2906C15.8346 77.5531 15.9185 82.594 15.918 83.301C16.6901 83.3604 17.487 83.3032 18.2628 83.302L23.0588 83.301L23.1931 83.2955C23.3588 83.0248 23.3187 77.9121 23.25 77.2498C22.1392 77.3074 21.0295 77.2696 19.9181 77.2569L16.2049 77.2498Z" fill="white"/>
<path d="M27.1888 62.5732C26.5317 62.674 22.2796 62.6791 21.8671 62.4176C20.9798 61.8545 21.3413 60.4189 22.5054 60.2535C23.7954 60.1732 28.0054 59.8691 28.1448 61.2105C28.2073 61.8119 27.8288 62.5088 27.1888 62.5732Z" fill="white"/>
<path d="M77.8325 62.5738C76.9587 62.6095 72.8589 62.6962 72.3638 62.4328C71.4997 61.973 71.8364 60.4908 72.7345 60.2541C74.0001 60.2222 77.519 59.9246 78.4794 60.7251C78.7671 61.5183 78.6636 62.2195 77.8325 62.5738Z" fill="white"/>
<path d="M17.1487 62.5735C16.5086 62.6963 13.2041 62.6225 12.4155 62.593C11.0042 62.5404 10.7488 60.8369 12.228 60.2537C13.0061 60.2524 16.7575 60.1459 17.299 60.3903C18.3709 60.8737 18.1791 62.2223 17.1487 62.5735Z" fill="white"/>
<path d="M81.9082 61.4783C82.0609 60.8369 82.3228 60.5472 82.9398 60.2537C83.9596 60.288 87.4266 60.0738 88.1881 60.4232C89.2676 60.9187 89.0775 62.2584 88.0086 62.5734L84.7941 62.5796C83.6072 62.5843 82.3219 62.916 81.9082 61.4783Z" fill="white"/>
<path d="M11.2807 65.7094C11.5118 65.2075 11.8578 65.0161 12.393 64.8932C13.3515 64.9221 16.8883 64.7188 17.5034 65.0618C18.4368 65.5821 18.1743 66.9376 17.1489 67.1881L13.9945 67.1907C12.6748 67.2002 11.2522 67.5614 11.2807 65.7094Z" fill="white"/>
<path d="M23.5593 67.1875C20.5477 67.4037 21.0536 65.2334 22.3991 64.9541C23.2296 64.7816 25.0374 64.8895 25.9526 64.8926C26.7712 64.902 27.485 64.7902 28.0735 65.4768C28.712 67.9637 24.9862 67.1863 23.5593 67.1875Z" fill="white"/>
<path d="M72.46 67.1873C71.5067 66.2322 71.7708 65.1179 73.085 64.8924C74.0667 64.8512 77.5846 64.7197 78.201 65.1609C79.1042 65.8076 78.4848 67.0359 77.5149 67.1873H72.46Z" fill="white"/>
<path d="M88.0086 67.1872C87.5444 67.2388 83.1536 67.2265 82.8563 67.146C81.5512 66.7927 81.7569 65.4236 82.9399 64.8923C83.7418 64.8925 87.6907 64.7743 88.1762 64.9845C89.2047 65.4294 89.0657 66.8402 88.0086 67.1872Z" fill="white"/>
<path d="M11.2804 70.256L11.3708 70.0996C11.5845 69.7326 11.8175 69.5453 12.2279 69.4357L15.3106 69.4396C15.8921 69.4377 16.6051 69.3341 17.1638 69.4761C18.5519 69.8287 18.1895 71.3185 17.1487 71.8255C15.2034 71.5627 11.2518 72.8711 11.2804 70.256Z" fill="white"/>
<path d="M21.4372 70.2567C21.6889 69.7557 21.9405 69.5618 22.5052 69.4364L25.4485 69.4321C26.597 69.4309 27.4264 69.1331 28.0739 70.2567V70.9106C27.8573 71.3233 27.5831 71.587 27.1886 71.8262C25.4841 71.7807 23.7358 71.7704 22.0329 71.8262C21.5673 71.3262 21.4255 70.9374 21.4372 70.2567Z" fill="white"/>
<path d="M77.5151 71.8256C76.6038 71.8236 72.9243 71.9742 72.3327 71.6748C71.4364 71.2213 71.754 69.7264 72.8905 69.4357C74.2831 69.6195 76.786 69.1174 77.9634 69.674C79.1466 70.2336 78.5786 71.5537 77.5151 71.8256Z" fill="white"/>
<path d="M88.0086 71.8258L84.7922 71.8305C84.1742 71.8313 83.4682 71.8995 82.8662 71.7672C81.6168 71.4926 81.749 70.0684 82.9399 69.436C84.2904 69.5893 87.102 69.1581 88.111 69.6249C89.2104 70.1337 89.0639 71.4288 88.0086 71.8258Z" fill="white"/>
</svg>
