<svg width="100" height="100" viewBox="0 0 100 100" fill="none" xmlns="http://www.w3.org/2000/svg">
<path d="M15.7726 48.584L10.6016 48.5865C9.67856 48.5896 8.63968 48.6863 7.72878 48.5379C5.99817 48.2562 4.88784 46.007 5.98552 44.5412C6.54403 43.7955 8.49255 42.2797 9.2886 41.5455C13.587 37.5822 17.9705 33.7148 22.3362 29.8262L44.571 9.74249C45.7249 8.69794 48.2857 5.98273 49.7937 5.77741C51.2538 5.63064 52.3093 7.01185 53.29 7.88855L68.754 21.776C68.7933 21.1754 68.7597 20.573 68.7566 19.9717L68.7501 15.4706C68.7491 13.2354 68.1993 12.0218 70.9509 12.0941C73.8025 12.1689 76.6612 12.0763 79.5144 12.1087C81.6249 12.1326 81.0361 14.6796 81.0155 16.2543C80.9439 21.7633 81.0876 27.2736 81.0066 32.783C83.4003 35.2455 86.8378 38.1236 89.445 40.4107C90.8993 41.6865 92.4472 42.9117 93.8337 44.2592C95.3862 45.7682 94.5739 48.0762 92.6755 48.4973C91.738 48.7053 90.6023 48.5875 89.6378 48.5875L84.2773 48.584L84.279 87.9088C84.2794 89.5406 84.363 91.2254 84.2624 92.8521C84.1501 94.6697 82.0999 94.1441 80.687 94.1428L60.437 94.1406L18.5879 94.1389C15.9088 94.1193 15.769 94.0959 15.7705 91.1316L15.7726 48.584ZM50.0624 8.29933C49.2423 8.88933 48.496 9.59837 47.7396 10.2678L10.78 43.5853C9.87737 44.3818 8.92089 45.1502 8.11313 46.0451C8.8337 46.1631 9.64927 46.0492 10.3839 46.0473L15.5631 46.0451C16.5223 45.4998 17.9567 44.0074 18.8283 43.2096L46.5187 18.3927C47.4124 17.6011 48.8769 15.8536 50.0624 15.6857C50.9972 15.9166 57.353 21.9762 58.3618 22.8744L78.6892 41.2525C79.2802 41.7861 83.5601 45.8139 83.9486 45.9668C84.2251 46.0756 90.9259 46.1701 92.0095 46.0451C91.131 45.1928 90.1583 44.4174 89.2446 43.6004L53.6851 11.5507C53.3435 11.2454 50.0919 8.31185 50.0624 8.29933ZM71.6075 14.5998L71.4146 14.64C71.2515 14.9195 71.3448 23.0045 71.338 24.0519C73.5415 26.3391 76.1278 28.2326 78.3679 30.4855L78.4456 30.5363C78.5685 30.2314 78.4941 16.213 78.4944 14.5998H71.6075ZM49.9191 18.7538C48.8038 19.8191 47.6095 20.8121 46.4513 21.8305L20.1833 45.4053C19.6601 45.884 18.5927 46.7228 18.2554 47.3127L18.2605 47.3094C18.2161 48.9607 18.2607 50.6232 18.2608 52.276L18.2605 91.6506H50.0624H81.7874V47.5434C80.7489 46.4672 79.5321 45.5211 78.4351 44.4965C74.9978 41.2869 71.5068 38.1394 68.021 34.9832L59.14 27.0039C56.1023 24.2305 53.0931 21.3689 49.9191 18.7538Z" fill="white"/>
<path d="M48.92 71.6C47.96 73.1467 46.7867 74.3467 45.4 75.2C44.0133 76.0533 42.5467 76.48 41 76.48C40.0667 76.48 39.1867 76.32 38.36 76C37.56 75.6533 36.84 75.16 36.2 74.52C35.5867 73.88 35.0933 73.1067 34.72 72.2C34.3733 71.2933 34.2 70.28 34.2 69.16C34.2 67.96 34.3733 66.8933 34.72 65.96C35.0667 65 35.5467 64.1867 36.16 63.52C36.8 62.8533 37.5467 62.3467 38.4 62C39.28 61.6267 40.24 61.44 41.28 61.44C43.1467 61.44 44.7467 61.8667 46.08 62.72C47.44 63.5467 48.52 64.6133 49.32 65.92C50.4667 64.32 51.7467 63.1733 53.16 62.48C54.5733 61.7867 56.0533 61.44 57.6 61.44C58.5333 61.44 59.3867 61.6133 60.16 61.96C60.96 62.28 61.64 62.76 62.2 63.4C62.7867 64.04 63.24 64.8133 63.56 65.72C63.88 66.6 64.04 67.6 64.04 68.72C64.04 69.92 63.8667 71 63.52 71.96C63.1733 72.92 62.68 73.7333 62.04 74.4C61.4 75.0667 60.64 75.5867 59.76 75.96C58.9067 76.3067 57.96 76.48 56.92 76.48C55.9867 76.48 55.12 76.3467 54.32 76.08C53.52 75.8133 52.7867 75.4667 52.12 75.04C51.4533 74.5867 50.8533 74.0667 50.32 73.48C49.7867 72.8667 49.32 72.24 48.92 71.6ZM57 73.52C58.0933 73.52 59.0133 73.0933 59.76 72.24C60.5333 71.3867 60.92 70.24 60.92 68.8C60.92 68.24 60.84 67.6933 60.68 67.16C60.52 66.6267 60.2667 66.16 59.92 65.76C59.6 65.3333 59.1867 65 58.68 64.76C58.1733 64.52 57.5867 64.4 56.92 64.4C55.8267 64.4 54.7067 64.7067 53.56 65.32C52.44 65.9333 51.4133 66.88 50.48 68.16C50.8 68.88 51.1867 69.5733 51.64 70.24C52.0933 70.88 52.6 71.44 53.16 71.92C53.72 72.4 54.32 72.7867 54.96 73.08C55.6 73.3733 56.28 73.52 57 73.52ZM41.24 64.4C40.7067 64.4 40.2 64.52 39.72 64.76C39.24 65 38.8133 65.3333 38.44 65.76C38.0933 66.16 37.8133 66.6533 37.6 67.24C37.4133 67.8 37.32 68.4 37.32 69.04C37.32 70.32 37.7067 71.3867 38.48 72.24C39.2533 73.0933 40.32 73.52 41.68 73.52C42.2667 73.52 42.84 73.4133 43.4 73.2C43.9867 72.9867 44.5333 72.6933 45.04 72.32C45.5733 71.92 46.0667 71.48 46.52 71C46.9733 70.4933 47.3867 69.96 47.76 69.4C47.04 67.9067 46.1333 66.7067 45.04 65.8C43.9467 64.8667 42.68 64.4 41.24 64.4Z" fill="white"/>
</svg>
