<svg width="250" height="250" viewBox="0 0 250 250" fill="none" xmlns="http://www.w3.org/2000/svg">
<g clip-path="url(#clip0_6001_1047)">
<path d="M0 0H250V59.7981L154.905 55.4351L107.393 53.1372L91.0635 52.3035C85.5493 51.9993 80.0029 51.6448 74.481 51.5798C72.7178 54.3472 70.2292 57.8906 68.8594 60.7761C71.3604 60.8586 73.8901 61.3047 76.3816 61.5588C81.8656 62.0665 87.3433 62.6348 92.8147 63.2639L139.302 68.2695C145.969 68.9761 152.669 69.3772 159.34 70.0613C166.942 70.8411 174.543 71.9053 182.158 72.5237C193.309 73.4294 204.532 73.9146 215.645 75.2542C216.287 84.0927 216.819 92.9378 217.243 101.79C217.425 104.764 217.573 107.74 217.686 110.718C217.716 111.72 217.874 112.94 217.677 113.917C217.453 115.025 212.641 121.357 211.601 122.885L198.66 141.676L194.037 148.46C193.124 149.817 192.273 151.23 191.279 152.529L189.326 152.269C189.088 149.017 189.444 145.653 189.575 142.396C189.845 135.632 190.232 128.833 190.336 122.067C191.969 122.196 196.681 122.962 197.865 122.678L198.024 122.496C197.983 122.172 197.996 122.073 197.703 121.87C197.173 121.501 196.356 121.438 195.763 121.128C194.213 120.317 191.882 118.6 190.371 117.526C190.831 107.746 190.943 97.8816 191.043 88.0891L196.68 88.592C197.551 88.6682 198.514 88.8401 199.381 88.7852C199.772 88.7603 200.069 88.6653 200.421 88.5034L200.633 88.2422C200.563 87.9976 200.559 87.9438 200.326 87.8071C199.31 87.2114 192.624 87.0444 190.976 86.7991C191.008 85.5151 191.283 83.5581 190.45 82.4968L190.111 82.5703C189.428 83.7732 189.586 85.3115 189.583 86.6555C180.946 85.6814 172.229 85.2141 163.564 84.5271L121.681 81.1609C112.627 80.4678 103.585 79.5225 94.5339 78.7622C91.6072 78.5161 88.6516 78.0986 85.7236 77.9741C85.9424 76.9697 86.9985 73.5938 86.698 72.8335C86.4421 72.5972 86.3135 72.5544 85.9697 72.5088C85.6121 72.6506 85.4612 72.9353 85.3237 73.2756C84.7612 74.6689 84.5913 76.3516 84.2224 77.8193C82.3826 77.6701 80.5446 77.5004 78.7085 77.3103C77.9673 77.2346 77.0984 77.0166 76.366 77.0549C76.2714 77.0598 76.1796 77.0784 76.0906 77.1106C76.0015 77.1428 75.9191 77.1873 75.8433 77.2441C75.6821 77.364 75.6245 77.4927 75.5542 77.6714C75.6353 77.9517 75.7053 78.062 75.967 78.21C77.2339 78.9265 82.3047 78.8589 84.0798 79.1323C82.7729 83.8293 81.8801 88.7048 80.802 93.4629L78.9812 101.877C78.7485 102.951 78.3579 104.047 78.1895 105.124C78.135 105.473 78.1665 105.729 78.2673 106.065C78.4949 106.295 78.6077 106.423 78.9614 106.428C79.0625 106.429 79.1736 106.381 79.2673 106.347C79.9434 105.105 80.3201 102.067 80.6704 100.542C82.2996 93.4543 83.9395 86.3433 85.4248 79.2253C105.647 81.1221 125.882 82.8595 146.131 84.4373L174.714 86.676C179.667 87.0801 184.637 87.3899 189.575 87.9419C189.533 94.1506 189.412 100.358 189.213 106.563C189.129 109.912 189.184 113.292 189 116.634L187.257 115.435C187.253 112.707 188.012 89.0823 187.971 88.9849C187.941 88.9121 187.878 88.8574 187.831 88.7937C186.82 88.3716 181.728 88.4109 180.296 88.3137L165.092 87.1755L106.184 82.3821C102.096 82.0374 98.0111 81.6651 93.9285 81.2654C91.7659 81.061 89.1558 80.5325 87.0059 80.8171C86.0486 81.8086 82.5593 102.107 81.5928 105.911C79.3438 106.793 69.5347 110.616 68.3765 111.679C68.2957 111.988 68.3293 111.947 68.4514 112.217C69.6897 112.636 72.717 112.534 74.1855 112.625C76.5319 112.772 78.8757 112.951 81.217 113.163C93.3847 114.279 105.559 115.313 117.741 116.266C122.175 116.613 126.634 117.117 131.073 117.335C130.402 120.228 130.041 123.194 129.583 126.125C128.884 130.589 128.103 135.047 127.346 139.502C126.922 141.991 126.593 144.549 126.044 147.013C122.044 146.713 117.97 146.595 113.994 146.107C115.211 139.942 116.299 133.753 117.259 127.543C118.818 127.617 123.341 128.37 124.527 127.828L124.683 127.61C124.627 127.324 124.598 127.217 124.351 127.021C123.559 126.396 108.754 125.332 107.036 125.328C106.521 127.047 106.359 128.914 106.014 130.681C105.055 135.538 104.165 140.407 103.344 145.289L73.3101 142.771C75.0647 136.805 76.3367 130.594 77.7007 124.526C78.3242 121.752 79.2429 118.903 79.5779 116.088C79.6106 115.814 79.5979 115.595 79.4636 115.345C79.3765 115.182 79.2034 115.072 79.0247 115.024C78.8628 114.982 78.6436 114.969 78.5193 115.094C78.0935 115.525 76.7251 122.32 76.4934 123.344L73.2065 137.47C72.8379 139.029 71.8508 142.368 71.7686 143.813L71.8376 143.95C74.6882 144.302 77.5952 144.409 80.4607 144.62C84.3907 144.924 88.3184 145.256 92.2437 145.616L143.879 149.966L159.003 151.175C161.677 151.393 164.396 151.525 167.054 151.89L165.865 153.979C158.198 153.046 150.404 152.672 142.701 152.063C125.209 150.811 107.727 149.436 90.2539 147.938L76.6162 146.712C74.064 146.487 71.4514 146.384 68.9236 145.982C70.8975 138.243 72.7356 130.473 74.4377 122.67C75.01 120.075 76.0747 116.712 76.3176 114.125C76.3484 113.798 76.3311 113.5 76.1631 113.21C76.0535 113.021 76.0806 113.077 75.8545 112.999C75.4639 113.126 75.2708 113.359 75.0935 113.716C74.6082 114.692 74.55 115.947 74.3252 117.004C73.9364 118.757 73.5365 120.507 73.1255 122.255L67.4905 145.837C65.9783 145.687 59.9094 144.861 58.9033 145.227C58.7278 145.536 58.7397 145.633 58.739 145.995C58.9104 146.245 59.012 146.343 59.3208 146.402C61.7708 146.869 64.6992 146.894 67.2212 147.204C66.8628 148.569 65.6348 151.831 66.1919 153.037C66.4631 153.224 66.4822 153.199 66.8152 153.173C67.0344 153.012 67.1387 152.94 67.2468 152.678C67.4839 152.105 67.5347 151.388 67.6743 150.777C67.936 149.632 68.2275 148.479 68.5776 147.357C86.2887 148.951 104.009 150.437 121.738 151.813C132.299 152.556 142.855 153.372 153.405 154.261C157.247 154.573 161.108 154.776 164.944 155.159C164.015 156.721 163.055 158.267 162.15 159.844C160.864 162.084 157.397 168.864 155.838 170.227L156.006 170.164C155.635 170.12 155.666 170.012 155.389 169.905C154.538 169.575 143.86 169.178 142.006 169.076C139.67 168.963 137.339 168.794 135.011 168.569C128.428 167.925 121.944 166.681 115.375 165.984C112.041 165.629 108.683 165.49 105.344 165.175L61.1626 161.245C57.772 160.956 54.407 160.504 51.0256 160.138C47.8162 159.79 44.5974 159.557 41.3816 159.279C38.978 159.07 36.574 158.788 34.166 158.637C33.6584 158.605 32.8506 158.552 32.4155 158.866C32.27 158.971 32.3201 159.157 32.311 159.322C32.4417 159.591 32.4346 159.642 32.7327 159.74C33.8896 160.118 35.4214 160.051 36.6404 160.159L43.2402 160.802L80.9377 164.146C88.5488 164.799 96.1445 165.649 103.751 166.357C107.755 166.729 111.792 166.888 115.784 167.344C121.974 168.052 128.081 169.27 134.291 169.863C141.288 170.532 148.326 170.705 155.337 171.218C153.261 174.878 150.657 178.202 148.405 181.758L90.0696 177.586C79.5403 176.843 69.0151 176.336 58.5183 175.189C54.9089 174.794 51.2925 174.373 47.7261 173.679C45.5913 173.264 28.6848 169.456 28.0251 169.643C27.7141 169.978 27.6577 170.352 27.231 170.516C24.459 169.969 21.6348 169.561 18.882 168.936C20.9211 161.524 23.4504 154.207 25.8215 146.895L38.1475 108.613C38.6208 107.099 40.6326 102.048 40.5134 100.821L40.3545 100.769C39.312 101.618 37.3933 104.732 36.5251 105.967C33.9351 109.652 31.4495 113.385 28.9504 117.129C28.6699 117.549 28.3708 117.979 28.1833 118.45C27.9314 119.084 27.8286 119.914 27.4399 120.472C26.6309 121.633 25.3945 122.596 24.4044 123.607C20.5203 127.572 18.9447 129.172 13.2421 130.185C11.2782 130.534 9.31672 130.78 7.32371 130.57C4.77205 130.301 2.41832 129.488 0 128.698V126.257C3.56589 127.477 7.40999 128.676 11.2172 128.208C13.6171 127.914 16.7092 126.926 18.7005 125.532C19.9262 124.674 22.6037 121.945 23.6773 120.789C25.5427 118.781 26.9927 116.215 28.4976 113.919C30.3931 111.026 32.3281 108.159 34.3027 105.32C42.7207 93.249 50.6697 80.8545 58.9263 68.6721C63.9897 61.2012 69.0876 53.8088 74.635 46.688C76.8713 43.8171 78.4827 38.7322 77.9998 35.0789C77.5286 31.5129 75.2183 28.5195 72.4004 26.4121C68.1396 23.2255 62.8984 22.0632 57.666 22.8301C55.021 23.2177 52.1873 24.2065 50.199 26.0593C49 27.1765 48.8591 28.8669 47.9358 30.1931C46.4165 32.3757 44.7695 34.4634 43.2285 36.6296C39.9373 41.2561 36.7207 45.9309 33.3386 50.4929C33.3417 50.0144 33.3223 49.5368 33.2803 49.0601C33.0708 46.7278 31.6062 44.769 29.8433 43.3267C26.5813 40.6577 22.2719 39.7737 18.1465 40.1851C16.4186 40.3574 14.3047 40.6748 12.8557 41.7036C11.6224 42.5793 9.97046 45.1772 8.98611 46.4697C6.00452 50.3848 3.11821 54.4375 0 58.24V0ZM85.864 123.573C85.4102 124.488 83.282 133.66 83.3738 134.421C83.9214 134.968 97.604 135.693 99.7461 136.115C99.9739 135.92 100.176 135.735 100.28 135.446C100.832 133.899 100.972 132.023 101.293 130.408C101.606 128.838 102.138 127.189 102.275 125.599C102.294 125.387 102.328 125.207 102.243 125.009C100.878 124.373 87.9719 123.518 85.864 123.573Z" fill="#FEFEFE"/>
<path d="M0 58.2401C3.11821 54.4376 6.00452 50.3849 8.98611 46.4698C9.97046 45.1773 11.6224 42.5794 12.8557 41.7037C14.3047 40.6749 16.4186 40.3575 18.1465 40.1852C22.2719 39.7738 26.5813 40.6578 29.8433 43.3268C31.6062 44.7691 33.0708 46.7279 33.2803 49.0602C33.3223 49.5369 33.3417 50.0145 33.3386 50.493C36.7207 45.931 39.9373 41.2562 43.2285 36.6297C44.7695 34.4635 46.4165 32.3758 47.9358 30.1932C48.8591 28.867 49 27.1766 50.199 26.0594C52.1873 24.2066 55.021 23.2179 57.666 22.8302C62.8984 22.0633 68.1396 23.2256 72.4004 26.4122C75.2183 28.5196 77.5286 31.513 77.9998 35.079C78.4827 38.7323 76.8713 43.8172 74.635 46.6881C69.0876 53.8089 63.9897 61.2013 58.9263 68.6722C50.6697 80.8546 42.7207 93.2491 34.3027 105.32C32.3281 108.16 30.3931 111.026 28.4976 113.919C26.9927 116.215 25.5427 118.781 23.6773 120.789C22.6037 121.945 19.9262 124.674 18.7005 125.532C16.7092 126.926 13.6171 127.914 11.2172 128.208C7.40999 128.676 3.56589 127.477 0 126.257V122.632C3.95566 120.338 7.75015 117.786 11.7082 115.486C7.57161 116.674 3.78015 119.267 0 121.308V113.434C1.66634 112.476 3.36803 111.584 5.10505 110.761C6.14121 110.262 7.63318 109.81 8.50864 109.091L8.39636 108.932C6.47007 108.506 1.86546 110.887 0 111.795V107.153C1.97885 106.204 4.40161 106.002 6.56333 106.071C11.0613 106.214 15.8561 108.021 18.9437 111.377C21.4512 114.103 21.805 117.178 21.6798 120.732C24.7358 118.129 28.4929 111.377 30.9177 107.813C38.4898 96.8031 45.9417 85.7126 53.2732 74.5414L60.6362 63.6952C61.7534 62.0411 62.9878 60.4046 63.968 58.6669C63.8911 56.7032 63.5188 54.6336 63.6445 52.6783C63.6728 52.2401 63.7036 52.0201 64.0374 51.7272C64.3496 51.6764 64.3738 51.6617 64.6533 51.8024C65.1787 52.6095 65.1611 55.7352 65.2725 56.8954C65.7864 56.2174 66.2742 55.5375 66.7314 54.8202C66.387 53.326 65.9749 50.6 65.9199 49.1107C65.9028 48.6522 65.9302 48.3143 66.2451 47.9686C66.5107 47.9606 66.637 47.9911 66.8484 48.1715C67.7095 48.9064 67.7339 52.1517 67.8494 53.3194L69.2861 51.4474C69.1074 50.1063 68.1296 44.9083 68.6541 44.015C68.9243 43.8841 68.9612 43.9049 69.2622 43.9532C70.0359 44.6185 70.3198 48.5658 70.48 49.7721C71.0784 49.0123 71.6375 48.2413 72.0981 47.39C71.5017 44.6659 71.405 42.0316 69.2136 40.0126C65.5022 36.5929 58.4197 33.6297 53.3125 34.1686C52.1868 34.2872 50.6526 35.2921 49.675 35.2523C49.3516 35.2391 49.2012 35.142 48.9763 34.9261C48.9792 34.703 49.01 34.6004 49.1511 34.4232C49.9976 33.3622 51.5354 33.1459 52.7908 32.9383C57.9248 32.0892 64.2598 34.5675 68.366 37.536C71.5608 39.8456 72.6206 42.2372 73.2178 46.0672C74.5085 44.4564 75.1335 42.6124 74.8999 40.5394C74.5415 37.3614 72.1174 34.3863 69.6936 32.4608C65.791 29.3609 61.0146 28.1034 56.0867 28.6981C54.4438 28.8963 50.5615 29.7753 49.3406 30.8624C48.4321 31.6712 47.6384 33.0524 46.8958 34.0306C43.281 38.7914 39.9001 43.7743 36.4697 48.672L14.4864 79.6637L5.43042 92.4327C3.64128 94.9569 1.91593 97.5709 0 99.9991V95.8732C3.27869 90.7608 7.01169 85.8756 10.4629 80.8724C7.30146 77.3688 4.70688 75.1683 0 73.9591V72.5751C4.70315 73.3514 8.46729 76.1356 11.3968 79.7755C14.152 76.2203 16.584 72.4703 19.2169 68.8287C22.4559 64.3485 25.9189 59.9025 28.9067 55.2543C28.7738 54.9496 28.6298 54.6502 28.4749 54.3561C28.3199 54.062 28.1545 53.7738 27.9788 53.4916C27.8028 53.2095 27.6168 52.9343 27.4207 52.6659C27.2247 52.3973 27.0192 52.1363 26.8042 51.8827C26.589 51.6293 26.365 51.384 26.1321 51.1468C25.8992 50.9097 25.6579 50.6813 25.4082 50.4618C25.1585 50.2422 24.9012 50.0321 24.6362 49.8314C24.3712 49.6306 24.0993 49.4397 23.8203 49.2589C21.5957 47.806 18.3667 46.9169 15.7086 47.3668C14.9031 47.503 14.1719 48.0179 13.3596 48.1551C12.9903 48.2176 12.7178 48.1278 12.4087 47.9215C12.2987 47.7267 12.3433 47.6969 12.3757 47.4845C12.5642 47.2469 12.7274 47.0863 12.9934 46.9347C15.1128 45.7279 18.3485 45.746 20.6487 46.3412C24.9312 47.4496 27.7922 50.2396 29.9634 53.9422C30.707 52.6659 32.1401 50.5934 31.9766 49.0694C31.7871 47.3041 30.0386 45.4073 28.7227 44.3233C25.9246 42.0184 22.1251 41.2594 18.5803 41.61C17.2566 41.7411 15.1341 41.9281 14.0221 42.7218C12.3673 43.9027 9.76951 47.89 8.39526 49.6983C5.6303 53.3373 2.90867 57.0414 0 60.5643V58.2401ZM18.876 114.842C16.1574 116.694 13.4078 118.499 10.6271 120.256C8.60933 121.523 6.51858 122.712 4.53889 124.034C3.98555 124.403 3.06448 124.606 2.64226 125.09L2.85049 125.085C4.71211 124.278 18.533 116.419 19.1994 115.214C19.2192 115.178 19.2292 115.138 19.2441 115.1C19.0921 114.921 19.1187 114.901 18.876 114.842ZM19.882 120.599C18.141 122.276 16.0383 123.723 14.0905 125.154C13.8625 125.321 12.6568 126.02 12.5654 126.197C12.5372 126.252 12.5535 126.319 12.5476 126.38C14.6194 125.914 18.0468 125.183 19.2393 123.22C19.6628 122.523 19.8864 121.417 19.882 120.599Z" fill="#666666"/>
<path d="M0 99.999C1.91593 97.5707 3.64128 94.9567 5.43042 92.4326L14.4864 79.6635L36.4697 48.6718C39.9001 43.7741 43.281 38.7912 46.8958 34.0305C47.6384 33.0522 48.4321 31.6711 49.3406 30.8623C50.5615 29.7751 54.4438 28.8962 56.0867 28.6979C61.0146 28.1032 65.791 29.3608 69.6936 32.4606C72.1174 34.3862 74.5415 37.3613 74.8999 40.5393C75.1335 42.6122 74.5085 44.4562 73.2178 46.0671C72.6206 42.237 71.5608 39.8454 68.366 37.5358C64.2598 34.5673 57.9248 32.0891 52.7908 32.9382C51.5354 33.1457 49.9976 33.362 49.1511 34.423C49.01 34.6003 48.9792 34.7028 48.9763 34.926C49.2012 35.1418 49.3516 35.239 49.675 35.2521C50.6526 35.2919 52.1868 34.2871 53.3125 34.1684C58.4197 33.6296 65.5022 36.5927 69.2136 40.0124C71.405 42.0314 71.5017 44.6657 72.0981 47.3898C71.6375 48.2412 71.0784 49.0122 70.48 49.7719C70.3198 48.5656 70.0359 44.6184 69.2622 43.9531C68.9612 43.9047 68.9243 43.884 68.6541 44.0148C68.1296 44.9081 69.1074 50.1061 69.2861 51.4472L67.8494 53.3193C67.7339 52.1516 67.7095 48.9062 66.8484 48.1713C66.637 47.9909 66.5107 47.9604 66.2451 47.9685C65.9302 48.3142 65.9028 48.652 65.9199 49.1105C65.9749 50.5998 66.387 53.3259 66.7314 54.82C66.2742 55.5373 65.7864 56.2172 65.2725 56.8952C65.1611 55.7351 65.1787 52.6093 64.6533 51.8022C64.3738 51.6616 64.3496 51.6762 64.0374 51.727C63.7036 52.02 63.6728 52.2399 63.6445 52.6782C63.5188 54.6335 63.8911 56.7031 63.968 58.6667C62.9878 60.4045 61.7534 62.041 60.6362 63.695L53.2732 74.5412C45.9417 85.7124 38.4898 96.8029 30.9177 107.813C28.4929 111.377 24.7358 118.129 21.6798 120.732C21.805 117.178 21.4512 114.103 18.9437 111.377C15.8561 108.02 11.0613 106.214 6.56333 106.07C4.40161 106.002 1.97885 106.204 0 107.153V99.999Z" fill="#FEFEFE"/>
<path d="M0 60.5641C2.90867 57.0411 5.6303 53.337 8.39526 49.6981C9.76951 47.8898 12.3673 43.9025 14.0221 42.7216C15.1341 41.9279 17.2566 41.7409 18.5803 41.6098C22.1251 41.2592 25.9246 42.0182 28.7227 44.3231C30.0386 45.4071 31.7871 47.3038 31.9766 49.0692C32.1401 50.5932 30.707 52.6657 29.9634 53.942C27.7922 50.2394 24.9312 47.4494 20.6487 46.341C18.3485 45.7457 15.1128 45.7277 12.9934 46.9345C12.7274 47.0861 12.5642 47.2467 12.3757 47.4843C12.3433 47.6967 12.2987 47.7264 12.4087 47.9213C12.7178 48.1276 12.9903 48.2174 13.3596 48.1549C14.1719 48.0177 14.9031 47.5028 15.7086 47.3666C18.3667 46.9166 21.5957 47.8058 23.8203 49.2587C24.0993 49.4395 24.3712 49.6303 24.6362 49.8312C24.9012 50.0319 25.1585 50.242 25.4082 50.4616C25.6579 50.6811 25.8992 50.9095 26.1321 51.1466C26.365 51.3838 26.589 51.629 26.8042 51.8825C27.0192 52.136 27.2247 52.3971 27.4207 52.6657C27.6168 52.934 27.8028 53.2093 27.9788 53.4913C28.1545 53.7736 28.3199 54.0617 28.4749 54.3558C28.6298 54.65 28.7738 54.9494 28.9067 55.254C25.9189 59.9022 22.4559 64.3483 19.2169 68.8285C16.584 72.4701 14.152 76.2201 11.3968 79.7753C8.46729 76.1354 4.70315 73.3512 0 72.5748V60.5641Z" fill="#FEFEFE"/>
<path d="M74.481 51.5798C80.0029 51.6448 85.5493 51.9993 91.0635 52.3035L107.393 53.1372L154.905 55.4351L250 59.7981V102.252C248.406 108.197 247.146 114.252 245.686 120.235L235.423 161.705L223.821 206.627C222.32 212.51 220.671 218.367 219.324 224.288C211.474 223.348 203.573 222.745 195.701 222.012L143.398 217.281L137.748 216.799C136.656 216.697 135.528 216.516 134.433 216.489C132.937 216.451 132.275 217.434 130.835 216.442C130.373 216.124 130.079 216.03 129.529 215.951C126.832 215.563 124.049 215.438 121.332 215.2L105.608 213.821C100.202 213.298 94.7932 212.809 89.3811 212.354C86.9268 212.16 84.4465 211.883 81.9849 211.855C84.2759 213.579 93.6194 220.954 94.6455 223.279C94.6108 223.696 94.3149 223.86 94.0049 224.125C92.9521 225.027 91.7932 226.098 90.6235 226.831C85.5762 222.769 80.6392 218.519 75.4126 214.689C71.417 211.761 67.1216 209.238 63.0298 206.448L47.8386 196.125C45.1304 194.278 42.4541 192.342 39.7029 190.563C39.4399 190.393 39.2261 190.291 38.9016 190.318C38.6689 190.337 38.4553 190.5 38.3276 190.691C38.2742 190.771 38.2063 190.901 38.1646 190.977C38.4924 191.803 54.9478 202.622 57.0405 204.028C58.749 205.176 61.9478 207.067 63.2944 208.448C63.6721 208.835 63.856 209.095 63.7751 209.642L63.5984 209.81C63.2344 209.673 62.9629 209.411 62.6685 209.165C55.9863 208.239 49.1987 207.767 42.481 207.143L13.9465 204.418C9.31223 203.983 4.61138 203.709 0 203.092V128.698C2.41832 129.488 4.77205 130.301 7.32371 130.57C9.31672 130.78 11.2782 130.534 13.2421 130.185C18.9447 129.172 20.5203 127.572 24.4044 123.607C25.3945 122.596 26.6309 121.633 27.4399 120.472C27.8286 119.914 27.9314 119.084 28.1833 118.45C28.3708 117.979 28.6699 117.549 28.9504 117.129C31.4495 113.385 33.9351 109.652 36.5251 105.967C37.3933 104.732 39.312 101.618 40.3545 100.769L40.5134 100.821C40.6326 102.048 38.6208 107.099 38.1475 108.613L25.8215 146.895C23.4504 154.207 20.9211 161.524 18.882 168.936C21.6348 169.561 24.459 169.968 27.231 170.516C27.6577 170.352 27.7141 169.978 28.0251 169.643C28.6848 169.456 45.5913 173.264 47.7261 173.679C51.2925 174.373 54.9089 174.794 58.5183 175.189C69.0151 176.336 79.5403 176.843 90.0696 177.586L148.405 181.758C150.657 178.202 153.261 174.878 155.337 171.218C148.326 170.705 141.288 170.532 134.291 169.863C128.081 169.27 121.974 168.052 115.784 167.344C111.792 166.888 107.755 166.729 103.751 166.357C96.1445 165.649 88.5488 164.799 80.9377 164.146L43.2402 160.802L36.6404 160.159C35.4214 160.051 33.8896 160.118 32.7327 159.74C32.4346 159.642 32.4417 159.591 32.311 159.322C32.3201 159.157 32.27 158.971 32.4155 158.866C32.8506 158.552 33.6584 158.605 34.166 158.637C36.574 158.788 38.978 159.07 41.3816 159.279C44.5974 159.557 47.8162 159.79 51.0256 160.138C54.407 160.504 57.772 160.956 61.1626 161.245L105.344 165.175C108.683 165.49 112.041 165.629 115.375 165.984C121.944 166.681 128.428 167.925 135.011 168.569C137.339 168.794 139.67 168.963 142.006 169.076C143.86 169.178 154.538 169.575 155.389 169.905C155.666 170.012 155.635 170.12 156.006 170.164L155.838 170.227C157.397 168.864 160.864 162.084 162.15 159.843C163.055 158.267 164.015 156.721 164.944 155.159C161.108 154.776 157.247 154.573 153.405 154.261C142.855 153.372 132.299 152.556 121.738 151.813C104.009 150.437 86.2887 148.951 68.5776 147.357C68.2275 148.479 67.936 149.632 67.6743 150.777C67.5347 151.388 67.4839 152.105 67.2468 152.678C67.1387 152.94 67.0344 153.012 66.8152 153.173C66.4822 153.199 66.4631 153.224 66.1919 153.037C65.6348 151.831 66.8628 148.569 67.2212 147.204C64.6992 146.894 61.7708 146.869 59.3208 146.402C59.012 146.343 58.9104 146.245 58.739 145.995C58.7397 145.633 58.7278 145.536 58.9033 145.227C59.9094 144.861 65.9783 145.687 67.4905 145.837L73.1255 122.255C73.5365 120.507 73.9364 118.757 74.3252 117.004C74.55 115.947 74.6082 114.692 75.0935 113.716C75.2708 113.359 75.4639 113.126 75.8545 112.999C76.0806 113.077 76.0535 113.021 76.1631 113.21C76.3311 113.5 76.3484 113.798 76.3176 114.125C76.0747 116.712 75.01 120.075 74.4377 122.67C72.7356 130.473 70.8975 138.243 68.9236 145.982C71.4514 146.384 74.064 146.487 76.6162 146.712L90.2539 147.938C107.727 149.436 125.209 150.811 142.701 152.063C150.404 152.672 158.198 153.046 165.865 153.979L167.054 151.89C164.396 151.525 161.677 151.393 159.003 151.175L143.879 149.966L92.2437 145.616C88.3184 145.256 84.3907 144.924 80.4607 144.62C77.5952 144.409 74.6882 144.302 71.8376 143.95L71.7686 143.813C71.8508 142.368 72.8379 139.029 73.2065 137.47L76.4934 123.344C76.7251 122.32 78.0935 115.525 78.5193 115.094C78.6436 114.969 78.8628 114.982 79.0247 115.024C79.2034 115.072 79.3765 115.182 79.4636 115.345C79.5979 115.595 79.6106 115.814 79.5779 116.088C79.2429 118.903 78.3242 121.752 77.7007 124.526C76.3367 130.594 75.0647 136.805 73.3101 142.771L103.344 145.289C104.165 140.407 105.055 135.538 106.014 130.681C106.359 128.914 106.521 127.047 107.036 125.328C108.754 125.332 123.559 126.396 124.351 127.021C124.598 127.217 124.627 127.324 124.683 127.61L124.527 127.828C123.341 128.37 118.818 127.617 117.259 127.543C116.299 133.753 115.211 139.942 113.994 146.107C117.97 146.595 122.044 146.713 126.044 147.013C126.593 144.549 126.922 141.991 127.346 139.502C128.103 135.047 128.884 130.589 129.583 126.125C130.041 123.194 130.402 120.228 131.073 117.335C126.634 117.117 122.175 116.613 117.741 116.266C105.559 115.313 93.3847 114.279 81.217 113.163C78.8757 112.951 76.5319 112.772 74.1855 112.625C72.717 112.534 69.6897 112.636 68.4514 112.217C68.3293 111.947 68.2957 111.988 68.3765 111.679C69.5347 110.616 79.3438 106.793 81.5928 105.911C82.5593 102.107 86.0486 81.8086 87.0059 80.8171C89.1558 80.5325 91.7659 81.061 93.9285 81.2654C98.0111 81.6651 102.096 82.0374 106.184 82.3821L165.092 87.1755L180.296 88.3137C181.728 88.4109 186.82 88.3716 187.831 88.7937C187.878 88.8574 187.941 88.9121 187.971 88.9849C188.012 89.0823 187.253 112.707 187.257 115.435L189 116.634C189.184 113.292 189.129 109.912 189.213 106.563C189.412 100.358 189.533 94.1506 189.575 87.9419C184.637 87.3899 179.667 87.0801 174.714 86.676L146.131 84.4373C125.882 82.8596 105.647 81.1223 85.4248 79.2253C83.9395 86.3433 82.2996 93.4543 80.6704 100.542C80.3201 102.067 79.9434 105.105 79.2673 106.347C79.1736 106.381 79.0625 106.429 78.9614 106.428C78.6077 106.423 78.4949 106.295 78.2673 106.065C78.1665 105.729 78.135 105.473 78.1895 105.124C78.3579 104.047 78.7485 102.951 78.9812 101.877L80.802 93.4629C81.8801 88.7048 82.7729 83.8293 84.0798 79.1323C82.3047 78.8589 77.2339 78.9265 75.967 78.21C75.7053 78.062 75.6353 77.9517 75.5542 77.6714C75.6245 77.4927 75.6821 77.364 75.8433 77.2441C75.9191 77.1873 76.0015 77.1428 76.0906 77.1106C76.1796 77.0784 76.2714 77.0598 76.366 77.0549C77.0984 77.0166 77.9673 77.2346 78.7085 77.3103C80.5446 77.5004 82.3826 77.6701 84.2224 77.8193C84.5913 76.3516 84.7612 74.6689 85.3237 73.2756C85.4612 72.9353 85.6121 72.6506 85.9697 72.5088C86.3135 72.5544 86.4421 72.5972 86.698 72.8335C86.9985 73.5937 85.9424 76.9697 85.7236 77.9741C88.6516 78.0986 91.6072 78.5161 94.5339 78.7622C103.585 79.5225 112.627 80.4678 121.681 81.1609L163.564 84.5271C172.229 85.2141 180.946 85.6814 189.583 86.6555C189.586 85.3115 189.428 83.7732 190.111 82.5703L190.45 82.4968C191.283 83.5581 191.008 85.5151 190.976 86.7991C192.624 87.0444 199.31 87.2114 200.326 87.8071C200.559 87.9438 200.563 87.9976 200.633 88.2422L200.421 88.5034C200.069 88.6653 199.772 88.7603 199.381 88.7852C198.514 88.8401 197.551 88.6682 196.68 88.592L191.043 88.0891C190.943 97.8816 190.831 107.746 190.371 117.526C191.882 118.6 194.213 120.317 195.763 121.128C196.356 121.438 197.173 121.501 197.703 121.87C197.996 122.073 197.983 122.172 198.024 122.496L197.865 122.678C196.681 122.962 191.969 122.196 190.336 122.067C190.232 128.833 189.845 135.632 189.575 142.396C189.444 145.653 189.088 149.017 189.326 152.269L191.279 152.529C192.273 151.23 193.124 149.817 194.037 148.46L198.66 141.676L211.601 122.885C212.641 121.357 217.453 115.025 217.677 113.917C217.874 112.94 217.716 111.72 217.686 110.718C217.573 107.74 217.425 104.764 217.243 101.79C216.819 92.9378 216.287 84.0927 215.645 75.2541C204.532 73.9145 193.309 73.4294 182.158 72.5237C174.543 71.9053 166.942 70.8411 159.34 70.0613C152.669 69.3772 145.969 68.9761 139.302 68.2695L92.8147 63.2639C87.3433 62.6348 81.8656 62.0665 76.3816 61.5588C73.8901 61.3047 71.3604 60.8586 68.8594 60.7761C70.2292 57.8906 72.7178 54.3472 74.481 51.5798ZM87.8679 82.0942L85.075 96.0474C84.4641 99.1177 83.9143 102.225 83.1399 105.259C88.5042 103.386 93.7798 101.067 99.051 98.9365C103.995 96.938 109.029 95.0862 113.922 92.9648C118.116 91.3059 122.28 89.5056 126.452 87.7827C128.057 87.1196 129.671 86.281 131.319 85.7478L100.942 83.251C96.5879 82.8853 92.2266 82.3811 87.8679 82.0942ZM133.889 86.0652C119.828 91.9332 105.721 97.689 91.5688 103.333C87.1194 105.145 82.6335 106.874 78.2017 108.727C76.4089 109.476 74.4304 110.166 72.7415 111.109C74.8892 111.346 77.041 111.473 79.1899 111.685C94.1647 113.074 109.151 114.33 124.148 115.453C140.99 116.878 157.839 118.212 174.695 119.455C180.765 119.908 186.838 120.511 192.914 120.863C189.098 118.191 185.116 115.768 181.196 113.255L166.086 103.375L153.779 95.3416C150.362 93.1226 146.976 90.8704 143.448 88.8269C142.205 88.1064 141.032 87.1746 139.759 86.5249C139.366 86.325 138.867 86.231 138.431 86.3C138.378 86.3086 138.326 86.3247 138.273 86.3372L138.18 86.5332C138.487 87.3892 139.69 88.2634 140.406 88.8015C144.356 91.7739 148.698 94.2627 152.845 96.9465C161.229 102.356 169.646 107.716 178.095 113.025L183.787 116.552C184.408 116.931 185.174 117.195 185.739 117.642C186.074 117.907 186.145 118.102 186.083 118.506C185.871 118.745 185.892 118.738 185.568 118.756C184.104 118.836 182.56 118.622 181.1 118.509C177.979 118.265 174.848 117.94 171.723 117.778L143.759 115.545C141.693 115.371 139.625 115.214 137.556 115.073C136.417 114.995 135.143 115.034 134.038 114.759C133.854 114.507 134.037 113.757 134.088 113.432C135.371 105.221 136.797 97.0334 137.9 88.7932C137.636 88.5857 137.374 88.3782 137.098 88.1863C135.849 95.3003 134.778 102.481 133.665 109.62C133.406 111.282 133.284 112.975 133.001 114.63C122.59 113.618 112.169 112.706 101.739 111.897C96.5945 111.487 91.4082 111.247 86.2781 110.721C85.7817 110.67 85.2883 110.639 84.8391 110.406C84.6716 110.176 84.6804 110.188 84.7122 109.904C85.1394 109.485 85.7407 109.479 86.3088 109.474C88.4028 109.456 90.585 109.741 92.676 109.894C96.6314 110.176 100.585 110.48 104.537 110.809C113.57 111.567 122.703 112.115 131.685 113.325C132.658 105.014 134.558 96.7866 135.691 88.4946C131.086 89.9919 126.667 92.1853 122.19 94.0325L97.8108 103.84C92.0269 106.208 85.6438 109.154 79.7727 111.08C79.3274 111.226 78.9053 111.357 78.4392 111.237C78.3469 111.008 78.3123 110.928 78.4519 110.705C78.6763 110.347 79.1677 110.09 79.5398 109.921C81.135 109.193 82.8552 108.666 84.4812 107.997C88.644 106.282 92.7712 104.524 96.9536 102.854C109.962 97.6575 123.085 92.5408 135.84 86.7498C135.183 86.3672 134.683 86.0232 133.889 86.0652ZM142.517 86.6731C148.134 90.0151 153.631 93.532 159.12 97.0781C161.748 98.7756 185.074 114.302 185.648 114.423C185.689 114.232 185.727 114.065 185.732 113.869C185.928 108.771 186.098 103.672 186.24 98.5718C186.338 95.7075 186.548 92.8323 186.59 89.9685L142.517 86.6731ZM139.219 89.4255L137.189 103.086C136.653 106.601 136.027 110.112 135.558 113.635C150.135 114.804 164.715 116.118 179.306 117.096C180.45 117.215 181.597 117.306 182.745 117.369C170.155 109.49 157.623 101.52 145.149 93.4592C143.146 92.1562 141.228 90.7161 139.219 89.4255ZM229.761 98.4058C220.091 113.477 209.576 127.98 199.52 142.791L185.687 163.406C183.226 167.108 180.834 170.87 178.283 174.509C177.621 175.454 175.084 179.308 174.294 179.504C173.985 179.392 173.948 179.396 173.767 179.126C173.71 177.999 176.733 174.377 177.476 173.131C172.775 172.773 167.998 172.678 163.319 172.138C161.095 175.156 159.214 178.239 157.621 181.634L168.077 182.431C170.183 182.579 172.702 182.507 174.742 183.031C176.346 183.443 177.924 184.331 179.455 184.971C182.448 186.216 185.453 187.433 188.469 188.62C189.069 187.782 189.711 186.953 190.257 186.08C189.348 185.472 188.189 184.868 187.715 183.839L187.725 183.588C188.064 183.412 188.345 183.48 188.701 183.6C189.514 183.873 190.284 184.345 190.968 184.854L192.782 182.022C192.271 181.828 191.899 181.661 191.65 181.148C191.559 180.96 191.609 180.893 191.645 180.7C191.882 180.484 192.104 180.374 192.43 180.38C192.856 180.387 193.328 180.603 193.722 180.75C194.383 179.798 195.046 178.851 195.659 177.868C194.556 177.515 191.755 176.897 191.198 175.846C191.05 175.567 191.106 175.441 191.213 175.181C191.707 174.951 192.145 175.108 192.628 175.284C193.877 175.741 195.048 176.345 196.318 176.764C197.13 175.665 197.869 174.52 198.536 173.328L197.086 172.569C196.98 172.264 196.94 172.09 196.983 171.769C197.21 171.561 197.324 171.496 197.641 171.504C198.177 171.516 198.613 171.787 199.065 172.043L199.266 172.155L201.906 168.137C200.739 167.76 198.579 167.294 197.874 166.268C197.864 165.976 197.846 165.857 198.101 165.652C198.343 165.458 198.625 165.388 198.923 165.474C199.299 165.584 199.66 165.84 200.021 166C200.9 166.392 201.858 166.699 202.788 166.95C203.525 165.791 204.391 164.644 205.038 163.435C204.499 163.295 203.924 163.232 203.626 162.703C203.521 162.517 203.562 162.442 203.581 162.241C203.81 162.015 203.993 161.919 204.324 161.907C204.808 161.889 205.377 162.284 205.791 162.509C206.552 161.347 207.336 160.201 208.142 159.07C206.788 158.521 204.809 158.095 203.738 157.1C203.633 156.783 203.637 156.793 203.766 156.483C204.101 156.274 204.452 156.315 204.825 156.394C206.235 156.695 207.487 157.573 208.875 157.951C209.615 156.89 210.417 155.84 211.023 154.696C210.617 154.583 209.947 154.48 209.697 154.111C209.523 153.856 209.546 153.777 209.623 153.506C209.86 153.32 210.119 153.204 210.428 153.229C210.889 153.267 211.287 153.543 211.677 153.77C212.664 152.619 213.451 151.312 214.195 149.995C213.172 149.62 210.989 149.049 210.428 148.085C210.389 148.018 210.368 147.942 210.338 147.871C211.006 147.575 211.826 147.795 212.482 148.039C213.232 148.317 213.952 148.677 214.704 148.948C215.364 148.099 216.047 147.26 216.649 146.369C216.133 146.138 215.468 145.952 215.269 145.368C215.199 145.164 215.268 145.101 215.338 144.911C215.684 144.686 215.977 144.615 216.383 144.701C216.759 144.781 217.107 144.955 217.449 145.125C218.338 143.98 219.308 142.845 220.087 141.623C218.999 141.232 216.414 140.636 215.884 139.647C215.786 139.462 215.818 139.526 215.837 139.281C216.5 138.974 217.415 139.336 218.075 139.578C218.993 139.913 219.893 140.303 220.816 140.622C221.454 139.599 222.088 138.579 222.672 137.525C222.093 137.32 221.415 137.192 221.12 136.598C221.02 136.397 221.061 136.345 221.091 136.137C221.42 135.89 221.687 135.808 222.102 135.88C222.466 135.943 222.942 136.317 223.256 136.514C224.019 135.341 224.783 134.172 225.491 132.964C224.569 132.595 221.482 131.655 221.057 130.943C221.057 130.613 221.039 130.596 221.243 130.342C222.475 129.989 224.911 131.446 226.125 131.9C226.801 130.92 227.566 129.941 228.137 128.898C227.379 128.678 226.621 128.595 226.205 127.852C226.238 127.671 226.198 127.608 226.373 127.506C226.762 127.279 227.252 127.31 227.664 127.455C228.048 127.591 228.425 127.756 228.801 127.913L230.827 124.757C229.634 124.308 227.667 123.879 226.768 122.97L226.658 122.671C226.819 122.377 226.84 122.369 227.144 122.222C228.083 122.215 230.442 123.399 231.554 123.707C232.222 122.594 232.875 121.468 233.573 120.373C232.802 120.194 232.123 120.158 231.665 119.44L231.673 119.135C231.976 118.85 232.265 118.783 232.67 118.809C233.138 118.839 233.753 119.19 234.187 119.377C234.942 118.344 235.606 117.26 236.279 116.171C235.071 115.766 233.079 115.303 232.201 114.353L232.099 114.047C232.283 113.807 232.318 113.78 232.643 113.749C233.695 113.648 235.846 114.718 236.941 115.055L238.214 113.055C237.439 112.82 236.843 112.717 236.36 112.011L236.335 111.737C236.637 111.489 236.92 111.431 237.312 111.467C237.781 111.509 238.41 111.901 238.84 112.106C239.311 111.43 239.795 110.762 240.209 110.049C239.628 109.821 238.816 109.625 238.546 109.007C238.464 108.819 238.532 108.773 238.599 108.596C238.936 108.409 239.251 108.385 239.615 108.497C240.02 108.622 240.407 108.821 240.783 109.012C241.386 108.2 241.984 107.395 242.518 106.535C241.13 105.917 238.239 105.09 237.295 104.098C237.204 103.817 237.185 103.819 237.3 103.551C237.758 103.337 238.247 103.525 238.694 103.688C240.044 104.177 241.82 105.365 243.26 105.25L243.57 105.074C243.611 104.759 243.576 104.614 243.371 104.358C243.169 104.106 242.861 103.913 242.574 103.774C240.908 102.962 239.081 102.354 237.365 101.645C234.818 100.594 232.314 99.4421 229.761 98.4058ZM132.37 117.45C131.422 123.794 130.413 130.128 129.345 136.452C128.727 140.031 127.948 143.593 127.439 147.188C140.878 148.565 154.386 149.255 167.825 150.601C168.457 149.395 169.129 148.208 170.027 147.175C170.551 146.573 179.797 138.073 179.883 138.037C180.173 137.913 180.417 137.959 180.707 138.041C180.961 138.362 180.88 138.873 180.833 139.267C180.643 140.886 180.164 142.547 179.811 144.14C179.267 146.59 178.824 149.079 177.987 151.452C181.196 151.729 184.529 152.207 187.744 152.239L188.079 144.271C188.128 142.855 188.104 141.424 188.214 140.012C188.373 133.99 188.576 127.97 188.82 121.951C186.972 121.685 185.084 121.606 183.222 121.467C180.451 121.261 177.68 121.04 174.911 120.802C161.577 119.688 148.208 118.925 134.885 117.701C134.009 123.014 133.163 128.331 132.348 133.652C132.012 135.931 131.662 138.207 131.297 140.481C131.11 141.684 131.005 142.938 130.692 144.114C130.563 144.598 130.349 145.216 129.919 145.514C129.752 145.629 129.789 145.583 129.557 145.531C129.239 145.06 129.27 144.449 129.316 143.905C129.413 142.787 129.697 141.676 129.863 140.566L131.076 132.914C131.831 128.277 132.398 123.574 133.291 118.965C133.374 118.537 133.516 118.166 133.38 117.73C133.047 117.462 132.789 117.497 132.37 117.45ZM108.103 126.677C107.672 129.537 107.158 133.026 106.557 135.82C109.15 135.983 111.74 136.179 114.327 136.407C114.814 133.389 115.453 130.387 115.816 127.351C113.251 127.113 110.673 126.83 108.103 126.677ZM106.489 136.194C105.895 139.223 105.459 142.357 104.666 145.337C107.314 145.54 109.96 145.773 112.604 146.034C113.172 143.006 113.865 139.935 114.2 136.871C111.64 136.615 109.059 136.333 106.489 136.194ZM178.79 140.864C176.911 142.695 174.864 144.38 173.031 146.251C173.784 146.649 174.574 147.023 175.293 147.476C176.051 147.991 176.734 148.535 177.341 149.228L178.361 143.942C178.544 142.979 178.84 141.927 178.866 140.95L178.79 140.864ZM219.691 144.011C218.466 145.794 217.369 147.659 216.162 149.454L205.484 165.306C203.516 168.287 201.216 171.134 199.54 174.295C201.796 174.407 204.046 174.583 206.3 174.703C207.718 174.779 209.235 174.704 210.634 174.944C211.232 175.046 212.056 175.183 212.511 175.595C212.332 175.89 212.135 175.932 211.802 176.007C209.336 176.561 201.433 175.819 198.709 175.432L197.178 177.895C195.659 180.074 194.265 182.27 192.926 184.562C197.598 184.936 202.29 185.149 206.967 185.494C211.452 185.824 216.034 186.319 220.528 186.345L219.864 155.097C219.82 152.668 219.792 150.239 219.779 147.809C219.77 146.563 219.855 145.245 219.691 144.011ZM177.371 152.7C177.016 153.355 176.65 154.007 176.305 154.667C179.83 155.049 183.382 155.296 186.919 155.552C187.073 155.547 187.283 155.598 187.39 155.47C187.718 155.078 187.634 154.091 187.644 153.594L177.371 152.7ZM175.543 155.966C173.469 158.588 171.675 161.44 169.658 164.109C167.918 166.412 165.951 168.564 164.257 170.896L172.815 171.431C174.337 171.536 175.875 171.749 177.398 171.773C177.676 171.789 178.147 171.904 178.353 171.72C178.725 171.387 187.831 157.74 188.112 157.049C183.961 156.576 179.716 156.175 175.543 155.966ZM158.085 169.49C156.923 172.012 155.192 174.246 153.624 176.527L147.297 185.723C143.9 190.639 140.795 195.85 137.06 200.517C138.911 200.488 140.557 200.677 141.964 202.033C142.214 202.275 142.449 202.531 142.668 202.801C143.096 203.434 143.385 204.031 143.68 204.732C147.109 199.099 150.194 193.119 153.169 187.233C155.729 182.167 158.216 176.488 161.75 172.036C160.701 170.965 159.591 169.862 158.085 169.49ZM36.1321 176.661C34.3728 177.035 32.6897 177.805 31.6702 179.368C30.8286 180.657 30.7686 182.097 31.1072 183.558C31.469 185.119 32.2468 186.41 33.6226 187.28C35.4849 188.456 38.0344 188.891 40.196 188.552C41.8376 188.374 43.7671 188.045 44.8777 186.687C45.3613 186.095 45.5613 185.365 45.4443 184.609C45.1001 182.383 42.2334 179.095 40.3965 177.845C39.0474 176.927 37.7612 176.611 36.1321 176.661ZM43.0569 178.263C44.7842 180.629 46.9282 182.707 46.8838 185.838C48.0098 186.796 49.4722 188.276 50.8923 188.744C52.657 189.326 54.6536 189.464 56.4878 189.77C59.1216 190.211 61.7515 190.731 64.3784 191.214C72.9917 192.818 81.5854 194.521 90.1594 196.323C92.5454 196.808 107.415 199.834 108.512 199.679C108.638 199.661 108.69 199.622 108.791 199.564C108.664 199.237 108.601 199.202 108.283 199.063C103.688 197.053 97.7012 195.567 92.8293 194.152C87.9294 192.729 83.0486 191.106 78.1807 189.565L52.7639 181.317C49.5627 180.305 46.3096 179.062 43.0569 178.263ZM30.3889 185.991C30.3801 187.091 30.51 188.145 31.2993 188.981C32.2527 189.991 33.8621 190.318 35.2073 190.329C35.9434 190.334 36.5757 190.205 37.27 189.986L37.2771 189.869C34.833 189.165 33.5991 189.174 31.6628 187.368C31.2151 186.95 30.8557 186.358 30.3889 185.991ZM46.3093 187.362C44.6257 188.785 42.957 189.463 40.7771 189.779C44.0044 191.732 47.0735 193.982 50.2146 196.075L71.1975 210.139C75.5393 213.031 79.8696 215.804 84.3364 218.498C85.9534 219.472 87.5208 220.51 89.1719 221.43C90.4761 222.152 91.8015 222.834 93.1482 223.474C91.8525 222.147 90.5728 220.785 89.2085 219.53C87.1316 217.619 84.8882 215.866 82.6875 214.101C78.1138 210.452 73.4582 206.91 68.7207 203.477C63.5449 199.715 58.3926 195.944 53.1636 192.257C51.7024 191.227 47.7781 187.942 46.3093 187.362ZM53.4116 190.657C54.5691 191.451 59.4194 195.232 60.2061 195.497C60.2578 195.436 60.3486 195.348 60.3816 195.276C60.4849 194.127 60.656 192.992 60.8293 191.852C58.3635 191.411 55.8909 191.013 53.4116 190.657ZM62.9717 192.232C63.0249 192.705 63.075 193.153 63.0461 193.629C71.7415 195.397 80.4549 197.071 89.1865 198.65C93.1663 199.371 97.2129 200.268 101.223 200.746C101.197 200.384 101.259 200.101 100.942 199.854C100.424 199.451 66.7361 193.202 62.9717 192.232ZM137.749 201.807C136.518 201.988 136.117 202.473 135.391 203.444C133.618 205.811 130.247 210.932 130.747 213.97C130.82 214.418 131.01 214.855 131.404 215.112C131.915 215.446 132.629 215.349 133.176 215.167C133.67 215.003 134.144 214.775 134.593 214.515C136.224 213.282 142.01 207.484 142.26 205.43C142.35 204.698 141.772 203.909 141.314 203.398C140.493 202.482 139.214 201.837 137.974 201.808C137.899 201.806 137.824 201.807 137.749 201.807ZM87.4216 222.381C88.3994 223.267 89.4197 224.371 90.6653 224.858C90.9153 224.809 91.0605 224.717 91.2703 224.575L91.3796 224.321C90.9841 223.787 88.1543 222.645 87.4216 222.381Z" fill="#666666"/>
<path d="M0 73.959C4.70688 75.1682 7.30146 77.3686 10.4629 80.8723C7.01169 85.8755 3.27869 90.7607 0 95.873V73.959Z" fill="#FEFEFE"/>
<path d="M83.1399 105.259C83.9143 102.225 84.4641 99.1177 85.075 96.0474L87.8679 82.0942C92.2266 82.3811 96.5879 82.8853 100.942 83.251L131.319 85.7478C129.671 86.281 128.057 87.1196 126.452 87.7827C122.28 89.5056 118.116 91.3059 113.922 92.9648C109.029 95.0862 103.995 96.938 99.051 98.9365C93.7798 101.067 88.5042 103.386 83.1399 105.259Z" fill="#FEFEFE"/>
<path d="M72.7415 111.109C74.4304 110.166 76.4089 109.476 78.2017 108.727C82.6335 106.874 87.1194 105.145 91.5688 103.333C105.721 97.689 119.828 91.9333 133.889 86.0653C134.683 86.0233 135.183 86.3673 135.84 86.7498C123.085 92.5408 109.962 97.6575 96.9536 102.854C92.7712 104.524 88.644 106.282 84.4812 107.997C82.8552 108.666 81.135 109.193 79.5398 109.921C79.1677 110.09 78.6763 110.347 78.4519 110.705C78.3123 110.928 78.3469 111.008 78.4392 111.237C78.9053 111.357 79.3274 111.226 79.7727 111.08C85.6438 109.154 92.0269 106.209 97.8108 103.84L122.19 94.0325C126.667 92.1854 131.086 89.992 135.691 88.4947C134.558 96.7867 132.658 105.014 131.685 113.325C122.703 112.116 113.57 111.567 104.537 110.809C100.585 110.481 96.6314 110.176 92.676 109.894C90.585 109.741 88.4028 109.456 86.3088 109.474C85.7407 109.479 85.1394 109.485 84.7122 109.904C84.6804 110.188 84.6716 110.176 84.8391 110.407C85.2883 110.639 85.7817 110.67 86.2781 110.721C91.4082 111.247 96.5945 111.487 101.739 111.897C112.169 112.706 122.59 113.618 133.001 114.63C133.284 112.975 133.406 111.282 133.665 109.62C134.778 102.481 135.849 95.3004 137.098 88.1863C137.374 88.3782 137.636 88.5858 137.9 88.7933C136.797 97.0335 135.371 105.221 134.088 113.432C134.037 113.757 133.854 114.507 134.038 114.759C135.143 115.034 136.417 114.995 137.556 115.073C139.625 115.214 141.693 115.371 143.759 115.545L171.723 117.778C174.848 117.94 177.979 118.265 181.1 118.509C182.56 118.622 184.104 118.836 185.568 118.756C185.892 118.738 185.871 118.745 186.083 118.506C186.145 118.102 186.074 117.907 185.739 117.642C185.174 117.195 184.408 116.931 183.787 116.553L178.095 113.025C169.646 107.716 161.229 102.356 152.845 96.9466C148.698 94.2628 144.356 91.774 140.406 88.8016C139.69 88.2635 138.487 87.3892 138.18 86.5333L138.273 86.3372C138.326 86.3248 138.378 86.3087 138.431 86.3001C138.867 86.231 139.366 86.325 139.759 86.525C141.032 87.1746 142.205 88.1065 143.448 88.827C146.976 90.8704 150.362 93.1226 153.779 95.3416L166.086 103.375L181.196 113.255C185.116 115.768 189.098 118.191 192.914 120.863C186.838 120.511 180.765 119.908 174.695 119.455C157.839 118.212 140.99 116.878 124.148 115.453C109.151 114.33 94.1647 113.074 79.1899 111.685C77.041 111.473 74.8892 111.347 72.7415 111.109ZM117.128 97.7847C116.797 98.9971 115.906 103.168 116.119 104.256L116.149 104.243C116.189 104.263 116.228 104.285 116.269 104.301C116.957 104.575 125.92 105.363 127.004 105.326C127.365 104.598 128.182 99.762 128.149 98.9764C126.278 98.3358 123.864 98.4542 121.876 98.2574C120.321 98.1033 118.687 97.7955 117.128 97.7847Z" fill="#FEFEFE"/>
<path d="M185.732 113.869C185.727 114.065 185.689 114.232 185.648 114.423C185.074 114.302 161.748 98.7756 159.12 97.0781C153.631 93.532 148.134 90.0151 142.517 86.6731L186.59 89.9685C186.548 92.8323 186.338 95.7075 186.24 98.5718C186.098 103.672 185.928 108.771 185.732 113.869Z" fill="#FEFEFE"/>
<path d="M135.558 113.635C136.027 110.112 136.653 106.601 137.189 103.086L139.219 89.4255C141.228 90.7161 143.146 92.1563 145.149 93.4592C157.623 101.52 170.155 109.49 182.745 117.369C181.597 117.306 180.45 117.215 179.306 117.096C164.715 116.118 150.135 114.804 135.558 113.635ZM141.816 100.692C141.316 101.93 140.313 110.018 140.391 111.421C141.158 111.785 158.26 112.933 160.4 113.084C161.734 113.178 164.474 113.14 165.625 113.597C165.928 113.692 165.986 113.689 166.297 113.621C166.664 113.244 166.686 112.856 166.683 112.351C166.681 111.911 166.64 111.47 166.603 111.032C165.066 108.794 156.507 104.585 153.876 102.136C149.891 101.499 145.826 101.169 141.816 100.692Z" fill="#FEFEFE"/>
<path d="M127.004 105.326C125.92 105.363 116.957 104.575 116.269 104.301C116.228 104.285 116.189 104.262 116.149 104.243L116.119 104.256C115.906 103.168 116.797 98.9971 117.128 97.7847C118.687 97.7954 120.321 98.1033 121.876 98.2573C123.864 98.4541 126.278 98.3357 128.149 98.9763C128.182 99.762 127.365 104.598 127.004 105.326ZM118.291 99.1841L117.499 103.222C118.735 103.363 119.968 103.451 121.209 103.528C121.519 102.207 121.684 100.859 121.874 99.5161C120.677 99.4391 119.483 99.3284 118.291 99.1841ZM123.247 99.6606C122.926 100.966 122.799 102.307 122.504 103.617L125.914 103.897C126.13 102.592 126.376 101.292 126.652 99.9973C125.518 99.8223 124.39 99.738 123.247 99.6606Z" fill="#666666"/>
<path d="M177.476 173.131C176.733 174.377 173.71 177.999 173.767 179.126C173.948 179.396 173.985 179.392 174.294 179.504C175.084 179.308 177.621 175.454 178.283 174.509C180.834 170.87 183.226 167.108 185.687 163.406L199.52 142.791C209.576 127.98 220.091 113.477 229.761 98.4058C232.314 99.4421 234.818 100.594 237.365 101.645C239.081 102.354 240.908 102.962 242.574 103.774C242.861 103.913 243.169 104.106 243.371 104.358C243.576 104.614 243.611 104.759 243.57 105.074L243.26 105.25C241.82 105.365 240.044 104.177 238.694 103.688C238.247 103.525 237.758 103.337 237.3 103.551C237.185 103.819 237.204 103.817 237.295 104.098C238.239 105.09 241.13 105.917 242.518 106.535C241.984 107.395 241.386 108.2 240.783 109.012C240.407 108.821 240.02 108.622 239.615 108.497C239.251 108.385 238.936 108.409 238.599 108.596C238.532 108.773 238.464 108.819 238.546 109.007C238.816 109.625 239.628 109.821 240.209 110.049C239.795 110.762 239.311 111.43 238.84 112.106C238.41 111.901 237.781 111.509 237.312 111.467C236.92 111.431 236.637 111.489 236.335 111.737L236.36 112.011C236.843 112.717 237.439 112.82 238.214 113.055L236.941 115.055C235.846 114.718 233.695 113.648 232.643 113.749C232.318 113.78 232.283 113.807 232.099 114.047L232.201 114.353C233.079 115.303 235.071 115.766 236.279 116.171C235.606 117.26 234.942 118.344 234.187 119.377C233.753 119.19 233.138 118.839 232.67 118.809C232.265 118.783 231.976 118.85 231.673 119.135L231.665 119.44C232.123 120.158 232.802 120.194 233.573 120.373C232.875 121.468 232.222 122.594 231.554 123.707C230.442 123.399 228.083 122.215 227.144 122.222C226.84 122.369 226.819 122.377 226.658 122.671L226.768 122.97C227.667 123.879 229.634 124.308 230.827 124.757L228.801 127.913C228.425 127.756 228.048 127.591 227.664 127.455C227.252 127.31 226.762 127.279 226.373 127.506C226.198 127.608 226.238 127.671 226.205 127.852C226.621 128.595 227.379 128.678 228.137 128.898C227.566 129.941 226.801 130.92 226.125 131.9C224.911 131.446 222.475 129.989 221.243 130.342C221.039 130.596 221.057 130.613 221.057 130.943C221.482 131.655 224.569 132.595 225.491 132.964C224.783 134.172 224.019 135.341 223.256 136.514C222.942 136.317 222.466 135.943 222.102 135.88C221.687 135.808 221.42 135.89 221.091 136.137C221.061 136.345 221.02 136.397 221.12 136.598C221.415 137.192 222.093 137.32 222.672 137.525C222.088 138.579 221.454 139.599 220.816 140.622C219.893 140.303 218.993 139.913 218.075 139.578C217.415 139.336 216.5 138.974 215.837 139.281C215.818 139.526 215.786 139.462 215.884 139.647C216.414 140.636 218.999 141.232 220.087 141.623C219.308 142.845 218.338 143.98 217.449 145.125C217.107 144.955 216.759 144.781 216.383 144.701C215.977 144.615 215.684 144.686 215.338 144.911C215.268 145.101 215.199 145.164 215.269 145.368C215.468 145.952 216.133 146.138 216.649 146.369C216.047 147.26 215.364 148.099 214.704 148.948C213.952 148.677 213.232 148.317 212.482 148.039C211.826 147.795 211.006 147.575 210.338 147.871C210.368 147.942 210.389 148.018 210.428 148.085C210.989 149.049 213.172 149.62 214.195 149.995C213.451 151.312 212.664 152.619 211.677 153.77C211.287 153.543 210.889 153.267 210.428 153.229C210.119 153.204 209.86 153.32 209.623 153.506C209.546 153.777 209.523 153.856 209.697 154.111C209.947 154.48 210.617 154.583 211.023 154.696C210.417 155.84 209.615 156.89 208.875 157.951C207.487 157.573 206.235 156.695 204.825 156.394C204.452 156.315 204.101 156.274 203.766 156.483C203.637 156.793 203.633 156.783 203.738 157.1C204.809 158.095 206.788 158.521 208.142 159.07C207.336 160.201 206.552 161.347 205.791 162.509C205.377 162.284 204.808 161.889 204.324 161.907C203.993 161.919 203.81 162.015 203.581 162.241C203.562 162.442 203.521 162.517 203.626 162.703C203.924 163.232 204.499 163.295 205.038 163.435C204.391 164.644 203.525 165.791 202.788 166.95C201.858 166.699 200.9 166.392 200.021 166C199.66 165.84 199.299 165.584 198.923 165.474C198.625 165.388 198.343 165.458 198.101 165.652C197.846 165.857 197.864 165.976 197.874 166.268C198.579 167.294 200.739 167.76 201.906 168.137L199.266 172.155L199.065 172.043C198.613 171.787 198.177 171.516 197.641 171.504C197.324 171.496 197.21 171.561 196.983 171.769C196.94 172.09 196.98 172.264 197.086 172.569L198.536 173.328C197.869 174.52 197.13 175.665 196.318 176.764C195.048 176.345 193.877 175.741 192.628 175.284C192.145 175.108 191.707 174.951 191.213 175.181C191.106 175.441 191.05 175.567 191.198 175.846C191.755 176.897 194.556 177.515 195.659 177.868C195.046 178.851 194.383 179.798 193.722 180.75C193.328 180.603 192.856 180.387 192.43 180.38C192.104 180.375 191.882 180.484 191.645 180.7C191.609 180.893 191.559 180.96 191.65 181.148C191.899 181.661 192.271 181.828 192.782 182.022L190.968 184.854C190.284 184.345 189.514 183.873 188.701 183.6C188.345 183.48 188.064 183.412 187.725 183.588L187.715 183.839C188.189 184.868 189.348 185.472 190.257 186.08C189.711 186.953 189.069 187.782 188.469 188.62C185.453 187.433 182.448 186.216 179.455 184.971C177.924 184.331 176.346 183.443 174.742 183.031C172.702 182.507 170.183 182.579 168.077 182.431L157.621 181.634C159.214 178.239 161.095 175.156 163.319 172.138C167.998 172.678 172.775 172.773 177.476 173.131Z" fill="#FEFEFE"/>
<path d="M117.499 103.222L118.292 99.1841C119.483 99.3285 120.677 99.4391 121.874 99.5161C121.684 100.859 121.519 102.207 121.209 103.528C119.968 103.451 118.735 103.363 117.499 103.222Z" fill="#FEFEFE"/>
<path d="M122.504 103.617C122.799 102.307 122.926 100.966 123.247 99.6606C124.39 99.738 125.518 99.8223 126.652 99.9973C126.376 101.292 126.13 102.592 125.914 103.897L122.504 103.617Z" fill="#FEFEFE"/>
<path d="M165.625 113.597C164.474 113.14 161.734 113.178 160.4 113.084C158.26 112.933 141.158 111.785 140.391 111.421C140.313 110.018 141.316 101.93 141.816 100.692C145.826 101.169 149.891 101.499 153.876 102.136C156.507 104.585 165.066 108.794 166.603 111.032C166.64 111.47 166.681 111.911 166.683 112.351C166.686 112.856 166.664 113.244 166.297 113.621C165.986 113.689 165.928 113.692 165.625 113.597ZM142.976 102.088C142.747 104.817 142.208 107.516 142.043 110.254C147.178 110.759 152.33 111.175 157.47 111.61C159.774 111.806 162.117 111.898 164.408 112.192C164.84 112.161 164.868 112.199 165.187 111.875C165.258 111.615 165.294 111.502 165.147 111.247C164.971 110.942 154.362 104.006 153.496 103.577C152.785 103.225 151.95 103.135 151.171 103.041C148.44 102.712 145.702 102.459 142.976 102.088Z" fill="#666666"/>
<path d="M142.043 110.254C142.208 107.516 142.747 104.817 142.976 102.088C145.702 102.459 148.44 102.712 151.171 103.041C151.95 103.135 152.785 103.225 153.496 103.577C154.362 104.006 164.971 110.942 165.147 111.247C165.294 111.502 165.258 111.615 165.187 111.875C164.868 112.199 164.84 112.161 164.408 112.192C162.117 111.898 159.774 111.806 157.47 111.61C152.33 111.175 147.178 110.759 142.043 110.254Z" fill="#FEFEFE"/>
<path d="M219.324 224.288C220.671 218.367 222.32 212.51 223.821 206.627L235.423 161.705L245.686 120.235C247.146 114.252 248.406 108.197 250 102.252V250H0V203.092C4.61138 203.709 9.31223 203.983 13.9465 204.418L42.481 207.143C49.1987 207.767 55.9863 208.239 62.6685 209.165C62.9629 209.411 63.2344 209.673 63.5984 209.81L63.7751 209.642C63.856 209.095 63.6721 208.835 63.2944 208.448C61.9478 207.067 58.749 205.176 57.0405 204.028C54.9478 202.622 38.4924 191.803 38.1646 190.977C38.2063 190.901 38.2742 190.771 38.3276 190.691C38.4553 190.5 38.6689 190.337 38.9016 190.318C39.2261 190.291 39.4399 190.393 39.7029 190.563C42.4541 192.342 45.1304 194.278 47.8386 196.125L63.0298 206.448C67.1216 209.238 71.417 211.761 75.4126 214.689C80.6392 218.519 85.5762 222.769 90.6235 226.831C91.7932 226.098 92.9521 225.027 94.0049 224.125C94.3149 223.86 94.6108 223.696 94.6455 223.279C93.6194 220.954 84.2759 213.579 81.9849 211.855C84.4465 211.883 86.9268 212.16 89.3811 212.354C94.7932 212.809 100.202 213.298 105.608 213.821L121.332 215.2C124.049 215.438 126.832 215.563 129.529 215.951C130.079 216.03 130.373 216.124 130.835 216.442C132.275 217.434 132.937 216.451 134.433 216.489C135.528 216.516 136.656 216.697 137.748 216.799L143.398 217.281L195.701 222.012C203.573 222.745 211.474 223.348 219.324 224.288Z" fill="#FEFEFE"/>
<path d="M0 111.795C1.86546 110.887 6.47007 108.506 8.39636 108.932L8.50864 109.091C7.63318 109.81 6.14121 110.261 5.10505 110.761C3.36803 111.584 1.66634 112.475 0 113.434V111.795Z" fill="#FEFEFE"/>
<path d="M2.85049 125.085L2.64226 125.09C3.06447 124.606 3.98554 124.403 4.53889 124.034C6.51858 122.712 8.60932 121.523 10.6271 120.256C13.4078 118.499 16.1574 116.694 18.876 114.842C19.1187 114.901 19.0921 114.921 19.2441 115.1C19.2292 115.138 19.2192 115.178 19.1994 115.214C18.533 116.419 4.71211 124.278 2.85049 125.085Z" fill="#FEFEFE"/>
<path d="M0 121.308C3.78015 119.267 7.57161 116.674 11.7082 115.486C7.75015 117.786 3.95566 120.338 0 122.632V121.308Z" fill="#FEFEFE"/>
<path d="M127.439 147.188C127.948 143.593 128.727 140.031 129.345 136.452C130.413 130.128 131.422 123.794 132.37 117.45C132.789 117.497 133.047 117.462 133.38 117.73C133.516 118.166 133.374 118.537 133.291 118.965C132.398 123.574 131.831 128.277 131.076 132.914L129.863 140.566C129.697 141.676 129.413 142.787 129.316 143.905C129.27 144.449 129.239 145.06 129.557 145.531C129.789 145.583 129.752 145.629 129.919 145.514C130.349 145.216 130.563 144.598 130.692 144.114C131.005 142.938 131.11 141.684 131.297 140.481C131.662 138.207 132.012 135.931 132.348 133.652C133.163 128.331 134.009 123.014 134.885 117.701C148.208 118.925 161.577 119.688 174.911 120.802C177.68 121.04 180.451 121.261 183.222 121.467C185.084 121.606 186.972 121.685 188.82 121.951C188.576 127.97 188.373 133.99 188.214 140.012C188.104 141.424 188.128 142.855 188.079 144.271L187.744 152.239C184.529 152.207 181.196 151.729 177.987 151.452C178.824 149.079 179.267 146.59 179.811 144.14C180.164 142.547 180.643 140.886 180.833 139.267C180.88 138.873 180.961 138.362 180.707 138.041C180.417 137.959 180.173 137.913 179.883 138.037C179.797 138.073 170.551 146.573 170.027 147.175C169.129 148.208 168.457 149.395 167.825 150.601C154.386 149.255 140.878 148.565 127.439 147.188ZM139.644 120.976C139.408 121.208 139.322 121.286 139.242 121.617C138.939 122.874 138.923 124.312 138.755 125.608C138.495 127.612 137.964 129.792 137.963 131.804C137.963 132.243 137.939 132.666 138.184 133.04C140.69 133.534 144.487 133.557 147.156 133.75L165.43 135.233C168.535 135.495 171.842 135.559 174.902 136.116C175.366 136.133 175.64 136.204 176.054 135.982C176.239 135.708 176.35 135.47 176.399 135.14C176.521 134.319 176.383 133.427 176.428 132.592C176.511 131.072 177.111 125.229 176.791 124.167C176.746 124.019 176.729 124.007 176.655 123.896C175.202 123.395 173.017 123.524 171.471 123.433C169.152 123.302 166.835 123.144 164.52 122.958C158.823 122.473 153.124 122.017 147.422 121.591C144.867 121.391 142.198 120.99 139.644 120.976ZM185.461 123.653C185.348 124.039 185.265 124.414 185.235 124.816C185.081 126.882 185.077 128.977 185.001 131.049C184.842 134.678 184.706 138.308 184.593 141.938C184.523 144.059 184.156 148.175 184.4 150.033C184.642 150.316 184.673 150.328 185.059 150.375C185.202 150.393 185.366 150.382 185.509 150.38C186.009 149.116 186.829 126.057 186.632 123.862C186.333 123.594 185.853 123.656 185.461 123.653Z" fill="#FEFEFE"/>
<path d="M12.5476 126.38C12.5535 126.319 12.5372 126.251 12.5654 126.197C12.6568 126.02 13.8625 125.321 14.0905 125.154C16.0383 123.723 18.141 122.276 19.882 120.599C19.8864 121.417 19.6628 122.523 19.2393 123.22C18.0468 125.183 14.6194 125.914 12.5476 126.38Z" fill="#FEFEFE"/>
<path d="M174.902 136.116C171.842 135.559 168.535 135.495 165.43 135.233L147.156 133.75C144.487 133.557 140.69 133.534 138.184 133.04C137.939 132.666 137.963 132.243 137.963 131.804C137.964 129.792 138.495 127.612 138.755 125.608C138.923 124.312 138.939 122.874 139.242 121.617C139.322 121.286 139.408 121.208 139.644 120.976C142.198 120.99 144.867 121.391 147.422 121.591C153.124 122.017 158.823 122.473 164.52 122.958C166.835 123.144 169.152 123.302 171.471 123.433C173.017 123.524 175.202 123.395 176.655 123.896C176.729 124.007 176.746 124.019 176.791 124.167C177.111 125.229 176.511 131.072 176.428 132.592C176.383 133.427 176.521 134.319 176.399 135.14C176.35 135.47 176.239 135.708 176.054 135.982C175.64 136.204 175.366 136.133 174.902 136.116ZM140.648 122.34C140.472 123.525 140.288 124.74 140.207 125.935C142.864 126.148 145.598 126.542 148.254 126.612C148.455 125.403 148.634 124.19 148.793 122.974C146.076 122.789 143.361 122.577 140.648 122.34ZM150.065 123.138C149.919 124.358 149.819 125.602 149.616 126.812C152.015 127.005 154.439 127.032 156.827 127.318C157.011 126.124 156.999 124.88 157.036 123.674C154.714 123.473 152.39 123.295 150.065 123.138ZM158.366 123.762L158.284 127.429C159.306 127.505 165.519 128.079 166.042 127.78C166.166 126.656 166.273 125.527 166.429 124.408C163.784 124.088 161.027 123.847 158.366 123.762ZM167.729 124.518C167.588 125.685 167.53 126.86 167.457 128.033C170.023 128.323 172.606 128.45 175.177 128.714C175.28 127.459 175.39 126.203 175.426 124.944C172.861 124.788 170.295 124.646 167.729 124.518ZM140.01 127.305L139.297 131.856C142.021 132.068 144.794 132.405 147.52 132.472C147.732 130.998 147.934 129.523 148.125 128.046C145.462 127.702 142.692 127.421 140.01 127.305ZM149.53 128.136C149.338 129.596 149.116 131.061 148.999 132.53C151.499 132.735 154.068 132.843 156.553 133.163C156.704 131.68 156.862 130.163 156.888 128.673L149.53 128.136ZM158.178 128.798C158.06 130.286 158.017 131.778 157.959 133.269C159.98 133.445 163.789 133.975 165.616 133.856C165.743 132.331 165.892 130.809 166.062 129.288C163.432 129.153 160.805 128.99 158.178 128.798ZM167.275 129.459C167.172 130.982 167.059 132.504 166.936 134.025C169.565 134.271 172.282 134.616 174.918 134.662C175.002 133.132 175.144 131.586 175.168 130.056C172.543 129.822 169.909 129.566 167.275 129.459Z" fill="#666666"/>
<path d="M140.207 125.935C140.288 124.74 140.472 123.525 140.648 122.34C143.361 122.577 146.076 122.789 148.793 122.974C148.634 124.19 148.455 125.403 148.254 126.612C145.598 126.542 142.864 126.148 140.207 125.935Z" fill="#FEFEFE"/>
<path d="M149.616 126.812C149.819 125.602 149.919 124.358 150.065 123.138C152.39 123.295 154.714 123.473 157.036 123.674C156.999 124.88 157.011 126.124 156.827 127.318C154.439 127.032 152.015 127.005 149.616 126.812Z" fill="#FEFEFE"/>
<path d="M99.7461 136.115C97.604 135.693 83.9214 134.968 83.3738 134.421C83.282 133.66 85.4102 124.488 85.864 123.573C87.9719 123.518 100.878 124.373 102.243 125.009C102.328 125.207 102.294 125.387 102.275 125.599C102.138 127.189 101.606 128.838 101.293 130.408C100.972 132.023 100.832 133.899 100.28 135.446C100.176 135.735 99.9739 135.92 99.7461 136.115ZM86.8599 124.894C86.28 127.707 85.4419 130.566 85.0005 133.391C89.639 133.778 94.2736 134.206 98.9043 134.677C99.5611 131.792 100.341 128.871 100.773 125.943C96.156 125.445 91.4966 125.152 86.8599 124.894Z" fill="#666666"/>
<path d="M185.509 150.38C185.366 150.382 185.202 150.393 185.059 150.375C184.673 150.328 184.642 150.316 184.4 150.033C184.156 148.175 184.523 144.059 184.593 141.938C184.706 138.307 184.842 134.678 185.001 131.048C185.077 128.977 185.081 126.882 185.235 124.816C185.265 124.414 185.348 124.039 185.461 123.653C185.853 123.655 186.333 123.594 186.632 123.861C186.829 126.057 186.009 149.116 185.509 150.38Z" fill="#666666"/>
<path d="M158.284 127.429L158.366 123.762C161.027 123.847 163.784 124.088 166.429 124.408C166.273 125.527 166.166 126.656 166.042 127.78C165.519 128.079 159.306 127.505 158.284 127.429Z" fill="#FEFEFE"/>
<path d="M167.457 128.033C167.53 126.86 167.588 125.685 167.729 124.518C170.295 124.646 172.861 124.788 175.426 124.944C175.39 126.203 175.28 127.459 175.177 128.714C172.606 128.45 170.023 128.323 167.457 128.033Z" fill="#FEFEFE"/>
<path d="M85.0005 133.391C85.4419 130.566 86.28 127.707 86.8599 124.894C91.4966 125.152 96.156 125.445 100.773 125.943C100.341 128.871 99.561 131.792 98.9043 134.677C94.2736 134.206 89.639 133.778 85.0005 133.391Z" fill="#FEFEFE"/>
<path d="M106.557 135.82C107.158 133.026 107.672 129.537 108.103 126.677C110.673 126.83 113.251 127.113 115.816 127.351C115.453 130.387 114.814 133.389 114.327 136.407C111.74 136.179 109.15 135.983 106.557 135.82Z" fill="#FEFEFE"/>
<path d="M139.297 131.856L140.01 127.305C142.692 127.421 145.462 127.702 148.125 128.046C147.934 129.523 147.732 130.998 147.52 132.472C144.794 132.405 142.021 132.068 139.297 131.856Z" fill="#FEFEFE"/>
<path d="M148.999 132.53C149.116 131.061 149.338 129.596 149.53 128.135L156.888 128.673C156.862 130.163 156.704 131.68 156.553 133.163C154.068 132.843 151.499 132.735 148.999 132.53Z" fill="#FEFEFE"/>
<path d="M157.959 133.269C158.017 131.778 158.06 130.286 158.178 128.798C160.805 128.99 163.432 129.153 166.062 129.288C165.892 130.809 165.743 132.331 165.616 133.856C163.789 133.975 159.98 133.445 157.959 133.269Z" fill="#FEFEFE"/>
<path d="M166.936 134.025C167.059 132.504 167.172 130.982 167.275 129.459C169.909 129.566 172.543 129.822 175.168 130.056C175.144 131.586 175.002 133.132 174.918 134.662C172.282 134.616 169.565 134.271 166.936 134.025Z" fill="#FEFEFE"/>
<path d="M104.666 145.337C105.459 142.357 105.895 139.223 106.489 136.194C109.059 136.333 111.64 136.615 114.2 136.871C113.865 139.935 113.172 143.006 112.604 146.034C109.96 145.773 107.314 145.54 104.666 145.337Z" fill="#FEFEFE"/>
<path d="M173.031 146.251C174.864 144.38 176.911 142.695 178.79 140.864L178.866 140.95C178.84 141.927 178.544 142.979 178.361 143.942L177.341 149.228C176.734 148.535 176.051 147.991 175.293 147.476C174.574 147.023 173.784 146.649 173.031 146.251Z" fill="#FEFEFE"/>
<path d="M199.54 174.295C201.216 171.134 203.516 168.287 205.484 165.306L216.162 149.454C217.369 147.659 218.466 145.794 219.691 144.011C219.855 145.245 219.77 146.563 219.779 147.809C219.792 150.239 219.82 152.668 219.864 155.097L220.528 186.345C216.034 186.319 211.452 185.824 206.967 185.494C202.29 185.149 197.598 184.936 192.926 184.562C194.265 182.27 195.659 180.074 197.178 177.895L198.709 175.432C201.433 175.819 209.336 176.561 211.802 176.007C212.135 175.932 212.332 175.89 212.511 175.595C212.056 175.183 211.232 175.046 210.634 174.944C209.235 174.704 207.718 174.779 206.3 174.703C204.046 174.583 201.796 174.407 199.54 174.295Z" fill="#FEFEFE"/>
<path d="M176.305 154.667C176.65 154.007 177.016 153.355 177.371 152.7L187.644 153.594C187.634 154.091 187.718 155.078 187.39 155.47C187.283 155.598 187.073 155.547 186.919 155.552C183.382 155.296 179.83 155.049 176.305 154.667Z" fill="#FEFEFE"/>
<path d="M164.257 170.896C165.951 168.564 167.918 166.412 169.658 164.109C171.675 161.44 173.469 158.588 175.543 155.966C179.716 156.175 183.961 156.576 188.112 157.049C187.831 157.74 178.725 171.387 178.353 171.72C178.147 171.904 177.676 171.789 177.398 171.773C175.875 171.749 174.337 171.536 172.815 171.431L164.257 170.896Z" fill="#FEFEFE"/>
<path d="M137.06 200.517C140.795 195.85 143.9 190.639 147.297 185.723L153.624 176.527C155.192 174.246 156.923 172.012 158.085 169.49C159.591 169.862 160.701 170.965 161.75 172.036C158.216 176.488 155.729 182.167 153.169 187.233C150.194 193.119 147.109 199.099 143.68 204.732C143.385 204.031 143.096 203.434 142.668 202.802C142.449 202.531 142.214 202.275 141.964 202.033C140.557 200.677 138.911 200.488 137.06 200.517Z" fill="#FEFEFE"/>
<path d="M40.1961 188.552C38.0344 188.891 35.4849 188.456 33.6226 187.28C32.2468 186.41 31.469 185.119 31.1072 183.558C30.7686 182.097 30.8286 180.658 31.6702 179.368C32.6897 177.806 34.3728 177.035 36.1321 176.661C37.7612 176.611 39.0474 176.927 40.3965 177.845C42.2334 179.095 45.1001 182.383 45.4443 184.609C45.5613 185.365 45.3613 186.095 44.8777 186.687C43.7671 188.045 41.8377 188.374 40.1961 188.552ZM35.9363 178.496C35.0066 178.794 34.1365 179.122 33.668 180.055C33.3833 180.622 33.3692 181.281 33.5967 181.869C33.8574 182.545 34.4238 183.05 35.0913 183.31C35.6655 183.533 36.3096 183.483 36.9148 183.46C37.8254 183.19 38.6394 182.82 39.1155 181.951C39.4229 181.389 39.4732 180.751 39.2647 180.147C39.0193 179.436 38.4463 178.931 37.7639 178.647C37.1577 178.395 36.5737 178.412 35.9363 178.496Z" fill="#FEFEFE"/>
<path d="M46.8838 185.838C46.9282 182.707 44.7842 180.629 43.0569 178.263C46.3096 179.062 49.5627 180.305 52.7639 181.317L78.1807 189.565C83.0486 191.106 87.9294 192.729 92.8294 194.152C97.7012 195.567 103.688 197.053 108.283 199.063C108.601 199.202 108.664 199.237 108.791 199.564C108.69 199.622 108.638 199.661 108.512 199.679C107.415 199.834 92.5454 196.808 90.1594 196.323C81.5854 194.521 72.9917 192.818 64.3784 191.214C61.7515 190.731 59.1216 190.211 56.4878 189.771C54.6536 189.464 52.657 189.326 50.8923 188.744C49.4722 188.276 48.0098 186.796 46.8838 185.838ZM55.3257 184.898C54.9951 185.626 54.5491 186.431 54.5852 187.248C55.1912 188.12 60.3396 188.942 61.6409 189.176C62.0476 189.249 62.4529 189.339 62.8679 189.323C63.2556 188.784 63.825 188.113 63.7485 187.403C63.7124 187.066 63.5801 186.88 63.3003 186.708C62.0188 185.923 57.0371 185.217 55.3257 184.898Z" fill="#FEFEFE"/>
<path d="M36.9148 183.46C36.3096 183.483 35.6655 183.533 35.0913 183.31C34.4238 183.05 33.8574 182.545 33.5967 181.869C33.3691 181.281 33.3833 180.622 33.668 180.055C34.1365 179.122 35.0066 178.794 35.9363 178.496C36.5737 178.412 37.1577 178.395 37.7639 178.647C38.4463 178.931 39.0193 179.436 39.2646 180.147C39.4731 180.75 39.4228 181.389 39.1155 181.95C38.6394 182.82 37.8254 183.19 36.9148 183.46ZM36.0124 179.703C35.5566 179.955 35.0176 180.205 34.8594 180.751C34.7683 181.066 34.7627 181.364 34.9434 181.651C35.1763 182.02 35.6431 182.243 36.0693 182.276C36.2939 182.293 36.5251 182.276 36.7495 182.262C37.2742 181.993 37.75 181.719 37.947 181.127C38.0364 180.859 38.0354 180.569 37.9111 180.311C37.7524 179.983 37.4236 179.762 37.0737 179.684C36.7473 179.611 36.3425 179.656 36.0124 179.703Z" fill="#666666"/>
<path d="M36.7495 182.262C36.5251 182.276 36.2939 182.293 36.0693 182.276C35.6431 182.243 35.1763 182.02 34.9434 181.651C34.7627 181.364 34.7683 181.066 34.8594 180.751C35.0176 180.204 35.5566 179.955 36.0124 179.703C36.3425 179.656 36.7473 179.611 37.0737 179.684C37.4236 179.762 37.7524 179.983 37.9111 180.311C38.0354 180.569 38.0364 180.859 37.947 181.127C37.75 181.719 37.2742 181.993 36.7495 182.262Z" fill="#FEFEFE"/>
<path d="M62.8679 189.323C62.4529 189.339 62.0476 189.249 61.6409 189.176C60.3396 188.942 55.1912 188.12 54.5852 187.248C54.5491 186.431 54.9951 185.626 55.3257 184.898C57.0371 185.217 62.0188 185.923 63.3003 186.708C63.5801 186.88 63.7124 187.066 63.7485 187.403C63.8249 188.113 63.2556 188.784 62.8679 189.323Z" fill="#666666"/>
<path d="M37.27 189.986C36.5757 190.205 35.9434 190.334 35.2073 190.329C33.8621 190.318 32.2527 189.991 31.2993 188.981C30.51 188.145 30.3801 187.091 30.3889 185.991C30.8557 186.358 31.2151 186.95 31.6628 187.368C33.5991 189.174 34.833 189.165 37.2771 189.869L37.27 189.986Z" fill="#FEFEFE"/>
<path d="M40.7771 189.779C42.957 189.463 44.6257 188.785 46.3093 187.362C47.7781 187.942 51.7024 191.227 53.1636 192.257C58.3926 195.944 63.5449 199.715 68.7207 203.477C73.4582 206.91 78.1138 210.452 82.6875 214.101C84.8882 215.866 87.1316 217.619 89.2085 219.53C90.5728 220.785 91.8525 222.147 93.1482 223.474C91.8015 222.834 90.4761 222.153 89.1719 221.43C87.5208 220.511 85.9534 219.472 84.3364 218.498C79.8696 215.804 75.5393 213.032 71.1975 210.139L50.2146 196.075C47.0735 193.982 44.0044 191.732 40.7771 189.779Z" fill="#FEFEFE"/>
<path d="M60.3816 195.276C60.3486 195.348 60.2578 195.436 60.2061 195.497C59.4194 195.232 54.5691 191.451 53.4116 190.657C55.891 191.013 58.3635 191.411 60.8293 191.852C60.656 192.992 60.4849 194.127 60.3816 195.276Z" fill="#FEFEFE"/>
<path d="M63.0461 193.629C63.0749 193.153 63.0249 192.705 62.9717 192.232C66.7361 193.202 100.424 199.451 100.942 199.854C101.259 200.101 101.197 200.384 101.223 200.746C97.2129 200.268 93.1663 199.371 89.1865 198.65C80.4549 197.071 71.7415 195.397 63.0461 193.629Z" fill="#FEFEFE"/>
<path d="M134.593 214.515C134.144 214.775 133.67 215.003 133.176 215.167C132.629 215.349 131.915 215.446 131.404 215.112C131.011 214.855 130.82 214.418 130.747 213.97C130.247 210.932 133.618 205.811 135.391 203.444C136.117 202.473 136.518 201.988 137.749 201.807C137.824 201.807 137.899 201.806 137.974 201.808C139.214 201.837 140.493 202.482 141.314 203.398C141.772 203.909 142.35 204.698 142.26 205.43C142.01 207.484 136.224 213.282 134.593 214.515ZM138.513 203.452C137.851 204.376 136.396 205.976 136.413 207.105C136.583 207.364 136.638 207.441 136.966 207.513C137.136 207.55 137.408 207.515 137.573 207.491C138.341 206.601 139.461 205.411 139.651 204.225C139.553 203.898 139.534 203.803 139.223 203.615C139.028 203.497 138.731 203.471 138.513 203.452Z" fill="#FEFEFE"/>
<path d="M137.573 207.49C137.408 207.515 137.136 207.55 136.966 207.513C136.638 207.441 136.583 207.364 136.413 207.105C136.396 205.976 137.851 204.375 138.513 203.452C138.731 203.47 139.028 203.497 139.223 203.615C139.534 203.803 139.553 203.897 139.651 204.225C139.461 205.411 138.341 206.601 137.573 207.49Z" fill="#666666"/>
<path d="M91.2703 224.575C91.0605 224.717 90.9153 224.809 90.6653 224.858C89.4197 224.371 88.3994 223.267 87.4216 222.381C88.1543 222.645 90.9841 223.787 91.3796 224.321L91.2703 224.575Z" fill="#FEFEFE"/>
</g>
<defs>
<clipPath id="clip0_6001_1047">
<rect width="250" height="250" fill="white"/>
</clipPath>
</defs>
</svg>
