<svg width="250" height="250" viewBox="0 0 250 250" fill="none" xmlns="http://www.w3.org/2000/svg">
<g clip-path="url(#clip0_6001_1110)">
<path d="M0 0H250V250H0V0ZM24.8608 42.4509C24.6907 42.7261 24.5212 42.9351 24.5559 43.2747C25.4548 44.8494 28.9709 48.4268 30.395 50.02L41.1687 62.1287C42.9343 64.0994 44.8035 65.9924 46.5159 68.0081L42.1907 69.9751C41.0962 67.2805 40.0449 64.4016 38.6658 61.8433C38.1816 60.9456 37.2222 60.3809 36.8516 59.4607C36.7607 59.2354 36.6682 59.0112 36.5815 58.7842C35.9827 58.3293 35.1902 57.7563 34.3779 57.9641C34.062 58.0449 34.0364 58.1257 33.8909 58.3896C33.8362 59.4172 34.2319 60.5894 34.4531 61.5972C34.8909 63.5903 35.2898 65.6104 35.8279 67.5789C36.249 69.1204 36.8337 70.6191 37.2344 72.1643C36.0618 72.6748 34.8918 73.2571 33.6909 73.6934C33.2146 71.0681 31.7085 56.9473 30.6311 55.615C30.1782 55.3945 29.4573 55.3247 28.9788 55.5085C28.6096 55.6506 28.3669 56.033 27.9543 55.9988C27.5857 55.9685 27.2485 55.8984 26.9097 56.0859C26.7244 56.3496 26.7583 56.6062 26.7717 56.915C26.8735 59.2578 27.384 61.7085 27.6638 64.0483C28.0503 67.2827 28.2458 70.583 28.8105 73.7903C28.9339 74.481 29.0739 75.1684 29.2305 75.8523C28.3516 76.2534 27.4788 76.635 26.5691 76.9614L23.7012 66.8506C23.3378 65.5637 23.0071 63.5779 22.3871 62.4595C21.8287 62.2388 21.0698 62.5493 20.5007 62.6702C20.0561 62.7646 19.7752 63.1101 19.4943 63.4443C19.9841 65.8523 20.5644 68.2402 21.0947 70.6394C21.6881 73.3245 22.2054 75.9668 23.029 78.5979L21.6146 79.1995C20.3467 76.1379 19.2764 73.0127 18.2011 69.8799C17.7476 68.5586 17.3922 67.0979 16.8173 65.8313C16.6584 65.4812 16.5508 65.2722 16.1847 65.1106C15.5125 64.8135 14.5972 65.1812 13.9886 65.4741C13.5205 65.6995 13.1877 66.0916 12.8357 66.4631C13.2676 68.3635 14.0421 70.1963 14.6612 72.043C15.6457 74.9797 16.5494 77.9758 17.3711 80.9624C15.9762 78.5239 14.2476 76.2129 12.6637 73.8879C11.9334 72.8157 11.2415 71.5303 10.3687 70.575C9.70493 70.8821 8.7782 71.2507 8.50498 71.9897C8.3668 72.3635 8.52117 72.6589 8.69324 72.9978C9.82737 75.231 11.1092 77.4331 12.3473 79.6116C12.801 80.4097 13.4174 81.2246 13.7676 82.0674C13.8757 82.3276 13.8781 82.5156 13.8142 82.7852C13.5564 83.0029 13.4768 83.0093 13.14 83.0706C12.0541 82.7825 6.95886 75.0271 5.79573 74.5239C5.58303 74.4319 5.22061 74.6238 5.0332 74.7312C4.44775 75.0669 3.80615 75.5535 3.44939 76.1318C3.47952 76.5061 3.5949 76.7605 3.78071 77.0859C4.29241 77.9822 4.98953 78.8174 5.58655 79.6641C6.85171 81.458 8.15205 83.3147 9.2105 85.2368C7.88147 85.8232 5.50178 86.4573 4.51968 87.4941L4.5238 87.4875C4.58894 87.7759 4.53003 87.8428 4.79753 88.0066C5.84692 88.6489 7.47791 88.4917 8.67036 88.6213C8.6897 105.251 8.90059 121.905 8.69751 138.533C7.68787 138.614 6.16653 138.535 5.2561 138.938C5.07747 139.238 5.08926 139.292 5.10093 139.645C5.28064 139.909 5.37935 140.018 5.70671 140.077C6.54634 140.229 7.94443 139.637 8.6228 140.192C8.75686 140.505 8.72471 140.796 8.71165 141.127C8.53872 141.365 8.51123 141.377 8.20659 141.429C6.36897 141.74 3.48604 141.271 1.88021 142.097L1.72465 142.347C1.83519 142.707 1.94264 142.861 2.1889 143.131C2.71555 143.199 2.85171 142.817 3.42544 143.122C4.18437 143.525 4.84141 144.146 5.56531 144.616C8.69487 146.648 11.7182 148.84 14.7908 150.958C23.7945 157.163 32.679 163.537 41.7234 169.685C43.6833 171.017 45.5991 172.424 47.584 173.718L57.7212 172.957C59.7297 172.806 61.7659 172.722 63.7644 172.477L63.7937 182.894C63.7998 184.847 63.7358 186.834 63.8525 188.783C65.2373 189.967 66.8264 191.055 68.7454 190.926C69.0334 190.906 69.3005 190.852 69.5793 190.78C69.5757 191.659 69.3938 192.783 70.064 193.465C70.9856 194.402 73.5864 195.467 74.8921 195.425C75.1873 195.415 75.4819 195.379 75.7747 195.342C75.783 195.947 75.7742 196.559 75.8015 197.163C76.9944 198.484 78.8535 199.645 80.6711 199.709C81.2598 199.73 81.8682 199.553 82.4319 199.401C82.4053 200.333 82.2744 201.211 82.9573 201.948C83.8713 202.935 86.7463 204.51 88.1511 204.463C88.5344 204.45 88.9377 204.349 89.3132 204.273C89.3088 204.924 89.1941 205.797 89.4292 206.403C89.9136 206.864 90.3699 207.132 91.0579 207.116C92.3452 207.088 101.65 206.378 102.12 205.872C102.326 205.65 102.345 205.48 102.41 205.201L102.459 204.996C102.471 204.948 102.481 204.899 102.492 204.851C103.825 204.972 104.799 205.045 106.081 204.56C106.078 203.958 105.996 203.235 106.167 202.657L106.318 202.697C106.479 203.477 106.252 204.586 106.827 205.194C107.467 205.291 117.368 204.39 117.901 204.138C118.16 203.506 118.049 202.684 118.053 202.005C118.998 202.422 121.04 203.971 122.014 203.61C122.362 203.482 122.619 203.03 122.81 202.729C122.43 198.672 122.562 194.554 122.583 190.482C122.606 186.325 122.556 182.155 122.628 177.999C124.576 178.56 126.478 179.491 128.35 180.265C130.608 181.178 132.878 182.061 135.159 182.915C147.383 187.637 159.573 192.444 171.73 197.334C174.574 198.478 177.41 199.642 180.238 200.825C181.871 201.504 183.828 202.589 185.568 202.865C186.305 202.556 187.031 202.3 187.812 202.13C188.415 201.998 189.212 201.952 189.766 201.693C190.084 201.545 190.283 201.376 190.439 201.058C190.915 200.083 190.572 197.891 190.538 196.793C187.742 195.53 184.879 194.455 182.023 193.339L169.451 188.501C163.651 186.326 157.909 184.013 152.085 181.896L128.758 173.566C126.954 172.909 125.077 172.354 123.294 171.662C122.989 171.543 122.72 171.462 122.519 171.201C122.901 171.086 123.292 171.162 123.673 171.253C125.042 171.581 126.413 172.137 127.76 172.557L139.032 176.169L157.226 182.038C159.274 182.699 161.358 183.247 163.397 183.935L188.604 192.679C191.732 193.767 194.854 194.873 197.969 195.998C199.219 196.439 200.623 197.1 201.919 197.329C202.983 197.516 206.467 196.519 207.652 196.143C207.726 194.856 207.995 192.484 207.454 191.331C206.046 190.371 202.25 189.338 200.493 188.732C195.104 186.872 189.681 185.049 184.255 183.301C180.76 182.176 177.191 181.157 173.75 179.882C176.429 180.419 179.078 181.129 181.735 181.765C195.86 185.028 209.911 188.583 223.888 192.431C225.378 191.719 226.88 191.036 228.396 190.382C228.394 188.694 228.367 187.001 228.404 185.313C225.817 184.238 221.816 183.524 218.987 182.84C211.499 181.034 203.988 179.332 196.452 177.734C183.473 174.913 170.54 171.707 157.648 168.51L146.677 165.788C143.84 165.105 140.968 164.49 138.163 163.687C137.449 164.326 135.501 165.357 135.417 166.296C135.734 166.862 136.434 167.039 137.03 167.205C137.821 167.426 138.622 167.617 139.418 167.815L139.373 169.538C132.797 167.462 126.12 165.336 119.392 163.825C125.077 163.542 130.749 162.903 136.415 162.378L159.295 160.25L217.408 154.246L237.707 152.147C239.459 151.952 243.143 151.783 244.612 151.277C244.805 151.006 244.854 150.941 244.893 150.615C244.631 150.32 244.412 150.253 244.018 150.23C242.733 150.157 241.259 150.457 239.98 150.608C238.056 150.834 236.125 151.017 234.198 151.217L208.003 153.995L118.302 162.696L118.281 160.916C126.186 160.377 134.082 159.431 141.971 158.693L215.85 151.108L241.274 148.487C242.857 148.324 248.484 148.005 249.624 147.624C249.785 147.396 249.741 147.307 249.744 147.036C249.399 146.492 249.041 146.413 248.43 146.281C245.225 145.587 241.901 145.155 238.665 144.623L238.651 107.318C238.648 101.308 238.541 95.2812 238.632 89.2729C240.462 89.3103 243.278 89.6152 245.032 89.3164C245.254 89.1001 245.356 89.0552 245.444 88.75C245.249 88.4158 245.046 88.2964 244.673 88.1897C243.367 87.8167 239.186 87.9958 237.487 87.9365L209.721 87.0264L114.569 83.4717L77.3088 82.2185L66.533 81.8186C64.6506 81.7478 62.7295 81.7539 60.8552 81.5747C53.127 73.3112 45.4791 64.974 37.9114 56.5632L30.3035 47.9158C28.8091 46.2043 27.3364 44.4165 25.7466 42.7937C25.4941 42.5364 25.2014 42.4988 24.8608 42.4509ZM29.6484 42.8289C29.342 43.0642 29.2976 43.0996 29.1611 43.458C29.1997 43.8745 29.3699 44.1294 29.6189 44.4531C30.3828 45.4465 31.3162 46.3181 32.1406 47.2634C34.3955 49.8738 36.6829 52.4554 39.0027 55.0083L52.9021 70.4036C55.165 72.8669 58.3469 75.8486 60.2373 78.478C62.925 78.7764 65.6687 78.7812 68.3701 78.8755L80.7495 79.3171L118.046 80.6504L242.18 85.5396C242.973 85.5735 244.17 85.7415 244.846 85.2358C245.039 85.0908 245.083 85.0032 245.168 84.7773C245.068 84.4834 244.99 84.3889 244.695 84.2673C244.358 84.1296 229.022 83.6467 227.403 83.6526C223.594 80.5854 219.512 77.7834 215.578 74.8738C209.305 70.189 203.067 65.4577 196.865 60.6797C193.399 58.0415 189.825 55.5432 186.434 52.8064C186.082 53.1069 185.718 53.4001 185.377 53.7124L214.107 75.5125C217.682 78.2048 221.327 80.7839 224.872 83.5195C220.4 83.397 215.929 83.2428 211.459 83.0571C208.814 82.9514 206.138 82.9258 203.504 82.676C201.446 81.2007 199.519 79.5146 197.554 77.9177L188.881 70.9387C183.987 66.9714 178.931 63.1719 173.983 59.2676C171.974 57.6829 169.943 56.1223 167.951 54.5164C166.973 53.7271 166.022 52.7837 164.969 52.0989C164.589 51.8518 164.262 51.698 163.801 51.7324C163.525 51.9163 163.534 51.897 163.461 52.2192C163.603 52.644 163.809 52.9048 164.129 53.217C164.944 54.011 165.945 54.7 166.841 55.4028L172.133 59.5464L192.123 75.3291C193.499 76.4321 194.848 77.571 196.237 78.6572C197.867 79.9314 199.549 81.1516 201.016 82.6172C193.369 82.3914 185.707 82.0417 178.065 81.6575L156.295 63.6694L149.981 58.436C149.015 57.6296 148.025 56.6279 146.992 55.9324C144.585 53.9534 142.198 51.9504 139.832 49.9233C139.512 50.2188 139.164 50.4573 139.083 50.9072C139.142 51.1985 139.223 51.4075 139.441 51.6196C140.017 52.1802 140.801 52.6108 141.432 53.1292L147.812 58.4014L167.351 74.6699C170.16 76.9924 173.125 79.1707 175.861 81.5762C167.509 81.4226 159.14 80.9746 150.792 80.6436C147.697 77.7429 144.432 74.9961 141.232 72.2114L130.498 62.7786L121.346 54.6958C119.333 52.8967 117.35 51.0378 115.274 49.3118C114.936 49.031 114.583 48.7168 114.147 48.6174C113.845 48.697 113.6 48.8259 113.439 49.1101C113.401 49.1763 113.389 49.2534 113.364 49.3252C114.071 50.1987 115.121 50.938 115.974 51.6853C117.63 53.1311 119.273 54.5917 120.902 56.0671C126.605 61.2312 132.396 66.3228 138.194 71.3804C141.704 74.3958 145.183 77.4464 148.631 80.532C139.738 80.0823 130.808 79.6567 121.906 79.4514C118.74 76.9116 115.438 73.5337 112.45 70.7236L94.2822 53.5103C92.9055 52.2073 91.5144 50.9165 90.1577 49.5925C89.4292 48.8818 88.7324 48.0728 87.9539 47.4211C87.6279 47.1484 87.2151 46.8071 86.7666 46.8174C86.5786 46.8218 86.54 46.9106 86.4106 47.0278C86.3396 47.4211 86.3809 47.6406 86.6042 47.9795C87.2886 49.0181 88.5364 49.9304 89.4478 50.791C91.3231 52.5872 93.2088 54.3725 95.105 56.1467L107.929 68.3552C111.845 72.0222 115.877 75.6167 119.715 79.3601C110.045 78.9189 100.371 78.6938 90.6987 78.3462C85.8396 72.9268 80.3767 68.0122 75.3433 62.7473L63.1782 50.2483C61.5566 48.5852 59.5981 46.1638 57.8948 44.7781C57.6484 44.8748 57.3118 45.0503 57.1824 45.3032C57.0969 45.4705 57.0403 45.6355 57.1099 45.8164C57.4995 46.832 85.5391 74.887 88.7163 78.1604C82.5679 78.2288 76.3555 77.7915 70.2136 77.5144C67.1538 77.3765 63.9375 77.53 60.9077 77.1697C59.0559 74.9624 56.989 72.9297 55.0454 70.803L44.4773 59.1221C41.1414 55.4539 37.856 51.719 34.5691 48.0054C33.187 46.4441 31.8496 44.823 30.4246 43.3025C30.187 43.0493 29.99 42.9167 29.6484 42.8289ZM206.639 54.1384C206.356 54.4666 206.069 54.7822 205.84 55.1519C208.6 56.8997 211.163 59.0188 213.825 60.9185L236.294 77.2761C238.892 79.1672 241.451 81.3254 244.155 83.0449C244.375 83.1841 244.563 83.2952 244.827 83.312C245.081 83.0642 245.347 82.8674 245.408 82.5C245.232 82.0569 244.795 81.7537 244.424 81.4766C235.867 75.0859 227.116 68.9341 218.5 62.6204L210.314 56.6279C209.278 55.8745 208.049 54.7502 206.891 54.2407C206.808 54.2043 206.725 54.1677 206.639 54.1384ZM225.542 55.3613C225.27 55.6516 225.003 55.873 224.949 56.2871C225.047 56.5466 225.198 56.6416 225.414 56.8025C229.848 60.1033 234.47 63.1506 238.975 66.3494C240.213 67.2285 243.51 69.9243 244.558 70.3157C244.622 70.3396 244.69 70.3528 244.753 70.3713C245.015 70.0608 245.193 69.8547 245.273 69.4429C245.193 69.1128 244.958 68.9658 244.707 68.7673C241.288 66.0676 237.504 63.6863 233.924 61.1926L228.791 57.6006C227.85 56.9307 226.921 56.1785 225.941 55.5725C225.814 55.4937 225.682 55.4141 225.542 55.3613ZM241.423 56.2273L240.556 57.0908C241.557 58.0891 243.32 59.4343 244.626 59.9534C244.922 59.6833 244.988 59.645 245.09 59.2646C244.822 58.2573 242.747 56.9043 241.822 56.375C241.691 56.3003 241.566 56.2673 241.423 56.2273Z" fill="#FEFEFE"/>
<path d="M46.5158 68.0081C44.8034 65.9924 42.9343 64.0994 41.1687 62.1287L30.395 50.02C28.9709 48.4268 25.4548 44.8494 24.5559 43.2747C24.5212 42.9351 24.6906 42.7261 24.8608 42.4509C25.2014 42.4988 25.4941 42.5364 25.7465 42.7937C27.3364 44.4165 28.809 46.2043 30.3034 47.9158L37.9113 56.5632C45.479 64.9739 53.127 73.311 60.8552 81.5747C62.7295 81.7539 64.6506 81.7478 66.5329 81.8186L77.3088 82.2185L114.569 83.4717L209.721 87.0264L237.487 87.9365C239.186 87.9958 243.367 87.8167 244.673 88.1897C245.046 88.2964 245.249 88.4158 245.444 88.75C245.356 89.0552 245.254 89.1001 245.032 89.3164C243.278 89.6152 240.462 89.3103 238.632 89.2729C238.541 95.2812 238.648 101.308 238.651 107.318L238.665 144.623C241.901 145.155 245.225 145.587 248.43 146.281C249.04 146.413 249.399 146.492 249.744 147.036C249.741 147.307 249.785 147.396 249.624 147.624C248.484 148.005 242.857 148.324 241.274 148.487L215.85 151.108L141.971 158.693C134.082 159.431 126.186 160.377 118.281 160.916L118.302 162.696L208.003 153.995L234.198 151.217C236.125 151.017 238.056 150.834 239.98 150.608C241.259 150.457 242.733 150.157 244.018 150.23C244.412 150.253 244.631 150.32 244.893 150.615C244.853 150.941 244.805 151.006 244.612 151.277C243.143 151.783 239.459 151.952 237.707 152.147L217.408 154.246L159.295 160.25L136.415 162.378C130.749 162.903 125.077 163.542 119.392 163.825C126.12 165.336 132.797 167.462 139.373 169.538L139.418 167.815C138.622 167.617 137.821 167.426 137.03 167.205C136.434 167.039 135.734 166.862 135.417 166.296C135.501 165.357 137.449 164.326 138.163 163.687C140.968 164.49 143.84 165.105 146.677 165.788L157.648 168.51C170.54 171.707 183.473 174.913 196.452 177.734C203.988 179.332 211.499 181.034 218.987 182.84C221.816 183.524 225.817 184.238 228.404 185.313C228.367 187.001 228.394 188.694 228.396 190.382C226.88 191.036 225.377 191.719 223.888 192.431C209.911 188.583 195.86 185.028 181.735 181.765C179.078 181.129 176.429 180.419 173.75 179.882C177.191 181.157 180.76 182.176 184.255 183.301C189.681 185.049 195.104 186.872 200.493 188.732C202.25 189.338 206.046 190.371 207.454 191.331C207.995 192.484 207.726 194.856 207.652 196.143C206.467 196.519 202.983 197.516 201.919 197.329C200.623 197.1 199.219 196.439 197.969 195.998C194.854 194.873 191.732 193.767 188.604 192.679L163.397 183.935C161.358 183.247 159.274 182.699 157.226 182.038L139.032 176.169L127.76 172.557C126.413 172.137 125.042 171.581 123.673 171.253C123.292 171.162 122.901 171.086 122.519 171.201C122.72 171.462 122.988 171.543 123.294 171.662C125.077 172.354 126.954 172.909 128.758 173.566L152.085 181.896C157.909 184.013 163.651 186.326 169.451 188.501L182.023 193.339C184.879 194.455 187.742 195.53 190.538 196.793C190.572 197.891 190.915 200.083 190.439 201.058C190.283 201.376 190.084 201.545 189.766 201.693C189.212 201.952 188.415 201.998 187.812 202.13C187.031 202.3 186.305 202.556 185.568 202.865C183.828 202.589 181.871 201.504 180.238 200.825C177.41 199.642 174.574 198.478 171.73 197.334C159.573 192.444 147.383 187.637 135.159 182.915C132.878 182.061 130.608 181.178 128.35 180.265C126.477 179.491 124.576 178.56 122.628 177.999C122.556 182.155 122.606 186.325 122.583 190.482C122.562 194.554 122.43 198.672 122.81 202.729C122.619 203.03 122.362 203.482 122.014 203.61C121.04 203.971 118.998 202.422 118.053 202.005C118.049 202.684 118.16 203.506 117.901 204.138C117.368 204.39 107.467 205.291 106.827 205.194C106.252 204.586 106.479 203.477 106.318 202.697L106.166 202.657C105.996 203.235 106.078 203.958 106.081 204.56C104.799 205.045 103.825 204.972 102.492 204.851C102.481 204.899 102.471 204.948 102.459 204.996L102.41 205.201C102.345 205.48 102.326 205.65 102.12 205.872C101.65 206.378 92.3452 207.088 91.0578 207.116C90.3698 207.132 89.9135 206.864 89.4292 206.403C89.1941 205.797 89.3088 204.924 89.3132 204.273C88.9377 204.349 88.5344 204.45 88.1511 204.463C86.7463 204.51 83.8713 202.935 82.9572 201.948C82.2744 201.211 82.4052 200.333 82.4318 199.401C81.8681 199.553 81.2597 199.73 80.6711 199.709C78.8535 199.645 76.9943 198.484 75.8015 197.163C75.7741 196.559 75.7829 195.947 75.7746 195.342C75.4819 195.379 75.1872 195.415 74.8921 195.425C73.5864 195.467 70.9856 194.402 70.0639 193.465C69.3938 192.783 69.5757 191.659 69.5793 190.78C69.3005 190.852 69.0334 190.906 68.7453 190.926C66.8264 191.055 65.2373 189.967 63.8525 188.783C63.7358 186.834 63.7998 184.847 63.7937 182.894L63.7644 172.477C61.7658 172.722 59.7297 172.806 57.7212 172.957L47.584 173.718C45.5991 172.424 43.6833 171.017 41.7234 169.685C32.6789 163.537 23.7945 157.163 14.7908 150.958C11.7182 148.84 8.69484 146.648 5.56527 144.616C4.84137 144.146 4.18434 143.525 3.4254 143.122C2.85167 142.817 2.71552 143.199 2.18886 143.131C1.9426 142.861 1.83515 142.707 1.72461 142.347L1.88017 142.097C3.486 141.271 6.36893 141.74 8.20656 141.429C8.51119 141.377 8.53868 141.365 8.71161 141.127C8.72467 140.796 8.75682 140.505 8.62277 140.192C7.9444 139.637 6.5463 140.229 5.70668 140.077C5.37931 140.018 5.2806 139.909 5.10089 139.645C5.08922 139.292 5.07743 139.238 5.25607 138.938C6.16649 138.535 7.68783 138.614 8.69747 138.533C8.90055 121.905 8.68966 105.251 8.67033 88.6213C7.47787 88.4917 5.84689 88.6489 4.7975 88.0066C4.52999 87.8428 4.5889 87.7759 4.52377 87.4876L4.51964 87.4941C5.50175 86.4573 7.88143 85.8232 9.21046 85.2368C8.15201 83.3147 6.85167 81.458 5.58651 79.6641C4.98949 78.8174 4.29237 77.9822 3.78068 77.0859C3.59486 76.7605 3.47948 76.5061 3.44935 76.1318C3.80612 75.5535 4.44772 75.0669 5.03317 74.7312C5.22057 74.6238 5.583 74.4319 5.79569 74.5239C6.95883 75.0271 12.054 82.7825 13.14 83.0706C13.4767 83.0093 13.5564 83.0029 13.8142 82.7852C13.878 82.5156 13.8756 82.3276 13.7675 82.0674C13.4173 81.2246 12.801 80.4097 12.3473 79.6116C11.1091 77.4331 9.82733 75.231 8.6932 72.9978C8.52113 72.6589 8.36676 72.3635 8.50494 71.9897C8.77816 71.2507 9.7049 70.8821 10.3686 70.575C11.2414 71.5303 11.9333 72.8157 12.6637 73.8879C14.2475 76.2129 15.9762 78.5239 17.3711 80.9624C16.5494 77.9758 15.6456 74.9797 14.6611 72.043C14.0421 70.1963 13.2676 68.3635 12.8357 66.4631C13.1877 66.0916 13.5205 65.6995 13.9885 65.4741C14.5972 65.1812 15.5124 64.8135 16.1847 65.1106C16.5507 65.2722 16.6584 65.4812 16.8172 65.8313C17.3922 67.0979 17.7476 68.5586 18.2011 69.8799C19.2764 73.0127 20.3466 76.1379 21.6145 79.1995L23.029 78.5979C22.2054 75.9668 21.6881 73.3245 21.0946 70.6394C20.5644 68.2402 19.984 65.8523 19.4942 63.4443C19.7751 63.1101 20.056 62.7646 20.5007 62.6702C21.0697 62.5493 21.8287 62.2388 22.387 62.4595C23.007 63.5779 23.3378 65.5637 23.7012 66.8506L26.5691 76.9614C27.4787 76.635 28.3515 76.2534 29.2304 75.8523C29.0739 75.1684 28.9339 74.481 28.8105 73.7903C28.2458 70.583 28.0503 67.2827 27.6638 64.0483C27.384 61.7085 26.8735 59.2578 26.7717 56.915C26.7583 56.6062 26.7243 56.3496 26.9096 56.0859C27.2485 55.8984 27.5857 55.9685 27.9543 55.9988C28.3669 56.033 28.6096 55.6506 28.9787 55.5085C29.4572 55.3247 30.1782 55.3945 30.6311 55.615C31.7085 56.9473 33.2146 71.0681 33.6909 73.6934C34.8918 73.2571 36.0617 72.6748 37.2343 72.1643C36.8337 70.6191 36.249 69.1204 35.8278 67.5789C35.2898 65.6104 34.8908 63.5903 34.4531 61.5972C34.2319 60.5894 33.8361 59.4172 33.8908 58.3897C34.0363 58.1257 34.062 58.0449 34.3779 57.9641C35.1901 57.7564 35.9826 58.3293 36.5815 58.7842C36.6682 59.0112 36.7607 59.2354 36.8515 59.4607C37.2221 60.3809 38.1816 60.9456 38.6657 61.8433C40.0449 64.4016 41.0962 67.2805 42.1906 69.9751L46.5158 68.0081ZM47.9831 79.5955L47.987 167.095C49.3269 166.977 50.6738 166.881 52.011 166.736L52.2446 166.628C52.363 165.285 52.2805 163.875 52.2812 162.525L52.2841 154.482L52.2785 129.073L52.2653 96.7629L52.2446 86.1685C52.2378 84.0542 52.2863 81.915 52.1645 79.8052C50.7718 79.7152 49.378 79.6453 47.9831 79.5955ZM53.5959 79.8477L53.5805 166.65C56.959 166.457 60.4016 166.19 63.7588 165.767L63.7558 163.849C63.7548 162.061 63.4741 151.167 63.9875 150.407C64.7922 150.023 65.6284 150.109 66.4983 150.122L66.5205 83.2078C64.3488 83.0791 62.1516 82.8784 59.9775 82.877C59.2136 81.9045 58.3752 80.9587 57.4275 80.1614C56.1687 79.9236 54.8759 79.8557 53.5959 79.8477ZM67.736 83.2124L67.7365 130.005C67.747 136.678 67.6469 143.371 67.7629 150.042C69.1284 150.02 70.4997 150.024 71.8635 149.958L71.9006 107.646C71.9023 99.5613 72.0019 91.4617 71.8774 83.3792L67.736 83.2124ZM73.1438 83.4048L73.1181 149.819C76.4412 149.786 79.7635 149.715 83.0849 149.605C83.3874 147.984 83.154 145.741 83.1518 144.045L83.1418 131.425L83.1323 83.8069C79.8059 83.6128 76.4721 83.5647 73.1438 83.4048ZM84.4951 83.8611L84.5183 149.594C85.8032 149.608 87.1316 149.696 88.4116 149.603C88.6574 147.005 88.5227 144.289 88.5439 141.673C88.6178 136.652 88.6404 131.63 88.6118 126.608L88.5222 83.9649C87.1805 83.9012 85.8382 83.8666 84.4951 83.8611ZM89.9709 84.0232C89.7863 97.8564 89.9421 111.703 89.9426 125.537L89.9135 141.877C89.9192 144.44 89.8271 147.056 89.967 149.613C91.4211 150.256 92.9511 150.725 94.4375 151.289C96.5844 152.103 98.7251 153.012 100.919 153.69C101.226 151.711 101.006 149.424 100.998 147.409L100.965 134.865L100.956 84.4085L89.9709 84.0232ZM102.384 84.3652L102.377 154.335C103.775 154.611 104.926 155.178 106.19 155.81C106.4 140.468 106.267 125.099 106.213 109.755C106.184 101.359 106.412 92.864 106.165 84.4815C104.906 84.4424 103.644 84.3826 102.384 84.3652ZM107.58 84.5996C107.582 85.3225 107.567 86.0515 107.597 86.7737L165.267 88.4551C165.267 87.907 165.277 87.3567 165.264 86.8086C146.041 85.9465 126.813 85.2101 107.58 84.5996ZM166.845 86.8083L166.957 129.968C166.893 137.893 166.893 145.819 166.955 153.745C167.526 154.1 168.056 154.4 168.687 154.641C168.896 143.378 168.675 132.078 168.636 120.812C168.596 109.525 168.738 98.2283 168.573 86.9431L166.845 86.8083ZM169.825 86.9331L169.886 154.563C170.633 154.521 171.385 154.492 172.131 154.43C172.425 147.256 172.234 140.006 172.235 132.823L172.076 87.0264C171.328 86.99 170.574 86.9351 169.825 86.9331ZM173.455 87.1057L173.472 103.004C181.893 103.674 190.319 104.279 198.75 104.82C198.744 99.2056 198.878 93.5576 198.749 87.948C193.85 87.6252 188.928 87.5625 184.021 87.4478L173.455 87.1057ZM200.151 88.0144C199.999 94.5039 200.163 101.011 200.157 107.503L200.183 150.96L201.818 151.205C201.936 130.15 201.917 109.094 201.762 88.0388L200.151 88.0144ZM203.086 88.1211L203.154 151.042L206.001 150.852C206.139 147.055 206.058 143.231 206.061 139.431L206.065 119.167L206.053 100.526C206.061 96.4465 206.153 92.3408 206.026 88.2637C205.048 88.2056 204.065 88.125 203.086 88.1211ZM232.003 89.2317C231.862 93.6572 231.985 98.1194 231.997 102.549C232.01 107.165 231.919 111.801 232.015 116.414L232.778 115.375C233.099 115.319 233.38 115.343 233.61 115.1C233.809 112.194 233.643 109.205 233.646 106.285L233.655 89.2332L232.003 89.2317ZM235.022 89.221L234.973 146.857C235.744 146.838 236.488 146.807 237.25 146.682C237.513 144.84 237.326 142.762 237.325 140.892L237.313 129.379L237.277 89.2405C236.526 89.2334 235.773 89.2119 235.022 89.221ZM107.555 101.301L107.636 131.972L116.057 131.587C116.457 130.852 116.22 104.334 116.203 101.363C113.326 101.339 110.431 101.248 107.555 101.301ZM117.562 101.444C117.56 104.252 117.376 130.877 117.666 131.396C117.954 131.598 118.168 131.597 118.504 131.61C118.649 124.749 118.538 117.868 118.536 111.006L118.536 104.689C118.537 103.71 118.657 102.641 118.511 101.68C118.212 101.417 117.952 101.463 117.562 101.444ZM119.92 101.533C119.832 107.219 119.886 112.914 119.885 118.601C119.884 122.869 119.785 127.176 119.946 131.44C124.158 131.166 128.422 130.988 132.641 130.926L132.883 130.815C133.186 129.941 132.977 125.081 132.984 123.84L133.066 101.808C128.685 101.671 124.303 101.58 119.92 101.533ZM134.433 101.867C134.424 104.772 134.129 129.881 134.44 130.566C134.759 130.78 134.926 130.733 135.303 130.736L135.338 112.732C135.342 109.286 135.421 105.822 135.357 102.379C135.354 102.22 135.31 102.132 135.217 102.007C134.931 101.886 134.737 101.875 134.433 101.867ZM136.677 101.927C136.668 111.496 136.721 121.074 136.596 130.641C140.758 130.495 144.919 130.321 149.078 130.12L149.368 130.049C149.686 129.053 149.424 120.84 149.417 119.275C149.392 113.591 149.546 107.858 149.353 102.18C145.196 101.861 140.847 101.863 136.677 101.927ZM150.765 102.165C150.785 102.513 150.737 102.707 150.962 102.982C155.741 103.548 160.637 103.656 165.441 104.023C165.442 103.691 165.498 103.314 165.31 103.025C163.744 102.594 161.42 102.692 159.749 102.6C156.764 102.436 153.753 102.167 150.765 102.165ZM173.517 104.36C173.544 104.691 173.491 105.052 173.719 105.301L188.975 106.46C192.186 106.722 195.537 107.207 198.757 107.168C198.74 106.813 198.795 106.491 198.588 106.195C195.446 105.676 192.086 105.671 188.904 105.44C183.781 105.069 178.649 104.587 173.517 104.36ZM207.418 104.751C207.424 105.152 207.362 105.429 207.583 105.77C210.056 106.245 212.771 106.271 215.289 106.457L230.575 107.523C230.577 107.148 230.638 106.854 230.455 106.522C228.412 106.119 226.137 106.148 224.054 105.972C218.515 105.487 212.969 105.08 207.418 104.751ZM161.069 105.001L161.096 132.158C161.94 132.285 162.789 132.437 163.639 132.515C163.889 129.663 163.646 126.646 163.65 123.773L163.668 105.128L161.069 105.001ZM207.493 107.271C207.472 118.233 207.296 129.219 207.42 140.179C209.47 140.496 211.519 140.877 213.575 141.141L213.576 107.691C211.555 107.516 209.522 107.302 207.493 107.271ZM186.979 107.597C186.797 117.285 186.972 127.011 187.016 136.704C187.963 136.865 189.024 137.157 189.977 137.182C190.078 127.417 190.098 117.653 190.039 107.887L186.979 107.597ZM214.998 107.782C214.94 118.975 214.953 130.167 215.038 141.358C215.45 141.627 215.858 141.901 216.264 142.179C216.476 142.084 216.416 142.146 216.491 142.054C216.677 141.548 216.826 141.083 216.873 140.542C217.022 138.804 216.927 136.99 216.926 135.245L216.917 125.793L216.923 114.57C216.923 112.365 216.99 110.113 216.845 107.914C216.23 107.856 215.616 107.782 214.998 107.782ZM218.352 108.034C218.199 113.209 218.272 118.408 218.271 123.586C218.27 128.734 218.192 133.931 218.388 139.074C219.87 136.406 221.398 133.765 222.973 131.152C224.145 129.097 230.16 119.332 230.393 118.156C230.754 116.332 230.567 111.023 230.547 108.89C226.483 108.642 222.415 108.238 218.352 108.034ZM233.285 116.508C231.736 118.7 230.435 121.157 229.067 123.47C225.77 129.042 222.631 134.71 219.302 140.263C218.583 141.463 214.67 147.395 214.582 148.236C214.754 148.462 214.817 148.416 215.084 148.47C215.539 148.317 215.707 148.259 215.998 147.847C216.682 146.875 217.26 145.766 217.88 144.747C219.765 141.65 221.548 138.505 223.397 135.387C225.642 131.6 227.788 127.76 230 123.954C231.198 121.891 232.593 119.883 233.656 117.748C233.783 117.493 233.821 117.253 233.71 116.979C233.597 116.697 233.557 116.629 233.285 116.508ZM233.471 121.176C233.034 121.803 232.223 122.758 232.08 123.504C231.78 125.065 231.946 126.925 231.938 128.525L231.913 138.319L231.909 144.095C231.912 144.888 231.813 145.83 231.957 146.598C231.987 146.76 231.994 146.74 232.088 146.879C232.557 146.842 233.052 146.855 233.468 146.613C233.662 146.295 233.611 145.867 233.618 145.505C233.73 139.834 233.609 134.14 233.599 128.467C233.597 126.949 233.794 122.375 233.502 121.266C233.494 121.235 233.481 121.206 233.471 121.176ZM230.547 125.95C228.849 129.011 227.138 132.095 225.346 135.101C223.923 137.488 222.299 139.865 221.103 142.375L222.948 142.663C225.49 143.08 228.024 143.537 230.551 144.033L230.609 131.556C230.614 129.794 230.842 127.664 230.547 125.95ZM148.345 131.522L123.229 132.673C124.846 132.888 126.447 133.192 128.03 133.584C130.414 134.161 138.172 136.42 140.226 136.234L157.066 134.898C159.507 134.687 161.979 134.537 164.41 134.238C162.517 133.728 160.557 133.387 158.635 132.997C155.298 132.318 151.762 131.428 148.345 131.522ZM114.887 132.985C112.454 133.151 110.005 133.199 107.575 133.391C107.571 135.124 107.543 136.86 107.567 138.593C113.805 138.265 120.02 137.592 126.25 137.184C129.096 136.935 131.952 136.851 134.799 136.627C130.745 135.594 126.697 134.626 122.595 133.801C121.14 133.509 119.621 133.089 118.146 132.948C117.094 132.848 115.933 132.861 114.887 132.985ZM163.949 135.571C157.268 136.264 150.583 136.695 143.897 137.288C145.723 137.698 147.554 138.091 149.387 138.467C152.901 139.125 156.379 139.958 159.865 140.744C161.734 141.166 163.755 141.451 165.547 142.136L165.543 135.43L163.949 135.571ZM173.515 136.081C173.498 138.056 173.473 140.039 173.547 142.013C178.546 141.756 183.664 140.827 188.528 139.666C189.395 139.424 190.278 139.206 191.133 138.929C185.354 137.571 179.348 137.185 173.515 136.081ZM138.492 137.623C134.756 137.974 131.007 138.168 127.267 138.473C120.646 139.066 114.017 139.558 107.381 139.949L120.13 143.5C122.462 144.151 124.97 145.076 127.372 145.329C128.853 145.484 130.429 145.146 131.921 145.12C142.234 144.38 152.653 144.122 162.916 142.86C159.711 142.084 139.902 137.432 138.492 137.623ZM193.807 139.189C191.433 141.13 178.934 142.862 175.494 143.258C175.092 143.304 173.719 143.337 173.639 143.802C173.596 144.052 173.643 144.378 173.653 144.634C174.297 145.251 180.59 146.205 181.959 146.464C185.516 147.175 189.076 147.867 192.64 148.542C194.685 148.927 196.793 149.412 198.868 149.575L198.887 140.251C197.174 139.955 195.481 139.667 193.807 139.189ZM107.634 141.523L107.627 146.611C112.278 146.459 116.96 146.117 121.6 145.754L122.031 145.704L121.987 145.589C119.395 144.474 115.353 143.62 112.553 142.871C110.94 142.44 109.265 141.819 107.634 141.523ZM207.404 141.663L207.406 148.736C209.236 148.611 211.059 148.38 212.881 148.171C213.136 147.613 213.392 147.07 213.704 146.54C214.342 145.388 214.982 144.247 215.696 143.139C212.957 142.616 210.166 142.018 207.404 141.663ZM220.394 143.659L217.93 147.916C221.07 147.758 224.192 147.323 227.324 147.069C228.289 146.982 229.6 147.038 230.499 146.684C230.603 146.351 230.569 146.036 230.551 145.694C230.013 145.097 221.906 144.075 220.394 143.659ZM164.745 144.088C159.259 144.867 153.755 145.121 148.228 145.459C143.162 145.769 138.099 146.156 133.031 146.426C135.185 147.204 137.468 147.673 139.674 148.292C144.188 149.544 148.764 150.554 153.278 151.799C154.921 152.252 157.955 153.46 159.41 153.662C161.009 153.884 163.969 153.43 165.622 153.199L165.605 147.471C165.602 146.375 165.677 145.224 165.518 144.14C165.22 144.002 165.068 144.054 164.745 144.088ZM173.455 146.181C173.451 148.165 173.414 150.156 173.459 152.139C179.656 151.487 185.892 150.832 192.109 150.411C192.837 150.348 193.572 150.302 194.296 150.195C187.331 148.968 180.41 147.472 173.455 146.181ZM127.437 146.778C120.859 147.4 114.251 147.631 107.661 148.089L107.665 156.448C108.655 156.742 109.729 157.372 110.731 157.486C112.537 157.692 114.685 157.318 116.517 157.207C120.673 156.946 124.827 156.65 128.978 156.32C131.124 156.159 133.304 155.913 135.453 155.865L149.847 154.753C152.28 154.55 154.726 154.399 157.146 154.079C154.75 153.626 152.379 152.921 150.015 152.322C146.902 151.532 143.776 150.807 140.668 149.995C138.513 149.433 129.061 146.541 127.437 146.778ZM85.7424 151.189C80.7231 151.318 75.7087 151.539 70.6865 151.529L70.6992 153.146C72.7805 153.178 74.896 153.123 76.9743 153.008C82.1174 152.868 87.2683 152.519 92.4091 152.441C89.7917 151.434 88.5715 151.059 85.7424 151.189ZM65.0937 151.512L65.1223 188.123C66.0273 188.83 67.1311 189.709 68.3527 189.562C68.6125 189.529 68.8691 189.48 69.1225 189.414C69.3794 184.676 69.1455 179.818 69.123 175.068L69.1047 151.581C67.7644 151.587 66.4328 151.581 65.0937 151.512ZM93.4985 153.984C89.7544 154.13 86.0093 154.25 82.2634 154.346C80.5669 154.396 78.8425 154.371 77.1525 154.505C77.331 155.04 77.5039 155.556 77.6042 156.113L83.4348 155.892C88.9997 155.76 94.5644 155.378 100.129 155.288C97.4043 154.171 96.5454 153.836 93.4985 153.984ZM71.6001 154.851C71.3774 155.017 71.435 154.911 71.3969 155.18C71.2495 156.223 71.3855 157.456 71.3864 158.519L71.3904 166.208L71.4087 192.726C72.2172 193.214 73.0227 193.657 73.8772 194.06L75.259 193.935C75.5192 193.707 75.5583 193.655 75.5744 193.31C75.6797 191.05 75.5551 188.73 75.5476 186.464L75.4812 171.602L75.4746 160.515C75.4758 158.632 75.594 156.663 75.4455 154.788C74.1628 154.756 72.881 154.777 71.6001 154.851ZM100.754 156.928L83.8723 157.438C84.1643 158.012 84.248 158.576 84.3493 159.202C86.5681 159.132 88.7861 159.044 91.0034 158.938C96.8288 158.668 102.655 158.354 108.488 158.333C105.459 157.129 104.061 156.731 100.754 156.928ZM77.7539 157.576L77.6567 197.113C78.8342 197.781 80.0918 198.628 81.5019 198.246C81.7072 198.191 81.9096 198.127 82.1093 198.054C82.2375 197.864 82.2546 197.767 82.2658 197.535C82.3352 196.095 82.2578 194.617 82.2473 193.173L82.197 184.525L82.1728 157.591L77.7539 157.576ZM108.369 159.727C102.351 159.825 96.3313 160.231 90.3161 160.263C90.7463 160.847 90.8784 161.333 90.9841 162.04C93.0153 161.998 95.0461 161.938 97.0764 161.86L115.157 161.076C112.402 160.134 111.303 159.738 108.369 159.727ZM87.229 160.713C86.2955 160.746 85.3618 160.765 84.4277 160.772L84.4614 201.406C85.2749 201.939 86.0869 202.43 86.9643 202.853C87.5219 203.039 88.4262 203.272 88.9824 202.955C89.2251 202.816 89.2653 202.69 89.2946 202.432C89.4663 200.912 89.3254 199.228 89.3217 197.69L89.3012 187.757L89.2656 170.229C89.2578 167.435 89.3454 164.618 89.2439 161.829C89.227 161.371 89.2424 161.185 88.9812 160.81C88.5693 160.607 88.2761 160.652 87.8281 160.68L87.229 160.713ZM114.921 162.425C112.512 162.538 110.034 162.545 107.641 162.811L107.644 191.232C107.645 195.469 107.439 199.77 107.609 204L109.038 203.835C111.641 203.576 114.266 203.474 116.859 203.124L116.861 162.329C116.216 162.359 115.565 162.375 114.921 162.425ZM98.0639 163.259C95.6162 163.391 93.1516 163.553 90.7007 163.586L90.6743 193.106C90.6819 197.329 90.5676 201.587 90.6867 205.804L93.3542 205.597C95.8794 205.394 98.424 205.25 100.935 204.911C100.882 191.004 101.071 177.089 100.921 163.184C99.976 163.202 99.0044 163.174 98.0639 163.259ZM102.291 164.134C102.291 164.519 102.24 164.733 102.445 165.065C103.098 165.374 103.958 165.126 104.655 165.03L104.597 164.845C103.839 164.546 103.081 164.334 102.291 164.134ZM118.204 164.655C118.222 165.066 118.171 165.366 118.398 165.716C120.322 166.481 122.406 166.969 124.391 167.565C127.633 168.538 130.854 169.556 134.108 170.492C142.239 172.818 150.343 175.236 158.419 177.748C169.655 181.225 180.765 185.084 191.969 188.655C195.25 189.7 198.522 191.022 201.837 191.924C202.769 192.177 203.842 191.877 204.784 191.72L204.877 191.636C202.299 190.343 199.343 189.488 196.605 188.601L185.076 184.892C177.175 182.315 169.337 179.489 161.407 177.008C154.42 174.822 147.296 172.96 140.269 170.889C135.015 169.34 129.711 167.928 124.442 166.422C122.381 165.833 120.218 165.377 118.204 164.655ZM138.559 165.186C138.083 165.41 137.603 165.626 137.144 165.882C139.361 166.644 141.69 167.162 143.958 167.758C147.966 168.824 151.984 169.853 156.012 170.846C167.497 173.706 179.008 176.461 190.544 179.111C197.338 180.637 204.118 182.227 210.883 183.881L218.373 185.737C219.912 186.131 221.507 186.646 223.072 186.9C223.53 186.974 223.783 186.896 224.193 186.696C224.667 186.435 225.157 186.186 225.605 185.881C223.948 185.157 221.958 184.852 220.201 184.436L212.15 182.518L184.324 176.205C173.967 173.775 163.623 171.292 153.29 168.758C148.395 167.56 143.499 166.174 138.559 165.186ZM106.22 166.192C104.904 166.279 103.579 166.339 102.266 166.475C102.263 167.616 102.049 174.194 102.435 174.689L102.521 174.716L106.495 174.549C106.494 173.379 106.652 166.779 106.353 166.218L106.22 166.192ZM118.15 167.016C118.129 169.307 118.123 171.598 118.134 173.889C119.066 173.818 119.996 173.726 120.924 173.614C120.949 171.727 120.962 169.841 120.963 167.954C120.032 167.607 119.104 167.293 118.15 167.016ZM122.268 172.658C122.244 173.022 122.161 173.421 122.337 173.754C123.851 174.578 125.815 174.964 127.448 175.571L141.297 180.773C150.741 184.275 160.146 187.876 169.513 191.576C174.751 193.611 180.037 195.553 185.226 197.707L187.698 197.165L187.935 197.055C187.415 196.557 182.639 194.942 181.654 194.558C166.899 188.713 152.054 183.109 137.118 177.745L128.383 174.655C126.392 173.943 124.334 173.113 122.268 172.658ZM119.19 178.172L118.079 178.256C118.079 181.134 118.029 184.025 118.106 186.902L120.159 186.873L121.363 186.771L121.376 178.047L119.19 178.172ZM105.281 179.004C104.254 179.106 103.225 179.167 102.193 179.187L102.19 187.861L103.65 187.869C104.599 187.844 105.543 187.819 106.488 187.735L106.471 178.933C106.088 178.951 105.658 178.935 105.281 179.004ZM226.857 186.999C226.035 187.357 225.235 187.682 224.502 188.207C224.486 188.864 224.31 189.927 224.761 190.444C225.547 190.149 226.327 189.841 227.101 189.518C227.111 188.743 227.185 187.899 227.051 187.137L226.857 186.999ZM119.332 188.401C119.951 188.787 120.64 189.32 121.312 189.586C121.346 189.2 121.432 188.843 121.202 188.503C120.694 188.213 119.909 188.409 119.332 188.401ZM102.253 190.252C102.234 190.652 102.156 191.038 102.407 191.379C102.98 191.615 103.657 191.386 104.258 191.273C104.062 190.888 102.708 190.451 102.253 190.252ZM121.08 191.091C120.072 191.184 119.048 191.241 118.047 191.385C118.042 193.574 117.813 197.727 118.107 199.695L118.292 199.835C119.283 199.761 120.229 199.667 121.201 199.462C121.451 197.154 121.467 193.598 121.283 191.282C121.22 191.214 121.167 191.124 121.08 191.091ZM104.596 192.677L102.197 192.881C102.188 195.44 101.949 199.096 102.254 201.541L103.911 201.402C104.758 201.305 105.604 201.196 106.457 201.157L106.45 192.568C105.841 192.6 105.199 192.594 104.596 192.677ZM205.786 192.914C204.795 193.096 203.791 193.252 202.813 193.494C202.787 194.062 202.563 195.456 202.943 195.882L203.273 195.815C204.321 195.602 205.365 195.368 206.404 195.114C206.435 194.479 206.613 193.462 206.274 192.909C206.082 192.885 205.98 192.879 205.786 192.914ZM188.923 198.125C188.045 198.373 187.168 198.638 186.28 198.848C186.244 199.489 186.064 200.471 186.411 201.023L186.795 201.029C187.641 200.866 188.47 200.694 189.298 200.456C189.322 199.738 189.4 198.993 189.243 198.288C189.115 198.191 189.087 198.138 188.923 198.125ZM120.753 200.832L119.479 201.106L120.577 201.802L121.046 201.936C121.311 201.771 121.297 201.735 121.404 201.436C121.34 201.161 121.326 201.032 121.144 200.809L120.753 200.832Z" fill="#666666"/>
<path d="M60.2373 78.478C58.3469 75.8486 55.165 72.8669 52.9021 70.4036L39.0027 55.0083C36.6829 52.4554 34.3955 49.8738 32.1406 47.2634C31.3162 46.3181 30.3828 45.4465 29.6189 44.4531C29.3699 44.1294 29.1997 43.8745 29.1611 43.458C29.2976 43.0996 29.342 43.0642 29.6484 42.8289C29.99 42.9167 30.187 43.0493 30.4246 43.3025C31.8496 44.823 33.187 46.4441 34.5691 48.0054C37.856 51.719 41.1414 55.4539 44.4773 59.1221L55.0454 70.803C56.989 72.9297 59.0559 74.9624 60.9077 77.1697C63.9375 77.53 67.1538 77.3765 70.2136 77.5144C76.3555 77.7915 82.5679 78.2288 88.7163 78.1604C85.5391 74.887 57.4995 46.832 57.1099 45.8164C57.0403 45.6355 57.0969 45.4705 57.1824 45.3032C57.3118 45.0503 57.6484 44.8748 57.8948 44.7781C59.5981 46.1638 61.5566 48.5852 63.1782 50.2483L75.3433 62.7473C80.3767 68.0122 85.8396 72.9268 90.6987 78.3462C100.371 78.6938 110.045 78.9189 119.715 79.3601C115.877 75.6167 111.845 72.0222 107.929 68.3552L95.105 56.1467C93.2088 54.3725 91.3231 52.5872 89.4478 50.791C88.5364 49.9304 87.2886 49.0181 86.6042 47.9795C86.3809 47.6406 86.3396 47.4211 86.4106 47.0278C86.54 46.9106 86.5786 46.8218 86.7666 46.8174C87.2151 46.8071 87.6279 47.1484 87.9539 47.4211C88.7324 48.0728 89.4292 48.8818 90.1577 49.5925C91.5144 50.9165 92.9055 52.2073 94.2822 53.5103L112.45 70.7236C115.438 73.5337 118.74 76.9116 121.906 79.4514C130.808 79.6567 139.738 80.0823 148.631 80.532C145.183 77.4464 141.704 74.3958 138.194 71.3804C132.396 66.3228 126.605 61.2312 120.902 56.0671C119.273 54.5917 117.63 53.1311 115.974 51.6853C115.121 50.938 114.071 50.1987 113.364 49.3252C113.389 49.2534 113.401 49.1763 113.439 49.1101C113.6 48.8259 113.845 48.697 114.147 48.6174C114.583 48.7168 114.936 49.031 115.274 49.3118C117.35 51.0378 119.333 52.8967 121.346 54.6958L130.498 62.7786L141.232 72.2114C144.432 74.9961 147.697 77.7429 150.792 80.6436C159.14 80.9746 167.509 81.4226 175.861 81.5762C173.125 79.1706 170.16 76.9924 167.351 74.6699L147.812 58.4014L141.432 53.1292C140.801 52.6108 140.017 52.1802 139.441 51.6196C139.223 51.4075 139.142 51.1985 139.083 50.9072C139.164 50.4573 139.512 50.2187 139.832 49.9233C142.198 51.9504 144.585 53.9534 146.992 55.9324C148.025 56.6279 149.015 57.6296 149.981 58.436L156.295 63.6694L178.065 81.6575C185.707 82.0417 193.369 82.3914 201.016 82.6172C199.549 81.1516 197.867 79.9314 196.237 78.6572C194.848 77.571 193.499 76.4321 192.123 75.3291L172.133 59.5464L166.841 55.4028C165.945 54.6999 164.944 54.011 164.129 53.217C163.809 52.9048 163.603 52.644 163.461 52.2192C163.534 51.897 163.525 51.9163 163.801 51.7324C164.262 51.698 164.589 51.8518 164.969 52.0989C166.022 52.7837 166.973 53.727 167.951 54.5164C169.943 56.1223 171.974 57.6829 173.983 59.2676C178.931 63.1719 183.987 66.9714 188.881 70.9387L197.554 77.9177C199.519 79.5146 201.446 81.2007 203.504 82.676C206.138 82.9258 208.814 82.9514 211.459 83.0571C215.929 83.243 220.4 83.3971 224.872 83.5195C221.327 80.7839 217.682 78.2048 214.107 75.5125L185.377 53.7124C185.718 53.4001 186.082 53.1069 186.434 52.8064C189.825 55.5432 193.399 58.0415 196.865 60.6797C203.067 65.4577 209.305 70.189 215.578 74.8738C219.512 77.7834 223.594 80.5854 227.403 83.6526C229.022 83.6467 244.358 84.1296 244.695 84.2673C244.99 84.3889 245.068 84.4834 245.168 84.7773C245.083 85.0032 245.039 85.0908 244.846 85.2358C244.17 85.7415 242.973 85.5735 242.18 85.5395L118.046 80.6504L80.7495 79.3171L68.3701 78.8755C65.6687 78.7812 62.925 78.7764 60.2373 78.478Z" fill="#666666"/>
<path d="M205.84 55.1519C206.069 54.7822 206.356 54.4666 206.639 54.1384C206.725 54.1677 206.808 54.2043 206.891 54.2407C208.049 54.7502 209.278 55.8745 210.314 56.6279L218.5 62.6204C227.116 68.9341 235.867 75.0859 244.424 81.4766C244.795 81.7537 245.232 82.0569 245.408 82.5C245.347 82.8674 245.081 83.0642 244.827 83.312C244.563 83.2952 244.375 83.1841 244.155 83.0449C241.451 81.3254 238.892 79.1672 236.294 77.2761L213.825 60.9185C211.163 59.0188 208.6 56.8997 205.84 55.1519Z" fill="#666666"/>
<path d="M244.753 70.3713C244.69 70.3528 244.622 70.3396 244.558 70.3157C243.51 69.9243 240.213 67.2285 238.975 66.3494C234.47 63.1506 229.848 60.1033 225.414 56.8025C225.198 56.6416 225.047 56.5466 224.949 56.2871C225.003 55.873 225.27 55.6516 225.542 55.3613C225.682 55.4141 225.814 55.4937 225.941 55.5725C226.921 56.1785 227.85 56.9307 228.791 57.6006L233.924 61.1926C237.504 63.6863 241.288 66.0676 244.707 68.7673C244.958 68.9658 245.193 69.1128 245.273 69.4429C245.193 69.8547 245.015 70.0608 244.753 70.3713Z" fill="#666666"/>
<path d="M240.556 57.0908L241.423 56.2273C241.566 56.2673 241.691 56.3003 241.822 56.375C242.747 56.9043 244.822 58.2573 245.09 59.2646C244.988 59.645 244.922 59.6833 244.626 59.9534C243.32 59.4343 241.557 58.0891 240.556 57.0908Z" fill="#666666"/>
<path d="M47.9871 167.095L47.9832 79.5955C49.378 79.6453 50.7718 79.7152 52.1646 79.8052C52.2864 81.915 52.2378 84.0542 52.2446 86.1685L52.2654 96.7629L52.2786 129.073L52.2842 154.482L52.2812 162.525C52.2805 163.875 52.363 165.285 52.2446 166.628L52.011 166.736C50.6738 166.881 49.3269 166.977 47.9871 167.095Z" fill="#FEFEFE"/>
<path d="M53.5806 166.65L53.5959 79.8477C54.876 79.8557 56.1687 79.9236 57.4275 80.1614C58.3752 80.9587 59.2136 81.9045 59.9775 82.877C62.1516 82.8784 64.3489 83.0791 66.5205 83.2078L66.4983 150.122C65.6284 150.109 64.7922 150.023 63.9875 150.407C63.4741 151.167 63.7549 162.061 63.7559 163.849L63.7588 165.767C60.4016 166.19 56.959 166.457 53.5806 166.65ZM64.0076 103.213C63.7634 104.014 63.5544 105.531 63.9885 106.282C64.092 106.462 64.1704 106.528 64.375 106.589C64.5305 106.636 64.7551 106.621 64.9194 106.625C65.0024 105.645 65.3118 104.241 64.7861 103.379C64.5227 103.186 64.3213 103.216 64.0076 103.213ZM59.0313 103.844C58.9639 104.708 58.6814 106.017 59.2627 106.719C59.5374 106.84 59.7346 106.843 60.0288 106.852C60.0984 105.968 60.3643 104.747 59.8511 103.984C59.5796 103.803 59.3418 103.836 59.0313 103.844ZM55.8342 112.149C55.6174 112.717 55.4624 113.597 55.698 114.184C55.7776 114.382 55.9045 114.595 56.115 114.66C56.3135 114.722 56.469 114.711 56.6726 114.701C56.8958 114.144 57.0789 113.111 56.7913 112.557C56.6509 112.286 56.5085 112.219 56.219 112.173C56.1172 112.157 55.9421 112.153 55.8342 112.149ZM61.5552 114.191C61.2595 114.764 60.9888 115.706 61.2024 116.345C61.2964 116.627 61.408 116.786 61.6951 116.89C61.772 116.917 61.8528 116.932 61.9316 116.954C62.2693 116.448 62.4932 115.773 62.3989 115.157C62.3462 114.813 62.2209 114.51 61.9082 114.331C61.8186 114.28 61.6562 114.227 61.5552 114.191ZM59.0596 121.294C58.6541 121.774 58.6013 122.577 58.6599 123.191C58.6978 123.59 58.7783 123.949 59.0244 124.271C59.1968 124.352 59.364 124.435 59.5439 124.497C59.9216 124.038 59.9119 123.055 59.8508 122.476C59.8088 122.08 59.7463 121.787 59.4951 121.468L59.0596 121.294ZM63.916 126.009C63.7637 126.752 63.4524 127.923 63.9175 128.587C64.0173 128.729 64.1504 128.781 64.3218 128.808C64.4214 128.824 64.615 128.817 64.7207 128.816C64.907 128.084 65.158 126.987 64.7388 126.302C64.6448 126.149 64.5198 126.073 64.3408 126.033C64.2375 126.01 64.0266 126.011 63.916 126.009ZM57.7305 133.907C57.6975 134.706 57.5288 135.631 57.8569 136.375C58.2317 136.654 58.4368 136.617 58.8857 136.586C59.04 135.882 59.2698 134.756 58.8301 134.127C58.7241 133.976 58.6213 133.921 58.4353 133.891C58.2214 133.856 57.9487 133.896 57.7305 133.907ZM62.417 139.729C62.0779 140.399 61.9819 141.583 62.2146 142.3C62.2983 142.558 62.4243 142.788 62.6929 142.894C62.7876 142.932 62.9646 142.942 63.0686 142.952C63.4402 142.272 63.6174 141.202 63.415 140.446C63.3354 140.149 63.2463 140.002 62.9954 139.812L62.417 139.729ZM57.377 147.792C57.2017 148.363 57.0124 149.537 57.303 150.082C57.4631 150.382 57.5666 150.461 57.8979 150.521C57.9692 150.534 58.0422 150.535 58.1143 150.542C58.3362 149.924 58.5103 148.855 58.2163 148.235C58.1321 148.057 58.0884 147.911 57.8945 147.856C57.7175 147.805 57.5593 147.799 57.377 147.792ZM57.5212 158.657C57.4731 159.284 57.2312 160.431 57.6677 160.941C57.783 161.076 57.9238 161.094 58.0969 161.1C58.1965 161.104 58.3762 161.082 58.4797 161.07C58.5305 160.429 58.7654 159.354 58.3279 158.823C58.1772 158.64 57.8887 158.659 57.6658 158.656C57.6177 158.655 57.5693 158.657 57.5212 158.657Z" fill="#FEFEFE"/>
<path d="M67.763 150.042C67.647 143.371 67.7471 136.678 67.7366 130.005L67.7361 83.2124L71.8775 83.3791C72.002 91.4617 71.9024 99.5613 71.9007 107.646L71.8635 149.958C70.4998 150.024 69.1284 150.02 67.763 150.042Z" fill="#FEFEFE"/>
<path d="M73.1182 149.819L73.1438 83.4048C76.4722 83.5647 79.8059 83.6128 83.1323 83.8069L83.1418 131.425L83.1519 144.045C83.1541 145.741 83.3875 147.984 83.085 149.605C79.7635 149.715 76.4412 149.786 73.1182 149.819ZM78.6555 101.484C78.2722 101.947 78.2168 102.91 78.2913 103.496C78.3347 103.838 78.4021 104.122 78.6001 104.41C78.8162 104.533 78.9937 104.581 79.2363 104.629C79.5825 104.083 79.5571 102.969 79.436 102.34C79.3838 102.07 79.3052 101.866 79.1353 101.646L78.6555 101.484ZM77.1677 114.067C76.9917 114.932 76.7231 116.919 77.3013 117.647C77.5042 117.903 77.7605 117.946 78.063 117.998C78.3599 117.096 78.553 115.291 78.116 114.409C78.0344 114.245 77.9631 114.164 77.78 114.106C77.6096 114.052 77.3489 114.072 77.1677 114.067ZM81.1077 118.091C80.7805 118.614 80.5344 119.199 80.6777 119.826C80.7461 120.125 80.9248 120.376 81.2031 120.509C81.3318 120.571 81.4412 120.601 81.5742 120.643C81.906 120.199 82.0288 119.696 81.9497 119.132C81.9121 118.864 81.8008 118.461 81.575 118.31C81.4185 118.206 81.2834 118.151 81.1077 118.091ZM77.5598 123.832C77.0959 124.592 76.978 126.048 77.2014 126.899C77.2769 127.187 77.4106 127.416 77.6826 127.56C77.7705 127.606 77.915 127.635 78.0137 127.658C78.3345 127.3 78.3989 127.131 78.4539 126.66C78.5527 125.811 78.6479 124.896 78.2056 124.12C77.9844 123.967 77.8206 123.897 77.5598 123.832ZM78.1958 133.854C77.9197 134.747 77.71 136.47 78.1431 137.324C78.2532 137.541 78.3416 137.559 78.5391 137.684L79.0542 137.7C79.4207 137.021 79.4004 135.138 79.1728 134.393C79.1174 134.211 79.0515 134.018 78.8684 133.937C78.6382 133.834 78.4429 133.853 78.1958 133.854ZM75.636 142.444C75.5645 143.35 75.3411 144.379 75.7507 145.225C76.0959 145.487 76.2549 145.486 76.6819 145.474C76.77 144.693 77.0554 143.321 76.5957 142.644C76.5012 142.505 76.3467 142.462 76.186 142.434C76.0198 142.405 75.8059 142.434 75.636 142.444Z" fill="#FEFEFE"/>
<path d="M84.5183 149.594L84.4951 83.8611C85.8382 83.8666 87.1806 83.9012 88.5222 83.9648L88.6118 126.608C88.6405 131.63 88.6178 136.652 88.5439 141.673C88.5227 144.289 88.6575 147.005 88.4116 149.603C87.1316 149.696 85.8032 149.608 84.5183 149.594Z" fill="#FEFEFE"/>
<path d="M89.967 149.613C89.8271 147.056 89.9192 144.44 89.9136 141.877L89.9426 125.537C89.9421 111.703 89.7864 97.8564 89.9709 84.0232L100.956 84.4084L100.965 134.865L100.999 147.409C101.006 149.424 101.226 151.711 100.919 153.69C98.7251 153.012 96.5845 152.103 94.4375 151.289C92.9512 150.725 91.4211 150.256 89.967 149.613ZM96.8496 104.52C96.6768 105.432 96.3686 106.901 96.9036 107.718C97.1843 107.907 97.3408 107.922 97.6765 107.93C97.9497 107.071 98.1355 105.683 97.762 104.849C97.6858 104.678 97.5732 104.609 97.3938 104.552C97.2412 104.505 97.0115 104.522 96.8496 104.52ZM92.4497 107.73C92.1824 108.448 92.0474 109.787 92.3772 110.494C92.4812 110.717 92.5737 110.823 92.8201 110.886C92.9062 110.908 93.0535 110.908 93.1455 110.91C93.4355 110.245 93.554 109.063 93.3081 108.37C93.2209 108.125 93.1221 107.839 92.8435 107.765C92.7537 107.741 92.5471 107.735 92.4497 107.73ZM96.6206 113.993C96.2502 115.047 96.1311 116.648 96.5998 117.688C96.9136 117.95 97.1057 117.937 97.5037 118.001C97.7373 116.895 97.927 115.281 97.4216 114.24C97.1255 114.008 96.9883 114.031 96.6206 113.993ZM96.3716 127.611C96.0679 128.455 95.842 129.979 96.2388 130.821C96.3599 131.078 96.5688 131.198 96.8364 131.277C96.8916 131.293 96.948 131.304 97.0039 131.318C97.4592 130.687 97.4082 129.083 97.2749 128.353C97.2327 128.122 97.1697 127.963 97.0557 127.761C96.8218 127.612 96.6431 127.62 96.3716 127.611ZM92.7268 135.786C92.3171 136.609 92.2329 138.159 92.5273 139.027C92.5801 139.182 92.6631 139.281 92.7781 139.393L93.2957 139.534C93.7661 139.053 93.7671 138.019 93.7432 137.364C93.7263 136.907 93.6448 136.425 93.408 136.031C93.1765 135.845 93.0168 135.825 92.7268 135.786ZM96.2656 143.023C96.01 143.823 95.7717 145.383 96.2131 146.127C96.3174 146.302 96.4009 146.34 96.604 146.383C96.7412 146.412 96.9624 146.386 97.0962 146.382C97.3364 145.425 97.5212 144.105 97.0259 143.216C96.7227 143.021 96.6318 143.035 96.2656 143.023Z" fill="#FEFEFE"/>
<path d="M102.377 154.335L102.385 84.3652C103.644 84.3826 104.906 84.4424 106.165 84.4814C106.412 92.864 106.184 101.359 106.213 109.755C106.267 125.099 106.4 140.468 106.19 155.81C104.926 155.178 103.775 154.611 102.377 154.335Z" fill="#FEFEFE"/>
<path d="M107.597 86.7737C107.567 86.0515 107.582 85.3225 107.58 84.5996C126.813 85.21 146.041 85.9463 165.264 86.8086C165.277 87.3567 165.267 87.907 165.267 88.4551L107.597 86.7737Z" fill="#FEFEFE"/>
<path d="M166.955 153.745C166.893 145.819 166.893 137.893 166.957 129.968L166.845 86.8083L168.573 86.9431C168.738 98.2283 168.596 109.525 168.636 120.812C168.676 132.078 168.896 143.378 168.687 154.641C168.056 154.4 167.526 154.1 166.955 153.745Z" fill="#FEFEFE"/>
<path d="M169.886 154.563L169.825 86.9331C170.574 86.9351 171.328 86.99 172.076 87.0264L172.235 132.823C172.234 140.006 172.425 147.256 172.131 154.43C171.385 154.492 170.633 154.521 169.886 154.563Z" fill="#FEFEFE"/>
<path d="M173.472 103.004L173.455 87.1057L184.021 87.4478C188.928 87.5625 193.85 87.6252 198.75 87.948C198.878 93.5576 198.744 99.2056 198.75 104.82C190.319 104.279 181.893 103.674 173.472 103.004Z" fill="#FEFEFE"/>
<path d="M200.183 150.96L200.157 107.503C200.163 101.011 199.999 94.5039 200.151 88.0144L201.762 88.0388C201.917 109.094 201.936 130.15 201.818 151.205L200.183 150.96Z" fill="#FEFEFE"/>
<path d="M203.155 151.042L203.086 88.1211C204.065 88.125 205.048 88.2056 206.026 88.2637C206.153 92.3408 206.061 96.4465 206.053 100.526L206.065 119.167L206.062 139.431C206.058 143.231 206.139 147.055 206.001 150.852L203.155 151.042Z" fill="#FEFEFE"/>
<path d="M232.015 116.414C231.919 111.801 232.01 107.165 231.997 102.549C231.985 98.1194 231.862 93.6572 232.003 89.2317L233.655 89.2331L233.646 106.285C233.643 109.205 233.809 112.194 233.61 115.1C233.38 115.343 233.099 115.319 232.778 115.375L232.015 116.414Z" fill="#FEFEFE"/>
<path d="M234.973 146.857L235.022 89.2209C235.773 89.2119 236.526 89.2334 237.277 89.2405L237.313 129.379L237.325 140.892C237.326 142.762 237.513 144.84 237.25 146.682C236.488 146.807 235.744 146.838 234.973 146.857Z" fill="#FEFEFE"/>
<path d="M107.636 131.972L107.555 101.301C110.431 101.248 113.326 101.339 116.203 101.363C116.22 104.334 116.457 130.852 116.057 131.587L107.636 131.972Z" fill="#FEFEFE"/>
<path d="M118.504 131.61C118.168 131.597 117.954 131.598 117.667 131.396C117.377 130.877 117.56 104.252 117.562 101.444C117.952 101.463 118.212 101.417 118.512 101.68C118.657 102.641 118.537 103.71 118.536 104.689L118.536 111.006C118.538 117.868 118.649 124.749 118.504 131.61Z" fill="#FEFEFE"/>
<path d="M79.2363 104.629C78.9936 104.581 78.8162 104.533 78.6001 104.41C78.4021 104.122 78.3347 103.838 78.2913 103.496C78.2168 102.91 78.2722 101.947 78.6555 101.484L79.1352 101.646C79.3052 101.866 79.3838 102.07 79.436 102.34C79.5571 102.969 79.5825 104.083 79.2363 104.629Z" fill="#666666"/>
<path d="M119.946 131.44C119.785 127.176 119.884 122.869 119.885 118.601C119.886 112.914 119.832 107.219 119.92 101.533C124.303 101.58 128.685 101.671 133.066 101.808L132.984 123.84C132.977 125.081 133.186 129.941 132.883 130.815L132.641 130.926C128.422 130.988 124.158 131.166 119.946 131.44Z" fill="#FEFEFE"/>
<path d="M135.303 130.736C134.926 130.733 134.759 130.78 134.44 130.566C134.129 129.881 134.424 104.772 134.433 101.867C134.737 101.875 134.931 101.886 135.217 102.007C135.31 102.132 135.354 102.22 135.357 102.379C135.421 105.822 135.342 109.286 135.338 112.732L135.303 130.736Z" fill="#FEFEFE"/>
<path d="M136.596 130.641C136.721 121.074 136.668 111.496 136.677 101.927C140.847 101.863 145.196 101.861 149.353 102.18C149.546 107.858 149.392 113.591 149.417 119.275C149.424 120.84 149.686 129.052 149.368 130.049L149.078 130.12C144.919 130.321 140.758 130.495 136.596 130.641Z" fill="#FEFEFE"/>
<path d="M165.441 104.023C160.637 103.656 155.741 103.548 150.962 102.982C150.737 102.707 150.785 102.513 150.765 102.165C153.753 102.167 156.764 102.436 159.749 102.6C161.42 102.692 163.744 102.594 165.31 103.025C165.498 103.314 165.442 103.691 165.441 104.023Z" fill="#FEFEFE"/>
<path d="M64.9194 106.625C64.7551 106.621 64.5305 106.636 64.375 106.589C64.1704 106.528 64.092 106.462 63.9885 106.282C63.5544 105.531 63.7634 104.014 64.0075 103.213C64.3213 103.216 64.5227 103.186 64.7861 103.379C65.3117 104.241 65.0024 105.645 64.9194 106.625Z" fill="#666666"/>
<path d="M60.0288 106.852C59.7346 106.843 59.5373 106.84 59.2627 106.719C58.6814 106.017 58.9638 104.708 59.0312 103.845C59.3418 103.836 59.5796 103.804 59.851 103.984C60.3642 104.747 60.0984 105.968 60.0288 106.852Z" fill="#666666"/>
<path d="M198.757 107.168C195.537 107.207 192.186 106.722 188.975 106.46L173.719 105.301C173.491 105.052 173.544 104.691 173.517 104.36C178.649 104.587 183.781 105.069 188.904 105.44C192.086 105.671 195.446 105.676 198.588 106.195C198.795 106.491 198.74 106.813 198.757 107.168Z" fill="#FEFEFE"/>
<path d="M97.6766 107.93C97.3409 107.922 97.1844 107.907 96.9036 107.718C96.3687 106.901 96.6768 105.432 96.8497 104.52C97.0115 104.522 97.2413 104.505 97.3938 104.552C97.5733 104.609 97.6858 104.678 97.762 104.849C98.1356 105.683 97.9498 107.071 97.6766 107.93Z" fill="#666666"/>
<path d="M230.575 107.523L215.289 106.457C212.772 106.271 210.056 106.245 207.584 105.77C207.362 105.429 207.424 105.152 207.418 104.751C212.969 105.08 218.515 105.487 224.054 105.972C226.137 106.148 228.412 106.119 230.455 106.522C230.638 106.854 230.577 107.148 230.575 107.523Z" fill="#FEFEFE"/>
<path d="M161.096 132.158L161.069 105.001L163.668 105.128L163.65 123.773C163.646 126.646 163.889 129.663 163.639 132.515C162.789 132.437 161.94 132.285 161.096 132.158Z" fill="#FEFEFE"/>
<path d="M207.42 140.179C207.296 129.219 207.472 118.233 207.493 107.271C209.522 107.302 211.555 107.516 213.576 107.691L213.575 141.141C211.519 140.877 209.47 140.496 207.42 140.179Z" fill="#FEFEFE"/>
<path d="M187.016 136.704C186.972 127.011 186.797 117.285 186.979 107.597L190.039 107.887C190.098 117.653 190.078 127.417 189.977 137.182C189.024 137.157 187.963 136.865 187.016 136.704Z" fill="#FEFEFE"/>
<path d="M93.1455 110.91C93.0535 110.908 92.9063 110.908 92.8201 110.886C92.5738 110.823 92.4812 110.717 92.3772 110.494C92.0474 109.787 92.1824 108.448 92.4497 107.73C92.5471 107.735 92.7537 107.741 92.8435 107.765C93.1221 107.839 93.221 108.125 93.3081 108.37C93.554 109.063 93.4356 110.245 93.1455 110.91Z" fill="#666666"/>
<path d="M215.038 141.358C214.953 130.166 214.94 118.974 214.998 107.782C215.616 107.782 216.23 107.856 216.845 107.914C216.99 110.113 216.923 112.365 216.923 114.57L216.917 125.793L216.926 135.245C216.927 136.99 217.022 138.804 216.873 140.542C216.826 141.083 216.677 141.548 216.491 142.054C216.416 142.146 216.476 142.084 216.264 142.179C215.858 141.901 215.45 141.627 215.038 141.358Z" fill="#FEFEFE"/>
<path d="M218.388 139.074C218.192 133.931 218.27 128.734 218.271 123.586C218.272 118.408 218.199 113.209 218.352 108.034C222.415 108.238 226.483 108.642 230.547 108.89C230.567 111.023 230.754 116.332 230.393 118.156C230.16 119.332 224.145 129.097 222.973 131.152C221.398 133.765 219.87 136.406 218.388 139.074Z" fill="#FEFEFE"/>
<path d="M56.6726 114.701C56.469 114.711 56.3135 114.722 56.115 114.66C55.9046 114.595 55.7776 114.382 55.698 114.184C55.4624 113.597 55.6174 112.717 55.8342 112.149C55.9422 112.153 56.1172 112.157 56.219 112.173C56.5086 112.219 56.6509 112.286 56.7913 112.557C57.0789 113.111 56.8958 114.144 56.6726 114.701Z" fill="#666666"/>
<path d="M97.5037 118.001C97.1058 117.937 96.9136 117.95 96.5999 117.687C96.1312 116.648 96.2503 115.047 96.6207 113.993C96.9883 114.031 97.1255 114.008 97.4217 114.24C97.9271 115.281 97.7374 116.895 97.5037 118.001Z" fill="#666666"/>
<path d="M78.0629 117.997C77.7605 117.946 77.5041 117.902 77.3012 117.647C76.7231 116.919 76.9917 114.932 77.1677 114.067C77.3488 114.071 77.6096 114.052 77.78 114.106C77.9631 114.163 78.0344 114.245 78.1159 114.409C78.5529 115.29 78.3598 117.096 78.0629 117.997Z" fill="#666666"/>
<path d="M61.9317 116.954C61.8528 116.932 61.772 116.917 61.6951 116.89C61.408 116.786 61.2964 116.627 61.2024 116.345C60.9888 115.706 61.2596 114.764 61.5552 114.191C61.6563 114.227 61.8186 114.28 61.9082 114.331C62.221 114.51 62.3462 114.813 62.399 115.157C62.4932 115.773 62.2693 116.448 61.9317 116.954Z" fill="#666666"/>
<path d="M215.084 148.47C214.817 148.416 214.754 148.462 214.582 148.236C214.67 147.395 218.583 141.463 219.302 140.263C222.631 134.71 225.77 129.042 229.067 123.47C230.435 121.157 231.736 118.7 233.285 116.508C233.557 116.629 233.597 116.697 233.71 116.979C233.821 117.253 233.783 117.493 233.656 117.748C232.593 119.883 231.198 121.891 230 123.954C227.788 127.76 225.642 131.6 223.397 135.387C221.548 138.505 219.765 141.65 217.88 144.747C217.26 145.766 216.682 146.875 215.998 147.847C215.707 148.259 215.539 148.317 215.084 148.47Z" fill="#FEFEFE"/>
<path d="M81.5742 120.643C81.4411 120.601 81.3318 120.571 81.2031 120.509C80.9248 120.376 80.7461 120.125 80.6777 119.826C80.5344 119.199 80.7805 118.614 81.1076 118.091C81.2834 118.151 81.4184 118.206 81.5749 118.31C81.8008 118.461 81.9121 118.864 81.9497 119.132C82.0288 119.696 81.906 120.199 81.5742 120.643Z" fill="#666666"/>
<path d="M232.088 146.879C231.994 146.74 231.987 146.76 231.957 146.598C231.813 145.83 231.912 144.888 231.909 144.095L231.913 138.319L231.938 128.525C231.946 126.925 231.78 125.065 232.08 123.504C232.223 122.758 233.034 121.803 233.471 121.176C233.481 121.206 233.494 121.235 233.502 121.266C233.794 122.375 233.597 126.949 233.599 128.467C233.609 134.14 233.73 139.834 233.618 145.505C233.611 145.867 233.662 146.295 233.468 146.613C233.052 146.855 232.557 146.842 232.088 146.879Z" fill="#FEFEFE"/>
<path d="M59.5439 124.497C59.364 124.435 59.1967 124.352 59.0244 124.271C58.7783 123.949 58.6977 123.59 58.6598 123.191C58.6013 122.577 58.654 121.774 59.0595 121.294L59.4951 121.468C59.7463 121.787 59.8088 122.08 59.8508 122.476C59.9118 123.055 59.9216 124.038 59.5439 124.497Z" fill="#666666"/>
<path d="M78.0137 127.658C77.915 127.635 77.7705 127.606 77.6826 127.56C77.4106 127.416 77.2769 127.187 77.2014 126.899C76.978 126.048 77.0959 124.592 77.5598 123.832C77.8206 123.897 77.9844 123.967 78.2056 124.12C78.6479 124.896 78.5527 125.811 78.4538 126.66C78.3989 127.131 78.3345 127.3 78.0137 127.658Z" fill="#666666"/>
<path d="M221.103 142.375C222.299 139.865 223.923 137.488 225.346 135.101C227.138 132.095 228.849 129.011 230.547 125.95C230.842 127.664 230.614 129.794 230.609 131.556L230.551 144.033C228.024 143.537 225.49 143.08 222.948 142.663L221.103 142.375Z" fill="#FEFEFE"/>
<path d="M64.7207 128.816C64.615 128.817 64.4214 128.824 64.3218 128.808C64.1504 128.781 64.0174 128.73 63.9175 128.587C63.4524 127.923 63.7637 126.752 63.916 126.009C64.0266 126.011 64.2376 126.011 64.3408 126.033C64.5198 126.073 64.6448 126.149 64.7388 126.303C65.158 126.987 64.907 128.084 64.7207 128.816Z" fill="#666666"/>
<path d="M97.0039 131.318C96.9479 131.304 96.8916 131.293 96.8364 131.277C96.5688 131.198 96.3598 131.078 96.2387 130.821C95.842 129.979 96.0678 128.455 96.3715 127.611C96.643 127.62 96.8217 127.612 97.0556 127.761C97.1696 127.963 97.2326 128.122 97.2748 128.353C97.4081 129.083 97.4592 130.687 97.0039 131.318Z" fill="#666666"/>
<path d="M123.229 132.673L148.345 131.522C151.762 131.428 155.298 132.318 158.636 132.997C160.557 133.387 162.517 133.728 164.41 134.238C161.979 134.537 159.507 134.687 157.066 134.898L140.226 136.234C138.172 136.42 130.414 134.161 128.03 133.584C126.447 133.192 124.847 132.888 123.229 132.673Z" fill="#FEFEFE"/>
<path d="M107.575 133.391C110.005 133.199 112.454 133.151 114.887 132.985C115.933 132.861 117.094 132.848 118.146 132.948C119.621 133.089 121.14 133.508 122.595 133.801C126.697 134.626 130.745 135.594 134.799 136.627C131.952 136.851 129.096 136.935 126.25 137.184C120.02 137.591 113.805 138.265 107.567 138.593C107.543 136.86 107.571 135.124 107.575 133.391Z" fill="#FEFEFE"/>
<path d="M58.8857 136.586C58.4368 136.617 58.2317 136.653 57.8569 136.375C57.5288 135.631 57.6975 134.706 57.7305 133.906C57.9487 133.895 58.2214 133.856 58.4353 133.891C58.6213 133.921 58.7241 133.976 58.8301 134.127C59.2698 134.755 59.04 135.881 58.8857 136.586Z" fill="#666666"/>
<path d="M79.0542 137.7L78.5391 137.684C78.3416 137.559 78.2532 137.541 78.1431 137.324C77.71 136.47 77.9197 134.747 78.1958 133.854C78.4429 133.853 78.6382 133.834 78.8684 133.937C79.0515 134.018 79.1174 134.211 79.1728 134.393C79.4004 135.138 79.4206 137.021 79.0542 137.7Z" fill="#666666"/>
<path d="M143.897 137.288C150.583 136.695 157.268 136.264 163.949 135.571L165.543 135.43L165.547 142.136C163.755 141.451 161.734 141.166 159.865 140.744C156.379 139.958 152.901 139.125 149.387 138.467C147.554 138.091 145.723 137.698 143.897 137.288Z" fill="#FEFEFE"/>
<path d="M93.2957 139.534L92.7781 139.393C92.6631 139.281 92.5801 139.182 92.5274 139.027C92.233 138.159 92.3172 136.609 92.7268 135.786C93.0169 135.825 93.1766 135.845 93.408 136.031C93.6448 136.425 93.7264 136.907 93.7432 137.364C93.7671 138.019 93.7662 139.053 93.2957 139.534Z" fill="#666666"/>
<path d="M173.547 142.013C173.473 140.039 173.498 138.056 173.515 136.081C179.348 137.185 185.354 137.571 191.133 138.929C190.278 139.206 189.394 139.424 188.528 139.666C183.664 140.827 178.546 141.756 173.547 142.013Z" fill="#FEFEFE"/>
<path d="M107.381 139.949C114.017 139.558 120.646 139.067 127.267 138.473C131.007 138.168 134.756 137.974 138.492 137.623C139.902 137.432 159.711 142.084 162.916 142.86C152.653 144.122 142.234 144.38 131.921 145.12C130.429 145.146 128.853 145.484 127.372 145.329C124.97 145.077 122.462 144.151 120.13 143.5L107.381 139.949Z" fill="#FEFEFE"/>
<path d="M181.959 146.464C180.59 146.205 174.297 145.251 173.653 144.634C173.643 144.378 173.596 144.052 173.639 143.802C173.719 143.337 175.092 143.304 175.494 143.258C178.934 142.862 191.433 141.13 193.807 139.189C195.481 139.667 197.174 139.955 198.887 140.251L198.868 149.575C196.793 149.412 194.685 148.927 192.64 148.542C189.076 147.867 185.516 147.175 181.959 146.464Z" fill="#FEFEFE"/>
<path d="M63.0686 142.952C62.9645 142.942 62.7875 142.932 62.6928 142.894C62.4243 142.788 62.2983 142.558 62.2145 142.3C61.9819 141.583 62.0778 140.399 62.4169 139.729L62.9953 139.812C63.2463 140.002 63.3354 140.149 63.415 140.446C63.6174 141.202 63.4401 142.272 63.0686 142.952Z" fill="#666666"/>
<path d="M107.627 146.611L107.635 141.523C109.265 141.819 110.94 142.44 112.553 142.871C115.353 143.62 119.395 144.474 121.987 145.589L122.031 145.704L121.6 145.754C116.96 146.117 112.278 146.459 107.627 146.611Z" fill="#FEFEFE"/>
<path d="M207.406 148.736L207.404 141.663C210.166 142.018 212.957 142.616 215.696 143.139C214.982 144.247 214.343 145.388 213.704 146.54C213.392 147.07 213.136 147.613 212.881 148.171C211.059 148.38 209.236 148.611 207.406 148.736Z" fill="#FEFEFE"/>
<path d="M76.6819 145.474C76.2549 145.486 76.096 145.487 75.7507 145.225C75.3411 144.379 75.5645 143.35 75.636 142.443C75.8059 142.434 76.0198 142.404 76.186 142.434C76.3467 142.462 76.5012 142.505 76.5957 142.644C77.0554 143.321 76.77 144.693 76.6819 145.474Z" fill="#666666"/>
<path d="M97.0962 146.382C96.9624 146.386 96.7412 146.412 96.604 146.383C96.4009 146.34 96.3174 146.302 96.2131 146.127C95.7717 145.383 96.01 143.823 96.2656 143.023C96.6318 143.035 96.7227 143.021 97.0259 143.216C97.5212 144.105 97.3364 145.425 97.0962 146.382Z" fill="#666666"/>
<path d="M217.93 147.916L220.394 143.659C221.906 144.075 230.013 145.097 230.551 145.694C230.569 146.036 230.603 146.351 230.499 146.684C229.6 147.038 228.289 146.982 227.324 147.069C224.192 147.323 221.07 147.758 217.93 147.916Z" fill="#FEFEFE"/>
<path d="M133.031 146.426C138.099 146.155 143.162 145.769 148.228 145.459C153.755 145.12 159.259 144.867 164.745 144.088C165.068 144.054 165.22 144.002 165.518 144.14C165.677 145.224 165.602 146.375 165.605 147.471L165.622 153.199C163.969 153.43 161.009 153.884 159.41 153.662C157.955 153.46 154.921 152.252 153.278 151.799C148.764 150.554 144.188 149.544 139.674 148.292C137.468 147.672 135.185 147.204 133.031 146.426Z" fill="#FEFEFE"/>
<path d="M173.459 152.139C173.414 150.156 173.451 148.165 173.455 146.181C180.41 147.472 187.331 148.968 194.296 150.195C193.572 150.302 192.837 150.348 192.109 150.411C185.892 150.832 179.656 151.487 173.459 152.139Z" fill="#FEFEFE"/>
<path d="M107.661 148.089C114.251 147.631 120.859 147.401 127.437 146.778C129.061 146.541 138.513 149.433 140.668 149.995C143.776 150.807 146.902 151.532 150.015 152.322C152.379 152.921 154.75 153.626 157.146 154.079C154.726 154.4 152.28 154.55 149.847 154.753L135.453 155.865C133.304 155.913 131.124 156.16 128.979 156.32C124.827 156.65 120.673 156.946 116.517 157.207C114.685 157.318 112.537 157.692 110.731 157.486C109.729 157.372 108.655 156.743 107.665 156.448L107.661 148.089Z" fill="#FEFEFE"/>
<path d="M58.1142 150.542C58.0422 150.535 57.9692 150.534 57.8979 150.521C57.5666 150.461 57.4631 150.382 57.303 150.082C57.0124 149.537 57.2016 148.363 57.3769 147.792C57.5593 147.799 57.7175 147.805 57.8945 147.856C58.0884 147.911 58.1321 148.057 58.2163 148.235C58.5102 148.855 58.3362 149.924 58.1142 150.542Z" fill="#666666"/>
<path d="M70.6865 151.529C75.7087 151.539 80.7231 151.318 85.7424 151.189C88.5715 151.059 89.7917 151.434 92.4092 152.441C87.2683 152.519 82.1174 152.868 76.9744 153.008C74.896 153.123 72.7805 153.178 70.6992 153.146L70.6865 151.529Z" fill="#FEFEFE"/>
<path d="M65.1223 188.123L65.0938 151.512C66.4329 151.581 67.7644 151.587 69.1047 151.581L69.123 175.068C69.1455 179.818 69.3794 184.676 69.1226 189.414C68.8691 189.48 68.6125 189.529 68.3528 189.562C67.1311 189.709 66.0273 188.83 65.1223 188.123Z" fill="#FEFEFE"/>
<path d="M77.1526 154.505C78.8425 154.371 80.5669 154.395 82.2634 154.346C86.0094 154.25 89.7544 154.13 93.4985 153.984C96.5454 153.836 97.4043 154.171 100.129 155.288C94.5645 155.378 88.9998 155.759 83.4348 155.892L77.6042 156.113C77.5039 155.556 77.3311 155.04 77.1526 154.505Z" fill="#FEFEFE"/>
<path d="M71.4087 192.726L71.3904 166.208L71.3865 158.519C71.3855 157.456 71.2495 156.223 71.397 155.18C71.4351 154.911 71.3774 155.017 71.6001 154.851C72.881 154.777 74.1628 154.756 75.4456 154.788C75.594 156.663 75.4758 158.632 75.4746 160.515L75.4812 171.602L75.5476 186.464C75.5552 188.73 75.6797 191.05 75.5745 193.31C75.5584 193.655 75.5193 193.707 75.259 193.935L73.8772 194.06C73.0227 193.657 72.2173 193.214 71.4087 192.726Z" fill="#FEFEFE"/>
<path d="M83.8723 157.438L100.754 156.928C104.062 156.731 105.459 157.129 108.488 158.333C102.655 158.354 96.8289 158.668 91.0034 158.938C88.7861 159.044 86.5681 159.132 84.3494 159.202C84.248 158.576 84.1643 158.012 83.8723 157.438Z" fill="#FEFEFE"/>
<path d="M77.6567 197.113L77.7539 157.576L82.1728 157.591L82.197 184.525L82.2473 193.173C82.2578 194.617 82.3352 196.095 82.2659 197.535C82.2546 197.767 82.2376 197.864 82.1094 198.054C81.9097 198.127 81.7072 198.191 81.502 198.246C80.0918 198.628 78.8342 197.781 77.6567 197.113Z" fill="#FEFEFE"/>
<path d="M58.4798 161.07C58.3763 161.082 58.1966 161.104 58.097 161.1C57.9239 161.093 57.783 161.076 57.6678 160.941C57.2313 160.431 57.4732 159.284 57.5213 158.657C57.5694 158.657 57.6177 158.655 57.6658 158.656C57.8887 158.659 58.1773 158.64 58.3279 158.823C58.7654 159.354 58.5306 160.429 58.4798 161.07Z" fill="#666666"/>
<path d="M90.3162 160.263C96.3313 160.231 102.351 159.825 108.369 159.727C111.303 159.738 112.402 160.134 115.157 161.076L97.0764 161.86C95.0461 161.938 93.0154 161.998 90.9841 162.04C90.8784 161.333 90.7463 160.847 90.3162 160.263Z" fill="#FEFEFE"/>
<path d="M84.4277 160.772C85.3618 160.765 86.2956 160.746 87.229 160.713L87.8281 160.68C88.2761 160.652 88.5693 160.607 88.9812 160.81C89.2424 161.185 89.227 161.371 89.2439 161.829C89.3455 164.618 89.2578 167.435 89.2656 170.229L89.3013 187.757L89.3218 197.69C89.3254 199.227 89.4663 200.912 89.2947 202.432C89.2654 202.69 89.2251 202.816 88.9824 202.955C88.4263 203.272 87.522 203.039 86.9644 202.852C86.0869 202.43 85.2749 201.939 84.4614 201.405L84.4277 160.772Z" fill="#FEFEFE"/>
<path d="M107.641 162.811C110.034 162.545 112.512 162.538 114.921 162.425C115.565 162.375 116.216 162.359 116.861 162.329L116.859 203.124C114.266 203.474 111.641 203.576 109.038 203.835L107.609 204C107.439 199.77 107.645 195.468 107.644 191.232L107.641 162.811Z" fill="#FEFEFE"/>
<path d="M90.7007 163.586C93.1516 163.553 95.6162 163.391 98.064 163.259C99.0044 163.174 99.9761 163.202 100.921 163.184C101.071 177.089 100.882 191.004 100.935 204.911C98.4241 205.25 95.8794 205.394 93.3542 205.597L90.6868 205.804C90.5676 201.587 90.6819 197.329 90.6743 193.106L90.7007 163.586Z" fill="#FEFEFE"/>
<path d="M104.656 165.03C103.958 165.126 103.098 165.374 102.445 165.065C102.24 164.733 102.292 164.519 102.292 164.134C103.081 164.333 103.839 164.546 104.597 164.845L104.656 165.03Z" fill="#FEFEFE"/>
<path d="M204.784 191.72C203.843 191.877 202.769 192.177 201.837 191.924C198.522 191.022 195.25 189.7 191.969 188.655C180.765 185.084 169.655 181.225 158.419 177.748C150.343 175.237 142.239 172.818 134.108 170.492C130.854 169.556 127.633 168.538 124.391 167.565C122.406 166.969 120.322 166.481 118.398 165.716C118.171 165.366 118.222 165.066 118.204 164.655C120.218 165.377 122.381 165.833 124.442 166.422C129.711 167.928 135.015 169.34 140.269 170.889C147.296 172.96 154.42 174.822 161.407 177.008C169.337 179.489 177.175 182.315 185.076 184.892L196.605 188.601C199.344 189.488 202.299 190.343 204.877 191.636L204.784 191.72Z" fill="#FEFEFE"/>
<path d="M137.144 165.882C137.603 165.626 138.083 165.41 138.559 165.186C143.499 166.174 148.395 167.56 153.291 168.758C163.623 171.292 173.967 173.775 184.324 176.205L212.15 182.518L220.201 184.436C221.958 184.852 223.948 185.157 225.605 185.881C225.157 186.186 224.667 186.435 224.193 186.696C223.783 186.896 223.531 186.974 223.073 186.9C221.507 186.646 219.912 186.131 218.373 185.737L210.883 183.881C204.118 182.227 197.338 180.637 190.544 179.111C179.008 176.461 167.497 173.706 156.012 170.846C151.984 169.853 147.966 168.824 143.958 167.758C141.69 167.162 139.361 166.644 137.144 165.882Z" fill="#FEFEFE"/>
<path d="M102.266 166.475C103.579 166.339 104.904 166.279 106.22 166.192L106.353 166.218C106.652 166.779 106.494 173.379 106.495 174.549L102.521 174.716L102.435 174.689C102.049 174.194 102.263 167.616 102.266 166.475Z" fill="#FEFEFE"/>
<path d="M118.134 173.889C118.123 171.598 118.129 169.307 118.15 167.016C119.104 167.293 120.032 167.607 120.963 167.954C120.962 169.841 120.949 171.727 120.924 173.614C119.996 173.726 119.066 173.818 118.134 173.889Z" fill="#FEFEFE"/>
<path d="M185.226 197.707C180.037 195.553 174.751 193.611 169.513 191.576C160.146 187.876 150.741 184.275 141.297 180.773L127.448 175.571C125.815 174.964 123.851 174.578 122.337 173.754C122.161 173.421 122.244 173.022 122.268 172.658C124.334 173.113 126.392 173.943 128.383 174.655L137.118 177.745C152.054 183.109 166.899 188.713 181.654 194.558C182.639 194.942 187.415 196.557 187.935 197.055L187.699 197.165L185.226 197.707Z" fill="#FEFEFE"/>
<path d="M118.079 178.256L119.19 178.172L121.376 178.047L121.364 186.771L120.159 186.873L118.106 186.902C118.029 184.025 118.079 181.134 118.079 178.256Z" fill="#FEFEFE"/>
<path d="M102.193 179.187C103.225 179.167 104.254 179.106 105.281 179.004C105.658 178.935 106.088 178.951 106.471 178.933L106.488 187.735C105.543 187.819 104.599 187.844 103.65 187.869L102.19 187.861L102.193 179.187Z" fill="#FEFEFE"/>
<path d="M224.502 188.207C225.235 187.682 226.035 187.357 226.857 186.999L227.051 187.137C227.185 187.899 227.111 188.743 227.101 189.518C226.327 189.841 225.547 190.149 224.761 190.444C224.31 189.927 224.486 188.864 224.502 188.207Z" fill="#FEFEFE"/>
<path d="M121.312 189.586C120.64 189.32 119.951 188.787 119.332 188.401C119.909 188.409 120.694 188.213 121.202 188.503C121.432 188.842 121.346 189.2 121.312 189.586Z" fill="#FEFEFE"/>
<path d="M104.258 191.273C103.657 191.386 102.98 191.615 102.407 191.379C102.156 191.038 102.234 190.652 102.253 190.252C102.708 190.451 104.062 190.888 104.258 191.273Z" fill="#FEFEFE"/>
<path d="M118.047 191.385C119.048 191.241 120.072 191.184 121.08 191.091C121.167 191.124 121.22 191.214 121.283 191.282C121.467 193.598 121.451 197.154 121.201 199.462C120.229 199.667 119.283 199.761 118.292 199.835L118.107 199.695C117.813 197.727 118.042 193.574 118.047 191.385Z" fill="#FEFEFE"/>
<path d="M102.197 192.881L104.596 192.677C105.199 192.594 105.841 192.6 106.45 192.568L106.457 201.157C105.604 201.196 104.758 201.305 103.911 201.402L102.254 201.541C101.949 199.096 102.188 195.44 102.197 192.881Z" fill="#FEFEFE"/>
<path d="M202.813 193.494C203.791 193.252 204.795 193.096 205.786 192.914C205.98 192.879 206.082 192.885 206.274 192.909C206.613 193.462 206.435 194.479 206.404 195.114C205.365 195.368 204.321 195.602 203.273 195.815L202.943 195.882C202.563 195.456 202.787 194.062 202.813 193.494Z" fill="#FEFEFE"/>
<path d="M186.28 198.848C187.168 198.638 188.045 198.373 188.923 198.125C189.087 198.138 189.115 198.191 189.243 198.288C189.4 198.993 189.322 199.738 189.298 200.456C188.47 200.694 187.641 200.866 186.795 201.029L186.411 201.023C186.064 200.471 186.244 199.489 186.28 198.848Z" fill="#FEFEFE"/>
<path d="M119.479 201.106L120.753 200.832L121.144 200.809C121.326 201.032 121.34 201.161 121.404 201.436C121.297 201.735 121.311 201.771 121.046 201.936L120.577 201.802L119.479 201.106Z" fill="#FEFEFE"/>
</g>
<defs>
<clipPath id="clip0_6001_1110">
<rect width="250" height="250" fill="white"/>
</clipPath>
</defs>
</svg>
