<svg width="100" height="100" viewBox="0 0 100 100" fill="none" xmlns="http://www.w3.org/2000/svg">
<path d="M29.1024 10.1574C29.1018 9.06886 28.7584 7.563 30.1655 7.27587C31.4309 7.25935 34.7452 7.1089 35.8797 7.33681C37.1215 7.5863 36.7518 9.24591 36.7668 10.1574C39.5494 11.3384 42.5524 13.6896 43.3121 16.7102C45.7545 17.0824 46.6575 15.6813 46.6305 19.2332C47.5578 19.3367 48.5217 19.2895 49.4547 19.2892L54.1477 19.2834C55.0426 19.2825 56.0409 19.1923 56.9145 19.3984C60.2299 20.1807 60.0553 23.0487 60.051 25.6454L60.0471 29.867C59.4344 30.2635 58.1383 32.1663 57.6161 32.8325C57.7305 32.0793 57.6219 31.2167 57.619 30.4493L57.6139 25.2856C57.5817 20.7836 56.6368 21.7493 52.5907 21.7504C50.6102 21.7508 48.6078 21.6862 46.6305 21.7518C46.6662 24.6528 46.1985 24.3991 43.508 24.3946C43.1741 24.9268 43.0453 25.5889 42.7213 26.1417C40.6713 29.6376 39.5936 29.6573 36.6803 31.4471L36.62 31.4848C36.6225 32.3502 36.7983 33.8036 35.7084 34.1108C35.2137 34.2502 31.2452 34.2006 30.3869 34.1678C28.811 34.1077 29.0157 32.6762 29.1024 31.4848C26.57 29.8963 25.1905 29.6987 23.3303 26.6848C23.069 26.2614 22.4662 24.8516 22.2196 24.6217C21.8965 24.3206 20.2991 24.5456 19.6028 24.2698C19.0037 23.5342 19.2051 22.5268 19.1892 21.6393L19.0867 21.6377L12.2849 21.6407C8.8132 21.6354 7.78222 20.7397 7.80011 24.576L7.804 73.1206L7.80224 82.4092C7.80429 83.3213 7.82088 84.0997 8.77443 84.5102C9.42164 84.7889 14.4793 84.6575 15.6735 84.6569L41.1366 84.6563C42.1463 84.6565 43.2129 84.5891 44.2164 84.6766C45.3096 84.7721 45.6448 86.0499 44.8512 86.7887C44.3225 87.2809 39.3666 87.003 38.4018 87.003L15.2327 87.0053C12.1071 87.0057 5.84388 88.0436 5.44144 83.6061C5.35566 82.6604 5.41511 81.662 5.41523 80.7104L5.41832 26.676C5.41771 24.029 4.80168 19.9633 8.40277 19.3013C9.07523 19.1777 9.81287 19.2294 10.4956 19.2302L16.8018 19.2302C17.5985 19.2219 18.393 19.1853 19.1892 19.2332C18.9917 16.1393 19.9731 16.7684 22.5553 16.7102C23.328 13.9294 26.3731 10.8223 29.1024 10.1574ZM31.4963 9.72085C31.5254 12.8967 31.3969 11.5704 28.8619 12.931C27.2547 13.7936 25.9555 15.2347 25.151 16.8611C24.6266 17.9214 24.7069 19.1731 23.2731 19.1837C22.7037 19.188 22.1485 19.1681 21.5813 19.2332V21.9979C24.1987 22.2376 23.8323 21.6579 24.767 24.0213C25.5494 25.9991 26.9313 27.5436 28.7907 28.5526C31.3032 29.9165 31.5985 28.7594 31.4963 31.6901H34.2778L34.326 31.619C33.9684 28.8538 35.019 29.5752 37.0784 28.4573C38.5536 27.6565 39.8924 26.2743 40.6877 24.7983C42.1237 22.1338 40.6674 21.9051 44.2174 21.9979C44.2315 21.0766 44.2207 20.1545 44.2174 19.2332L44.1231 19.2186C41.4313 18.8181 42.1817 19.8702 40.9682 17.3124C40.1237 15.5322 38.7678 13.959 37.0354 12.9989C34.535 11.6132 34.3496 12.717 34.2778 9.72085C33.3522 9.71847 32.4215 9.69509 31.4963 9.72085Z" fill="white"/>
<path d="M56.9868 43.2581C56.9973 42.2216 57.0041 41.1972 57.1381 40.1669C58.0157 33.4197 63.2155 29.199 69.695 28.3689C70.0463 28.3202 70.4592 28.3564 70.8155 28.3609C78.8561 28.4603 84.8006 35.4202 84.6856 43.2581C86.2743 43.2769 87.1565 44.3574 85.7571 45.5474C84.661 45.7929 83.3155 45.5525 82.1289 45.7015C81.943 52.8577 82.8065 53.6806 78.3696 59.4308C78.3905 60.1036 78.3721 60.7822 78.3696 61.4556C79.8871 61.4568 82.7416 64.0011 83.7428 65.4525C86.3217 67.0347 90.2202 68.2421 92.3537 70.2564C95.035 72.7878 94.6789 75.412 94.6793 78.6986L94.6791 89.2077C94.6768 92.9911 94.2368 92.4798 90.8787 92.4808L71.9487 92.48H47.6649C46.7036 91.5257 47.1389 87.8368 47.1489 86.4017L47.142 77.2706C47.0809 71.0814 47.7899 70.6798 52.7465 68.098L57.8661 65.4427L57.8618 65.4525C58.4391 64.1755 62.0235 61.6863 63.1852 61.4556C63.219 60.8331 63.1828 60.1968 63.1852 59.5726C62.9155 59.1353 62.5721 58.7751 62.2463 58.3818C59.1828 54.6835 59.0629 50.3052 59.1092 45.7015C58.3118 45.6941 55.77 45.9976 55.2069 45.3878C54.1246 44.2161 55.303 43.0669 56.9868 43.2581ZM69.8823 30.7661C62.7965 31.8156 59.4494 36.313 59.4715 43.2581C60.8282 43.18 62.2012 43.2574 63.5608 43.2581H71.9487H82.2766C82.3186 36.5136 76.8899 30.0849 69.8823 30.7661ZM74.6584 45.7015L65.8762 45.7025C64.4494 45.7029 62.9969 45.7661 61.5735 45.7015C61.5674 51.5054 61.643 56.4025 67.4561 59.4308C72.536 61.4087 77.2381 58.8929 79.1502 53.9201C79.7932 52.2476 79.7401 50.5927 79.7393 48.8378L79.7368 45.7015C79.0645 45.6579 78.3883 45.6949 77.7149 45.6995L74.6584 45.7015ZM65.5471 61.0531C65.5225 61.5507 65.4916 62.0525 65.5471 62.549C66.2379 64.0257 69.4543 66.4673 70.7946 67.9691L72.8485 66.1533C73.3651 65.6884 73.8702 65.1937 74.427 64.7777C74.7694 64.1777 75.501 63.5462 76.0766 63.1626V61.2189L76.0139 61.2406C75.3274 61.4831 74.7096 61.8706 74.0125 62.1005C71.4006 62.9615 67.8145 62.7751 65.5471 61.0531ZM63.1852 64.1105C62.3967 64.5992 60.9352 65.2894 60.5096 66.1177L60.5489 66.1284L60.5457 66.2201C60.8565 66.8482 63.3653 70.039 63.9086 70.557C64.0739 70.4763 64.2721 70.4033 64.4235 70.3017C65.3668 69.6144 66.5914 68.7273 67.4561 67.9691C66.476 67.0882 64.2168 64.6993 63.1852 64.1105ZM78.6651 64.1105C77.5768 64.999 75.3139 66.8884 74.427 67.9691C75.1616 68.6962 76.6547 69.7197 77.5662 70.3017L77.9229 70.557L80.2209 67.554C80.6077 67.0519 81.0637 66.5486 81.3928 66.0099C80.5065 65.3562 79.5106 64.8081 78.6651 64.1105ZM58.653 67.846C57.0758 68.5183 51.9994 71.007 50.7522 72.0492C49.345 73.2249 49.5088 75.0038 49.5098 76.6476L49.5133 90.0798C51.5039 90.0784 53.5092 90.0243 55.4983 90.0798C55.4366 86.9476 55.4793 83.7968 55.4983 80.6636C56.2787 80.6488 57.084 80.6105 57.8618 80.6636L57.8633 86.8158C57.8647 87.9029 57.9045 88.9939 57.8618 90.0798H75.1619C78.017 90.0796 80.8895 90.0107 83.7428 90.0798V80.6636C84.5366 80.6593 85.3405 80.6302 86.133 80.6636V90.0798H91.3211H92.2377C92.2944 86.7585 92.2346 83.4261 92.2354 80.1036L92.2403 77.0831C92.2504 72.3454 91.3752 72.237 87.8239 70.3163C86.2659 69.4738 84.6828 68.4796 83.0278 67.846C82.5875 68.2884 82.2694 68.8232 81.8989 69.3206L79.944 71.8966C78.1159 74.2929 77.7043 73.4115 75.3453 71.6921C74.4481 71.038 73.4321 70.4568 72.6565 69.6552C72.4477 69.8568 72.2862 70.065 72.1196 70.3017V87.4005C71.3116 87.3995 70.5028 87.3906 69.695 87.4005C69.744 86.3019 69.6979 85.2058 69.6959 84.1068L69.6973 72.9351C69.6994 72.0636 69.7522 71.1697 69.695 70.3017L68.9957 69.8599C67.925 70.5618 66.8985 71.4206 65.8815 72.2009C63.1371 74.3064 63.0946 73.605 61.2207 71.1421L59.2264 68.5515C59.0993 68.3878 58.8209 67.9333 58.653 67.846Z" fill="white"/>
<path d="M49.8449 41.1762C47.7193 41.2207 45.5825 41.1774 43.4558 41.1772L21.1796 41.1748C20.0478 41.1756 16.2706 41.4168 15.3938 41.0088C14.2838 40.4924 14.6691 39.0799 15.8087 38.7209L45.7841 38.7198C47.0368 38.7192 48.3058 38.674 49.5562 38.7229C50.8855 38.7748 51.015 40.7114 49.8449 41.1762Z" fill="white"/>
<path d="M49.845 46.2392C49.0726 46.3655 47.9737 46.2372 47.1552 46.2372L24.4425 46.2384C21.8052 46.2382 19.1635 46.2704 16.5266 46.2378C14.3584 46.211 14.0639 44.3979 15.8088 43.7954L46.0333 43.796C47.1081 43.796 48.2327 43.7259 49.3028 43.8022C50.7732 43.9071 51.3798 45.6345 49.845 46.2392Z" fill="white"/>
<path d="M25.0996 61.0532C25.0999 59.3114 24.4847 55.3147 26.6648 54.4832C27.7679 54.0625 27.5222 55.8873 27.5183 56.4557L27.5046 58.9424C27.4939 63.6916 27.246 63.3889 22.2269 63.4006L18.713 63.4073C17.0052 63.4078 14.7966 63.5746 14.4814 61.3174C14.2908 59.9518 14.4063 57.8559 14.4083 56.4157C14.4114 54.2278 13.6432 50.2285 16.7715 49.8932C17.2107 49.8465 17.6686 49.8867 18.1104 49.8897L23.9066 49.8922C24.8349 49.8926 26.1222 49.6282 26.7404 50.4942C27.833 50.6565 28.3966 50.9102 28.366 52.0963C27.7007 53.3471 25.2415 55.2733 24.0894 56.4133C23.1287 57.3637 21.6408 59.6942 20.1636 58.8666C18.882 58.1485 16.8252 55.7395 19.324 55.1313C20.0302 55.3219 20.4505 55.7658 20.965 56.2479C21.9359 54.9196 24.23 52.9959 25.4755 51.7352C24.2191 52.528 22.8839 52.2979 21.4517 52.2971L16.7715 52.2951V56.0946C16.7741 57.7471 16.7534 59.4006 16.7715 61.0532H25.0996Z" fill="white"/>
<path d="M52.426 56.7875C51.9053 56.9039 51.2807 56.7963 50.744 56.7916L37.3727 56.7854C35.8072 56.7848 34.2236 56.8397 32.66 56.7897C30.8797 56.7328 30.6018 54.775 32.2373 54.3678C32.8885 54.3031 33.6178 54.3664 34.2756 54.3664L38.7547 54.3672C40.4293 54.3674 51.9113 54.1463 52.6197 54.4518C53.8068 54.9633 53.3828 56.3334 52.426 56.7875Z" fill="white"/>
<path d="M52.1146 62.06C50.8749 62.1008 49.6206 62.061 48.3792 62.0608L35.261 62.06C34.3761 62.06 33.465 62.1116 32.5835 62.0582C30.6735 61.9428 30.8376 59.7817 32.5179 59.5721C32.9634 59.4891 33.5622 59.5703 34.0255 59.5705L47.0163 59.5713C47.9835 59.5715 52.1968 59.349 52.8417 59.792C53.9077 60.5242 53.2446 61.9338 52.1146 62.06Z" fill="white"/>
<path d="M25.1003 77.488C25.1016 76.5296 24.9473 72.88 25.2739 72.2398C25.6288 71.5439 27.3087 70.0599 27.4772 71.2582C27.6065 72.1779 27.5126 73.7712 27.5118 74.7558C27.5088 78.1128 27.9942 79.8574 24.1442 79.8371L18.304 79.8369C14.9775 79.8359 14.4067 79.505 14.4053 75.7962L14.407 72.4988C14.4096 69.8845 13.5761 66.475 17.2059 66.3335C19.9577 66.2396 22.7243 66.4205 25.4762 66.3335C25.6967 66.466 25.9006 66.6292 26.1077 66.7816C27.1024 66.2423 28.5411 66.6523 28.3581 68.0236C28.2522 68.8179 24.7405 72.0666 24.0936 72.7087C23.4401 73.3574 21.7801 75.5486 20.6889 75.2947C19.9712 75.1277 18.4034 73.388 18.0193 72.7314C18.0006 71.9542 18.3829 71.1115 19.3175 71.2111C20.0256 71.2867 20.5446 72.0095 20.9657 72.5201C22.1971 71.2251 23.4256 69.9285 24.7317 68.7082C23.9016 68.7486 23.0561 68.7085 22.2243 68.7076L16.7722 68.7082V73.5232V77.488L22.3024 77.4878C23.2319 77.4847 24.1729 77.4296 25.1003 77.488Z" fill="white"/>
<path d="M31.8374 72.9516C31.023 72.0481 30.8484 70.8479 32.2378 70.5569C32.6589 70.5196 33.1132 70.5528 33.5376 70.554L36.1392 70.5596C37.9585 70.5614 39.805 70.4807 41.6212 70.5548C43.1992 70.6192 43.397 72.5399 41.9439 72.9516C41.5109 72.987 41.065 72.9571 40.6306 72.9551L38.1781 72.9522C36.0681 72.951 33.9451 73.0067 31.8374 72.9516Z" fill="white"/>
<path d="M31.8376 75.5623C32.0645 75.543 32.2911 75.5555 32.5184 75.5623C33.5557 75.5617 38.32 75.4158 38.8997 75.7717C39.8704 76.368 39.4155 77.8369 38.196 77.943L34.4186 77.9469C33.4483 77.9467 31.1424 78.2846 31.1993 76.7258C31.2186 76.1942 31.4686 75.9073 31.8376 75.5623Z" fill="white"/>
</svg>
