<svg width="26" height="26" viewBox="0 0 26 26" fill="none" xmlns="http://www.w3.org/2000/svg">
<path fill-rule="evenodd" clip-rule="evenodd" d="M4.0625 0H21.9375C24.1812 0 26 1.81884 26 4.0625V21.9375C26 24.1812 24.1812 26 21.9375 26H4.0625C1.81884 26 0 24.1812 0 21.9375V4.0625C0 1.81884 1.81884 0 4.0625 0ZM13.5621 9.75599C12.3978 10.2403 10.0708 11.2426 6.58118 12.763C6.01452 12.9883 5.71767 13.2088 5.69065 13.4243C5.64498 13.7886 6.10118 13.9321 6.72241 14.1274C6.80691 14.154 6.89447 14.1815 6.98423 14.2107C7.59543 14.4094 8.41759 14.6418 8.845 14.6511C9.23271 14.6594 9.66542 14.4996 10.1432 14.1715C13.4037 11.9706 15.0867 10.8582 15.1924 10.8342C15.2669 10.8173 15.3703 10.796 15.4402 10.8582C15.5102 10.9204 15.5034 11.0382 15.4959 11.0698C15.4508 11.2625 13.66 12.9274 12.7333 13.7889C12.4444 14.0575 12.2394 14.248 12.1975 14.2915C12.1037 14.389 12.0081 14.4812 11.9161 14.5698C11.3483 15.1172 10.9225 15.5277 11.9397 16.198C12.4285 16.5201 12.8197 16.7865 13.2099 17.0523C13.6361 17.3425 14.0612 17.632 14.6111 17.9925C14.7513 18.0843 14.8851 18.1797 15.0154 18.2726C15.5114 18.6262 15.957 18.9439 16.5074 18.8932C16.8273 18.8638 17.1577 18.563 17.3255 17.666C17.7221 15.546 18.5016 10.9526 18.6817 9.05975C18.6975 8.89392 18.6776 8.68168 18.6617 8.58851C18.6458 8.49534 18.6124 8.3626 18.4913 8.26433C18.3479 8.14796 18.1265 8.12342 18.0275 8.12508C17.5772 8.13309 16.8865 8.37328 13.5621 9.75599Z" fill="#666666"/>
</svg>
