<svg width="100" height="100" viewBox="0 0 100 100" fill="none" xmlns="http://www.w3.org/2000/svg">
<path d="M5.32332 90.6164C5.39807 89.2517 5.33143 87.6904 5.32549 86.3099L5.32324 14.2849C5.32354 12.6037 5.37959 10.908 5.32332 9.22852C5.89641 9.33047 6.61934 9.2325 7.21137 9.23121L94.6713 9.22852L94.6717 73.5552C94.6717 75.098 94.7541 90.2584 94.6295 90.5853L94.5326 90.6164H5.32332ZM7.32381 11.1812L7.3242 44.9144C7.32447 46.2664 7.39176 47.6505 7.32381 48.9986L14.3873 48.9972C15.2978 48.9968 16.9794 48.9052 17.8219 49.0261C18.5943 49.1371 18.8273 50.2658 18.2623 50.757C17.7926 51.1652 15.2809 50.9767 14.5607 50.9767L7.32381 50.9765C7.24836 55.1406 7.32379 59.3214 7.32387 63.4869L7.32381 88.623H57.4293L57.4264 76.6929C57.4256 76.0968 57.2459 74.8494 57.7121 74.3839C58.0459 74.0505 58.7284 74.0191 59.045 74.3939C59.6354 75.0923 59.3039 77.3605 59.3237 78.2468C59.3989 81.6132 59.4317 85.2548 59.3483 88.623C62.9998 88.623 66.6635 88.5587 70.3133 88.623L70.3119 74.091C70.3116 72.9341 69.9139 71.5914 71.3162 71.2218C71.7623 71.3402 71.9584 71.4814 72.2162 71.8609C72.367 73.5003 72.268 75.2224 72.2655 76.8722C72.7631 76.4638 73.2067 75.9874 73.6619 75.5328L79.5364 69.722C80.1412 69.1289 80.7879 68.5732 81.3602 67.9482L74.8114 67.9492C73.7059 67.9496 70.3399 68.4988 70.3928 66.9578C70.4414 65.5365 72.5395 66.0201 73.4723 66.0218L92.6748 66.014L92.6752 45.8357C92.6754 42.0029 92.7465 38.1558 92.6748 34.3242L73.9428 34.3232C73.0399 34.3285 70.3959 34.7673 70.4752 33.2718C70.5487 31.8857 73.5153 32.3658 74.3612 32.3718L78.9789 32.3748C79.9096 32.3767 80.8506 32.4158 81.7797 32.373C81.2918 31.8168 80.7297 31.3158 80.2059 30.7923C77.5873 28.1771 74.9682 25.5246 72.2655 22.999L72.2705 26.4912C72.2707 27.1355 72.3352 27.855 72.2162 28.4855C70.2508 30.724 70.3121 26.5253 70.3119 25.5718L70.3133 11.1812H65.5516L46.8518 11.1791C46.0623 11.1771 45.2539 11.1367 44.467 11.1812C44.4319 12.3263 44.4635 13.4789 44.4653 14.6248L44.467 40.8201L56.9717 40.8142C57.895 40.8058 59.1768 40.4568 59.3149 41.7175C59.561 43.9642 59.2653 46.8722 59.3483 49.2252H70.3133L70.31 44.9345C70.3094 44.231 70.258 43.4859 70.3133 42.7863C69.1901 42.7894 67.8284 42.9132 66.7438 42.6763C65.8323 41.9177 66.1389 40.8884 67.3971 40.8271C68.4397 40.7765 69.5055 40.8191 70.5502 40.8197L82.4715 40.8171C83.4399 40.8164 84.4344 40.7701 85.4002 40.8232C86.9412 40.908 86.4756 41.9502 86.4762 43.2839L86.4748 59.098L62.0881 59.0961C61.1881 59.0943 60.2442 59.0332 59.3483 59.098V66.014L61.9207 66.0064C62.6934 66.005 64.5151 65.8045 64.4073 67.0429C64.3719 67.449 64.11 67.7203 63.7953 67.9482C61.6746 67.9865 59.5508 67.9246 57.4293 67.9482V42.6763C55.953 42.7384 54.4557 42.6761 52.9768 42.6755L42.5161 42.6763L42.517 29.1109C42.5172 26.8318 42.5635 24.5423 42.5161 22.2644H15.6268C15.5763 23.7433 15.6267 25.2406 15.6266 26.7216L15.6292 38.5607C15.6296 39.2392 15.6879 39.9724 15.5503 40.6382C14.9727 41.397 14.3153 41.2912 13.672 40.6382C13.61 36.5048 13.6743 32.3605 13.6741 28.2259L13.6706 23.213C13.6684 22.2109 13.1879 20.4025 14.5832 20.3002C15.6449 20.2222 16.7569 20.2769 17.8243 20.2765L42.5161 20.2777C42.4571 17.2509 42.5161 14.2096 42.5161 11.1812C38.8078 11.2199 35.0955 11.181 31.387 11.1808L7.32381 11.1812ZM72.2655 11.1812C72.2967 12.2216 72.2666 13.2668 72.266 14.3078L72.2655 20.2777C74.7055 22.5336 77.009 24.9378 79.3889 27.2568L82.7047 30.5103C83.3157 31.114 83.9823 31.707 84.5227 32.373C85.2344 32.4396 85.9676 32.3777 86.683 32.3748L90.919 32.3677C91.4801 32.367 92.1233 32.3023 92.6748 32.373C92.7467 31.7041 92.6826 30.9748 92.678 30.2998L92.6746 16.2949C92.6746 14.5917 92.645 12.8838 92.6748 11.1812L79.1227 11.1801C76.8434 11.18 74.5428 11.1143 72.2655 11.1812ZM72.5946 42.7863C72.4563 42.7906 72.3184 42.7898 72.1817 42.8107C72.0987 44.8496 72.22 47.1525 72.2162 49.2252C73.4133 49.3201 74.936 49.2253 76.1705 49.2248L84.5227 49.2252C84.5535 47.9021 84.6065 46.4998 84.5227 45.1781V42.7863C83.0321 42.8625 81.5219 42.6894 80.0338 42.7863C80.0362 44.082 80.0944 45.4017 80.0338 46.6951C79.3889 47.5742 78.2309 47.5003 78.1106 46.2636C78.0102 45.232 78.1006 43.8511 78.1045 42.7863L74.3873 42.7845C73.7971 42.7841 73.1823 42.7472 72.5946 42.7863ZM59.7592 51.163L59.4188 51.1752C59.2571 51.3818 59.3657 56.4119 59.3483 57.1291C60.5481 57.1619 61.7551 57.1293 62.9557 57.1291H70.0315L70.2157 57.1191C70.4266 56.7046 70.3143 51.9814 70.3133 51.163C69.1459 51.1238 67.969 51.163 66.8002 51.1634L59.7592 51.163ZM72.2162 51.163V57.1291C74.1731 57.1298 76.1504 57.1939 78.1045 57.1291C78.0928 56.4714 78.0028 54.8972 78.1057 54.3359C78.2379 53.614 79.1748 53.0136 79.7526 53.6826C80.27 54.282 80.025 56.3007 80.0338 57.1291H80.6069C81.9073 57.1269 83.2241 57.0783 84.5227 57.1291C84.5223 55.1425 84.4897 53.149 84.5227 51.163C80.5742 51.3777 76.2336 51.1064 72.2162 51.163ZM84.1811 67.9482C83.5971 68.3632 83.1008 68.9765 82.5891 69.4787L74.425 77.488C73.7034 78.1945 72.9252 78.8777 72.2655 79.6422V88.623C75.0905 88.6861 77.9326 88.6226 80.7596 88.623L88.8061 88.6212C90.0543 88.621 91.4401 88.5421 92.6748 88.623L92.6744 74.8328C92.6742 72.5447 92.6063 70.2339 92.6748 67.9482C89.8467 67.947 87.0077 68.0085 84.1811 67.9482Z" fill="white"/>
<path d="M65.8262 34.3242L56.9729 34.3262C55.7618 34.326 53.7809 34.4336 52.6323 34.2578C51.4371 34.0748 51.485 32.8949 52.3817 32.3731L60.5547 32.3737C61.8782 32.3744 65.5946 31.9621 66.4473 32.8334C66.6164 33.5684 66.5079 33.933 65.8262 34.3242Z" fill="white"/>
<path d="M39.9439 82.4702L16.9897 82.4716C14.8794 82.4724 13.7293 83.1081 13.6747 80.7991C13.637 79.2015 13.6727 77.5954 13.6726 75.997L13.6737 66.5202C13.674 65.6317 13.5771 60.371 13.7291 59.9021C13.8139 59.6401 14.0972 59.5267 14.3253 59.4204H40.5187C40.4652 61.3071 40.5189 63.2036 40.5191 65.0919L40.517 80.0478C40.5172 80.7946 40.8494 82.1677 39.9439 82.4702ZM15.6269 61.4208C15.6458 62.53 15.7034 63.6874 15.6269 64.7933H25.5377V61.4208H15.6269ZM27.4902 61.4208C27.4904 62.5444 27.5041 63.6698 27.4902 64.7933H38.5262C38.523 63.671 38.4949 62.5423 38.5262 61.4208L31.102 61.4192C29.9125 61.4187 28.675 61.344 27.4902 61.4208ZM15.6269 66.7478V80.5159C18.9282 80.5171 22.2373 80.569 25.5377 80.5159L25.5387 71.2993C25.5389 69.7907 25.6006 68.2538 25.5377 66.7478H15.6269ZM27.4902 66.7478C27.4051 66.839 27.4324 66.8708 27.4359 66.9925C27.5668 71.4927 27.4898 76.0114 27.4902 80.5159H32.5691L32.5727 77.1835C32.5717 76.2827 32.2982 74.9044 33.6746 74.9864C34.9803 75.0642 34.5281 77.9159 34.5232 78.7476C34.5391 79.3384 34.5383 79.9251 34.5232 80.5159H38.5262L38.5269 71.2829C38.5271 69.7794 38.5963 68.2472 38.5262 66.7478L31.1199 66.7464C29.9209 66.746 28.6853 66.6835 27.4902 66.7478Z" fill="white"/>
</svg>
