<svg width="100" height="100" viewBox="0 0 100 100" fill="none" xmlns="http://www.w3.org/2000/svg">
<path d="M6.58872 50.395C5.85241 50.2055 5.49298 49.8108 5.43972 49.0651C5.37587 48.1712 5.38319 39.8436 5.53823 39.3794C7.09837 37.6221 12.1993 34.2266 14.224 32.6983L47.8543 7.0976C48.468 6.63883 49.124 6.02924 49.8185 5.71239C50.701 5.67705 51.514 6.62442 52.1609 7.12288L60.6096 13.517C63.7053 15.885 67.3207 18.9118 70.5576 21.0167C70.516 19.9133 70.4066 13.8781 70.765 13.336C71.2471 12.6072 73.0193 12.8548 73.759 12.8544L80.9012 12.8506C83.7496 12.8502 83.9642 12.563 83.9625 15.6639L83.9617 19.1115C83.9613 23.1782 83.9195 27.2483 83.9605 31.3143C85.1754 32.1985 94.3449 39.0381 94.4527 39.3893C94.664 40.078 94.6226 47.709 94.55 49.0237C94.4004 51.7311 91.6871 49.1889 90.8451 48.5579L87.1598 45.8081C87.1105 47.5073 87.1586 49.2219 87.1594 50.9229L87.1598 91.7483L91.3603 91.7434C92.0894 91.7426 92.8803 91.6815 93.6025 91.7751C94.4611 91.8864 94.9619 92.8893 94.3062 93.5751C93.7426 94.1647 91.0664 93.9432 90.1351 93.9432L58.2273 93.9444L8.50311 93.9464C7.59372 93.951 5.47462 94.321 5.38682 92.9964C5.27552 91.3171 7.50849 91.7442 8.57811 91.7444L12.9086 91.7483V45.8081C11.569 46.6389 7.71102 50.1624 6.58872 50.395ZM50.0355 8.29661C49.0801 8.9687 48.1576 9.695 47.2262 10.4002L7.7037 40.4372V46.9485C11.2353 44.3678 14.6471 41.6157 18.1252 38.9626L37.8504 23.9942C39.4412 22.786 49.0101 15.2046 50.0355 15.0386C51.0877 15.2763 52.8498 16.9167 53.783 17.6205L87.5949 43.3946C89.1535 44.5858 90.8129 45.688 92.3127 46.9485C92.3933 44.7891 92.3101 42.6003 92.3127 40.4372C91.601 39.9598 90.9275 39.3719 90.2457 38.8487L51.8201 9.64073C51.4629 9.36553 50.398 8.33047 50.0355 8.29661ZM72.7088 15.0386V22.6528C73.4896 23.2891 81.1658 29.4005 81.79 29.5782L81.7926 16.8676C81.7939 16.2588 81.823 15.6467 81.79 15.0386C80.7828 15.0015 79.765 15.0376 78.7564 15.0381L72.7088 15.0386ZM50.0355 17.6075C49.3424 18.0398 48.7078 18.5602 48.0539 19.0487L20.7037 39.8731C18.9887 41.1692 16.6632 42.7626 15.1255 44.2344C15.0633 45.9632 15.1254 47.7098 15.1258 49.4413L15.1255 91.7483H50.5004H84.9855L84.9859 49.4235C84.9861 47.6983 85.0373 45.9579 84.9855 44.2344C83.1685 42.3602 78.6285 39.3325 76.4305 37.6811L53.8846 20.4817L51.4168 18.6545C50.9564 18.3158 50.4598 17.9907 50.0355 17.6075Z" fill="white"/>
<path d="M49.1812 38.2385C48.7318 37.5278 48.6998 33.3948 49.0322 32.7835C49.2045 32.4667 49.4986 32.3766 49.8191 32.2757C50.2588 32.2684 50.739 32.4108 50.9603 32.826C51.2152 33.3034 51.2011 37.3348 50.9353 38.2385C50.7226 38.3835 50.4298 38.4573 50.1879 38.5465C49.7732 38.5671 49.5203 38.4555 49.1812 38.2385Z" fill="white"/>
<path d="M60.6002 41.0756C59.6955 41.2397 58.7855 40.3469 59.3263 39.4561C59.7468 38.7635 61.7658 36.5866 62.6642 36.3801C63.1912 36.2243 63.5705 36.2354 63.8931 36.7438C64.5207 37.7327 61.3736 40.6049 60.6002 41.0756Z" fill="white"/>
<path d="M36.2959 37.3909C36.4369 36.8508 36.6254 36.5891 37.1742 36.3803C38.2574 36.2959 40.6094 39.0551 40.8676 39.659C41.1354 40.2848 40.5734 40.8463 40.0449 41.0758C38.7361 41.3348 36.5061 38.2184 36.2959 37.3909Z" fill="white"/>
<path d="M45.0688 84.7842C41.3717 84.925 40.744 84.2522 40.7465 80.537L40.7508 76.7065C40.7586 70.4206 39.5946 70.3379 36.5116 65.9229C32.7118 60.4815 33.2805 52.6831 37.3995 47.5692C40.261 44.0165 44.3051 42.0801 48.7901 41.601C62.0883 40.7502 70.9188 55.7614 62.9065 66.7913C59.8305 71.0256 59.2391 72.1897 59.2399 77.3372L59.2424 80.8838C59.2459 84.7663 58.893 84.7952 55.0983 84.7842C54.9303 88.767 55.4631 88.893 51.0737 88.8668L47.242 88.8709C44.2168 88.8694 45.0639 87.7385 45.0688 84.7842ZM49.1807 43.7504C44.6213 44.4377 41.5497 45.7008 38.6364 49.6622C35.1161 54.4497 35.3842 61.0284 38.9739 65.6541C40.9799 68.2393 42.8612 70.6819 42.8733 74.2245C44.9149 74.2928 46.9801 74.2241 49.0246 74.2245L49.027 67.0227C49.0272 63.3706 49.6633 64.703 47.052 63.5217C43.1014 61.7348 41.5674 58.0917 41.5977 53.9932C41.602 53.4108 41.4928 52.3852 42.1877 52.1352C43.5862 51.6321 49.0639 54.025 49.1807 55.3665C49.8819 55.9729 49.9821 56.4403 50.5004 57.0942C51.9461 55.7571 53.2004 54.9413 55.1524 54.504C56.0381 54.3055 57.2049 53.9754 57.7643 54.9155C57.819 59.404 55.8764 63.3682 51.0737 64.2305V74.2245C52.7651 74.2413 55.508 74.0293 57.0799 74.2245C57.5018 71.7196 58.3026 69.2 59.8539 67.1461C60.6207 66.1309 61.4643 65.245 62.084 64.1188C66.6901 55.7481 61.3086 45.4602 52.0764 43.934C51.1436 43.7799 50.1235 43.6616 49.1807 43.7504ZM43.7573 54.6731C43.9973 58.217 45.4821 60.6584 48.8313 61.9133C48.8817 61.8702 48.8748 61.8942 48.8786 61.8551C49.7528 58.5243 47.1649 55.02 43.7573 54.6731ZM55.4205 56.7582C53.086 57.1342 51.4715 59.1297 51.1336 61.3946C51.1053 61.5842 50.9868 61.8528 51.0737 62.0358C53.1096 61.4633 55.5821 58.9848 55.4373 56.7829L55.4205 56.7582ZM43.3467 76.3645C42.4883 76.4495 42.9608 77.45 42.8733 78.4666H56.7991L56.9955 78.4409C57.1955 78.1624 57.0793 76.7774 57.0799 76.3645C52.5053 76.343 47.9198 76.4458 43.3467 76.3645ZM42.8733 80.5663C42.8621 81.1045 42.7327 82.0667 43.0313 82.5237C43.4901 82.7868 55.4286 82.7225 57.0799 82.6641V80.5663H42.8733ZM47.6555 84.7842C46.8678 84.8618 47.2159 85.8905 47.2233 86.7643C49.0467 86.792 50.8737 86.7633 52.6975 86.7643C53.2436 86.7219 52.9784 85.2799 52.9791 84.7842H47.6555Z" fill="white"/>
<path d="M29.0648 45.8084C28.9772 44.9336 29.0613 44.4285 29.991 44.2348C30.7834 44.0615 32.6785 46.2619 33.1932 46.8762C33.8731 47.6875 33.6826 48.5076 32.6797 48.8201C31.5594 48.9319 29.8293 46.5815 29.0648 45.8084Z" fill="white"/>
<path d="M66.3379 47.867C66.6053 46.7652 69.0828 44.3105 69.9813 44.2348C70.6346 44.0885 71.4873 44.734 71.1947 45.4332C70.8752 46.1973 68.5424 48.6904 67.6504 49.0215C66.8662 48.9893 66.5787 48.5836 66.3379 47.867Z" fill="white"/>
<path d="M25.184 57.806C25.4592 57.4873 25.6432 57.3644 26.0583 57.2756C26.9883 57.2717 29.5938 57.1131 30.2909 57.5012C31.2801 58.0519 30.7118 59.2385 29.7954 59.4308C29.1452 59.4764 26.5946 59.508 26.0442 59.4098C25.1829 59.2557 25.0438 58.5664 25.184 57.806Z" fill="white"/>
<path d="M73.3759 59.4305C72.6431 59.4262 70.7587 59.5399 70.1636 59.4348C68.7632 59.1876 68.8739 57.4319 70.5573 57.2753C71.3747 57.2718 73.198 57.1778 73.9146 57.3405C75.1423 57.6194 75.4899 59.5358 73.3759 59.4305Z" fill="white"/>
<path d="M66.1703 69.1852C66.1035 68.3918 66.3259 67.8793 67.167 67.7891C68.1277 67.8697 70.9088 70.9029 71.0002 71.4164C71.1181 72.0799 70.5894 72.5775 69.9814 72.7021C69.0369 72.6809 66.6492 69.9951 66.1703 69.1852Z" fill="white"/>
<path d="M29.9912 73.0056C28.9238 72.83 28.4417 72.0687 29.1392 71.1664C29.7365 70.3933 31.4531 68.3783 32.4386 68.2451C32.6298 68.1879 32.8705 68.2259 33.065 68.2451C33.4781 68.6115 33.5556 69.0035 33.5755 69.5347C33.131 70.3556 30.9622 72.7701 29.9912 73.0056Z" fill="white"/>
</svg>
