<svg width="100" height="100" viewBox="0 0 100 100" fill="none" xmlns="http://www.w3.org/2000/svg">
<path d="M5.8002 8.39806C6.04251 8.18017 6.24036 8.05726 6.55901 7.97843C7.54046 7.93317 8.53969 7.97526 9.52335 7.97663L55.8624 7.97759C56.8921 7.97694 57.9382 7.93855 58.9657 7.98626C60.6618 8.06503 60.1579 10.3195 60.1583 11.584L60.1567 16.7964C60.8007 16.8347 61.4659 16.7982 62.1122 16.798L78.1624 16.7958C84.7432 16.7892 82.5538 16.1209 87.3554 20.9729L91.562 25.2304C92.1276 25.8009 94.1643 27.6849 94.4083 28.205C94.5854 28.5829 94.4829 74.0833 94.4829 78.404L94.4811 86.7425C94.4809 87.9284 94.9858 91.2774 93.7528 91.7819C93.4981 91.8862 86.0761 91.8134 85.1239 91.8132L46.4266 91.8149C45.1237 91.8153 41.5505 92.0499 40.4958 91.6048C39.8934 90.804 40.1427 88.9126 40.1425 87.9409L40.144 22.9247L40.1403 19.6038C40.1239 16.4065 40.0358 16.7923 43.0661 16.7947L58.1532 16.7964V9.9979C57.5907 10.0299 57.0108 10.0003 56.4466 9.99909L18.5417 9.99796C14.9015 10 11.2572 9.95933 7.61747 9.9979V81.2331C8.43132 81.3015 9.29534 81.236 10.1154 81.2351L31.8122 81.2337C33.03 81.2327 37.3388 81.0884 38.1513 81.3911C40.5573 83.8628 33.9632 83.1921 33.1565 83.1923L12.434 83.1942C10.6273 83.1944 8.80997 83.2362 7.00436 83.1909C5.34932 83.1497 5.62128 81.369 5.60651 80.1981C5.54456 75.2833 5.60055 70.3599 5.60044 65.4442L5.59952 12.5627C5.59907 11.4174 5.37987 9.4528 5.8002 8.39806ZM42.1298 18.7964V89.794L86.9753 89.7933C88.8065 89.7934 90.6536 89.8528 92.4829 89.794V29.5169C91.7929 29.4776 91.0958 29.5132 90.4044 29.5159L86.6097 29.5226C85.8352 29.5239 84.9374 29.62 84.1829 29.4343C81.437 28.7579 81.8183 26.071 81.8347 24.005C81.8485 22.2733 81.8813 20.527 81.8378 18.7964C80.4542 18.7038 79.0112 18.7948 77.6218 18.7955L42.1298 18.7964ZM83.8227 20.2421L83.8216 24.5362C83.8206 25.6667 83.6554 26.5542 84.2925 27.5382C85.0581 27.5794 85.839 27.5413 86.6061 27.5397L91.028 27.5382C89.0991 25.4253 86.0218 22.0868 83.8227 20.2421Z" fill="white"/>
<path d="M18.7257 30.7129L35.2458 30.7098C35.8909 30.7096 37.8097 30.4655 38.2569 31.0436C38.5276 31.3936 38.5175 32.2565 38.1091 32.5174C37.5399 32.8813 32.8536 32.667 31.9056 32.6668L16.2581 32.6686C14.9285 32.6696 12.7639 33.233 12.6555 31.5834C12.6053 30.8178 12.5793 24.4944 12.6897 24.1799C12.8145 23.8245 13.0613 23.6827 13.3895 23.5346C14.2343 23.4639 15.14 23.5334 15.9927 23.5336L30.7593 23.5334C31.538 23.5336 36.0313 23.3698 36.4739 23.6553C36.9761 23.9795 36.9864 24.4159 36.8593 24.9664C36.1595 25.8166 34.7149 25.4905 33.7231 25.4895L14.5997 25.4868V30.7129C15.96 30.609 17.3598 30.7108 18.7257 30.7129Z" fill="white"/>
<path d="M86.8168 40.3806C83.8365 40.438 80.843 40.3814 77.8612 40.3812L52.1981 40.3778C46.618 40.3755 47.2639 41.3646 47.2633 35.8306C47.2631 34.4778 46.7065 31.2226 48.0457 30.713C48.6047 30.7411 49.1803 30.7142 49.7414 30.7138L63.3285 30.7146C64.3565 30.7146 68.8666 30.4142 69.5045 31.0048C69.984 31.4486 69.8949 32.139 69.449 32.5583C68.9444 33.0329 64.9092 32.663 64.0596 32.664L49.2192 32.6655V38.3409H69.6049L84.393 38.3378C85.2803 38.3368 87.7436 37.9941 87.4401 39.5396C87.3578 39.9581 87.1676 40.157 86.8168 40.3806Z" fill="white"/>
<path d="M13.111 38.5746C12.5476 38.2055 12.2832 37.3684 12.8315 36.8469C13.2346 36.4635 14.8511 36.6424 15.3868 36.6426L19.5988 36.6463L35.2787 36.6446C36.1295 36.6434 38.341 36.2637 38.4181 37.5033C38.5089 38.9631 36.6656 38.5764 35.7552 38.5764L31.3236 38.5746H13.111Z" fill="white"/>
<path d="M13.1109 42.6032H14.0422L35.3635 42.6008C36.4766 42.5996 37.8409 42.2063 38.4698 43.3446C38.4829 43.5424 38.4721 43.7442 38.4698 43.9424C38.1069 44.4221 37.7915 44.5946 37.1706 44.4826L19.9077 44.4803C18.6194 44.4793 17.3285 44.4637 16.0405 44.4879C14.6465 44.5141 12.7923 45.1496 12.4678 43.4996C12.5602 43.0662 12.7259 42.8383 13.1109 42.6032Z" fill="white"/>
<path d="M47.2654 46.0107C47.0515 45.2318 47.2531 44.7115 48.0449 44.4826L82.795 44.4834C84.1232 44.4832 87.0163 43.906 87.4327 45.284C87.3728 45.834 87.2681 46.2293 86.6911 46.4359C86.248 46.497 85.7585 46.4445 85.3101 46.442L50.8673 46.4385C49.6917 46.4385 48.265 46.7398 47.2654 46.0107Z" fill="white"/>
<path d="M12.468 49.8832C12.1595 47.8164 15.3787 48.509 16.8004 48.5088L24.5723 48.51L35.8432 48.5161C36.4462 48.5106 37.6538 48.2975 38.1401 48.7582C38.5714 49.1668 38.579 49.8207 38.171 50.2397C37.6112 50.8147 34.321 50.5295 33.5044 50.5282L26.5506 50.5289L18.545 50.5299C17.0698 50.5299 13.4501 50.9592 12.468 49.8832Z" fill="white"/>
<path d="M47.1777 51.8476C47.276 50.0771 48.799 50.5237 50.1645 50.5292C51.4637 50.5905 52.7922 50.5296 54.0945 50.5294L86.6912 50.5292C86.9684 50.6851 87.1988 50.8493 87.4328 51.0647C87.4617 51.3267 87.4447 51.5851 87.4328 51.8476C87.2637 52.1214 87.0686 52.3394 86.816 52.539C86.0375 52.5927 85.2291 52.5435 84.4479 52.539H60.0477C55.9951 52.539 51.9301 52.6132 47.8797 52.539C47.5723 52.3405 47.3555 52.1784 47.1777 51.8476Z" fill="white"/>
<path d="M13.1104 54.3954C13.608 54.4114 14.1019 54.4065 14.5994 54.3954L35.3591 54.3952C36.199 54.395 37.048 54.3575 37.8861 54.3954C38.498 55.0182 38.6611 55.5989 38.1509 56.3598C37.6476 56.41 37.1378 56.3762 36.6332 56.3598C34.7263 56.2887 32.7915 56.3582 30.8808 56.3584L15.3749 56.3606C14.5616 56.3627 12.266 56.6913 12.4731 55.2922C12.5377 54.8563 12.7758 54.6424 13.1104 54.3954Z" fill="white"/>
<path d="M47.1777 57.6985C47.2885 57.0854 47.4289 56.8868 48.0449 56.6893C50.1094 56.6333 52.1932 56.6889 54.2594 56.6891L79.5594 56.6897C80.6891 56.6897 86.199 56.4641 86.9338 56.8169C87.7607 57.2141 87.5072 58.4563 86.6912 58.6961L52.0404 58.6956C50.6021 58.6919 47.5691 59.3192 47.1777 57.6985Z" fill="white"/>
<path d="M28.8609 70.5744C28.0136 72.1061 26.4685 73.8289 24.6912 74.1348C19.4344 75.0398 23.672 62.9906 28.4708 62.3676C29.3539 62.2207 30.2478 62.8693 30.5816 63.6512C31.3974 65.5617 30.2658 67.5773 29.5697 69.3332C31.5076 69.3941 32.9789 66.024 33.4265 68.3369C33.6658 69.5736 35.431 68.1883 36.0052 67.9557C38.233 67.0531 39.1253 69.3262 37.9539 69.6174C37.5906 69.7076 37.4716 69.4465 37.1919 69.3244C36.3984 68.9781 35.1455 71.2566 32.5529 69.8842L32.5046 69.8434C31.3482 70.6863 30.2886 71.0754 28.8609 70.5744ZM28.4708 63.8139C25.6437 64.7125 22.2044 73.0424 24.5716 72.5738C27.7886 71.3961 30.8027 63.8791 28.4708 63.8139Z" fill="white"/>
<path d="M47.2656 63.1683C47.5221 63.0346 47.7705 62.932 48.0451 62.8412H85.2781C86.026 62.8379 87.1014 62.6222 87.4188 63.5406C87.6227 64.1308 87.2533 64.6449 86.6914 64.8273C85.6836 64.8603 84.6676 64.8289 83.659 64.8281H51.9684C50.5709 64.8306 46.4254 65.6082 47.2656 63.1683Z" fill="white"/>
<path d="M68.6682 76.9687C67.9088 78.5878 66.744 79.5542 64.8186 79.2542C63.5233 79.0523 63.8381 78.9843 63.0559 80.0185C62.0008 81.4134 59.8697 83.7216 57.9877 82.3158C55.1238 80.1761 59.5863 70.6986 63.7438 70.0845C64.761 69.872 65.7047 70.7804 66.0414 71.6511C66.7694 73.5337 65.6688 75.6081 64.9102 77.3054C67.4137 77.6712 66.2742 75.6134 67.8385 75.1359C69.2662 74.7001 69.9701 75.9242 71.2736 75.8159C73.7324 75.6118 76.5346 73.5109 79.2518 75.2958C79.601 75.9046 79.4563 76.3267 78.9404 76.7816C78.2971 76.9118 77.75 76.6525 77.1172 76.5812C75.6733 76.4181 73.402 77.0906 72.0606 77.7829C70.677 77.9283 69.8563 77.6144 68.6682 76.9687ZM63.7438 71.5855C59.9385 73.1988 56.926 81.9695 59.5352 81.2331C63.0403 79.048 66.542 71.2554 63.7438 71.5855Z" fill="white"/>
</svg>
