<svg width="91" height="91" viewBox="0 0 91 91" fill="none" xmlns="http://www.w3.org/2000/svg">
<path d="M17.0625 81.5209L32.2292 66.3542M39.8125 66.3542L54.9792 81.5209M36.0208 66.3542L36.0208 85.3125" stroke="white" stroke-width="1.5" stroke-linecap="round" stroke-linejoin="round"/>
<path d="M7.58337 45.026C7.58337 37.2061 7.58337 33.2962 11.4703 30.8668C15.3572 28.4375 21.6132 28.4375 34.125 28.4375H37.9167C50.4286 28.4375 56.6845 28.4375 60.5714 30.8668C64.4584 33.2962 64.4584 37.2061 64.4584 45.026V49.7656C64.4584 57.5855 64.4584 61.4955 60.5714 63.9248C56.6845 66.3542 50.4286 66.3542 37.9167 66.3542H34.125C21.6132 66.3542 15.3572 66.3542 11.4703 63.9248C7.58337 61.4955 7.58337 57.5855 7.58337 49.7656V45.026Z" stroke="white" stroke-width="1.5"/>
<path d="M64.4584 38.8628L64.9358 38.5763C72.9581 33.7623 76.9692 31.3554 80.193 32.5176C83.4167 33.6798 83.4167 37.5328 83.4167 45.239V49.5514C83.4167 57.2575 83.4167 61.1106 80.193 62.2728C76.9692 63.435 72.9581 61.028 64.9358 56.214L64.4584 55.9275" stroke="white" stroke-width="1.5" stroke-linecap="round"/>
<circle cx="47.3959" cy="18.9584" r="9.47917" stroke="white" stroke-width="1.5"/>
<circle cx="26.5417" cy="17.0625" r="11.375" stroke="white" stroke-width="1.5"/>
<path d="M40.3144 48.4606C40.1188 49.1918 39.194 49.7085 37.3446 50.7419C35.5567 51.7409 34.6628 52.2403 33.9424 52.0396C33.6446 51.9566 33.3732 51.7989 33.1543 51.5817C32.625 51.0565 32.625 50.0377 32.625 48C32.625 45.9624 32.625 44.9436 33.1543 44.4183C33.3732 44.2011 33.6446 44.0435 33.9424 43.9605C34.6628 43.7597 35.5567 44.2592 37.3446 45.2582C39.194 46.2915 40.1188 46.8082 40.3144 47.5394C40.3952 47.8413 40.3952 48.1588 40.3144 48.4606Z" stroke="white" stroke-width="1.5" stroke-linejoin="round"/>
<path d="M24.2291 48C24.2291 42.7753 24.2291 40.1629 26.0261 38.5398C27.8232 36.9167 30.7154 36.9167 36.5 36.9167C42.2845 36.9167 45.1768 36.9167 46.9738 38.5398C48.7708 40.1629 48.7708 42.7753 48.7708 48C48.7708 53.2248 48.7708 55.8371 46.9738 57.4602C45.1768 59.0834 42.2845 59.0834 36.5 59.0834C30.7154 59.0834 27.8232 59.0834 26.0261 57.4602C24.2291 55.8371 24.2291 53.2248 24.2291 48Z" stroke="white" stroke-width="1.5"/>
</svg>
