<svg width="40" height="40" viewBox="0 0 40 40" fill="none" xmlns="http://www.w3.org/2000/svg">
<path d="M6.25 0.5H33.75C36.9256 0.5 39.5 3.07436 39.5 6.25V33.75C39.5 36.9256 36.9256 39.5 33.75 39.5H6.25C3.07436 39.5 0.5 36.9256 0.5 33.75V6.25C0.5 3.07436 3.07436 0.5 6.25 0.5ZM20 9.5C14.2239 9.5 9.5 14.2239 9.5 20C9.5 21.4864 9.84184 22.9676 10.4541 24.3086C10.6857 24.8157 10.7581 25.3563 10.624 25.8438C10.0305 28.0024 11.9983 29.994 14.1641 29.4268L14.4404 29.3535C14.921 29.2276 15.4447 29.2849 15.9365 29.4902C17.2274 30.0292 18.606 30.375 20 30.375C25.7761 30.375 30.5 25.6511 30.5 19.875C30.5 17.1054 29.3135 14.4814 27.3535 12.5215C25.382 10.55 22.7537 9.5 20 9.5ZM20 12.375C22.1064 12.375 23.9847 13.1894 25.5254 14.6074C27.0464 16.1305 27.75 17.9985 27.75 20.125C27.75 24.2239 24.3489 27.75 20 27.75C18.5799 27.75 17.1705 27.3945 16.0068 26.6963L15.9912 26.6865L15.9736 26.6777L15.8701 26.6318C15.624 26.536 15.352 26.522 15.0957 26.5938L14.6309 26.7236C13.9669 26.9096 13.357 26.2938 13.5498 25.6318L13.6035 25.4473C13.7238 25.0345 13.6568 24.5905 13.4209 24.2314H13.4219C12.6029 22.9444 12.25 21.5395 12.25 20.125C12.25 15.9011 15.7761 12.375 20 12.375ZM16.625 15.125C16.4612 15.125 16.0404 15.1275 15.6465 15.5215C15.364 15.8039 14.625 16.5505 14.625 18C14.625 19.2019 15.3133 20.2696 15.5811 20.6924C15.5889 20.7048 15.5973 20.7172 15.6045 20.7285V20.7275C15.6758 20.8403 15.7514 20.9566 15.832 21.0693C16.2521 21.6568 17.8446 23.8975 20.1846 24.8359V24.8369C21.0847 25.2075 21.7017 25.3912 22.1631 25.4736C22.6394 25.5587 22.9361 25.5331 23.167 25.5127C23.2568 25.5048 23.316 25.5 23.375 25.5C23.5905 25.5 23.8143 25.4358 24.0078 25.3584C24.2092 25.2778 24.4157 25.1675 24.6055 25.041C24.7945 24.915 24.9792 24.7656 25.1309 24.6016C25.2695 24.4516 25.4096 24.2554 25.4746 24.0273C25.5095 23.9379 25.5429 23.8514 25.5693 23.7666C25.6798 23.4125 25.6782 22.9767 25.5811 22.5977C25.4877 22.2337 25.2666 21.7843 24.8105 21.5918C24.77 21.5747 24.7459 21.5639 24.7236 21.5527C24.5667 21.4742 23.9912 21.1866 23.5225 20.9854C23.3729 20.9212 23.0832 20.7823 22.8203 20.7266C22.6833 20.6975 22.4979 20.6777 22.3066 20.7314C22.0916 20.792 21.911 20.9348 21.8027 21.1514C21.7948 21.1673 21.7662 21.213 21.7021 21.2959C21.6425 21.3731 21.5707 21.4593 21.4912 21.5547C21.4017 21.6621 21.3003 21.784 21.2178 21.8945C21.204 21.913 21.1906 21.9311 21.1797 21.9463C21.1679 21.9628 21.1587 21.9756 21.1494 21.9883C21.147 21.9916 21.1438 21.9941 21.1416 21.9971C21.1253 21.9966 21.0946 21.9928 21.0488 21.9727C20.7325 21.8333 20.1184 21.5646 19.3291 20.874L19.3203 20.8662L19.0771 20.6455C18.589 20.1647 18.245 19.5955 18.1104 19.3457L18.4785 18.9785C18.6041 18.853 18.6659 18.7238 18.6973 18.6611C18.7055 18.6446 18.7109 18.6343 18.7158 18.625C18.7203 18.6166 18.7228 18.6113 18.7246 18.6084C18.7272 18.6042 18.7281 18.604 18.7285 18.6035C18.8629 18.4692 18.9307 18.3008 18.9307 18.125C18.9307 17.9876 18.8852 17.8667 18.877 17.8418C18.8733 17.8307 18.8717 17.8245 18.8701 17.8193L18.8721 17.834C18.8724 17.8365 18.8717 17.8396 18.8721 17.8428H18.8711C18.8667 17.7709 18.8524 17.7084 18.8477 17.6904C18.8371 17.6506 18.8231 17.6065 18.8086 17.5625C18.7793 17.4735 18.7398 17.3626 18.6943 17.2422C18.6029 16.9999 18.4827 16.7015 18.3652 16.4248C18.3018 16.2753 18.187 15.9457 18.0488 15.7119C17.8978 15.4565 17.615 15.125 17.125 15.125H16.625Z" fill="#238326" stroke="#238326"/>
</svg>
