<svg width="26" height="26" viewBox="0 0 26 26" fill="none" xmlns="http://www.w3.org/2000/svg">
<path d="M4.0625 0.5H21.9375C23.905 0.5 25.5 2.09499 25.5 4.0625V21.9375C25.5 23.905 23.905 25.5 21.9375 25.5H4.0625C2.09499 25.5 0.5 23.905 0.5 21.9375V4.0625C0.5 2.09499 2.09499 0.5 4.0625 0.5ZM13 6C9.14886 6 6 9.14886 6 13C6 13.8687 6.17524 14.7332 6.49219 15.5342L6.63672 15.874C6.75678 16.1372 6.80025 16.4062 6.75977 16.6494L6.7373 16.752C6.32883 18.2373 7.6273 19.6113 9.10742 19.3291L9.25098 19.2969L9.43066 19.249C9.66655 19.1873 9.92668 19.2029 10.1826 19.2891L10.291 19.3301C11.1457 19.6869 12.0652 19.9189 13 19.9189C16.8511 19.9189 19.9999 16.77 20 12.9189C20 11.0682 19.207 9.31931 17.9033 8.01562C16.5881 6.70037 14.8349 6 13 6ZM13 8.21875C14.3189 8.21875 15.4969 8.72722 16.4688 9.62012C17.4211 10.5744 17.8623 11.7421 17.8623 13.0811C17.8623 15.6487 15.7301 17.8623 13 17.8623C12.105 17.8623 11.2212 17.6378 10.4951 17.2021L10.4785 17.1924L10.4609 17.1836L10.3789 17.1475C10.2115 17.0823 10.0292 17.0654 9.85254 17.0977L9.76562 17.1172L9.46289 17.2021C9.1823 17.2807 8.9237 17.0417 8.96387 16.7656L8.97559 16.71L9.01074 16.5898C9.10307 16.2731 9.05152 15.9321 8.87109 15.6562H8.87207C8.35935 14.8505 8.1377 13.9705 8.1377 13.0811C8.1378 10.4323 10.3512 8.21875 13 8.21875ZM10.8066 9.65625C10.7015 9.65625 10.4329 9.65834 10.1621 9.86426L10.0469 9.96484C9.85192 10.1598 9.33105 10.6882 9.33105 11.7002C9.33111 12.3294 9.60014 12.9 9.80664 13.2598L9.98047 13.5439L9.99512 13.5664L10.1484 13.7969C10.4195 14.176 11.4817 15.677 13.0576 16.3076V16.3066C13.6468 16.549 14.0589 16.674 14.375 16.7305C14.5407 16.7601 14.6765 16.7703 14.79 16.7715L15.0732 16.7578C15.1327 16.7526 15.1641 16.75 15.1934 16.75C15.365 16.75 15.5345 16.6997 15.6699 16.6455C15.8132 16.5882 15.9585 16.5101 16.0908 16.4219C16.2224 16.3341 16.354 16.2283 16.4639 16.1094C16.5557 16.01 16.6562 15.8714 16.7129 15.7031L16.7139 15.7041L16.7871 15.5C16.8698 15.2347 16.8669 14.9186 16.7969 14.6455C16.7389 14.4194 16.6053 14.1171 16.3242 13.9404L16.1953 13.873L16.1484 13.8525C16.0976 13.8271 15.9778 13.7674 15.832 13.6973L15.3584 13.4795C15.2733 13.4429 15.0626 13.3427 14.8701 13.3018C14.7682 13.2801 14.6153 13.2608 14.4521 13.3066C14.2886 13.3527 14.1474 13.4546 14.0527 13.6035L14.0156 13.6699C14.0189 13.6634 14.0177 13.6661 14.0078 13.6807C13.9986 13.6942 13.9856 13.7123 13.9678 13.7354L13.835 13.8984C13.7871 13.9559 13.7311 14.0237 13.6807 14.0889C13.4989 14.007 13.2146 13.8678 12.8594 13.5859L12.6797 13.4365L12.6699 13.4287L12.5215 13.293C12.2808 13.0555 12.0956 12.781 11.9893 12.6035L12.1348 12.46C12.2384 12.3563 12.2891 12.2489 12.3096 12.208C12.3122 12.2027 12.3147 12.1988 12.3164 12.1953C12.3179 12.1923 12.3185 12.19 12.3193 12.1885L12.3105 12.2012C12.3091 12.203 12.3072 12.2043 12.3057 12.2061L12.2969 12.2158C12.4167 12.096 12.4795 11.9424 12.4795 11.7812C12.4795 11.6592 12.4404 11.5535 12.4365 11.542L12.4346 11.5381C12.4282 11.4943 12.4219 11.4614 12.4199 11.4541C12.4118 11.4235 12.4015 11.3915 12.3916 11.3613C12.3715 11.3 12.3454 11.2249 12.3154 11.1455L12.0986 10.6074C12.0661 10.5308 11.9802 10.2889 11.8828 10.124C11.7725 9.9374 11.5416 9.65625 11.1309 9.65625H10.8066Z" fill="#666666" stroke="#666666"/>
</svg>
