<svg width="26" height="26" viewBox="0 0 26 26" fill="none" xmlns="http://www.w3.org/2000/svg">
<path d="M15.1125 13L11.7 11.05V14.95L15.1125 13Z" fill="#666666"/>
<path fill-rule="evenodd" clip-rule="evenodd" d="M0 4.0625C0 1.81884 1.81884 0 4.0625 0H21.9375C24.1812 0 26 1.81884 26 4.0625V21.9375C26 24.1812 24.1812 26 21.9375 26H4.0625C1.81884 26 0 24.1812 0 21.9375V4.0625ZM18.0375 8.69375C18.6063 8.85625 19.0125 9.2625 19.175 9.83125C19.5 10.8875 19.5 13 19.5 13C19.5 13 19.5 15.1125 19.2563 16.1688C19.0938 16.7375 18.6875 17.1438 18.1187 17.3063C17.0625 17.55 13 17.55 13 17.55C13 17.55 8.85625 17.55 7.88125 17.3063C7.3125 17.1438 6.90625 16.7375 6.74375 16.1688C6.5 15.1125 6.5 13 6.5 13C6.5 13 6.5 10.8875 6.6625 9.83125C6.825 9.2625 7.23126 8.85625 7.8 8.69375C8.85626 8.45 12.9187 8.45 12.9187 8.45C12.9187 8.45 17.0625 8.45 18.0375 8.69375Z" fill="#666666"/>
</svg>
