<svg width="40" height="40" viewBox="0 0 40 40" fill="none" xmlns="http://www.w3.org/2000/svg">
<g clip-path="url(#clip0_6602_34)">
<path d="M16.75 20L22 17V23L16.75 20Z" fill="url(#paint0_linear_6602_34)"/>
<path fill-rule="evenodd" clip-rule="evenodd" d="M40 6.25C40 2.79822 37.2018 0 33.75 0H6.25C2.79822 0 0 2.79822 0 6.25V33.75C0 37.2018 2.79822 40 6.25 40H33.75C37.2018 40 40 37.2018 40 33.75V6.25ZM12.25 13.375C11.375 13.625 10.75 14.25 10.5 15.125C9.99999 16.75 10 20 10 20C10 20 9.99998 23.25 10.375 24.875C10.625 25.75 11.25 26.375 12.125 26.625C13.75 27 20 27 20 27C20 27 26.375 27 27.875 26.625C28.75 26.375 29.375 25.75 29.625 24.875C30 23.25 30 20 30 20C30 20 30 16.75 29.75 15.125C29.5 14.25 28.875 13.625 28 13.375C26.375 13 20.125 13 20.125 13C20.125 13 13.75 13 12.25 13.375Z" fill="url(#paint1_linear_6602_34)"/>
<mask id="mask0_6602_34" style="mask-type:luminance" maskUnits="userSpaceOnUse" x="0" y="0" width="40" height="40">
<path d="M30.303 0H9.69697C4.34148 0 0 4.34148 0 9.69697V30.303C0 35.6585 4.34148 40 9.69697 40H30.303C35.6585 40 40 35.6585 40 30.303V9.69697C40 4.34148 35.6585 0 30.303 0Z" fill="white"/>
</mask>
<g mask="url(#mask0_6602_34)">
<path d="M40 0H0V40H40V0Z" fill="#666666"/>
<path d="M40 20C51.0458 20 60 11.0457 60 7.62939e-06C60 -11.0457 51.0458 -20 40 -20C28.9543 -20 20 -11.0457 20 7.62939e-06C20 11.0457 28.9543 20 40 20Z" fill="#ED143B"/>
<path d="M24.7079 19.0868H12.8905V14.4105H24.7079C25.3982 14.4105 25.8781 14.5308 26.119 14.7409C26.3599 14.9511 26.5091 15.3408 26.5091 15.91V17.5891C26.5091 18.1889 26.3599 18.5786 26.119 18.7887C25.8781 18.9988 25.3982 19.0886 24.7079 19.0886V19.0868ZM25.5186 10.0018H7.87878V30H12.8905V23.4938H22.1265L26.5091 30H32.1212L27.2893 23.4632C29.0707 23.1992 29.8706 22.6533 30.5303 21.7536C31.19 20.8539 31.5209 19.4155 31.5209 17.4957V15.9962C31.5209 14.8577 31.4003 13.958 31.19 13.2684C30.9797 12.5788 30.6203 11.979 30.1097 11.4402C29.5704 10.9302 28.97 10.5711 28.2492 10.3304C27.5283 10.1203 26.6278 10 25.5186 10V10.0018Z" fill="white"/>
</g>
</g>
<defs>
<linearGradient id="paint0_linear_6602_34" x1="20" y1="0" x2="0.499999" y2="27.5" gradientUnits="userSpaceOnUse">
<stop stop-color="#ED143B"/>
<stop offset="0.0884157" stop-color="#666666"/>
<stop offset="0.576923" stop-color="#666666"/>
</linearGradient>
<linearGradient id="paint1_linear_6602_34" x1="20" y1="0" x2="0.499999" y2="27.5" gradientUnits="userSpaceOnUse">
<stop stop-color="#ED143B"/>
<stop offset="0.0884157" stop-color="#666666"/>
<stop offset="0.576923" stop-color="#666666"/>
</linearGradient>
<clipPath id="clip0_6602_34">
<rect width="40" height="40" fill="white"/>
</clipPath>
</defs>
</svg>
